<svg xmlns="http://www.w3.org/2000/svg" width="247.641" height="61.965" viewBox="0 0 247.641 61.965">
  <g id="Gruppe_4" data-name="Gruppe 4" transform="translate(-109.406 -160.124)">
    <path id="Pfad_7" data-name="Pfad 7" d="M64.816,517.8h40.975v2.938c-4.819.244-7.778,2.194-9.552,6.1L96.107,539l7.178,3.551,8.268-24.751h9.78l7.846,31.081-.4-7.167c.506-29,21.077-25.208,37.878-23.308l3.836,13.879-4.45.083c.391-6.82-2.422-7.671-7.313-9.082a10.775,10.775,0,0,0-11.406,2.988,11.084,11.084,0,0,0-3.362,7.553l-.029,13.31c-1.409,8.754,9.788,16.26,17.786,9.351l.28-3.853c-.513-2.717-2.917-2.743-5.136-2.781l.222-2.97,17.072.323L174,550.069c-2.246.16-2.694,1.2-2.836,3.072-.7,13.382,1.4,20.1-17.666,22.274H64.816l-.009-1.954c4.031.468,7.766-1.832,8-5.248l.4-41.57c-1.423-4.3-4.88-5.232-8.4-6.065Z" transform="translate(67.433 -356.998)" fill="#fafafa" fill-rule="evenodd"/>
    <path id="Pfad_8" data-name="Pfad 8" d="M95.131,556.878c-2.067-.035-2.159-.516-3.505-1.541-.5-.383-.933-.66-1.475-1.006a5.909,5.909,0,0,0-.858-.419,3.454,3.454,0,0,0-1.038-.25,10.213,10.213,0,0,0-2.151.2c-1.107.164-2.094.363-3.226.47-.346.032-.807.025-1.177.075a5.906,5.906,0,0,1-2.229-.267c-.117-.121-.148-1.334-.458-2.186a8.346,8.346,0,0,1-.6-2.111c0-.251.477-.463.8-.8.767-.808.1-.659,2.566-.608.61.013.972-.051,1.605-.039,1.145.021,2.131-.03,3.209-.012.534.009,1.07.017,1.6.028.609.012.972-.051,1.605-.04q1.6.03,3.207.056c2.058.035,4.315-.048,6.418-.024.55.006.927.084,1.535.094l4.009.069c.371.006,5.408-.018,5.747-.012a16.246,16.246,0,0,0-5.621,2.264,40.817,40.817,0,0,0-4.764,4.169A7.634,7.634,0,0,1,95.131,556.878Zm52.8-9.676,0,.235a5.839,5.839,0,0,0-.038.681.942.942,0,0,1-.255.835c-.5-.009-.774-.207-1.265-.224-.517-.018-.8-.079-1.337-.088-3.391-.059-24.293-.144-27.7-.2.271.244.206.13.525.3,3.142.63,9.669,3.345,9.29,6.317-3.879,5.3-10.631-4.163-7.68-1.173.993.646,5.6,1.965,4.4-.52-11.562-9.83-12.729,11.014-28.311,5.9-.266-.066-.834-.045-.874-.37-.27-.089-.237-.355-.517-.425.443,2.062.238,2.024-.759,3.908-.138.261-.232.447-.368.708a8.206,8.206,0,0,0-1.082,3.3c-.051,2.97,1.119,3.039,2.341,4.775.2.284.028.488-.095.747a26.331,26.331,0,0,0-1.342,4.12c-1.873,6.61.458,4.433.416,6.825-.03,1.768.025,1.765-.958,1.253a3.964,3.964,0,0,1-2.154-3.045l-.3-2.211a3.435,3.435,0,0,0-1.306,2.116c-.015.843.152.773.315,1.475.182.783-.754,2.309-1.583,2.313a12.8,12.8,0,0,1-.923-3.234,10.027,10.027,0,0,1,1.35-2.854,19.6,19.6,0,0,0,1.8-4.527,14.764,14.764,0,0,0,.586-1.5c-.245-.347-3.886-1.91-5.447-3.215a23.182,23.182,0,0,1-1.669-1.8c-.278-.287-.483-.7-.926-.594a11.6,11.6,0,0,0-1.285.448,19.675,19.675,0,0,1-4.144.948,30.677,30.677,0,0,1-6.382.332c-.982,1.413-2.174,3.841-1.872,5.554.355,2.015-.405,1.236,1.044,2.737,2.6,2.695,2.416,1.094,3.607,1.115.52.009,2.248,1.025,2.307,1.911a3.09,3.09,0,0,1-1.543.308c-.669.009-1.012.184-1.674.172-1.579-.027-2.611-1.026-3.59-2.051a12.826,12.826,0,0,0-1.367-1.243,6.6,6.6,0,0,1-1.383-1.227,1.823,1.823,0,0,0,.279-.664,11.639,11.639,0,0,0,.011-3.3c-.095-.625-.227-.9-.331-1.389-1.054.069-2.306,1.957-2.843,2.09a1.753,1.753,0,0,1,.04.648c-.275,1.786.841,3.685,1.575,5.217a6.71,6.71,0,0,0,1.109,1.885c2.151,2.212,1.484,1.145,2.2,1.158.369.007.6.5.806.733a2.742,2.742,0,0,1,.757,1.634c0,.21-.471.393-.675.389a7.146,7.146,0,0,1-1.161-.192c-2.021-.366-1.646-.707-2.967-1.864a4.121,4.121,0,0,1-1.3-2.29c-.713-2.176-1.976-3.251-2.492-4.689-.606-1.69-.615-2.185.347-3.569l1.92-2.773a12.217,12.217,0,0,0,.8-1.551,8.817,8.817,0,0,1-2.806-3.269,8.717,8.717,0,0,1-.851-2.2c-.824-2.761-1.22-2.281-2.04-4.009-.557-1.174-1.169-2.308-1.823-3.43-1.9-3.264-.8-2.221-3.029-1.614-1.147.313-2.608.291-3.758.6-.913.244-.945.759-1.443.751A1.559,1.559,0,0,1,46.8,552.9c.018-1.051,1.1-1.888,1.765-2.526a18.84,18.84,0,0,0,1.994-2.222l-7.49.206c-1.726-.039-3.39.075-5.082.045L15.015,548.2c-.309.037-1.466-.037-1.808.008-4.437-.079-9.239-.446-12.9-.815.17-.6.721-.39,1.4-.454,3.347-.31,6.875-.491,10.105-.831a4.618,4.618,0,0,1,1.615-.024c1.237.037,2.488-.029,3.679-.006.624.012,11.407.225,12.03.235l1.738-.037c1.152-.042,2.5.044,3.676.064l11.093.191c.684.012,1.113-.048,1.805-.036l1.8.031c.684.013,1.112-.048,1.805-.036.307.006.634.022.938.018.343,0,.412-.063.8-.057.313.005.627.016.94.021.4.006.486-.059.865-.057a17.292,17.292,0,0,0,1.789.015,15.1,15.1,0,0,1,1.824-.017c.676.012,1.1-.05,1.738-.037a33.172,33.172,0,0,0,3.648.035,7.556,7.556,0,0,1,1.769.055c.529.053,1,.023,1.553.032.1-.386.481-.82.5-1.336a2.218,2.218,0,0,0-.083-1.064c-.515-.931-1.313-1.295-1.3-2.1.008-.451.146-.536.152-1.068,0-.5.036-.584.336-.808.581-.434,1.618-1.038,2.375-.627a5.951,5.951,0,0,1,1.817,1.6,14.374,14.374,0,0,1,1.273,2.187c.487.76,1.553-.467,4.245,1.221a19.042,19.042,0,0,1,2,1.481,3.916,3.916,0,0,0,.652.488,14.959,14.959,0,0,0,3.312.155c.456.01.612-.061,1.067-.051l3.479.064c.43.007.6-.063,1.067-.052,1.578.036,2.941-.019,4.479.011l3.411-.006c.43.007.6-.063,1.067-.051.757.017,1.516.027,2.273.04.815.014,1.384-.043,2.206-.029l2.339.04c.827.014,1.414-.043,2.206-.029l2.272.039c.822.014,1.391-.043,2.206-.029,1.593.028,2.958-.016,4.545.012,1.515.026,3.031.048,4.546.08.466.01.65-.061,1.135-.049.379.009.758.013,1.137.02,1.075.019,2.249-.1,3.277-.078l19.88.2c.292.006,1.848-.061,1.971-.091a3.16,3.16,0,0,1,.772-.062C147.844,546.616,147.926,546.886,147.935,547.2Zm-87.348,1.06c.335.006.466-.057.8-.056.684,0,3.223.091,3.6.055a3.743,3.743,0,0,1,.876-.038c.571.059,1.14.083,1.807.094.682,1.343,3.521,3.178,3.529,4.673a27.147,27.147,0,0,1-4.209-.941l-1.493-.92a15.806,15.806,0,0,1-1.955-1.091c-.793-.486-2.328-1.049-2.519-1.215A3.445,3.445,0,0,1,60.588,548.262Z" transform="translate(109.101 -362.662)" fill="#5d7454" fill-rule="evenodd"/>
    <g id="Gruppe_3" data-name="Gruppe 3" transform="translate(244.281 190.557)">
      <g id="Gruppe_1" data-name="Gruppe 1" transform="translate(2.411)">
        <path id="Pfad_132" data-name="Pfad 132" d="M2.566,659.948a.643.643,0,0,0-.36.118.351.351,0,0,0-.177.3v8.53a.361.361,0,0,0,.157.3.557.557,0,0,0,.341.118v.17l-1.153-.039q-.131,0-1.14.039v-.17a.615.615,0,0,0,.354-.118.356.356,0,0,0,.171-.3v-8.53a.362.362,0,0,0-.157-.3.558.558,0,0,0-.341-.118v-.17q.969.025,1.1.026t1.206-.026v.17Z" transform="translate(-0.234 -659.502)" fill="#fafafa"/>
        <path id="Pfad_133" data-name="Pfad 133" d="M11.74,659.948a.646.646,0,0,0-.36.118.352.352,0,0,0-.177.3v9.605q-.223-.406-.891-1.455l-3.774-5.673q-.157-.2-1.114-1.887.066,1.349.066,2.148v5.779a.366.366,0,0,0,.157.294.54.54,0,0,0,.341.125v.17q-.708-.026-.786-.026t-.773.026v-.17a.611.611,0,0,0,.354-.118.354.354,0,0,0,.171-.3v-8.518a.362.362,0,0,0-.157-.3.557.557,0,0,0-.341-.118v-.17q.773.039.865.039t.76-.039L9.6,665.229q.419.642.478.753t.661,1.317q-.065-1.507-.065-2.214v-4.717a.362.362,0,0,0-.157-.3.555.555,0,0,0-.34-.118v-.17q.707.025.786.026t.773-.026v.169Z" transform="translate(-1.9 -659.502)" fill="#fafafa"/>
        <path id="Pfad_134" data-name="Pfad 134" d="M22.9,659.32l-.131,1.572h-.17v-.236q0-.786-.249-.786H20.669q.052.563.052,1V668.7a.357.357,0,0,0,.163.3.582.582,0,0,0,.347.118v.17H18.925v-.17a.642.642,0,0,0,.36-.118.35.35,0,0,0,.177-.3v-7.836q0-.446.052-1H17.8q-.157,0-.3.445a2.035,2.035,0,0,0-.118.576h-.17l.131-1.572h.171v.027q0,.17.052.21a.455.455,0,0,0,.236.039h4.521q.406,0,.406-.275h.17Z" transform="translate(-6.976 -659.32)" fill="#fafafa"/>
        <path id="Pfad_135" data-name="Pfad 135" d="M33.221,668.177l-.1,1.3H27.338v-.17a.62.62,0,0,0,.36-.125.357.357,0,0,0,.177-.294v-8.517a.363.363,0,0,0-.164-.295.566.566,0,0,0-.347-.124v-.17h5.1l.1,1.3h-.118q-.145-.5-.2-.629-.184-.393-.459-.393H29.08q.052.59.052,1.048v2.608a6.417,6.417,0,0,1-.052.76h2.45q.407,0,.406-.655v-.1h.171l.144,1.834h-.171q-.065-.8-.485-.8H29.08a6.458,6.458,0,0,1,.052.72v2.751a4.394,4.394,0,0,1-.052.669q-.039.315.432.314h2.935q.275,0,.459-.393a4.33,4.33,0,0,0,.2-.629h.118Z" transform="translate(-10.999 -659.502)" fill="#fafafa"/>
        <path id="Pfad_136" data-name="Pfad 136" d="M42.447,662.582a3.04,3.04,0,0,0-.485-1.69,1.672,1.672,0,0,0-1.455-.839h-.72q.052.525.052.891v2.778a6.483,6.483,0,0,1-.052.773H41.15a1.124,1.124,0,0,0,1.022-.695,2.633,2.633,0,0,0,.275-1.218m2.018,6.892a2.929,2.929,0,0,1-1.35-.314,1.192,1.192,0,0,1-.746-1.074v-1.979a1.389,1.389,0,0,0-.387-.9,1.1,1.1,0,0,0-.832-.452H39.787a7.6,7.6,0,0,1,.052.826v3.3a.361.361,0,0,0,.157.3.554.554,0,0,0,.341.118v.17q-.983-.026-1.113-.026t-1.192.026v-.17a.642.642,0,0,0,.361-.118.35.35,0,0,0,.177-.3v-8.518a.367.367,0,0,0-.157-.295.54.54,0,0,0-.341-.124v-.17H41.7a1.754,1.754,0,0,1,1.494.865,2.929,2.929,0,0,1,.524,1.7A2.5,2.5,0,0,1,43.142,664a1.837,1.837,0,0,1-1.127.655,1.565,1.565,0,0,1,1.166.55,2.035,2.035,0,0,1,.459,1.39v1.755a.865.865,0,0,0,.825.957Z" transform="translate(-15.246 -659.502)" fill="#fafafa"/>
        <path id="Pfad_137" data-name="Pfad 137" d="M56.58,659.948a.646.646,0,0,0-.36.118.352.352,0,0,0-.177.3v9.605q-.222-.406-.891-1.455l-3.774-5.673q-.157-.2-1.114-1.887.066,1.349.066,2.148v5.779a.366.366,0,0,0,.157.294.54.54,0,0,0,.341.125v.17q-.708-.026-.786-.026t-.773.026v-.17a.612.612,0,0,0,.354-.118.354.354,0,0,0,.171-.3v-8.518a.362.362,0,0,0-.157-.3.557.557,0,0,0-.341-.118v-.17q.773.039.865.039t.76-.039l3.525,5.451q.42.642.478.753t.662,1.317q-.065-1.507-.065-2.214v-4.717a.362.362,0,0,0-.157-.3.557.557,0,0,0-.341-.118v-.17q.707.025.786.026t.773-.026v.169Z" transform="translate(-19.708 -659.502)" fill="#fafafa"/>
        <path id="Pfad_138" data-name="Pfad 138" d="M67.283,666.966q-.092-.184-.341-.865l-.629-1.887q-.288-.865-.577-1.716-.262-.812-.511-1.9-.38,1.65-1,3.564l-.6,1.86q-.052.2-.341.943h4Zm2.542,2.529q-1.009-.039-1.14-.039t-1.166.039v-.17q.406,0,.406-.236a.372.372,0,0,0-.013-.092l-.353-1.048a4.745,4.745,0,0,1-.184-.708h-4.18q-.014.131-.17.734l-.341,1v.079q0,.275.472.275v.17q-.734-.039-.826-.039t-.694.039v-.17q.458,0,.564-.328l2.856-8.883-.1-.314q.563.026.629.026t.642-.026l2.961,9.237q.092.288.642.289v.169Z" transform="translate(-24.62 -659.511)" fill="#fafafa"/>
        <path id="Pfad_139" data-name="Pfad 139" d="M81.32,659.32l-.131,1.572h-.171v-.236q0-.786-.249-.786H79.092q.052.563.052,1V668.7a.358.358,0,0,0,.163.3.585.585,0,0,0,.347.118v.17H77.349v-.17a.642.642,0,0,0,.36-.118.351.351,0,0,0,.177-.3v-7.836q0-.446.052-1H76.222q-.157,0-.3.445a2.035,2.035,0,0,0-.118.576h-.171l.131-1.572h.171v.027q0,.17.052.21a.455.455,0,0,0,.236.039h4.521q.406,0,.406-.275h.171Z" transform="translate(-30.179 -659.32)" fill="#fafafa"/>
        <path id="Pfad_140" data-name="Pfad 140" d="M88.2,659.948a.646.646,0,0,0-.361.118.352.352,0,0,0-.177.3v8.53a.361.361,0,0,0,.157.3.555.555,0,0,0,.341.118v.17l-1.153-.039c-.088,0-.467.013-1.14.039v-.17a.615.615,0,0,0,.354-.118.356.356,0,0,0,.171-.3v-8.53a.362.362,0,0,0-.157-.3.558.558,0,0,0-.341-.118v-.17q.969.025,1.1.026t1.206-.026v.17Z" transform="translate(-34.246 -659.502)" fill="#fafafa"/>
        <path id="Pfad_141" data-name="Pfad 141" d="M96.135,664.648a9.706,9.706,0,0,0-.445-3.172q-.511-1.506-1.546-1.506-1.809,0-2.071,3.669-.026.458-.026.891a8.606,8.606,0,0,0,.59,3.486q.511,1.153,1.389,1.153,1.847,0,2.083-3.695.026-.42.026-.825m1.389-.341a8.731,8.731,0,0,1-.445,3.223,3.134,3.134,0,0,1-2.437,1.887,5.478,5.478,0,0,1-1.022.1,2.429,2.429,0,0,1-2.306-1.3,6.808,6.808,0,0,1-.59-2.751q-.026-.459-.026-1.035a6.472,6.472,0,0,1,.629-3.237,3.248,3.248,0,0,1,2.332-1.507,4.392,4.392,0,0,1,.865-.092,2.547,2.547,0,0,1,2.45,1.612A7.361,7.361,0,0,1,97.524,664.307Z" transform="translate(-36.162 -659.433)" fill="#fafafa"/>
        <path id="Pfad_142" data-name="Pfad 142" d="M110.289,659.948a.646.646,0,0,0-.361.118.351.351,0,0,0-.177.3v9.605q-.222-.406-.891-1.455l-3.774-5.673q-.157-.2-1.114-1.887.065,1.349.066,2.148v5.779a.364.364,0,0,0,.157.294.537.537,0,0,0,.341.125v.17q-.708-.026-.786-.026t-.773.026v-.17a.612.612,0,0,0,.354-.118.354.354,0,0,0,.17-.3v-8.518a.362.362,0,0,0-.157-.3.557.557,0,0,0-.341-.118v-.17q.773.039.865.039t.76-.039l3.525,5.451q.42.642.478.753t.662,1.317q-.066-1.507-.065-2.214v-4.717a.362.362,0,0,0-.157-.3.557.557,0,0,0-.341-.118v-.17q.707.025.786.026t.773-.026v.169Z" transform="translate(-41.04 -659.502)" fill="#fafafa"/>
        <path id="Pfad_143" data-name="Pfad 143" d="M120.992,666.966q-.091-.184-.341-.865l-.629-1.887q-.288-.865-.576-1.716-.262-.812-.511-1.9-.38,1.65-1,3.564l-.6,1.86q-.052.2-.341.943h4Zm2.542,2.529q-1.009-.039-1.14-.039t-1.166.039v-.17q.406,0,.406-.236a.372.372,0,0,0-.013-.092l-.353-1.048a4.673,4.673,0,0,1-.184-.708H116.9q-.014.131-.171.734l-.341,1v.079q0,.275.472.275v.17q-.734-.039-.826-.039t-.694.039v-.17q.458,0,.564-.328l2.856-8.883-.1-.314q.563.026.629.026t.641-.026l2.962,9.237q.092.288.642.289v.169Z" transform="translate(-45.951 -659.511)" fill="#fafafa"/>
        <path id="Pfad_144" data-name="Pfad 144" d="M134.712,668.177l-.288,1.3h-5.254v-.17a.62.62,0,0,0,.361-.125.357.357,0,0,0,.177-.294v-8.517a.362.362,0,0,0-.157-.3.558.558,0,0,0-.341-.118v-.17l1.18.026q.118,0,1.113-.026v.17a.613.613,0,0,0-.353.118.355.355,0,0,0-.171.3v7.587a7.971,7.971,0,0,1-.052.931.329.329,0,0,0,.17.314h2.621q.537,0,.826-1.022h.17Z" transform="translate(-51.442 -659.502)" fill="#fafafa"/>
        <path id="Pfad_145" data-name="Pfad 145" d="M145.029,668.177l-.1,1.3h-5.779v-.17a.62.62,0,0,0,.361-.125.358.358,0,0,0,.177-.294v-8.517a.363.363,0,0,0-.163-.295.566.566,0,0,0-.347-.124v-.17h5.1l.1,1.3h-.118q-.144-.5-.2-.629-.184-.393-.459-.393h-2.713q.053.59.052,1.048v2.608a6.416,6.416,0,0,1-.052.76h2.451q.406,0,.406-.655v-.1h.171l.144,1.834h-.171q-.066-.8-.485-.8h-2.516a6.312,6.312,0,0,1,.052.72v2.751a4.393,4.393,0,0,1-.052.669q-.039.315.433.314h2.935q.275,0,.459-.393a4.334,4.334,0,0,0,.2-.629h.118Z" transform="translate(-55.404 -659.502)" fill="#fafafa"/>
        <path id="Pfad_163" data-name="Pfad 163" d="M2.566,659.948a.643.643,0,0,0-.36.118.351.351,0,0,0-.177.3v8.53a.361.361,0,0,0,.157.3.557.557,0,0,0,.341.118v.17l-1.153-.039q-.131,0-1.14.039v-.17a.615.615,0,0,0,.354-.118.356.356,0,0,0,.171-.3v-8.53a.362.362,0,0,0-.157-.3.558.558,0,0,0-.341-.118v-.17q.969.025,1.1.026t1.206-.026v.17Z" transform="translate(-0.234 -659.502)" fill="none"/>
        <path id="Pfad_164" data-name="Pfad 164" d="M11.74,659.948a.646.646,0,0,0-.36.118.352.352,0,0,0-.177.3v9.605q-.223-.406-.891-1.455l-3.774-5.673q-.157-.2-1.114-1.887.066,1.349.066,2.148v5.779a.366.366,0,0,0,.157.294.54.54,0,0,0,.341.125v.17q-.708-.026-.786-.026t-.773.026v-.17a.611.611,0,0,0,.354-.118.354.354,0,0,0,.171-.3v-8.518a.362.362,0,0,0-.157-.3.557.557,0,0,0-.341-.118v-.17q.773.039.865.039t.76-.039L9.6,665.229q.419.642.478.753t.661,1.317q-.065-1.507-.065-2.214v-4.717a.362.362,0,0,0-.157-.3.555.555,0,0,0-.34-.118v-.17q.707.025.786.026t.773-.026v.169Z" transform="translate(-1.9 -659.502)" fill="none"/>
        <path id="Pfad_165" data-name="Pfad 165" d="M22.9,659.32l-.131,1.572h-.17v-.236q0-.786-.249-.786H20.669q.052.563.052,1V668.7a.357.357,0,0,0,.163.3.582.582,0,0,0,.347.118v.17H18.925v-.17a.642.642,0,0,0,.36-.118.35.35,0,0,0,.177-.3v-7.836q0-.446.052-1H17.8q-.157,0-.3.445a2.035,2.035,0,0,0-.118.576h-.17l.131-1.572h.171v.027q0,.17.052.21a.455.455,0,0,0,.236.039h4.521q.406,0,.406-.275h.17Z" transform="translate(-6.976 -659.32)" fill="none"/>
        <path id="Pfad_166" data-name="Pfad 166" d="M33.221,668.177l-.1,1.3H27.338v-.17a.62.62,0,0,0,.36-.125.357.357,0,0,0,.177-.294v-8.517a.363.363,0,0,0-.164-.295.566.566,0,0,0-.347-.124v-.17h5.1l.1,1.3h-.118q-.145-.5-.2-.629-.184-.393-.459-.393H29.08q.052.59.052,1.048v2.608a6.417,6.417,0,0,1-.052.76h2.45q.407,0,.406-.655v-.1h.171l.144,1.834h-.171q-.065-.8-.485-.8H29.08a6.458,6.458,0,0,1,.052.72v2.751a4.394,4.394,0,0,1-.052.669q-.039.315.432.314h2.935q.275,0,.459-.393a4.33,4.33,0,0,0,.2-.629h.118Z" transform="translate(-10.999 -659.502)" fill="none"/>
        <path id="Pfad_167" data-name="Pfad 167" d="M42.447,662.582a3.04,3.04,0,0,0-.485-1.69,1.672,1.672,0,0,0-1.455-.839h-.72q.052.525.052.891v2.778a6.483,6.483,0,0,1-.052.773H41.15a1.124,1.124,0,0,0,1.022-.695A2.633,2.633,0,0,0,42.447,662.582Zm2.018,6.892a2.929,2.929,0,0,1-1.35-.314,1.192,1.192,0,0,1-.746-1.074v-1.979a1.389,1.389,0,0,0-.387-.9,1.1,1.1,0,0,0-.832-.452H39.787a7.6,7.6,0,0,1,.052.826v3.3a.361.361,0,0,0,.157.3.554.554,0,0,0,.341.118v.17q-.983-.026-1.113-.026t-1.192.026v-.17a.642.642,0,0,0,.361-.118.35.35,0,0,0,.177-.3v-8.518a.367.367,0,0,0-.157-.295.54.54,0,0,0-.341-.124v-.17H41.7a1.754,1.754,0,0,1,1.494.865,2.929,2.929,0,0,1,.524,1.7A2.5,2.5,0,0,1,43.142,664a1.837,1.837,0,0,1-1.127.655,1.565,1.565,0,0,1,1.166.55,2.035,2.035,0,0,1,.459,1.39v1.755a.865.865,0,0,0,.825.957Z" transform="translate(-15.246 -659.502)" fill="none"/>
        <path id="Pfad_168" data-name="Pfad 168" d="M56.58,659.948a.646.646,0,0,0-.36.118.352.352,0,0,0-.177.3v9.605q-.222-.406-.891-1.455l-3.774-5.673q-.157-.2-1.114-1.887.066,1.349.066,2.148v5.779a.366.366,0,0,0,.157.294.54.54,0,0,0,.341.125v.17q-.708-.026-.786-.026t-.773.026v-.17a.612.612,0,0,0,.354-.118.354.354,0,0,0,.171-.3v-8.518a.362.362,0,0,0-.157-.3.557.557,0,0,0-.341-.118v-.17q.773.039.865.039t.76-.039l3.525,5.451q.42.642.478.753t.662,1.317q-.065-1.507-.065-2.214v-4.717a.362.362,0,0,0-.157-.3.557.557,0,0,0-.341-.118v-.17q.707.025.786.026t.773-.026v.169Z" transform="translate(-19.708 -659.502)" fill="none"/>
        <path id="Pfad_169" data-name="Pfad 169" d="M67.283,666.966q-.092-.184-.341-.865l-.629-1.887q-.288-.865-.577-1.716-.262-.812-.511-1.9-.38,1.65-1,3.564l-.6,1.86q-.052.2-.341.943h4Zm2.542,2.529q-1.009-.039-1.14-.039t-1.166.039v-.17q.406,0,.406-.236a.372.372,0,0,0-.013-.092l-.353-1.048a4.745,4.745,0,0,1-.184-.708h-4.18q-.014.131-.17.734l-.341,1v.079q0,.275.472.275v.17q-.734-.039-.826-.039t-.694.039v-.17q.458,0,.564-.328l2.856-8.883-.1-.314q.563.026.629.026t.642-.026l2.961,9.237q.092.288.642.289v.169Z" transform="translate(-24.62 -659.511)" fill="none"/>
        <path id="Pfad_170" data-name="Pfad 170" d="M81.32,659.32l-.131,1.572h-.171v-.236q0-.786-.249-.786H79.092q.052.563.052,1V668.7a.358.358,0,0,0,.163.3.585.585,0,0,0,.347.118v.17H77.349v-.17a.642.642,0,0,0,.36-.118.351.351,0,0,0,.177-.3v-7.836q0-.446.052-1H76.222q-.157,0-.3.445a2.035,2.035,0,0,0-.118.576h-.171l.131-1.572h.171v.027q0,.17.052.21a.455.455,0,0,0,.236.039h4.521q.406,0,.406-.275h.171Z" transform="translate(-30.179 -659.32)" fill="none"/>
        <path id="Pfad_171" data-name="Pfad 171" d="M88.2,659.948a.646.646,0,0,0-.361.118.352.352,0,0,0-.177.3v8.53a.361.361,0,0,0,.157.3.555.555,0,0,0,.341.118v.17l-1.153-.039c-.088,0-.467.013-1.14.039v-.17a.615.615,0,0,0,.354-.118.356.356,0,0,0,.171-.3v-8.53a.362.362,0,0,0-.157-.3.558.558,0,0,0-.341-.118v-.17q.969.025,1.1.026t1.206-.026v.17Z" transform="translate(-34.246 -659.502)" fill="none"/>
        <path id="Pfad_172" data-name="Pfad 172" d="M96.135,664.648a9.706,9.706,0,0,0-.445-3.172q-.511-1.506-1.546-1.506-1.809,0-2.071,3.669-.026.458-.026.891a8.606,8.606,0,0,0,.59,3.486q.511,1.153,1.389,1.153,1.847,0,2.083-3.695Q96.135,665.054,96.135,664.648Zm1.389-.341a8.731,8.731,0,0,1-.445,3.223,3.134,3.134,0,0,1-2.437,1.887,5.478,5.478,0,0,1-1.022.1,2.429,2.429,0,0,1-2.306-1.3,6.808,6.808,0,0,1-.59-2.751q-.026-.459-.026-1.035a6.472,6.472,0,0,1,.629-3.237,3.248,3.248,0,0,1,2.332-1.507,4.392,4.392,0,0,1,.865-.092,2.547,2.547,0,0,1,2.45,1.612A7.361,7.361,0,0,1,97.524,664.307Z" transform="translate(-36.162 -659.433)" fill="none"/>
        <path id="Pfad_173" data-name="Pfad 173" d="M110.289,659.948a.646.646,0,0,0-.361.118.351.351,0,0,0-.177.3v9.605q-.222-.406-.891-1.455l-3.774-5.673q-.157-.2-1.114-1.887.065,1.349.066,2.148v5.779a.364.364,0,0,0,.157.294.537.537,0,0,0,.341.125v.17q-.708-.026-.786-.026t-.773.026v-.17a.612.612,0,0,0,.354-.118.354.354,0,0,0,.17-.3v-8.518a.362.362,0,0,0-.157-.3.557.557,0,0,0-.341-.118v-.17q.773.039.865.039t.76-.039l3.525,5.451q.42.642.478.753t.662,1.317q-.066-1.507-.065-2.214v-4.717a.362.362,0,0,0-.157-.3.557.557,0,0,0-.341-.118v-.17q.707.025.786.026t.773-.026v.169Z" transform="translate(-41.04 -659.502)" fill="none"/>
        <path id="Pfad_174" data-name="Pfad 174" d="M120.992,666.966q-.091-.184-.341-.865l-.629-1.887q-.288-.865-.576-1.716-.262-.812-.511-1.9-.38,1.65-1,3.564l-.6,1.86q-.052.2-.341.943h4Zm2.542,2.529q-1.009-.039-1.14-.039t-1.166.039v-.17q.406,0,.406-.236a.372.372,0,0,0-.013-.092l-.353-1.048a4.673,4.673,0,0,1-.184-.708H116.9q-.014.131-.171.734l-.341,1v.079q0,.275.472.275v.17q-.734-.039-.826-.039t-.694.039v-.17q.458,0,.564-.328l2.856-8.883-.1-.314q.563.026.629.026t.641-.026l2.962,9.237q.092.288.642.289v.169Z" transform="translate(-45.951 -659.511)" fill="none"/>
        <path id="Pfad_175" data-name="Pfad 175" d="M134.712,668.177l-.288,1.3h-5.254v-.17a.62.62,0,0,0,.361-.125.357.357,0,0,0,.177-.294v-8.517a.362.362,0,0,0-.157-.3.558.558,0,0,0-.341-.118v-.17l1.18.026q.118,0,1.113-.026v.17a.613.613,0,0,0-.353.118.355.355,0,0,0-.171.3v7.587a7.971,7.971,0,0,1-.052.931.329.329,0,0,0,.17.314h2.621q.537,0,.826-1.022h.17Z" transform="translate(-51.442 -659.502)" fill="none"/>
        <path id="Pfad_176" data-name="Pfad 176" d="M145.029,668.177l-.1,1.3h-5.779v-.17a.62.62,0,0,0,.361-.125.358.358,0,0,0,.177-.294v-8.517a.363.363,0,0,0-.163-.295.566.566,0,0,0-.347-.124v-.17h5.1l.1,1.3h-.118q-.144-.5-.2-.629-.184-.393-.459-.393h-2.713q.053.59.052,1.048v2.608a6.416,6.416,0,0,1-.052.76h2.451q.406,0,.406-.655v-.1h.171l.144,1.834h-.171q-.066-.8-.485-.8h-2.516a6.312,6.312,0,0,1,.052.72v2.751a4.393,4.393,0,0,1-.052.669q-.039.315.433.314h2.935q.275,0,.459-.393a4.334,4.334,0,0,0,.2-.629h.118Z" transform="translate(-55.404 -659.502)" fill="none"/>
      </g>
      <g id="Gruppe_2" data-name="Gruppe 2" transform="translate(0 17.745)">
        <path id="Pfad_146" data-name="Pfad 146" d="M161.138,666.966q-.091-.184-.341-.865l-.629-1.887q-.288-.865-.577-1.716-.262-.812-.511-1.9-.38,1.65-1,3.564l-.6,1.86q-.052.2-.341.943h4Zm2.542,2.529q-1.009-.039-1.14-.039t-1.166.039v-.17q.406,0,.406-.236a.372.372,0,0,0-.013-.092l-.354-1.048a4.743,4.743,0,0,1-.183-.708h-4.18q-.014.131-.171.734l-.341,1v.079q0,.275.472.275v.17q-.734-.039-.826-.039t-.694.039v-.17q.458,0,.564-.328l2.856-8.883-.1-.314q.563.026.629.026t.642-.026l2.961,9.237q.092.288.642.289v.169Z" transform="translate(-155.491 -659.511)" fill="#fafafa"/>
        <path id="Pfad_147" data-name="Pfad 147" d="M173.817,662.582a3.035,3.035,0,0,0-.485-1.69,1.671,1.671,0,0,0-1.455-.839h-.72q.052.525.052.891v2.778a6.484,6.484,0,0,1-.052.773h1.363a1.125,1.125,0,0,0,1.022-.695,2.641,2.641,0,0,0,.275-1.218m2.018,6.892a2.929,2.929,0,0,1-1.35-.314,1.193,1.193,0,0,1-.746-1.074v-1.979a1.39,1.39,0,0,0-.387-.9,1.1,1.1,0,0,0-.832-.452h-1.363a7.593,7.593,0,0,1,.052.826v3.3a.361.361,0,0,0,.157.3.554.554,0,0,0,.341.118v.17q-.983-.026-1.114-.026t-1.192.026v-.17a.642.642,0,0,0,.361-.118.35.35,0,0,0,.177-.3v-8.518a.367.367,0,0,0-.157-.295.54.54,0,0,0-.341-.124v-.17h3.63a1.755,1.755,0,0,1,1.494.865,2.933,2.933,0,0,1,.524,1.7,2.5,2.5,0,0,1-.576,1.651,1.839,1.839,0,0,1-1.127.655,1.567,1.567,0,0,1,1.167.55,2.035,2.035,0,0,1,.459,1.39v1.755a.865.865,0,0,0,.825.957v.169Z" transform="translate(-161.015 -659.502)" fill="#fafafa"/>
        <path id="Pfad_148" data-name="Pfad 148" d="M187.131,659.32,187,660.892h-.17v-.236q0-.786-.249-.786H184.9q.052.563.052,1V668.7a.358.358,0,0,0,.163.3.583.583,0,0,0,.347.118v.17H183.16v-.17a.645.645,0,0,0,.361-.118.351.351,0,0,0,.177-.3v-7.836q0-.446.052-1h-1.717q-.156,0-.3.445a2.014,2.014,0,0,0-.118.576h-.17l.131-1.572h.171v.027q0,.17.052.21a.454.454,0,0,0,.236.039h4.521q.406,0,.406-.275h.17Z" transform="translate(-165.798 -659.32)" fill="#fafafa"/>
        <path id="Pfad_149" data-name="Pfad 149" d="M198.08,659.948a.614.614,0,0,0-.353.118.355.355,0,0,0-.171.3V667.3a2.149,2.149,0,0,1-.635,1.684,3.27,3.27,0,0,1-2.182.57,2.908,2.908,0,0,1-1.717-.5,1.745,1.745,0,0,1-.8-1.52v-7.168a.363.363,0,0,0-.157-.3.559.559,0,0,0-.341-.118v-.17l1.153.026c.088,0,.467-.009,1.141-.026v.17a.646.646,0,0,0-.361.118.352.352,0,0,0-.177.3v7.128a1.5,1.5,0,0,0,.642,1.193,2.031,2.031,0,0,0,1.3.471,1.628,1.628,0,0,0,1.179-.471,1.5,1.5,0,0,0,.433-1.127v-7.194a.362.362,0,0,0-.157-.3.558.558,0,0,0-.341-.118v-.17q.721.025.8.026t.746-.026v.17Z" transform="translate(-169.882 -659.502)" fill="#fafafa"/>
        <path id="Pfad_150" data-name="Pfad 150" d="M208.2,667.22a2.083,2.083,0,0,1-.813,1.651,2.524,2.524,0,0,1-2.8.419l-.969-.5-.1-1.323h.21a1.635,1.635,0,0,0,.55,1.186,1.866,1.866,0,0,0,1.258.426,1.188,1.188,0,0,0,1.022-.538,1.971,1.971,0,0,0,.328-1.153,2.913,2.913,0,0,0-.891-2.11q-.826-.721-1.651-1.428a2.742,2.742,0,0,1-.892-2,2.073,2.073,0,0,1,.813-1.639,2.712,2.712,0,0,1,1.756-.629,2.231,2.231,0,0,1,1.546.485l.118,1.6h-.21a2.755,2.755,0,0,0-.249-1.179,1.149,1.149,0,0,0-1.074-.459,1.234,1.234,0,0,0-1.035.524,1.847,1.847,0,0,0-.354,1.141,2.606,2.606,0,0,0,.892,1.9q.838.721,1.664,1.441a3.089,3.089,0,0,1,.892,2.188" transform="translate(-174.534 -659.423)" fill="#fafafa"/>
        <path id="Pfad_151" data-name="Pfad 151" d="M219.474,665.622a.743.743,0,0,0-.361.131.352.352,0,0,0-.177.3v1.7a3.061,3.061,0,0,0,.236,1.376l-.406.236a2.9,2.9,0,0,1-.289-1.468v-.013a2.727,2.727,0,0,1-1.336,1.389,3.811,3.811,0,0,1-1.611.275q-2.333,0-2.988-2.765a9.927,9.927,0,0,1-.236-2.279,5.893,5.893,0,0,1,.826-3.381,4.03,4.03,0,0,1,3.066-1.481,2.071,2.071,0,0,1,1.507.655,2.566,2.566,0,0,0,.249.275.252.252,0,0,0,.184.079c.1,0,.157-.065.157-.2v-.013h.17v1.913h-.17a2.349,2.349,0,0,0-.7-1.638,2.076,2.076,0,0,0-1.579-.734q-1.414.025-2.018,2.071a8.83,8.83,0,0,0-.341,2.489,8.333,8.333,0,0,0,.222,1.834,6.2,6.2,0,0,0,.629,1.743,1.706,1.706,0,0,0,1.468,1.048,1.472,1.472,0,0,0,.747-.222,2.246,2.246,0,0,0,1.114-2.071v-.825a.361.361,0,0,0-.157-.3.635.635,0,0,0-.341-.131v-.157h2.136v.156Z" transform="translate(-178.056 -659.45)" fill="#fafafa"/>
        <path id="Pfad_152" data-name="Pfad 152" d="M230.645,668.177l-.1,1.3h-5.778v-.17a.62.62,0,0,0,.361-.125.357.357,0,0,0,.177-.294v-8.517a.364.364,0,0,0-.163-.295.566.566,0,0,0-.347-.124v-.17h5.1l.1,1.3h-.118q-.144-.5-.2-.629-.183-.393-.459-.393h-2.712q.052.59.052,1.048v2.608a6.423,6.423,0,0,1-.052.76h2.45q.406,0,.406-.655v-.1h.17l.144,1.834h-.17q-.065-.8-.485-.8H226.5a6.463,6.463,0,0,1,.052.72v2.751a4.4,4.4,0,0,1-.052.669q-.04.315.432.314h2.935q.276,0,.459-.393a4.252,4.252,0,0,0,.2-.629h.118Z" transform="translate(-183.003 -659.502)" fill="#fafafa"/>
        <path id="Pfad_153" data-name="Pfad 153" d="M240.56,667.22a2.083,2.083,0,0,1-.813,1.651,2.524,2.524,0,0,1-2.8.419l-.969-.5-.1-1.323h.21a1.635,1.635,0,0,0,.55,1.186,1.866,1.866,0,0,0,1.258.426,1.19,1.19,0,0,0,1.022-.538,1.975,1.975,0,0,0,.327-1.153,2.909,2.909,0,0,0-.892-2.11q-.825-.721-1.651-1.428a2.742,2.742,0,0,1-.892-2,2.073,2.073,0,0,1,.813-1.639,2.712,2.712,0,0,1,1.756-.629,2.231,2.231,0,0,1,1.546.485l.118,1.6h-.21a2.765,2.765,0,0,0-.248-1.179,1.15,1.15,0,0,0-1.074-.459,1.234,1.234,0,0,0-1.036.524,1.846,1.846,0,0,0-.354,1.141,2.606,2.606,0,0,0,.892,1.9q.838.721,1.664,1.441a3.089,3.089,0,0,1,.892,2.188" transform="translate(-187.387 -659.423)" fill="#fafafa"/>
        <path id="Pfad_154" data-name="Pfad 154" d="M250.229,668.177l-.1,1.3h-5.779v-.17a.623.623,0,0,0,.361-.125.358.358,0,0,0,.177-.294v-8.517a.364.364,0,0,0-.163-.295.567.567,0,0,0-.347-.124v-.17h5.1l.1,1.3h-.118c-.1-.332-.162-.541-.2-.629q-.184-.393-.459-.393h-2.712q.052.59.052,1.048v2.608a6.416,6.416,0,0,1-.052.76h2.45q.406,0,.406-.655v-.1h.17l.144,1.834h-.17q-.066-.8-.485-.8h-2.516a6.456,6.456,0,0,1,.052.72v2.751a4.393,4.393,0,0,1-.052.669q-.04.315.432.314h2.935q.275,0,.459-.393a4.33,4.33,0,0,0,.2-.629h.118Z" transform="translate(-190.78 -659.502)" fill="#fafafa"/>
        <path id="Pfad_155" data-name="Pfad 155" d="M260.5,668.177l-.289,1.3h-5.254v-.17a.62.62,0,0,0,.361-.125.358.358,0,0,0,.177-.294v-8.517a.363.363,0,0,0-.158-.3.556.556,0,0,0-.34-.118v-.17l1.179.026q.118,0,1.114-.026v.17a.616.616,0,0,0-.354.118.355.355,0,0,0-.17.3v7.587a7.841,7.841,0,0,1-.053.931.33.33,0,0,0,.171.314H259.5q.538,0,.826-1.022h.17Z" transform="translate(-194.993 -659.502)" fill="#fafafa"/>
        <path id="Pfad_156" data-name="Pfad 156" d="M270.6,668.177l-.289,1.3H265.06v-.17a.62.62,0,0,0,.36-.125.357.357,0,0,0,.177-.294v-8.517a.362.362,0,0,0-.157-.3.557.557,0,0,0-.34-.118v-.17l1.179.026q.118,0,1.114-.026v.17a.616.616,0,0,0-.354.118.355.355,0,0,0-.171.3v7.587a7.843,7.843,0,0,1-.052.931.33.33,0,0,0,.171.314h2.621q.538,0,.825-1.022h.171Z" transform="translate(-199.007 -659.502)" fill="#fafafa"/>
        <path id="Pfad_157" data-name="Pfad 157" d="M280.358,667.22a2.083,2.083,0,0,1-.813,1.651,2.524,2.524,0,0,1-2.8.419l-.969-.5-.1-1.323h.21a1.637,1.637,0,0,0,.55,1.186,1.868,1.868,0,0,0,1.258.426,1.19,1.19,0,0,0,1.022-.538,1.971,1.971,0,0,0,.327-1.153,2.911,2.911,0,0,0-.891-2.11q-.826-.721-1.651-1.428a2.742,2.742,0,0,1-.891-2,2.071,2.071,0,0,1,.813-1.639,2.71,2.71,0,0,1,1.755-.629,2.232,2.232,0,0,1,1.546.485l.118,1.6h-.21a2.764,2.764,0,0,0-.249-1.179,1.15,1.15,0,0,0-1.074-.459,1.235,1.235,0,0,0-1.036.524,1.846,1.846,0,0,0-.353,1.141,2.605,2.605,0,0,0,.891,1.9q.839.721,1.664,1.441a3.088,3.088,0,0,1,.892,2.188" transform="translate(-203.194 -659.423)" fill="#fafafa"/>
        <path id="Pfad_158" data-name="Pfad 158" d="M291.406,666.574l-.131,1.913h-.17v-.039a.127.127,0,0,0-.144-.143.47.47,0,0,0-.223.131c-.1.088-.262.214-.471.38a3.74,3.74,0,0,1-2.188.695q-3.434,0-3.433-5.018a5.423,5.423,0,0,1,.943-3.354,3.618,3.618,0,0,1,3.093-1.4,2.147,2.147,0,0,1,1.441.6q.118.131.249.262a.466.466,0,0,0,.276.17c.148,0,.222-.1.222-.288h.17l.131,1.913H291a3.462,3.462,0,0,0-.9-1.572,2.227,2.227,0,0,0-1.612-.746q-1.284,0-1.965,1.7a7.534,7.534,0,0,0,.039,5.621q.734,1.743,1.953,1.743a2.717,2.717,0,0,0,1.847-.8,2.363,2.363,0,0,0,.878-1.769h.171Z" transform="translate(-206.786 -659.485)" fill="#fafafa"/>
        <path id="Pfad_159" data-name="Pfad 159" d="M304.04,659.948a.649.649,0,0,0-.36.118.352.352,0,0,0-.177.3v8.518a.358.358,0,0,0,.163.3.583.583,0,0,0,.347.118v.17q-1.009-.026-1.14-.026c-.088,0-.476.008-1.167.026v-.17a.645.645,0,0,0,.361-.118.351.351,0,0,0,.177-.3v-3.224q0-.393.052-1.048H298.6q.052.617.052,1.048v3.224a.357.357,0,0,0,.164.3.565.565,0,0,0,.334.118v.17l-1.127-.026q-.131,0-1.167.026v-.17a.642.642,0,0,0,.36-.118.351.351,0,0,0,.177-.3v-8.518a.359.359,0,0,0-.163-.3.587.587,0,0,0-.347-.118v-.17l1.153.026q.132,0,1.153-.026v.17a.647.647,0,0,0-.36.118.353.353,0,0,0-.177.3v2.961q0,.407-.052,1.009H302.3q-.052-.616-.052-1.1v-2.87a.359.359,0,0,0-.163-.3.57.57,0,0,0-.334-.118v-.17l1.166.026q.132,0,1.127-.026v.17Z" transform="translate(-211.636 -659.502)" fill="#fafafa"/>
        <path id="Pfad_160" data-name="Pfad 160" d="M314.94,666.966q-.091-.184-.34-.865l-.629-1.887q-.288-.865-.577-1.716-.262-.812-.511-1.9-.38,1.65-1,3.564l-.6,1.86c-.036.131-.148.446-.341.943h4Zm2.542,2.529q-1.008-.039-1.14-.039t-1.166.039v-.17q.406,0,.406-.236a.4.4,0,0,0-.013-.092l-.354-1.048a4.816,4.816,0,0,1-.184-.708h-4.18c-.009.087-.065.332-.17.734l-.341,1v.079q0,.275.472.275v.17q-.734-.039-.826-.039t-.694.039v-.17q.458,0,.564-.328l2.856-8.883-.1-.314q.563.026.629.026c.043,0,.258-.008.642-.026l2.961,9.237q.092.288.641.289v.169Z" transform="translate(-216.575 -659.511)" fill="#fafafa"/>
        <path id="Pfad_161" data-name="Pfad 161" d="M328.314,661.075H328.2q-.144-.5-.2-.629-.183-.393-.459-.393h-2.725a7.5,7.5,0,0,1,.052.76v2.922a5.783,5.783,0,0,1-.052.734h2.45q.354,0,.354-.655v-.1h.17l.144,1.835h-.17q-.065-.8-.485-.8h-2.463a8.026,8.026,0,0,1,.052.852v3.289a.358.358,0,0,0,.163.3.566.566,0,0,0,.335.118v.17h-2.293v-.17a.643.643,0,0,0,.361-.118.351.351,0,0,0,.177-.3v-8.518a.365.365,0,0,0-.163-.295.566.566,0,0,0-.347-.124v-.17h5.111Z" transform="translate(-222.048 -659.502)" fill="#fafafa"/>
        <path id="Pfad_162" data-name="Pfad 162" d="M338.8,659.32l-.131,1.572h-.17v-.236q0-.786-.249-.786h-1.677q.053.563.052,1V668.7a.357.357,0,0,0,.163.3.582.582,0,0,0,.347.118v.17h-2.306v-.17a.641.641,0,0,0,.36-.118.351.351,0,0,0,.177-.3v-7.836q0-.446.052-1H333.7q-.157,0-.3.445a2.014,2.014,0,0,0-.118.576h-.17l.131-1.572h.171v.027c0,.113.017.183.052.21a.454.454,0,0,0,.236.039h4.521q.406,0,.406-.275h.169Z" transform="translate(-226.037 -659.32)" fill="#fafafa"/>
        <path id="Pfad_177" data-name="Pfad 177" d="M161.138,666.966q-.091-.184-.341-.865l-.629-1.887q-.288-.865-.577-1.716-.262-.812-.511-1.9-.38,1.65-1,3.564l-.6,1.86q-.052.2-.341.943h4Zm2.542,2.529q-1.009-.039-1.14-.039t-1.166.039v-.17q.406,0,.406-.236a.372.372,0,0,0-.013-.092l-.354-1.048a4.743,4.743,0,0,1-.183-.708h-4.18q-.014.131-.171.734l-.341,1v.079q0,.275.472.275v.17q-.734-.039-.826-.039t-.694.039v-.17q.458,0,.564-.328l2.856-8.883-.1-.314q.563.026.629.026t.642-.026l2.961,9.237q.092.288.642.289v.169Z" transform="translate(-155.491 -659.511)" fill="none"/>
        <path id="Pfad_178" data-name="Pfad 178" d="M173.817,662.582a3.035,3.035,0,0,0-.485-1.69,1.671,1.671,0,0,0-1.455-.839h-.72q.052.525.052.891v2.778a6.484,6.484,0,0,1-.052.773h1.363a1.125,1.125,0,0,0,1.022-.695A2.641,2.641,0,0,0,173.817,662.582Zm2.018,6.892a2.929,2.929,0,0,1-1.35-.314,1.193,1.193,0,0,1-.746-1.074v-1.979a1.39,1.39,0,0,0-.387-.9,1.1,1.1,0,0,0-.832-.452h-1.363a7.593,7.593,0,0,1,.052.826v3.3a.361.361,0,0,0,.157.3.554.554,0,0,0,.341.118v.17q-.983-.026-1.114-.026t-1.192.026v-.17a.642.642,0,0,0,.361-.118.35.35,0,0,0,.177-.3v-8.518a.367.367,0,0,0-.157-.295.54.54,0,0,0-.341-.124v-.17h3.63a1.755,1.755,0,0,1,1.494.865,2.933,2.933,0,0,1,.524,1.7,2.5,2.5,0,0,1-.576,1.651,1.839,1.839,0,0,1-1.127.655,1.567,1.567,0,0,1,1.167.55,2.035,2.035,0,0,1,.459,1.39v1.755a.865.865,0,0,0,.825.957v.169Z" transform="translate(-161.015 -659.502)" fill="none"/>
        <path id="Pfad_179" data-name="Pfad 179" d="M187.131,659.32,187,660.892h-.17v-.236q0-.786-.249-.786H184.9q.052.563.052,1V668.7a.358.358,0,0,0,.163.3.583.583,0,0,0,.347.118v.17H183.16v-.17a.645.645,0,0,0,.361-.118.351.351,0,0,0,.177-.3v-7.836q0-.446.052-1h-1.717q-.156,0-.3.445a2.014,2.014,0,0,0-.118.576h-.17l.131-1.572h.171v.027q0,.17.052.21a.454.454,0,0,0,.236.039h4.521q.406,0,.406-.275h.17Z" transform="translate(-165.798 -659.32)" fill="none"/>
        <path id="Pfad_180" data-name="Pfad 180" d="M198.08,659.948a.614.614,0,0,0-.353.118.355.355,0,0,0-.171.3V667.3a2.149,2.149,0,0,1-.635,1.684,3.27,3.27,0,0,1-2.182.57,2.908,2.908,0,0,1-1.717-.5,1.745,1.745,0,0,1-.8-1.52v-7.168a.363.363,0,0,0-.157-.3.559.559,0,0,0-.341-.118v-.17l1.153.026c.088,0,.467-.009,1.141-.026v.17a.646.646,0,0,0-.361.118.352.352,0,0,0-.177.3v7.128a1.5,1.5,0,0,0,.642,1.193,2.031,2.031,0,0,0,1.3.471,1.628,1.628,0,0,0,1.179-.471,1.5,1.5,0,0,0,.433-1.127v-7.194a.362.362,0,0,0-.157-.3.558.558,0,0,0-.341-.118v-.17q.721.025.8.026t.746-.026v.17Z" transform="translate(-169.882 -659.502)" fill="none"/>
        <path id="Pfad_181" data-name="Pfad 181" d="M208.2,667.22a2.083,2.083,0,0,1-.813,1.651,2.524,2.524,0,0,1-2.8.419l-.969-.5-.1-1.323h.21a1.635,1.635,0,0,0,.55,1.186,1.866,1.866,0,0,0,1.258.426,1.188,1.188,0,0,0,1.022-.538,1.971,1.971,0,0,0,.328-1.153,2.913,2.913,0,0,0-.891-2.11q-.826-.721-1.651-1.428a2.742,2.742,0,0,1-.892-2,2.073,2.073,0,0,1,.813-1.639,2.712,2.712,0,0,1,1.756-.629,2.231,2.231,0,0,1,1.546.485l.118,1.6h-.21a2.755,2.755,0,0,0-.249-1.179,1.149,1.149,0,0,0-1.074-.459,1.234,1.234,0,0,0-1.035.524,1.847,1.847,0,0,0-.354,1.141,2.606,2.606,0,0,0,.892,1.9q.838.721,1.664,1.441A3.089,3.089,0,0,1,208.2,667.22Z" transform="translate(-174.534 -659.423)" fill="none"/>
        <path id="Pfad_182" data-name="Pfad 182" d="M219.474,665.622a.743.743,0,0,0-.361.131.352.352,0,0,0-.177.3v1.7a3.061,3.061,0,0,0,.236,1.376l-.406.236a2.9,2.9,0,0,1-.289-1.468v-.013a2.727,2.727,0,0,1-1.336,1.389,3.811,3.811,0,0,1-1.611.275q-2.333,0-2.988-2.765a9.927,9.927,0,0,1-.236-2.279,5.893,5.893,0,0,1,.826-3.381,4.03,4.03,0,0,1,3.066-1.481,2.071,2.071,0,0,1,1.507.655,2.566,2.566,0,0,0,.249.275.252.252,0,0,0,.184.079c.1,0,.157-.065.157-.2v-.013h.17v1.913h-.17a2.349,2.349,0,0,0-.7-1.638,2.076,2.076,0,0,0-1.579-.734q-1.414.025-2.018,2.071a8.83,8.83,0,0,0-.341,2.489,8.333,8.333,0,0,0,.222,1.834,6.2,6.2,0,0,0,.629,1.743,1.706,1.706,0,0,0,1.468,1.048,1.472,1.472,0,0,0,.747-.222,2.246,2.246,0,0,0,1.114-2.071v-.825a.361.361,0,0,0-.157-.3.635.635,0,0,0-.341-.131v-.157h2.136v.156Z" transform="translate(-178.056 -659.45)" fill="none"/>
        <path id="Pfad_183" data-name="Pfad 183" d="M230.645,668.177l-.1,1.3h-5.778v-.17a.62.62,0,0,0,.361-.125.357.357,0,0,0,.177-.294v-8.517a.364.364,0,0,0-.163-.295.566.566,0,0,0-.347-.124v-.17h5.1l.1,1.3h-.118q-.144-.5-.2-.629-.183-.393-.459-.393h-2.712q.052.59.052,1.048v2.608a6.423,6.423,0,0,1-.052.76h2.45q.406,0,.406-.655v-.1h.17l.144,1.834h-.17q-.065-.8-.485-.8H226.5a6.463,6.463,0,0,1,.052.72v2.751a4.4,4.4,0,0,1-.052.669q-.04.315.432.314h2.935q.276,0,.459-.393a4.252,4.252,0,0,0,.2-.629h.118Z" transform="translate(-183.003 -659.502)" fill="none"/>
        <path id="Pfad_184" data-name="Pfad 184" d="M240.56,667.22a2.083,2.083,0,0,1-.813,1.651,2.524,2.524,0,0,1-2.8.419l-.969-.5-.1-1.323h.21a1.635,1.635,0,0,0,.55,1.186,1.866,1.866,0,0,0,1.258.426,1.19,1.19,0,0,0,1.022-.538,1.975,1.975,0,0,0,.327-1.153,2.909,2.909,0,0,0-.892-2.11q-.825-.721-1.651-1.428a2.742,2.742,0,0,1-.892-2,2.073,2.073,0,0,1,.813-1.639,2.712,2.712,0,0,1,1.756-.629,2.231,2.231,0,0,1,1.546.485l.118,1.6h-.21a2.765,2.765,0,0,0-.248-1.179,1.15,1.15,0,0,0-1.074-.459,1.234,1.234,0,0,0-1.036.524,1.846,1.846,0,0,0-.354,1.141,2.606,2.606,0,0,0,.892,1.9q.838.721,1.664,1.441A3.089,3.089,0,0,1,240.56,667.22Z" transform="translate(-187.387 -659.423)" fill="none"/>
        <path id="Pfad_185" data-name="Pfad 185" d="M250.229,668.177l-.1,1.3h-5.779v-.17a.623.623,0,0,0,.361-.125.358.358,0,0,0,.177-.294v-8.517a.364.364,0,0,0-.163-.295.567.567,0,0,0-.347-.124v-.17h5.1l.1,1.3h-.118c-.1-.332-.162-.541-.2-.629q-.184-.393-.459-.393h-2.712q.052.59.052,1.048v2.608a6.416,6.416,0,0,1-.052.76h2.45q.406,0,.406-.655v-.1h.17l.144,1.834h-.17q-.066-.8-.485-.8h-2.516a6.456,6.456,0,0,1,.052.72v2.751a4.393,4.393,0,0,1-.052.669q-.04.315.432.314h2.935q.275,0,.459-.393a4.33,4.33,0,0,0,.2-.629h.118Z" transform="translate(-190.78 -659.502)" fill="none"/>
        <path id="Pfad_186" data-name="Pfad 186" d="M260.5,668.177l-.289,1.3h-5.254v-.17a.62.62,0,0,0,.361-.125.358.358,0,0,0,.177-.294v-8.517a.363.363,0,0,0-.158-.3.556.556,0,0,0-.34-.118v-.17l1.179.026q.118,0,1.114-.026v.17a.616.616,0,0,0-.354.118.355.355,0,0,0-.17.3v7.587a7.841,7.841,0,0,1-.053.931.33.33,0,0,0,.171.314H259.5q.538,0,.826-1.022h.17Z" transform="translate(-194.993 -659.502)" fill="none"/>
        <path id="Pfad_187" data-name="Pfad 187" d="M270.6,668.177l-.289,1.3H265.06v-.17a.62.62,0,0,0,.36-.125.357.357,0,0,0,.177-.294v-8.517a.362.362,0,0,0-.157-.3.557.557,0,0,0-.34-.118v-.17l1.179.026q.118,0,1.114-.026v.17a.616.616,0,0,0-.354.118.355.355,0,0,0-.171.3v7.587a7.843,7.843,0,0,1-.052.931.33.33,0,0,0,.171.314h2.621q.538,0,.825-1.022h.171Z" transform="translate(-199.007 -659.502)" fill="none"/>
        <path id="Pfad_188" data-name="Pfad 188" d="M280.358,667.22a2.083,2.083,0,0,1-.813,1.651,2.524,2.524,0,0,1-2.8.419l-.969-.5-.1-1.323h.21a1.637,1.637,0,0,0,.55,1.186,1.868,1.868,0,0,0,1.258.426,1.19,1.19,0,0,0,1.022-.538,1.971,1.971,0,0,0,.327-1.153,2.911,2.911,0,0,0-.891-2.11q-.826-.721-1.651-1.428a2.742,2.742,0,0,1-.891-2,2.071,2.071,0,0,1,.813-1.639,2.71,2.71,0,0,1,1.755-.629,2.232,2.232,0,0,1,1.546.485l.118,1.6h-.21a2.764,2.764,0,0,0-.249-1.179,1.15,1.15,0,0,0-1.074-.459,1.235,1.235,0,0,0-1.036.524,1.846,1.846,0,0,0-.353,1.141,2.605,2.605,0,0,0,.891,1.9q.839.721,1.664,1.441A3.088,3.088,0,0,1,280.358,667.22Z" transform="translate(-203.194 -659.423)" fill="none"/>
        <path id="Pfad_189" data-name="Pfad 189" d="M291.406,666.574l-.131,1.913h-.17v-.039a.127.127,0,0,0-.144-.143.47.47,0,0,0-.223.131c-.1.088-.262.214-.471.38a3.74,3.74,0,0,1-2.188.695q-3.434,0-3.433-5.018a5.423,5.423,0,0,1,.943-3.354,3.618,3.618,0,0,1,3.093-1.4,2.147,2.147,0,0,1,1.441.6q.118.131.249.262a.466.466,0,0,0,.276.17c.148,0,.222-.1.222-.288h.17l.131,1.913H291a3.462,3.462,0,0,0-.9-1.572,2.227,2.227,0,0,0-1.612-.746q-1.284,0-1.965,1.7a7.534,7.534,0,0,0,.039,5.621q.734,1.743,1.953,1.743a2.717,2.717,0,0,0,1.847-.8,2.363,2.363,0,0,0,.878-1.769h.171Z" transform="translate(-206.786 -659.485)" fill="none"/>
        <path id="Pfad_190" data-name="Pfad 190" d="M304.04,659.948a.649.649,0,0,0-.36.118.352.352,0,0,0-.177.3v8.518a.358.358,0,0,0,.163.3.583.583,0,0,0,.347.118v.17q-1.009-.026-1.14-.026c-.088,0-.476.008-1.167.026v-.17a.645.645,0,0,0,.361-.118.351.351,0,0,0,.177-.3v-3.224q0-.393.052-1.048H298.6q.052.617.052,1.048v3.224a.357.357,0,0,0,.164.3.565.565,0,0,0,.334.118v.17l-1.127-.026q-.131,0-1.167.026v-.17a.642.642,0,0,0,.36-.118.351.351,0,0,0,.177-.3v-8.518a.359.359,0,0,0-.163-.3.587.587,0,0,0-.347-.118v-.17l1.153.026q.132,0,1.153-.026v.17a.647.647,0,0,0-.36.118.353.353,0,0,0-.177.3v2.961q0,.407-.052,1.009H302.3q-.052-.616-.052-1.1v-2.87a.359.359,0,0,0-.163-.3.57.57,0,0,0-.334-.118v-.17l1.166.026q.132,0,1.127-.026v.17Z" transform="translate(-211.636 -659.502)" fill="none"/>
        <path id="Pfad_191" data-name="Pfad 191" d="M314.94,666.966q-.091-.184-.34-.865l-.629-1.887q-.288-.865-.577-1.716-.262-.812-.511-1.9-.38,1.65-1,3.564l-.6,1.86c-.036.131-.148.446-.341.943h4Zm2.542,2.529q-1.008-.039-1.14-.039t-1.166.039v-.17q.406,0,.406-.236a.4.4,0,0,0-.013-.092l-.354-1.048a4.816,4.816,0,0,1-.184-.708h-4.18c-.009.087-.065.332-.17.734l-.341,1v.079q0,.275.472.275v.17q-.734-.039-.826-.039t-.694.039v-.17q.458,0,.564-.328l2.856-8.883-.1-.314q.563.026.629.026c.043,0,.258-.008.642-.026l2.961,9.237q.092.288.641.289v.169Z" transform="translate(-216.575 -659.511)" fill="none"/>
        <path id="Pfad_192" data-name="Pfad 192" d="M328.314,661.075H328.2q-.144-.5-.2-.629-.183-.393-.459-.393h-2.725a7.5,7.5,0,0,1,.052.76v2.922a5.783,5.783,0,0,1-.052.734h2.45q.354,0,.354-.655v-.1h.17l.144,1.835h-.17q-.065-.8-.485-.8h-2.463a8.026,8.026,0,0,1,.052.852v3.289a.358.358,0,0,0,.163.3.566.566,0,0,0,.335.118v.17h-2.293v-.17a.643.643,0,0,0,.361-.118.351.351,0,0,0,.177-.3v-8.518a.365.365,0,0,0-.163-.295.566.566,0,0,0-.347-.124v-.17h5.111Z" transform="translate(-222.048 -659.502)" fill="none"/>
        <path id="Pfad_193" data-name="Pfad 193" d="M338.8,659.32l-.131,1.572h-.17v-.236q0-.786-.249-.786h-1.677q.053.563.052,1V668.7a.357.357,0,0,0,.163.3.582.582,0,0,0,.347.118v.17h-2.306v-.17a.641.641,0,0,0,.36-.118.351.351,0,0,0,.177-.3v-7.836q0-.446.052-1H333.7q-.157,0-.3.445a2.014,2.014,0,0,0-.118.576h-.17l.131-1.572h.171v.027c0,.113.017.183.052.21a.454.454,0,0,0,.236.039h4.521q.406,0,.406-.275h.169Z" transform="translate(-226.037 -659.32)" fill="none"/>
      </g>
    </g>
  </g>
</svg>
