<?xml version="1.0" standalone="no"?>
<!DOCTYPE svg PUBLIC "-//W3C//DTD SVG 1.1//EN" "http://www.w3.org/Graphics/SVG/1.1/DTD/svg11.dtd" >
<svg xmlns="http://www.w3.org/2000/svg" xmlns:xlink="http://www.w3.org/1999/xlink" version="1.1">
<metadata>
Created by FontForge 20201107 at Sun Dec  7 21:53:26 2008
 By www-data
(c) 2000 Ray Larabie. See attached license agreement for more information. If EULA is missing, visit www.larabiefonts.com for an updated version of this font.
</metadata>
<defs>
<font id="Effloresce-Italic" horiz-adv-x="521" >
  <font-face 
    font-family="Effloresce"
    font-weight="400"
    font-style="italic"
    font-stretch="normal"
    units-per-em="1000"
    panose-1="0 0 4 0 0 0 0 0 0 0"
    ascent="700"
    descent="-300"
    x-height="537"
    cap-height="686"
    bbox="-73 -278 1160 922"
    underline-thickness="20"
    underline-position="-143"
    slope="-12"
    unicode-range="U+0020-F002"
  />
<missing-glyph horiz-adv-x="452" 
d="M129 0q-97 0 -97 84v488q0 85 97 85h193q98 0 98 -85v-488q0 -84 -98 -84h-193zM368 572q0 39 -46 39h-193q-46 0 -46 -39v-488q0 -39 46 -39h193q46 0 46 39v488z" />
    <glyph glyph-name=".notdef" horiz-adv-x="452" 
d="M129 0q-97 0 -97 84v488q0 85 97 85h193q98 0 98 -85v-488q0 -84 -98 -84h-193zM368 572q0 39 -46 39h-193q-46 0 -46 -39v-488q0 -39 46 -39h193q46 0 46 39v488z" />
    <glyph glyph-name=".null" horiz-adv-x="0" 
 />
    <glyph glyph-name="nonmarkingreturn" horiz-adv-x="229" 
 />
    <glyph glyph-name="space" unicode=" " horiz-adv-x="229" 
 />
    <glyph glyph-name="exclam" unicode="!" horiz-adv-x="225" 
d="M310 689q0 -13 -10 -33q-6 -12 -22.5 -61.5t-38 -119t-46.5 -151t-48 -158.5h-24q1 14 6 52.5t11.5 89t14 105.5t14 102t10.5 79.5t4 38.5v34q0 25 23 42t55 17q51 0 51 -37zM155 59q0 -25 -17.5 -45t-42.5 -20q-38 0 -38 37q0 26 17.5 46.5t43.5 20.5q37 0 37 -39z" />
    <glyph glyph-name="quotedbl" unicode="&#x22;" horiz-adv-x="244" 
d="M331 744q0 -8 -7 -27t-16 -43.5t-19 -51.5t-16 -49h-24l7.5 72t2.5 28q0 7 -1.5 21t-1.5 22q0 21 13.5 38.5t35.5 17.5q26 0 26 -28zM248 744q0 -7 -7 -26t-16 -44t-19 -52t-16 -49h-24q4 48 7 72t3 28q0 7 -1.5 21t-1.5 22q0 21 13.5 38.5t34.5 17.5q27 0 27 -28z" />
    <glyph glyph-name="numbersign" unicode="#" horiz-adv-x="322" 
d="M405 589l-11 -26h-58l-27 -76h60l-10 -26h-59l-42 -117h-24l42 117h-68l-41 -117h-24l41 117h-56l9 26h57l26 76h-57l9 26h58l43 123h24l-43 -123h67l44 123h24l-44 -123h60zM312 563h-68l-26 -76h67z" />
    <glyph glyph-name="dollar" unicode="$" horiz-adv-x="370" 
d="M444 576q0 -11 -7 -20.5t-18 -9.5q-10 0 -13 14q-6 15 -10.5 24.5t-9.5 15t-12 8.5t-17 6l-49 -227q78 -56 78 -122q0 -69 -37 -114t-104 -61l-10 -50h-10l10 48q-15 -4 -39 -4h-9t-9 1l-9 -45h-11l11 46q-15 3 -31.5 11t-31 20.5t-23.5 28.5t-9 35q0 28 23 28
q12 0 16 -19q10 -38 22.5 -52t39.5 -19l52 242q-26 18 -42 31.5t-25 26.5t-12.5 27t-3.5 32q0 66 38.5 109t104.5 57l14 63h9l-13 -62q19 3 37 3h10.5t10.5 -1l13 60h9l-13 -62q13 -2 27.5 -9.5t26 -18t19 -21.5t7.5 -20zM347 616q-1 1 -10 1q-20 0 -48 -11l-37 -175
q8 -8 19.5 -17.5t28.5 -20.5zM278 602q-50 -30 -50 -106q0 -32 16 -54zM302 242q0 36 -12 57l-35 -166q47 32 47 109zM283 311q-8 11 -20 22t-28 22l-50 -237q1 -1 9 -1q29 0 50 10z" />
    <glyph glyph-name="percent" unicode="%" horiz-adv-x="498" 
d="M384 646q0 -35 -12.5 -65.5t-33.5 -53t-49.5 -36t-59.5 -13.5q-73 0 -73 79q0 34 11.5 65.5t32.5 55t49.5 37.5t63.5 14q71 0 71 -83zM508 724l-307 -502h-23l303 502h27zM542 369q0 -35 -12.5 -66t-33.5 -54t-49.5 -36t-60.5 -13q-72 0 -72 80q0 34 11.5 65t32.5 54.5
t49.5 37.5t62.5 14q72 0 72 -82zM345 636q0 79 -56 79q-20 0 -37 -15.5t-30 -39t-20.5 -51t-7.5 -50.5q0 -67 54 -67q20 0 37.5 13t31 33.5t21 46t7.5 51.5zM504 358q0 79 -58 79q-18 0 -35 -15t-30 -38t-20.5 -50.5t-7.5 -52.5q0 -67 53 -67q19 0 37 13.5t31.5 34.5
t21.5 46.5t8 49.5z" />
    <glyph glyph-name="ampersand" unicode="&#x26;" horiz-adv-x="452" 
d="M489 331l-5 -20h-67q-3 -30 -36 -186q-4 -15 -4 -36q0 -64 50 -64q21 0 47 13l4 -19q-50 -18 -76 -18q-66 0 -86 50q-80 -56 -137 -56q-27 0 -48.5 10.5t-37 28.5t-24 43t-8.5 54q0 34 9.5 67.5t29 61.5t49 48.5t70.5 28.5q-65 11 -65 107q0 43 17 84t46 72t68.5 50
t83.5 19q107 0 107 -54q0 -13 -10 -23.5t-22 -10.5q-10 0 -14.5 9t-9.5 20t-13.5 20t-25.5 9q-32 0 -60 -18t-49.5 -47.5t-34 -66.5t-12.5 -75q0 -42 21.5 -71.5t60.5 -29.5q22 0 44 10t41.5 28t35 42t25.5 53l-12.5 -55t-19.5 -78h68zM296 311q-29 0 -55.5 -16t-46.5 -42.5
t-31.5 -60.5t-11.5 -69q0 -45 19.5 -68.5t52.5 -23.5q35 0 87 31q-11 20 -11 44q0 27 12.5 78t32.5 127h-48z" />
    <glyph glyph-name="quotesingle" unicode="'" horiz-adv-x="121" 
d="M259 707q0 -15 -8 -31t-21 -31t-29.5 -28.5t-33.5 -22.5q34 40 34 75q0 34 -35 34q27 43 59 43q34 0 34 -39z" />
    <glyph glyph-name="parenleft" unicode="(" horiz-adv-x="244" 
d="M344 751q-21 -5 -43.5 -22t-42 -42t-34.5 -55t-21 -60l-95 -445q-9 -41 -9 -78q0 -105 78 -105h6l-3 -5q-17 -6 -33 -6q-39 0 -60.5 36.5t-21.5 96.5q0 13 1 25t4 24l95 445q9 40 25.5 75t40 61.5t52 43t61.5 20.5v-9z" />
    <glyph glyph-name="parenright" unicode=")" horiz-adv-x="290" 
d="M381 576l-95 -445q-8 -40 -25.5 -75t-41.5 -62t-53 -43.5t-60 -19.5v9q22 4 45 22t42 43.5t33.5 55.5t20.5 58l95 445q4 21 6.5 41t2.5 38q0 103 -78 103h-5l2 6q16 6 33 6q39 0 60.5 -37.5t21.5 -94.5z" />
    <glyph glyph-name="asterisk" unicode="*" horiz-adv-x="306" 
d="M401 551l-108 -40l98 -63l-36 -39l-73 90l-28 -112l-49 22l64 97l-115 -7l5 52l111 -31l-42 109l52 11l5 -116l90 73z" />
    <glyph glyph-name="plus" unicode="+" horiz-adv-x="287" 
d="M330 356l-4 -18h-99l-24 -118h-23l25 118h-96l4 18h96l23 111h23l-24 -111h99z" />
    <glyph glyph-name="comma" unicode="," horiz-adv-x="166" 
d="M136 59q0 -14 -8 -30.5t-21 -32t-29.5 -29t-33.5 -22.5q35 41 35 75q0 35 -35 35q25 43 59 43q33 0 33 -39z" />
    <glyph glyph-name="hyphen" unicode="-" horiz-adv-x="282" 
d="M330 373l-11 -47h-208l10 47h209z" />
    <glyph glyph-name="period" unicode="." horiz-adv-x="165" 
d="M144 59q0 -25 -17 -45t-42 -20q-38 0 -38 37q0 26 17 46.5t43 20.5q37 0 37 -39z" />
    <glyph glyph-name="slash" unicode="/" horiz-adv-x="342" 
d="M456 687l-397 -687h-30l394 687h33z" />
    <glyph glyph-name="zero" unicode="0" 
d="M562 354q0 -77 -27 -142.5t-72 -113t-104.5 -74.5t-124.5 -27q-153 0 -153 169q0 75 26 141t71 115t105 77.5t128 28.5q72 0 111.5 -44.5t39.5 -129.5zM482 336q0 35 -9 64.5t-25 51.5t-37 34t-46 12q-38 0 -74 -28.5t-64.5 -75t-46 -105.5t-17.5 -120q0 -143 113 -143
q42 0 79.5 28.5t65.5 73.5t44.5 100t16.5 108z" />
    <glyph glyph-name="one" unicode="1" horiz-adv-x="227" 
d="M313 550l-5 -21l-32 -10q-1 -13 -3 -26t-4 -27l-92 -430q-1 -1 -1 -6q0 -11 5.5 -14t16.5 -3l-3 -12h-135l3 12q28 0 33 23l86 396q2 12 5.5 23t3.5 13q0 19 -20 19q-4 0 -54 -14l4 21z" />
    <glyph glyph-name="two" unicode="2" horiz-adv-x="369" 
d="M412 423q-1 -75 -72.5 -164t-217.5 -186q57 3 69 3h172l-34 -75h-322q75 64 124 108t75 72q123 129 123 223q0 35 -17.5 61t-45.5 26q-29 0 -47 -23h1q0 -2 -6.5 -13t-15.5 -23t-19 -22t-17 -10q-21 0 -21 24q0 14 12.5 31t34 31.5t50.5 24.5t61 10q48 0 80.5 -25
t32.5 -73z" />
    <glyph glyph-name="three" unicode="3" horiz-adv-x="333" 
d="M382 422q0 -28 -12 -57.5t-31.5 -55.5t-45 -46t-51.5 -28h2q19 0 35 -8t28 -22t18.5 -32.5t6.5 -38.5q0 -28 -14.5 -60t-38 -64t-54 -61.5t-63.5 -52.5t-65.5 -36.5t-59.5 -13.5q-8 0 -8 6q0 5 6 8q54 18 96 44.5t70.5 58.5t43.5 68.5t15 75.5q0 45 -21 74t-57 29
q-17 0 -26 -4l5 22q67 17 106 64.5t39 114.5q0 38 -17 61t-49 23q-33 0 -52 -22l-6.5 -10t-15.5 -22t-19.5 -22.5t-17.5 -10.5q-21 0 -21 24q0 18 16.5 35t40.5 30t52.5 21t52.5 8q51 0 81.5 -24.5t30.5 -75.5z" />
    <glyph glyph-name="four" unicode="4" horiz-adv-x="382" 
d="M338 78q-4 -18 -7 -32.5t-7 -25.5h48l-3 -19h-49q-1 -13 -8 -47.5t-20 -92.5h-81q5 24 12.5 58t20.5 82h-242q15 16 28.5 30.5t25.5 28.5l316 378q11 12 24.5 30.5t33.5 41.5zM312 321q-18 -24 -32 -44t-27 -35l-141 -171q-12 -14 -24 -27l-24 -26q13 1 59 1.5t125 0.5
q5 42 21 114t43 187z" />
    <glyph glyph-name="five" unicode="5" horiz-adv-x="313" 
d="M397 503l-35 -75h-154q-8 0 -30 3l-21 -32q34 -17 63.5 -44t51.5 -60t35 -68.5t13 -69.5q0 -39 -14 -79q-13 -37 -42.5 -75t-63 -68.5t-66.5 -50t-54 -19.5q-7 0 -7 7q0 4 11 9q34 9 64.5 32.5t53 56.5t35.5 72t13 80q0 109 -122 202q-18 14 -34 19l113 160h190z" />
    <glyph glyph-name="six" unicode="6" horiz-adv-x="380" 
d="M402 271q0 -53 -16 -102.5t-43.5 -88t-65.5 -61.5t-83 -23q-123 0 -123 155q0 93 29 179t75.5 156t105.5 119.5t120 69.5l-1 -25q-44 -15 -79 -41t-63 -66t-51 -95t-43 -128q11 17 27 31.5t34 25.5t36.5 17t33.5 6q24 0 43.5 -10t33.5 -27.5t22 -41t8 -50.5zM331 232
q0 48 -22.5 80t-59.5 32q-46 0 -91 -54q-21 -71 -21 -154q0 -116 70 -116q27 0 49.5 19t39 49t26 68t9.5 76z" />
    <glyph glyph-name="seven" unicode="7" horiz-adv-x="366" 
d="M469 506q-13 -20 -23 -38t-18 -34l-309 -570h-39l265 497l40 70q-18 -1 -29 -2t-14 -1h-225l29 75h261q14 0 29.5 1t32.5 2z" />
    <glyph glyph-name="eight" unicode="8" horiz-adv-x="404" 
d="M477 595q0 -51 -34.5 -96.5t-112.5 -87.5q27 -18 45 -36t29 -38t15.5 -42.5t4.5 -50.5q0 -52 -17 -97t-46.5 -78.5t-70 -52.5t-87.5 -19q-66 0 -104 39.5t-38 103.5q0 34 11 68.5t33 65.5t55 57.5t77 45.5q-77 54 -77 135q0 39 15 73t41 59t60.5 39t73.5 14q27 0 50 -7.5
t40 -21t27 -32.5t10 -41zM425 594q0 78 -85 78q-57 0 -87 -27t-30 -78q0 -44 22.5 -76.5t69.5 -70.5q23 13 43 33t35 43.5t23.5 48.5t8.5 49zM365 209q0 51 -31 92.5t-79 67.5q-33 -18 -58.5 -45.5t-43 -59.5t-26.5 -66.5t-9 -66.5q0 -51 23 -79.5t65 -28.5q31 0 60 16.5
t51 43.5t35 60t13 66z" />
    <glyph glyph-name="nine" unicode="9" horiz-adv-x="375" 
d="M419 354q0 -63 -13 -122.5t-36 -112.5t-54.5 -97.5t-68.5 -77.5q-17 -15 -39.5 -31.5t-45.5 -30.5t-43 -23t-30 -9q-8 0 -8 9q0 12 13 16.5t38 15.5q66 30 111.5 94t77.5 177q-54 -67 -117 -67q-57 0 -87 37t-30 101q0 52 16 101.5t44.5 87t66.5 60.5t82 23
q123 0 123 -151zM349 360q0 121 -68 121q-26 0 -48.5 -18.5t-39 -48.5t-26 -67.5t-9.5 -75.5q0 -120 91 -120q41 0 77 39q23 75 23 170z" />
    <glyph glyph-name="colon" unicode=":" horiz-adv-x="152" 
d="M195 337q0 -25 -17 -45.5t-43 -20.5q-37 0 -37 38q0 26 17 46.5t42 20.5q38 0 38 -39zM136 59q0 -25 -17 -45t-42 -20q-38 0 -38 37q0 26 17 46.5t43 20.5q37 0 37 -39z" />
    <glyph glyph-name="semicolon" unicode=";" horiz-adv-x="153" 
d="M195 337q0 -25 -17 -45.5t-42 -20.5q-38 0 -38 38q0 26 17 46.5t42 20.5q38 0 38 -39zM136 59q0 -15 -8 -31.5t-21.5 -31.5t-30 -28.5t-32.5 -22.5q35 44 35 75q0 35 -36 35q25 43 59 43t34 -39z" />
    <glyph glyph-name="less" unicode="&#x3c;" horiz-adv-x="238" 
d="M296 467l-136 -123l81 -118l-58 -16l-82 121l131 118z" />
    <glyph glyph-name="equal" unicode="=" horiz-adv-x="270" 
d="M317 403l-7 -29h-191l6 29h192zM298 315l-6 -29h-192l6 29h192z" />
    <glyph glyph-name="greater" unicode="&#x3e;" horiz-adv-x="268" 
d="M301 344l-132 -118l-63 -17l136 122l-82 118l58 16z" />
    <glyph glyph-name="question" unicode="?" horiz-adv-x="346" 
d="M439 582q0 -31 -18 -64t-45.5 -66t-59 -65.5t-59 -62t-45.5 -55.5t-18 -46q0 -16 15 -77l-25 -8l-30 120q-1 5 -1.5 9t-0.5 6q0 21 15.5 44.5t38.5 49.5t50 52.5t50 53t38.5 52t15.5 49.5q0 36 -21 59t-57 23q-54 0 -111 -61l-13 22q30 32 77 51t93 19q111 0 111 -105z
M232 59q0 -25 -17 -45t-42 -20q-38 0 -38 37q0 26 17 46.5t43 20.5q37 0 37 -39z" />
    <glyph glyph-name="at" unicode="@" horiz-adv-x="527" 
d="M577 378q0 -31 -12 -65t-32 -62.5t-46 -47t-54 -18.5q-29 0 -50 42q-14 -28 -43 -44.5t-60 -16.5q-62 0 -62 48q0 24 13 40t32 28t42 21t42 19.5t32 24t13 34.5q0 13 -12.5 21t-27.5 8q-16 0 -34.5 -12.5t-27.5 -27.5l-12 23q51 45 100 45q27 0 46 -16t19 -41
q0 -8 -4 -28.5t-9.5 -43.5t-9.5 -43.5t-4 -28.5q0 -19 14 -19q18 0 32.5 12t25 32t16.5 45.5t6 52.5q0 70 -34 113.5t-95 43.5q-42 0 -81.5 -24t-70 -62t-48.5 -86.5t-18 -97.5q0 -39 11 -71t31.5 -55t48.5 -36t63 -13q30 0 59 9l-5 -19q-41 -15 -87 -15q-44 0 -80 13
t-62.5 36.5t-41 56.5t-14.5 74q0 61 27 119t72 103t102.5 72t118.5 27q79 0 125 -46t46 -124zM379 308q-17 -5 -34.5 -14.5t-31.5 -21t-23 -22.5t-9 -19q0 -22 29 -22q20 0 30.5 5.5t17 17.5t10.5 30.5t11 45.5z" />
    <glyph glyph-name="A" unicode="A" 
d="M526 0q-63 3 -71 3t-75 -3l2 12q30 0 30 21v2q0 3 -1.5 15t-3 28.5t-2.5 34.5t-1 33l1 13h-266q-4 -14 -20 -45t-40 -85q0 -17 26 -17l-3 -12q-47 3 -51 3q-6 0 -45 -3l2 12q29 0 41 23l316 628l-3 22l40 -2l42 2l49 -653q2 -20 36 -20zM403 179q-1 5 -4 34.5t-6.5 73
t-8 95.5t-8 100.5t-5.5 88t-2 58.5q-21 -51 -42.5 -96.5t-47 -96t-57 -112t-73.5 -145.5h254z" />
    <glyph glyph-name="B" unicode="B" horiz-adv-x="407" 
d="M469 556q0 -33 -11 -64.5t-29.5 -58t-44 -46.5t-55.5 -31h7q19 0 35.5 -12t28.5 -31.5t18.5 -44.5t6.5 -50q0 -51 -22 -91.5t-58.5 -68t-84 -42.5t-99.5 -15h-149l2 12q11 0 24.5 9t16.5 21l127 601q1 1 1 6q0 22 -26 24l2 12h202q49 0 78.5 -36t29.5 -94zM394 546
q0 55 -24 88t-64 33h-41q-3 -10 -4 -23t-5 -31l-42 -202q-2 -12 -6.5 -26.5t-9.5 -31.5l71 3q25 2 47.5 21.5t39.5 48t27.5 61t10.5 59.5zM344 237q0 46 -21.5 73t-60.5 27q-7 0 -68 -3q-2 -15 -4 -27.5t-4 -22.5l-41 -194q-3 -13 -9 -29.5t-6 -27.5q0 -13 22 -13
q40 0 75.5 17t61 46.5t40.5 69t15 84.5z" />
    <glyph glyph-name="C" unicode="C" horiz-adv-x="481" 
d="M571 635l-20 -135h-11q-2 34 -12 64t-26.5 52.5t-38.5 35t-48 12.5q-32 0 -62 -20.5t-56.5 -54.5t-48.5 -79t-38 -94t-25 -98.5t-9 -93.5q0 -94 26.5 -147.5t77.5 -53.5q32 0 66.5 16.5t64.5 42.5t52 58.5t29 64.5h10l-37 -136h-10q1 1 1 6q0 7 -7 7q-2 -1 -9 -4t-17 -11
q-45 -36 -86.5 -53t-89.5 -17q-82 0 -122 59.5t-40 158.5q0 112 27.5 200t74.5 149t110 92.5t135 31.5q17 -4 32 -6t27 -13q5 -5 11.5 -14l13 -18t13.5 -15.5t13 -6.5q13 0 18 20h11z" />
    <glyph glyph-name="D" unicode="D" horiz-adv-x="458" 
d="M524 450q0 -86 -22.5 -166.5t-68.5 -143.5t-114.5 -101t-160.5 -38h-153l2 12q36 1 41 30l128 607q0 24 -26 24l3 12h227q34 0 61 -17t45.5 -48.5t28 -75t9.5 -95.5zM441 453q0 103 -37 158.5t-104 55.5h-43q-1 -10 -2 -24t-6 -33l-107 -506q-2 -12 -10.5 -31t-8.5 -36
q0 -10 4.5 -13.5t19.5 -3.5h53q43 0 86 38.5t77.5 100t56 139t21.5 155.5z" />
    <glyph glyph-name="E" unicode="E" horiz-adv-x="402" 
d="M481 686l-12 -92h-8q-2 44 -6.5 58.5t-19.5 14.5h-172q-6 -46 -12 -74l-40 -185q-3 -12 -8 -25t-7 -28h156q13 0 23.5 16t14.5 37h10l-19 -129h-10q1 4 1 8.5v8.5q0 39 -20 39h-159q-2 -16 -4 -28.5t-4 -22.5l-41 -194q-1 -5 -5 -19t-10 -38q0 -13 24 -13h186q24 0 57 73
h8l-26 -92h-368l3 12q9 0 23 9t17 21l128 607q0 24 -25 24l1 12h324z" />
    <glyph glyph-name="F" unicode="F" horiz-adv-x="377" 
d="M486 686l-13 -92h-7q-2 44 -7 58.5t-20 14.5h-173q-5 -35 -9 -54l-43 -207q-6 -26 -15 -51h156q26 0 35 53h10l-19 -129h-10q1 4 1 8.5v8.5q0 39 -20 39h-157q-3 -17 -5.5 -32t-4.5 -28l-49 -232q-1 -1 -1 -6q0 -24 27 -24l-3 -12h-146l3 12q13 0 25.5 9t14.5 21l128 607
q0 24 -26 24l3 12h325z" />
    <glyph glyph-name="G" unicode="G" horiz-adv-x="495" 
d="M549 635l-29 -135h-11q4 11 4 31q0 27 -8.5 51.5t-23 43.5t-35 30.5t-44.5 11.5q-42 0 -75.5 -25t-59.5 -65t-44.5 -90.5t-30.5 -101.5t-17.5 -98t-5.5 -80q0 -189 90 -189q37 0 68 24.5t53 60t34 74t12 66.5q0 25 -26 25l3 12h135l-3 -12q-13 0 -25 -8.5t-15 -21.5
l-26 -120q-9 -41 -9 -67q0 -22 4 -31l-30 -16q-5 17 -5 37q0 26 9 67q-35 -57 -84 -87t-128 -30q-75 0 -112 57t-37 157q0 89 23 176t66.5 156t107 111.5t144.5 42.5q17 0 32 -5.5t27 -13.5q4 -4 11 -12.5t14.5 -17.5t14 -16t8.5 -7q13 0 13 15h11z" />
    <glyph glyph-name="H" unicode="H" horiz-adv-x="489" 
d="M618 674q-15 0 -26.5 -9t-13.5 -21l-129 -607q0 -24 26 -24l-3 -12q-32 1 -49.5 1.5t-21.5 0.5q-5 0 -23.5 -0.5t-51.5 -1.5l3 12q9 0 23 9t17 21l49 227q2 14 7 32.5t11 41.5h-234q-5 -21 -7.5 -39.5t-5.5 -34.5l-48 -233q0 -24 26 -24l-3 -12q-33 1 -50.5 1.5
t-21.5 0.5t-22.5 -0.5t-51.5 -1.5l2 12q9 0 23 9t17 21l128 601q1 1 1 6q0 24 -26 24l3 12q32 -1 49.5 -1.5t22.5 -0.5t23.5 0.5t50.5 1.5l-3 -12q-13 0 -25.5 -9t-14.5 -21l-45 -209l-18 -71h235q3 21 6 40.5t7 37.5l43 208q0 24 -26 24l3 12q32 -1 51 -1.5t23 -0.5t22 0.5
t50 1.5z" />
    <glyph glyph-name="I" unicode="I" horiz-adv-x="169" 
d="M306 674q-15 0 -26.5 -9t-13.5 -21l-129 -608q0 -24 26 -24l-3 -12q-66 3 -73 3q-9 0 -73 -3l3 12q11 0 23.5 9t15.5 21l129 608q0 24 -26 24l3 8l146 4z" />
    <glyph glyph-name="J" unicode="J" horiz-adv-x="276" 
d="M406 674q-17 0 -27.5 -9t-12.5 -21l-120 -560q-8 -38 -29 -70.5t-50 -57.5t-64.5 -39t-72.5 -14q-19 0 -36.5 4.5t-31.5 13t-22.5 19.5t-8.5 23q0 13 8.5 23t20.5 10q6 0 12 -4.5t9 -13.5q6 -18 10.5 -28t10.5 -15t14.5 -6.5t21.5 -1.5q44 0 75.5 29t42.5 80l129 614
q0 24 -26 24l3 12q18 -1 36 -1.5t36 -0.5q19 0 37.5 0.5t36.5 1.5z" />
    <glyph glyph-name="K" unicode="K" horiz-adv-x="452" 
d="M554 674q-38 0 -60 -30q-34 -45 -60.5 -78t-49.5 -59.5t-45 -48.5t-47 -44q3 -9 8 -22t11 -32l95 -317q4 -12 15.5 -21t22.5 -9l-2 -12q-38 1 -58.5 1.5t-25.5 0.5q-4 0 -23 -0.5t-53 -1.5l3 12q10 0 19.5 7t9.5 16q0 4 -90 327l-28 -16q-2 -16 -4.5 -31t-5.5 -29
l-52 -250q0 -24 26 -24l-3 -12q-33 1 -51.5 1.5t-23.5 0.5q-3 0 -20.5 -0.5t-50.5 -1.5l3 12q9 0 23 9t17 21l127 601q1 1 1 6q0 24 -26 24l3 12q31 -1 48 -1.5t22 -0.5q4 0 23 0.5t54 1.5l-3 -12q-13 0 -26 -9t-15 -21q-8 -45 -23 -110t-35 -153q29 15 63 43t68.5 64
t68.5 78t64 85q7 10 7 16q0 7 -19 7l1 12q24 -1 36.5 -1.5t13.5 -0.5q3 0 15.5 0.5t33.5 1.5z" />
    <glyph glyph-name="L" unicode="L" horiz-adv-x="388" 
d="M387 93l-38 -92h-333l2 12q11 0 24 9t16 21l128 601q1 1 1 6q0 24 -27 24l3 12q33 -1 51.5 -1.5t23.5 -0.5q4 0 21.5 0.5t49.5 1.5l-2 -12q-13 0 -25.5 -9t-14.5 -21l-114 -536q0 1 -3 -9.5t-6.5 -24t-6.5 -25t-3 -12.5q0 -10 9 -17h165q35 0 68 73h11z" />
    <glyph glyph-name="M" unicode="M" horiz-adv-x="545" 
d="M665 674q-13 0 -26 -9t-15 -21l-111 -601q-1 -1 -1 -6q0 -24 26 -24l-2 -12q-32 1 -50 1.5t-22 0.5q-5 0 -23.5 -0.5t-50.5 -1.5l2 12q13 0 26 9t14 21l65 352q5 26 13 64.5t21 89.5q-2 -3 -14.5 -27t-32 -62.5t-44 -86.5t-50 -98.5t-50 -99t-44 -87.5l-32 -64l-14.5 -29
q-1 28 -4 64.5t-9 84.5l-31 256q-3 24 -5.5 56.5t-2.5 75.5v17q-23 -93 -45 -185.5t-39 -166t-27.5 -118.5t-10.5 -43q0 -23 27 -23l-3 -12q-21 1 -33.5 1.5t-15.5 0.5t-15.5 -0.5t-33.5 -1.5l2 12q13 0 25 9t15 21l143 601q1 1 1 7q0 23 -26 23l3 12q12 -1 23.5 -1.5
t24.5 -0.5q14 0 26 0.5t22 1.5l42 -415q2 -18 2 -47.5t1 -74.5q14 32 28.5 61.5t29.5 58.5l216 417q18 -1 28.5 -1.5t12.5 -0.5t13.5 0.5t32.5 1.5z" />
    <glyph glyph-name="N" unicode="N" horiz-adv-x="475" 
d="M614 674q-12 0 -25 -9t-15 -21l-144 -678q-11 32 -19.5 57.5t-16.5 45.5l-154 400q-9 24 -19.5 56.5t-23.5 77.5q-7 -48 -14.5 -85.5t-13.5 -66.5l-87 -408q-1 -1 -1 -6q0 -24 26 -24l-1 -12q-23 1 -35.5 1.5t-14.5 0.5q-3 0 -15.5 -0.5t-34.5 -1.5l2 12q11 0 24 9t16 21
l129 607q0 24 -26 24l3 12q48 -3 53 -3t49 3l143 -385q4 -10 5.5 -13t2.5 -5.5t2.5 -7.5t5 -18t9.5 -37.5t16 -65.5q18 78 36 159t32.5 150.5t23.5 119.5t9 67q0 24 -26 24l3 12q22 -1 34.5 -1.5t15.5 -0.5q2 0 14.5 0.5t34.5 1.5z" />
    <glyph glyph-name="O" unicode="O" horiz-adv-x="495" 
d="M420 694q34 0 60 -10.5t43.5 -35t26 -64t8.5 -97.5q0 -55 -10.5 -113t-31 -113t-50 -103.5t-67.5 -85t-84.5 -58t-100.5 -21.5q-135 0 -135 165q0 62 9 126t27.5 123.5t46.5 111.5t65.5 91t85.5 61.5t107 22.5zM391 668q-32 0 -60.5 -24.5t-53.5 -65.5t-45 -93.5
t-34 -108t-21.5 -110t-7.5 -98.5q0 -150 76 -150q39 0 71 27t56.5 69.5t43 96t30 107t17.5 101t6 79.5q0 75 -20 122.5t-58 47.5z" />
    <glyph glyph-name="P" unicode="P" horiz-adv-x="407" 
d="M493 554q0 -23 -8 -60q-47 -197 -253 -197h-46q-5 -20 -7 -39.5t-6 -38.5l-38 -182q0 -24 26 -24l-3 -12q-32 1 -50 1.5t-23 0.5q-4 0 -22.5 -0.5t-50.5 -1.5l3 12q9 0 23 9t17 21l127 601q1 1 1 6q0 24 -26 24l3 12h231q46 0 74 -35.5t28 -96.5zM409 541
q0 55 -26.5 90.5t-71.5 35.5h-46q-2 -18 -5 -35.5t-6 -34.5l-63 -280h59q30 0 58.5 21t51 54t36 72.5t13.5 76.5z" />
    <glyph glyph-name="Q" unicode="Q" horiz-adv-x="491" 
d="M695 -142q-50 -27 -101 -27q-33 0 -64.5 12t-64.5 35q-7 4 -29 25.5t-47.5 46t-49.5 44t-35 19.5q-4 0 -5 -1q-49 -17 -79 -17q-72 0 -106.5 42t-34.5 123q0 34 6 80.5t20 111.5q18 84 44.5 147.5t64 106t88 63.5t116.5 21q138 0 138 -180q0 -92 -33 -213
q-32 -119 -75 -183t-108 -86l4 1q45 -6 84.5 -34t77 -59t75.5 -56t80 -25q19 0 34 3zM467 518q0 146 -78 146q-33 0 -63 -22.5t-55.5 -64.5t-46.5 -101t-36 -131q-20 -97 -20 -174q0 -149 77 -149q102 0 170 203q52 155 52 293z" />
    <glyph glyph-name="R" unicode="R" horiz-adv-x="443" 
d="M493 553q0 -35 -12 -70.5t-32 -65.5t-47.5 -50.5t-57.5 -24.5q39 -2 59 -28t20 -68q0 -10 -1.5 -20t-2.5 -21l-27 -124q-1 -6 -1.5 -11t-0.5 -10q0 -39 41 -47l-3 -12q-49 0 -82 22.5t-33 57.5q0 7 3 18l29 140q1 3 1 16q0 14 -4.5 28t-12.5 25.5t-18.5 18.5t-22.5 7h-87
l-9 -58l-50 -239q0 -24 26 -24l-3 -12q-32 1 -49 1.5t-22 0.5q-3 0 -22 -0.5t-53 -1.5l2 12q11 0 24 9t16 21l129 607q0 24 -26 24l3 12h230q45 0 70.5 -37.5t25.5 -95.5zM408 541q0 57 -23.5 91.5t-66.5 34.5h-47q-2 -19 -4.5 -34.5t-5.5 -28.5l-42 -197l-14 -54h87
q24 0 45 17t37 44t25 60.5t9 66.5z" />
    <glyph glyph-name="S" unicode="S" horiz-adv-x="355" 
d="M418 547h-14q6 34 6 56q0 60 -66 60q-25 0 -46.5 -14t-37 -36t-24.5 -50.5t-9 -56.5t11 -52.5t27 -48t35 -46.5t35 -47t27 -49.5t11 -54.5q0 -38 -15.5 -76.5t-43 -70t-65 -51t-80.5 -19.5q-32 0 -61 17.5t-56 35.5l13 93h13q-1 -6 -1.5 -12t-0.5 -11q0 -45 25.5 -68
t67.5 -23q25 0 46.5 14.5t37.5 38.5t24.5 55t8.5 63q0 45 -22.5 81t-50 70t-50 68.5t-22.5 75.5q0 40 17 77t45 65.5t64.5 45.5t75.5 17q63 0 91 -34z" />
    <glyph glyph-name="T" unicode="T" horiz-adv-x="400" 
d="M533 706l-32 -112h-10q8 46 8 54q0 19 -9 19h-107q-2 -20 -5 -37.5t-6 -33.5l-117 -553q-1 -1 -1 -6q0 -24 26 -24l-3 -12h-146l2 12q11 0 24.5 9t16.5 21l118 553q3 16 7.5 33.5t9.5 37.5h-108q-5 0 -11.5 -8.5t-13 -20t-11.5 -24t-7 -20.5h-10l32 112h11q-1 -5 -1.5 -8
t-0.5 -4q0 -8 16 -8h290q22 0 27 20h11z" />
    <glyph glyph-name="U" unicode="U" horiz-adv-x="450" 
d="M597 674q-14 0 -26.5 -9t-14.5 -21l-103 -489q-12 -57 -18.5 -85.5t-6.5 -33.5q0 -24 26 -24l-2 -12q-8 0 -25 2.5t-27 2.5q-9 0 -20.5 -1.5t-25.5 -3.5q3 13 7.5 34t8.5 47q-28 -48 -66 -67t-98 -19q-127 0 -127 121q0 15 1 32.5t6 35.5l98 460q1 1 1 6q0 24 -26 24
l2 12l73 -3q1 0 73 3l-1 -12q-13 0 -26 -9t-15 -21l-97 -457q-3 -14 -5 -26.5t-2 -25.5q0 -57 22 -84.5t73 -27.5q21 0 42.5 13t40 34t32 48t19.5 55l101 477q0 24 -26 24l3 12q48 -3 67 -3q6 0 16 0.5l20 1t18.5 1t10.5 0.5z" />
    <glyph glyph-name="V" unicode="V" horiz-adv-x="543" 
d="M675 674q-19 0 -28 -7.5t-16 -22.5l-313 -644h-82l-47 647q-2 27 -37 27l2 12q34 -1 52.5 -1.5t23.5 -0.5q4 0 21.5 0.5t48.5 1.5l-2 -12q-29 0 -29 -25l34 -399q5 -63 7 -110.5t2 -80.5q11 30 32.5 76t53.5 109l201 400q4 7 4 13q0 17 -25 17l3 12q24 -1 37.5 -1.5
t15.5 -0.5q3 0 13.5 0.5t29.5 1.5z" />
    <glyph glyph-name="W" unicode="W" horiz-adv-x="761" 
d="M904 674q-19 0 -28.5 -7.5t-16.5 -22.5l-313 -644h-80l-20 262l-127 -262h-81l-48 647q-2 27 -37 27l3 12q34 -1 52.5 -1.5t22.5 -0.5t21.5 0.5t49.5 1.5l-2 -12q-14 0 -22.5 -5.5t-8.5 -19.5l36 -399q6 -64 6 -111t2 -80q12 30 43.5 96t85.5 172l-24 320q-2 27 -37 27
l2 12q34 -1 52 -1.5t21 -0.5h180q3 0 13.5 0.5t29.5 1.5l-3 -12q-18 0 -27.5 -7.5t-16.5 -22.5l-113 -234l13 -160q4 -45 6.5 -82t2.5 -67v-42q11 30 33 76t54 109l201 400q3 7 3 13q0 17 -25 17l3 12q24 -1 37.5 -1.5t16.5 -0.5t13.5 0.5t28.5 1.5zM605 657q0 17 -25 17
h-53q-30 0 -30 -25l6 -64q2 -28 4 -62t3 -67q9 22 31.5 69t59.5 119q4 7 4 13z" />
    <glyph glyph-name="X" unicode="X" horiz-adv-x="382" 
d="M525 674q-17 0 -27.5 -6.5t-18.5 -20.5l-170 -262l44 -356q2 -17 32 -17l-2 -12q-68 3 -77 3q-8 0 -69 -3l2 12q10 0 20 6t10 14l-15 126q-5 35 -8 63.5t-3 51.5v19q-10 -20 -28.5 -51t-45.5 -74l-81 -126q-4 -4 -4 -11q0 -18 22 -18l-2 -12q-42 3 -48 3q-5 0 -53 -3
l3 12q27 0 47 30l179 279l-38 326q-2 27 -34 27l2 12q34 -1 52.5 -1.5t23.5 -0.5q4 0 21.5 0.5t48.5 1.5l-2 -12q-11 0 -20.5 -6t-9.5 -15l15 -119q1 -3 2.5 -31.5t6.5 -85.5q13 24 48.5 80.5t95.5 150.5q2 8 2 9q0 17 -22 17l2 12q24 -1 38 -1.5t17 -0.5t14.5 0.5t32.5 1.5
z" />
    <glyph glyph-name="Y" unicode="Y" horiz-adv-x="381" 
d="M512 674q-29 0 -47 -30l-98 -162q-10 -12 -22 -31.5t-27 -49.5q-3 -2 -12 -47t-28 -136q-18 -89 -27.5 -133.5t-9.5 -47.5q0 -24 26 -24l-3 -12q-33 1 -50.5 1.5t-21.5 0.5t-22.5 -0.5t-51.5 -1.5l2 12q11 0 24 9t16 21l70 322l-54 293q-3 16 -32 16l2 12q35 -1 54 -1.5
t23 -0.5t21 0.5t49 1.5l-3 -12q-10 0 -21 -9t-11 -19v-2q0 -3 2.5 -18.5t8.5 -43.5q2 -9 6.5 -30t9 -46t8 -48.5t3.5 -37.5q15 30 48 86.5t87 141.5q3 4 3 9q0 17 -23 17l3 12q21 -1 33.5 -1.5t15.5 -0.5q4 0 16.5 0.5t35.5 1.5z" />
    <glyph glyph-name="Z" unicode="Z" horiz-adv-x="402" 
d="M511 686q-15 -19 -30 -43t-31 -50l-259 -437q-27 -45 -49.5 -78.5t-40.5 -57.5h227q27 0 60 73h7l-26 -92h-356q15 20 31.5 45t34.5 55l263 443q23 38 43.5 69t38.5 54h-205q-26 0 -57 -73h-8l31 105h10q-1 -1 -1 -3q0 -10 10 -10h307z" />
    <glyph glyph-name="bracketleft" unicode="[" horiz-adv-x="206" 
d="M301 760l-4 -18h-69l-168 -788h70l-3 -15h-106l174 821h106z" />
    <glyph glyph-name="backslash" unicode="\" horiz-adv-x="303" 
d="M251 1h-42l-33 685h44z" />
    <glyph glyph-name="bracketright" unicode="]" horiz-adv-x="235" 
d="M368 760l-175 -821h-106l3 15h70l168 788h-71l5 18h106z" />
    <glyph glyph-name="asciicircum" unicode="^" horiz-adv-x="383" 
d="M458 537h-91l-72 99l-111 -99h-34l154 137h62z" />
    <glyph glyph-name="underscore" unicode="_" horiz-adv-x="452" 
d="M348 -148q-13 -2 -62 -4.5t-137 -2.5h-167l67 12q14 2 87 4.5t211 2.5h67z" />
    <glyph glyph-name="grave" unicode="`" horiz-adv-x="432" 
d="M452 715l-17 -19l-105 32q-20 6 -20 22q0 26 33 26q15 0 32 -11z" />
    <glyph glyph-name="a" unicode="a" horiz-adv-x="386" 
d="M357 59q-1 -3 -1 -10q0 -14 13 -14q3 0 23 5l-4 -17q-98 -24 -103 -24q-17 0 -17 16q0 14 15 59q-45 -76 -134 -76q-85 0 -85 159q0 75 17 143.5t48.5 120.5t74.5 83t96 31q13 0 27.5 -4t28 -8.5t24 -8.5t14.5 -4q31 0 65 31zM365 462q0 41 -55 41q-37 0 -66.5 -26
t-50.5 -71t-32.5 -105t-11.5 -129q0 -63 15.5 -102t41.5 -39t58 41q15 20 22 36.5t10 30.5t4 26t4 23l40 192q1 4 4.5 14t7 21.5t6.5 24t3 22.5z" />
    <glyph glyph-name="b" unicode="b" horiz-adv-x="408" 
d="M450 407q0 -81 -18.5 -154.5t-51 -129.5t-76.5 -89t-94 -33q-16 0 -33.5 10t-33.5 22.5t-28 22.5t-16 10q-27 0 -62 -65l133 625q1 1 1 8q0 5 -4 8t-9.5 5t-9.5 4t-4 5t1 3.5t11.5 2.5t35 7.5t72.5 19.5q-8 -40 -21 -99t-32 -138q49 91 136 91q103 0 103 -136zM369 408
q0 93 -62 93q-49 0 -78 -49.5t-45 -137.5l-24 -115q-6 -22 -11 -45t-5 -36q0 -19 5.5 -36t15 -30t23 -20.5t28.5 -7.5q25 0 46.5 19.5t38.5 52t29.5 73.5t21 83.5t13 83t4.5 72.5z" />
    <glyph glyph-name="c" unicode="c" horiz-adv-x="359" 
d="M399 428v18q0 73 -47 73q-38 0 -71 -33t-58.5 -84.5t-40 -114t-14.5 -121.5q0 -137 82 -137q54 0 110 74l15 -9q-74 -96 -168 -96q-61 0 -94 45.5t-33 126.5q0 66 21.5 132.5t58.5 120t86 86.5t104 33q69 0 94 -49z" />
    <glyph glyph-name="d" unicode="d" horiz-adv-x="409" 
d="M381 59l-1.5 -6t-0.5 -4q0 -14 14 -14q2 0 22 5l-4 -17q-98 -24 -103 -24q-17 0 -17 16q0 14 15 59q-45 -76 -134 -76q-85 0 -85 163q0 70 15 137t42.5 119.5t66.5 85t87 32.5q33 0 57.5 -20.5t33.5 -52.5q0 2 2.5 14.5t6 30.5t7.5 39t7.5 39t6 31.5t2.5 17.5q0 5 -4 8
t-9.5 5t-9.5 4t-4 5t4.5 4.5t18 4t36.5 8t61 16.5zM375 406q0 15 -6.5 32t-17 31.5t-24.5 24t-29 9.5q-27 0 -50 -29t-40 -75.5t-26.5 -105t-9.5 -117.5q0 -66 15.5 -105.5t42.5 -39.5q12 0 26.5 11.5t28 28t23 35t11.5 33.5t10.5 58t24.5 118l10 37q4 15 7.5 30t3.5 24z
" />
    <glyph glyph-name="e" unicode="e" horiz-adv-x="396" 
d="M463 443q0 -82 -58 -124q-7 -4 -24.5 -11t-40.5 -16.5t-49.5 -21t-50.5 -23t-43 -23t-28 -21.5q-1 -16 -2.5 -27.5t-1.5 -19.5q0 -60 23.5 -93.5t60.5 -33.5q30 0 64 20.5t60 53.5l17 -10q-72 -95 -184 -95q-63 0 -95 45t-32 126q0 63 20.5 129.5t57.5 120.5t87 89
t109 35q51 0 80.5 -29t29.5 -71zM394 444q0 29 -13.5 49.5t-37.5 20.5q-27 0 -54.5 -24.5t-51 -63.5t-41 -86.5t-25.5 -92.5q13 11 31.5 20.5t42.5 17.5q45 15 74 29t45.5 32t23 41.5t6.5 56.5z" />
    <glyph glyph-name="f" unicode="f" horiz-adv-x="244" 
d="M331 593q3 13 3 27q0 34 -21 34q-19 0 -31 -13t-20 -34.5t-13.5 -48.5t-11.5 -55h68l-5 -20h-67q-9 -118 -33 -221t-57 -185t-73 -140t-81 -86l-19 14q30 29 58.5 80t52.5 124q13 40 21.5 75t16.5 79t16.5 105t21.5 155h-40l3 20h42q15 91 50.5 134t106.5 43q42 0 59 -27
z" />
    <glyph glyph-name="g" unicode="g" horiz-adv-x="398" 
d="M395 144q-14 -68 -41 -122.5t-64 -93t-81.5 -59t-93.5 -20.5h-7l6 43q10 -15 37 -15q6 0 14 3q29 11 51.5 29t40 44t30.5 62.5t23 84.5q-11 -21 -27 -39.5t-34.5 -32.5t-39 -22t-40.5 -8q-102 0 -102 135q0 72 18.5 144t50.5 129.5t76 93.5t94 36q16 0 33.5 -10t32.5 -22
t27 -22t18 -10q27 0 62 68zM378 433q0 15 -6.5 29.5t-17 25.5t-25 18t-29.5 7q-29 0 -56.5 -39.5t-49.5 -97.5t-35 -124.5t-13 -120.5q0 -92 62 -92q42 0 79 46q14 17 21 34t11 34t6.5 35.5t6.5 38.5l28 133l3 10.5t6 23t6 24.5t3 15z" />
    <glyph glyph-name="h" unicode="h" horiz-adv-x="390" 
d="M444 436q0 -19 -4 -30l-77 -364q0 -13 37 -13l-3 -12h-6q-11 0 -28 -4t-35 -8.5l-34 -8.5t-23 -4l85 402q3 12 3 24q0 32 -18 56.5t-47 24.5q-39 0 -62 -34t-35 -103l-53 -253q-16 -68 -16 -82q0 -4 0.5 -10t1.5 -16q-13 0 -23 0.5t-16 0.5h-23q-7 0 -17 -0.5t-23 -0.5
q4 5 6.5 7t6 10.5t8.5 28.5t14 62l109 517q1 1 1 8q0 5 -4.5 8t-9.5 5t-9.5 4t-4.5 5t3 4t15 3t36.5 7.5t67.5 18.5q-8 -37 -21 -92.5t-31 -130.5q16 34 53 55.5t82 21.5q19 0 36.5 -8.5t30 -23t20 -34t7.5 -41.5z" />
    <glyph glyph-name="i" unicode="i" horiz-adv-x="167" 
d="M276 661q0 -25 -17 -45.5t-42 -20.5q-37 0 -37 38q0 26 17 46.5t42 20.5q37 0 37 -39zM139 45q-1 -1 -1 -9q0 -11 10 -11q5 0 13.5 2t13.5 2l-2 -12q-2 -2 -8.5 -3.5t-21 -4.5t-38.5 -9t-61 -18l105 492q1 1 1 7t-4.5 9.5t-9.5 5t-9.5 3.5t-4.5 5t5.5 4.5t19 4.5
t37.5 8.5t60 15.5z" />
    <glyph glyph-name="j" unicode="j" horiz-adv-x="168" 
d="M281 661q0 -25 -17.5 -45.5t-42.5 -20.5q-37 0 -37 38q0 26 17.5 46.5t42.5 20.5q37 0 37 -39zM144 52q-10 -40 -30.5 -74.5t-49 -59.5t-63.5 -39.5t-74 -14.5l18 55q15 -28 35 -28q10 0 20.5 9.5t20.5 25t18 36t13 41.5l101 471q1 1 1 8q0 6 -4.5 9t-10 5t-10 4t-4.5 5
q0 2 4.5 3.5t17.5 4t36.5 8t62.5 16.5z" />
    <glyph glyph-name="k" unicode="k" horiz-adv-x="431" 
d="M465 443q0 -32 -14.5 -65t-37.5 -60t-53.5 -44t-61.5 -17q20 -12 33 -79v-2q0 -7 2 -29t7 -45.5t13.5 -42t21.5 -18.5q11 0 35 29q2 -7 9 -11q-2 -9 -12.5 -21t-24 -22.5t-27.5 -17.5t-24 -7q-26 0 -42 21.5t-20 52.5q-10 88 -27.5 139.5t-37.5 51.5q-12 0 -22 -12
l-32 -152q-5 -23 -7 -41t-2 -31v-9.5t1 -9.5h-29q-18 0 -22 2q-6 0 -13.5 -0.5t-15 -0.5t-13 -0.5t-6.5 -0.5q5 13 11.5 35.5t14.5 55.5l114 534q1 1 1 7t-4.5 9t-9.5 5t-9.5 4t-4.5 5t4.5 4.5t18 4t37 8t61.5 16.5l-59 -279q16 27 36 49.5t41.5 38t43 24.5t41.5 9
q39 0 62 -25t23 -63zM383 416q0 65 -47 65q-31 0 -65.5 -30t-61.5 -81l-4 -18q-2 -8 -3.5 -12.5t-3.5 -11t-4.5 -18t-5.5 -33.5q18 21 56 21q29 0 40 -21h7q19 0 35.5 13t29 33.5t20 45t7.5 47.5z" />
    <glyph glyph-name="l" unicode="l" horiz-adv-x="167" 
d="M139 45q-1 -1 -1 -3q0 -13 37 -13l-2 -12q-38 -5 -69.5 -11.5t-57.5 -13.5l135 634q1 1 1 8q0 6 -4 8.5t-9.5 4.5t-9.5 4t-4 5q0 2 5.5 4t19.5 5t37 8.5t59 15.5z" />
    <glyph glyph-name="m" unicode="m" horiz-adv-x="556" 
d="M616 448q0 -10 -1.5 -20t-3.5 -22l-77 -364q0 -13 37 -13l-2 -12q-26 -1 -57 -7.5t-69 -17.5l85 402q1 11 3 23t2 25q0 70 -41 70q-25 0 -48 -30t-31 -76l-67 -314q-2 -9 -4 -31.5t-6 -59.5q-13 0 -22 0.5t-16 0.5h-23q-7 0 -17 -0.5t-24 -0.5q9 17 17.5 39.5t14.5 51.5
l64 302q2 13 3 25.5t2 26.5q0 64 -39 64q-29 0 -46.5 -20.5t-28 -48.5t-15.5 -57t-9 -46l-53 -246q-6 -26 -7.5 -45t-2.5 -32q0 -12 1 -14q-13 0 -22 0.5t-16 0.5h-23q-7 0 -17 -0.5t-24 -0.5q15 21 31 91l81 382q1 1 1 7t-4 9.5t-9.5 5t-9.5 3.5t-4 5t4.5 4.5t17.5 4t37 8
t62 16.5q-3 -14 -7.5 -29t-9.5 -31q18 28 49 46.5t62 18.5t50.5 -18t19.5 -47q49 67 124 67q42 0 65 -26.5t23 -69.5z" />
    <glyph glyph-name="n" unicode="n" horiz-adv-x="389" 
d="M447 442q0 -9 -1 -17.5t-2 -18.5l-77 -364q0 -13 30 -13h6l-2 -12q-61 0 -126 -25l85 402q4 13 4 37q0 76 -58 76q-36 0 -56.5 -20t-31 -47t-14.5 -54t-7 -41l-54 -253q-5 -25 -8 -44t-3 -33q0 -12 1 -14q-13 0 -23 0.5t-16 0.5h-24q-6 0 -16 -0.5t-23 -0.5q10 15 17 37
t14 54l82 382v7q0 5 -4 8.5t-9.5 5.5t-9.5 4.5t-4 5.5t2.5 3.5t14 2.5t36 7.5t68.5 18.5l-20 -74q16 36 51.5 57t74.5 21q48 0 75.5 -27t27.5 -72z" />
    <glyph glyph-name="o" unicode="o" horiz-adv-x="412" 
d="M468 387q0 -73 -17 -144t-52 -127t-87.5 -90.5t-122.5 -34.5q-58 0 -86 44t-28 116t14.5 144t47.5 129t86.5 93t131.5 36q57 0 85 -45.5t28 -120.5zM386 380q0 66 -21 103.5t-58 37.5q-24 0 -44.5 -22t-37.5 -56.5t-30 -77.5t-21.5 -85.5t-13 -80t-4.5 -61.5
q0 -119 75 -119q17 0 34 6q14 5 28.5 25t28 49.5t25 65.5t20.5 74t14 74.5t5 66.5z" />
    <glyph glyph-name="p" unicode="p" horiz-adv-x="399" 
d="M444 362q0 -75 -19.5 -141.5t-54.5 -116.5t-83 -79t-106 -29q-30 0 -55 6q-7 -35 -11 -57t-6.5 -37t-3 -27t-0.5 -27q-13 1 -23 1t-16 1h-23q-7 -1 -16.5 -1t-22.5 -1q7 15 15 37.5t15 52.5l20 91q-34 25 -34 54l18 18l24 -30l84 397q1 1 1 8q0 6 -4.5 9t-9.5 5t-9.5 4
t-4.5 5q0 2 4.5 3t17.5 4t37 8.5t63 16.5q-4 -18 -9 -35t-10 -33q17 20 31.5 33.5t29.5 21.5t32.5 11.5t40.5 3.5q19 0 35.5 -13.5t28 -37t18 -56t6.5 -70.5zM358 357q0 66 -16 107.5t-44 41.5q-25 0 -55 -38q-17 -21 -25 -38t-11 -31t-4 -27.5t-4 -27.5l-51 -237
q-3 -13 -9 -32t-11 -45q26 -8 43 -8q40 0 74.5 27t59.5 73t39 106.5t14 128.5z" />
    <glyph glyph-name="q" unicode="q" horiz-adv-x="398" 
d="M353 -56q-11 -55 -11 -79q0 -4 0.5 -6.5t0.5 -4.5l-60 2q-7 -1 -17.5 -1t-24.5 -1q10 17 16.5 36.5t13.5 46.5t15 65t21 92q-21 -42 -58 -69t-80 -27q-102 0 -102 135q0 73 18.5 145t50.5 129.5t76 93t94 35.5q16 0 33.5 -10t32.5 -22t27 -22t18 -10q27 0 62 68zM378 433
q0 15 -6.5 29.5t-17 25.5t-25 18t-29.5 7q-29 0 -56.5 -39.5t-49.5 -97.5t-35 -124.5t-13 -120.5q0 -92 62 -92q42 0 79 46q14 17 21 34t11 34t6.5 35.5t6.5 38.5l28 133l3 10.5t6 23t6 24.5t3 15z" />
    <glyph glyph-name="r" unicode="r" horiz-adv-x="259" 
d="M339 454q-6 35 -37 35q-23 0 -43.5 -25t-37 -62.5t-29 -81t-19.5 -80.5l-33 -158q-9 -41 -9 -64v-17q-12 0 -21.5 0.5t-16.5 0.5h-24q-7 0 -16 -0.5t-22 -0.5q6 14 14 34.5t14 46.5l84 392q1 1 1 8q0 6 -4.5 8.5t-9.5 4.5t-9.5 4t-4.5 5q0 4 4 5t16.5 3t36 7.5t63.5 17.5
l-33 -142q67 150 152 150q23 0 39 -16z" />
    <glyph glyph-name="s" unicode="s" horiz-adv-x="340" 
d="M404 515q-8 -18 -20.5 -43t-29.5 -58l-1 -1v6q-1 28 -3 46.5t-7 29.5t-15.5 15.5t-28.5 4.5q-21 0 -39.5 -10.5t-32 -27t-21.5 -37.5t-8 -42q0 -23 11.5 -40.5t28.5 -32t36.5 -28t36.5 -28.5t28.5 -33.5t11.5 -43.5q0 -38 -16.5 -74t-43.5 -64.5t-62.5 -45.5t-72.5 -17
q-50 0 -120 43l46 92q3 -31 8.5 -50t14.5 -30t22.5 -15t31.5 -4q22 0 41 12t32.5 29.5t21 38t7.5 37.5q0 21 -9.5 40t-29.5 33q-22 15 -42.5 28t-36 28.5t-25 34.5t-9.5 46q0 39 16 74t42.5 62t62 42.5t74.5 15.5q73 0 100 -33z" />
    <glyph glyph-name="t" unicode="t" horiz-adv-x="219" 
d="M318 521l-7 -28h-84l-7 -47l-67 -321q-5 -25 -5 -36q0 -64 35 -64q23 0 51 31l9 -28q-34 -37 -82 -37q-42 0 -67 29t-25 75q0 11 1 21t4 22l67 311q3 13 5.5 24t6.5 20h-38l5 28h39q1 6 3.5 21.5t5.5 32t5 29.5t2 15q0 1 -0.5 8t-1.5 17q16 2 40.5 11.5t56.5 26.5
q-9 -23 -17 -59t-20 -102h85z" />
    <glyph glyph-name="u" unicode="u" horiz-adv-x="398" 
d="M474 537q-11 -32 -30 -117l-75 -361l-1.5 -6t-0.5 -4q0 -14 13 -14q1 0 23 5l-4 -17q-98 -24 -103 -24q-17 0 -17 16q0 15 15 56q-18 -34 -53 -54.5t-73 -20.5q-46 0 -74 27t-28 75q0 19 4 36l73 340q1 1 1 8q0 6 -4.5 9t-10 5t-10 4t-4.5 5q0 2 4.5 3.5t17.5 4t36.5 8
t62.5 16.5l-83 -391q-3 -13 -4 -22.5t-1 -17.5q0 -33 15.5 -54.5t42.5 -21.5q34 0 54 17.5t31 42.5t15.5 52t8.5 47l49 231q15 70 15 106v11q37 -3 46 -3q5 0 49 3z" />
    <glyph glyph-name="v" unicode="v" horiz-adv-x="366" 
d="M448 537q10 0 12 2q-20 -63 -42.5 -121.5t-53.5 -121.5t-74.5 -134.5t-105.5 -161.5h-9q0 69 -3 138.5t-8 132.5t-11 115.5t-12 87.5q-2 7 -6.5 12t-9 8t-8 5.5t-3.5 4.5q0 3 22 9t83 24q11 -75 16.5 -150t5.5 -151q0 -49 -3 -92l39 59q34 52 65.5 117t59.5 150
q15 43 15 49q0 9 -14 9h-4l3 12q7 0 22.5 -1.5t23.5 -1.5z" />
    <glyph glyph-name="w" unicode="w" horiz-adv-x="551" 
d="M640 537q10 0 12 2q-11 -40 -28.5 -87.5t-39 -98t-45.5 -101.5t-49 -97.5t-50 -86.5t-47 -68h-10q7 97 9.5 154t2.5 76q0 79 -13 147q-63 -184 -198 -377h-9q0 72 -2.5 135t-7 120t-11 111t-13.5 108q-2 7 -6.5 12t-9 8t-8 5.5t-3.5 4.5q0 4 22.5 9.5t82.5 23.5
q13 -85 19 -147t6 -104q0 -43 -6 -142q11 14 26 40t31.5 60t32.5 72t30 75t25 69.5t16 55.5l1 2q0 10 -21 10h-5l3 12q6 0 18.5 -1.5t19.5 -1.5q11 0 13 3q13 -61 19 -129.5t6 -144.5q0 -35 -1.5 -65.5t-5.5 -56.5q70 90 138 291q24 73 24 84q0 9 -14 9h-3l3 12q7 0 22 -1.5
t24 -1.5z" />
    <glyph glyph-name="x" unicode="x" horiz-adv-x="389" 
d="M490 490q0 -52 -50 -75l-26 48q-11 0 -20.5 -6.5t-23 -23.5t-32 -48t-46.5 -79l59 -261q2 -10 13 -13t31 -3l2 -12h-5q-12 0 -28 -4t-32 -8.5t-29.5 -8.5t-20.5 -4l-46 203q-104 -206 -173 -206q-34 0 -34 37q0 52 49 76l26 -48q13 4 27.5 19t30.5 37.5t33.5 50.5
t35.5 58l-58 255q-2 9 -8.5 13.5t-13.5 7.5t-12.5 4.5t-5.5 4.5t5 5t17 5t32.5 8t52.5 15l46 -206q101 197 170 197q34 0 34 -38z" />
    <glyph glyph-name="y" unicode="y" horiz-adv-x="371" 
d="M448 537q10 0 12 2q-19 -60 -45.5 -125t-64.5 -139.5t-89 -161.5t-120 -192q-63 -96 -112 -96q-35 0 -35 38q0 51 50 75l26 -48q34 12 105 122q-1 106 -6.5 201t-15.5 180l-12 81q-2 7 -6.5 12t-9 8t-8 5.5t-3.5 4.5t5 4t17 5.5t32.5 9t50.5 14.5q12 -91 18.5 -187.5
t6.5 -205.5v-9q11 12 28.5 43t36.5 71.5t38.5 84.5t35 82.5t25 66.5t9.5 36q0 9 -14 9h-4l3 12q7 0 22.5 -1.5t23.5 -1.5z" />
    <glyph glyph-name="z" unicode="z" horiz-adv-x="360" 
d="M457 544q-3 -5 -20 -29t-43 -59.5t-58 -79t-65.5 -89t-65 -89t-57 -78t-42 -57t-18.5 -25.5q22 14 45.5 27.5t48.5 13.5q7 0 19.5 -4.5t26 -10.5t25.5 -10.5t18 -4.5q40 0 62 37l17 -6q-48 -90 -112 -90q-9 0 -26 3.5t-36 8t-35.5 8.5t-24.5 4q-34 0 -92 -24q4 5 21.5 29
t43.5 59.5t57.5 79.5t64.5 89.5t64.5 89t56.5 78t41.5 56.5t19.5 25q-24 -15 -47 -27.5t-47 -12.5q-7 0 -19 4.5t-25.5 10t-25.5 10t-19 4.5q-41 0 -62 -37l-17 7q50 89 113 89q8 0 25 -4t35.5 -8.5t35.5 -8t26 -3.5q32 0 91 24z" />
    <glyph glyph-name="braceleft" unicode="{" horiz-adv-x="281" 
d="M427 726q-43 -15 -66 -48.5t-35.5 -78t-18.5 -96t-14 -101.5q-33 -116 -136 -167q67 -43 67 -127q0 -13 -4.5 -36.5t-11.5 -51t-14.5 -57.5t-14.5 -57t-11.5 -48.5t-4.5 -32.5q0 -60 55 -84l-4 -19q-93 21 -93 121q0 27 9 67t20.5 83t20.5 84t9 70q0 66 -54 75l5 23
q38 8 64 41t39 94q15 75 27 137.5t31 109.5t51 77t88 41z" />
    <glyph glyph-name="bar" unicode="|" horiz-adv-x="169" 
d="M249 744l-179 -836h-30l178 836h31z" />
    <glyph glyph-name="braceright" unicode="}" horiz-adv-x="312" 
d="M331 626q0 -29 -9 -68.5t-20 -82t-20 -83.5t-9 -72q0 -65 54 -75l-6 -23q-38 -7 -64.5 -40t-37.5 -93q-15 -80 -28 -143.5t-33 -110t-52 -75t-85 -38.5l4 19q83 29 105 131l30 195q31 114 135 168q-67 43 -67 125q0 21 9.5 61.5t21.5 84.5t21.5 82.5t9.5 55.5
q0 61 -55 82l4 19q92 -20 92 -119z" />
    <glyph glyph-name="exclamdown" unicode="&#xa1;" horiz-adv-x="225" 
d="M181 25q-11 -44 -68 -44q-23 0 -40 11t-17 29q1 0 12.5 35.5t27.5 89.5t35 118t35.5 122t29.5 101t17 54h24q-12 -77 -22.5 -151.5t-18 -137.5t-11.5 -111.5t-4 -73.5q0 -10 1 -16.5t1 -12.5q0 -3 -0.5 -6t-1.5 -7zM292 647q-17 -38 -54 -38t-37 39q0 31 18 48.5t41 17.5
q37 0 37 -39q0 -10 -5 -28z" />
    <glyph glyph-name="cent" unicode="&#xa2;" horiz-adv-x="385" 
d="M469 568q0 -21 -25 -21q-13 0 -17 12q-11 25 -23 33t-35 8l-6 -1l-73 -343q1 -1 8 -1q54 0 103 52l14 -5q-55 -58 -129 -67l-16 -71h-26l14 69q-63 0 -98.5 36.5t-35.5 99.5q0 45 17.5 87t47.5 76t69 56t82 27l16 73h26l-15 -71q18 0 36 -4t32.5 -11t24 -15.5t9.5 -18.5z
M335 594q-26 -8 -49 -31.5t-40 -55t-26.5 -68t-9.5 -70.5q0 -88 55 -109z" />
    <glyph glyph-name="yen" unicode="&#xa5;" horiz-adv-x="405" 
d="M210 273l20 92l-54 293q-3 16 -32 16l2 12q35 -1 54 -1.5t22 -0.5q5 0 22 0.5t49 1.5l-3 -12q-10 0 -21 -9t-11 -19v-2q0 -3 2.5 -18.5t8.5 -43.5q2 -9 6.5 -30t9 -46t8 -48.5t3.5 -37.5q15 30 48 86.5t87 141.5q3 4 3 9q0 17 -23 17l3 12q21 -1 33.5 -1.5t15.5 -0.5
q4 0 16.5 0.5t35.5 1.5l-3 -12q-29 0 -47 -30l-98 -162q-10 -12 -22 -31.5t-27 -49.5q-1 -2 -8.5 -33.5t-20.5 -94.5h96l-8 -40h-96l-18 -83h96l-8 -40h-96q-8 -35 -11 -53t-3 -20q0 -24 26 -24l-3 -12q-33 1 -50.5 1.5t-21.5 0.5t-22.5 -0.5t-51.5 -1.5l2 12q12 0 25 9
t15 21l14 67h-97l8 40h98l18 83h-98l9 40h98z" />
    <glyph glyph-name="dieresis" unicode="&#xa8;" horiz-adv-x="395" 
d="M484 643q0 -24 -15 -42t-39 -18q-35 0 -35 35q0 24 16.5 42t38.5 18q34 0 34 -35zM368 643q0 -24 -15.5 -42t-39.5 -18q-34 0 -34 35q0 24 16 42t38 18q35 0 35 -35z" />
    <glyph glyph-name="copyright" unicode="&#xa9;" horiz-adv-x="627" 
d="M671 287q0 -59 -22.5 -111t-62 -92t-92 -63t-112.5 -23q-59 0 -111.5 23t-91.5 62.5t-62 92t-23 111.5q0 60 23 113t62.5 92t91.5 61.5t111 22.5t111.5 -23t92 -62.5t62.5 -92t23 -111.5zM644 287q0 53 -20.5 100.5t-56.5 83.5t-83.5 57t-101.5 21t-101.5 -21t-83 -56.5
t-56 -83t-20.5 -101.5t20.5 -101.5t56 -83t83 -56t101.5 -20.5t101.5 21t83.5 56.5t56.5 83t20.5 100.5zM523 435q0 -18 -19 -18q-11 0 -22.5 8.5t-24 18.5t-26 18.5t-27.5 8.5q-36 0 -59.5 -21.5t-37 -52t-19 -63.5t-5.5 -55q0 -7 4 -20t5 -19q1 -26 11 -49.5t27 -41.5
t40 -28.5t49 -10.5q22 0 48.5 14t41.5 32q3 -1 5 -2l4 -2q-2 -12 -17.5 -24t-36.5 -21.5t-44 -16t-39 -6.5q-20 0 -42.5 4.5t-44.5 15t-41.5 27t-33.5 41.5q-1 7 -5 20t-8 27.5t-7.5 28.5t-3.5 24q0 -1 8 42v23q0 4 2 12q51 142 199 142q21 0 42.5 -4t38.5 -11.5t27.5 -18
t10.5 -22.5z" />
    <glyph glyph-name="guillemotleft" unicode="&#xab;" horiz-adv-x="355" 
d="M295 467l-135 -123l81 -118l-58 -16l-82 121l131 118zM412 467l-135 -123l80 -118l-57 -16l-82 121l131 118z" />
    <glyph glyph-name="registered" unicode="&#xae;" horiz-adv-x="329" 
d="M487 539q0 -32 -12 -59.5t-33 -48.5t-49 -33t-59 -12t-58.5 12t-48.5 33t-33 48.5t-12 59.5q0 31 12 59t33 49t48.5 33t58.5 12t59 -12t49 -33t33 -49t12 -59zM472 539q0 28 -10.5 53t-29.5 44t-44 30t-54 11q-28 0 -53 -11t-44 -30t-30 -44t-11 -53q0 -29 11 -54
t30 -43.5t44 -29.5t53 -11q29 0 54 11t44 29.5t29.5 43.5t10.5 54zM419 448q-34 0 -45 26l-9 49q-4 25 -25 25h-32v-83q0 -12 12 -12v-5q-7 0 -13.5 0.5t-13.5 0.5t-14 -0.5t-14 -0.5v5q13 0 13 12v160q0 12 -12 12v5h87q49 0 49 -43q0 -33 -38 -47q20 -3 26 -17.5t8 -32
t4.5 -32t16.5 -17.5v-5zM371 592q0 42 -47 42h-16v-78h36q27 0 27 36z" />
    <glyph glyph-name="acute" unicode="&#xb4;" horiz-adv-x="208" 
d="M494 647q0 -11 -7 -18.5t-24 -11.5l-118 -32l-9 19l99 50q24 11 36 11q23 0 23 -18z" />
    <glyph glyph-name="cedilla" unicode="&#xb8;" horiz-adv-x="425" 
d="M371 -55q0 -18 -12.5 -35.5t-32.5 -31t-44.5 -22t-47.5 -8.5l4 14q16 0 31 6t26 16t18 24t7 31q0 34 -28 34l20 37l31 4l-20 -27q10 2 9 2q15 0 27 -14.5t12 -29.5z" />
    <glyph glyph-name="guillemotright" unicode="&#xbb;" horiz-adv-x="401" 
d="M301 344l-132 -118l-63 -17l136 122l-82 118l58 16zM434 344l-131 -118l-64 -17l136 122l-81 118l57 16z" />
    <glyph glyph-name="questiondown" unicode="&#xbf;" horiz-adv-x="346" 
d="M60 119q0 31 18 64.5t45 66t59 64.5t59 61.5t45 55t18 46.5q0 16 -15 78l25 7l31 -119q1 -5 1.5 -9t0.5 -6q0 -37 -53 -96q-28 -26 -56 -52.5t-50 -52.5t-35.5 -51.5t-13.5 -49.5q0 -35 21 -58.5t57 -23.5q52 0 111 62l13 -23q-31 -31 -77.5 -50.5t-92.5 -19.5
q-111 0 -111 106zM267 641q0 26 17 46t42 20q37 0 37 -38q0 -25 -17 -45.5t-42 -20.5q-37 0 -37 38z" />
    <glyph glyph-name="Agrave" unicode="&#xc0;" 
d="M526 0q-63 3 -71 3t-75 -3l2 12q30 0 30 21v2q0 3 -1.5 15t-3 28.5t-2.5 34.5t-1 33l1 13h-266q-4 -14 -20 -45t-40 -85q0 -17 26 -17l-3 -12q-47 3 -51 3q-6 0 -45 -3l2 12q29 0 41 23l316 628l-3 22l40 -2l42 2l49 -653q2 -20 36 -20zM403 179q-1 5 -4 34.5t-6.5 73
t-8 95.5t-8 100.5t-5.5 88t-2 58.5q-21 -51 -42.5 -96.5t-47 -96t-57 -112t-73.5 -145.5h254zM521 861l-17 -19l-105 32q-20 6 -20 22q0 26 33 26q15 0 32 -11z" />
    <glyph glyph-name="Aacute" unicode="&#xc1;" 
d="M526 0q-63 3 -71 3t-75 -3l2 12q30 0 30 21v2q0 3 -1.5 15t-3 28.5t-2.5 34.5t-1 33l1 13h-266q-4 -14 -20 -45t-40 -85q0 -17 26 -17l-3 -12q-47 3 -51 3q-6 0 -45 -3l2 12q29 0 41 23l316 628l-3 22l40 -2l42 2l49 -653q2 -20 36 -20zM403 179q-1 5 -4 34.5t-6.5 73
t-8 95.5t-8 100.5t-5.5 88t-2 58.5q-21 -51 -42.5 -96.5t-47 -96t-57 -112t-73.5 -145.5h254zM500 793q0 -11 -7 -18.5t-24 -11.5l-118 -32l-9 19l99 50q24 11 36 11q23 0 23 -18z" />
    <glyph glyph-name="Acircumflex" unicode="&#xc2;" 
d="M526 0q-63 3 -71 3t-75 -3l2 12q30 0 30 21v2q0 3 -1.5 15t-3 28.5t-2.5 34.5t-1 33l1 13h-266q-4 -14 -20 -45t-40 -85q0 -17 26 -17l-3 -12q-47 3 -51 3q-6 0 -45 -3l2 12q29 0 41 23l316 628l-3 22l40 -2l42 2l49 -653q2 -20 36 -20zM403 179q-1 5 -4 34.5t-6.5 73
t-8 95.5t-8 100.5t-5.5 88t-2 58.5q-21 -51 -42.5 -96.5t-47 -96t-57 -112t-73.5 -145.5h254zM506 752q-2 -18 -20 -18q-13 0 -29.5 15.5t-30.5 32.5q-65 -48 -81 -48q-12 0 -12 8q0 25 30 39l70 32l55 -32q18 -11 18 -29z" />
    <glyph glyph-name="Atilde" unicode="&#xc3;" 
d="M526 0q-63 3 -71 3t-75 -3l2 12q30 0 30 21v2q0 3 -1.5 15t-3 28.5t-2.5 34.5t-1 33l1 13h-266q-4 -14 -20 -45t-40 -85q0 -17 26 -17l-3 -12q-47 3 -51 3q-6 0 -45 -3l2 12q29 0 41 23l316 628l-3 22l40 -2l42 2l49 -653q2 -20 36 -20zM403 179q-1 5 -4 34.5t-6.5 73
t-8 95.5t-8 100.5t-5.5 88t-2 58.5q-21 -51 -42.5 -96.5t-47 -96t-57 -112t-73.5 -145.5h254zM539 810q-9 -29 -32 -52t-52 -23q-10 0 -23.5 8t-27 17t-24.5 17t-15 8q-19 0 -42 -50h-14q7 29 29.5 51t51.5 22q9 0 23 -7.5t28.5 -17t26.5 -17t17 -7.5q22 0 40 51h14z" />
    <glyph glyph-name="Adieresis" unicode="&#xc4;" 
d="M526 0q-63 3 -71 3t-75 -3l2 12q30 0 30 21v2q0 3 -1.5 15t-3 28.5t-2.5 34.5t-1 33l1 13h-266q-4 -14 -20 -45t-40 -85q0 -17 26 -17l-3 -12q-47 3 -51 3q-6 0 -45 -3l2 12q29 0 41 23l316 628l-3 22l40 -2l42 2l49 -653q2 -20 36 -20zM403 179q-1 5 -4 34.5t-6.5 73
t-8 95.5t-8 100.5t-5.5 88t-2 58.5q-21 -51 -42.5 -96.5t-47 -96t-57 -112t-73.5 -145.5h254zM527 789q0 -24 -15 -42t-39 -18q-35 0 -35 35q0 24 16.5 42t38.5 18q34 0 34 -35zM411 789q0 -24 -15.5 -42t-39.5 -18q-34 0 -34 35q0 24 16 42t38 18q35 0 35 -35z" />
    <glyph glyph-name="Aring" unicode="&#xc5;" 
d="M526 0q-63 3 -71 3t-75 -3l2 12q30 0 30 21v2q0 3 -1.5 15t-3 28.5t-2.5 34.5t-1 33l1 13h-266q-4 -14 -20 -45t-40 -85q0 -17 26 -17l-3 -12q-47 3 -51 3q-6 0 -45 -3l2 12q29 0 41 23l316 628l-3 22l40 -2l42 2l49 -653q2 -20 36 -20zM403 179q-1 5 -4 34.5t-6.5 73
t-8 95.5t-8 100.5t-5.5 88t-2 58.5q-21 -51 -42.5 -96.5t-47 -96t-57 -112t-73.5 -145.5h254zM503 766q-6 -26 -33 -41.5t-59 -15.5q-30 0 -49 12.5t-19 34.5q0 29 27 48.5t65 19.5q30 0 49.5 -12.5t19.5 -34.5q0 -9 -1 -11zM482 766q1 1 1 9q0 16 -14.5 25t-36.5 9
q-26 0 -47 -14t-21 -37q0 -13 13 -23t37 -10t44 11t24 30z" />
    <glyph glyph-name="AE" unicode="&#xc6;" 
d="M584 594h-8q-2 44 -6.5 58.5t-19.5 14.5h-85l-84 -396h69q27 0 38 54h11l-28 -130h-11q3 12 3 25q0 32 -18 32h-68l-45 -209q-1 -1 -1 -8q0 -15 24 -15h100q25 0 56 73h8l-25 -92l-134 -1q-8 0 -13 0.5t-9 0.5h-93h-8t-23 -1l-6 1l3 12q31 1 38 28l45 211h-101
q-111 -222 -111 -224q0 -16 27 -16l-3 -12q-47 3 -50 3q-7 0 -46 -3l3 12q29 0 41 23l315 628l-14 23q22 -1 44 -1.5t45 -0.5q11 0 32 0.5t44.5 0.5t44.5 0.5t32 0.5zM368 601l-165 -330h95z" />
    <glyph glyph-name="Ccedilla" unicode="&#xc7;" horiz-adv-x="481" 
d="M571 635l-20 -135h-11q-2 34 -12 64t-26.5 52.5t-38.5 35t-48 12.5q-32 0 -62 -20.5t-56.5 -54.5t-48.5 -79t-38 -94t-25 -98.5t-9 -93.5q0 -94 26.5 -147.5t77.5 -53.5q32 0 66.5 16.5t64.5 42.5t52 58.5t29 64.5h10l-37 -136h-10q1 1 1 6q0 7 -7 7q-2 -1 -9 -4t-17 -11
q-45 -36 -86.5 -53t-89.5 -17q-82 0 -122 59.5t-40 158.5q0 112 27.5 200t74.5 149t110 92.5t135 31.5q17 -4 32 -6t27 -13q5 -5 11.5 -14l13 -18t13.5 -15.5t13 -6.5q13 0 18 20h11zM285 -55q0 -18 -12.5 -35.5t-32.5 -31t-44.5 -22t-47.5 -8.5l4 14q16 0 31 6t26 16t18 24
t7 31q0 34 -28 34l20 37l31 4l-20 -27q10 2 9 2q15 0 27 -14.5t12 -29.5z" />
    <glyph glyph-name="Egrave" unicode="&#xc8;" horiz-adv-x="402" 
d="M481 686l-12 -92h-8q-2 44 -6.5 58.5t-19.5 14.5h-172q-6 -46 -12 -74l-40 -185q-3 -12 -8 -25t-7 -28h156q13 0 23.5 16t14.5 37h10l-19 -129h-10q1 4 1 8.5v8.5q0 39 -20 39h-159q-2 -16 -4 -28.5t-4 -22.5l-41 -194q-1 -5 -5 -19t-10 -38q0 -13 24 -13h186q24 0 57 73
h8l-26 -92h-368l3 12q9 0 23 9t17 21l128 607q0 24 -25 24l1 12h324zM462 861l-17 -19l-105 32q-20 6 -20 22q0 26 33 26q15 0 32 -11z" />
    <glyph glyph-name="Eacute" unicode="&#xc9;" horiz-adv-x="402" 
d="M481 686l-12 -92h-8q-2 44 -6.5 58.5t-19.5 14.5h-172q-6 -46 -12 -74l-40 -185q-3 -12 -8 -25t-7 -28h156q13 0 23.5 16t14.5 37h10l-19 -129h-10q1 4 1 8.5v8.5q0 39 -20 39h-159q-2 -16 -4 -28.5t-4 -22.5l-41 -194q-1 -5 -5 -19t-10 -38q0 -13 24 -13h186q24 0 57 73
h8l-26 -92h-368l3 12q9 0 23 9t17 21l128 607q0 24 -25 24l1 12h324zM444 793q0 -11 -7 -18.5t-24 -11.5l-118 -32l-9 19l99 50q24 11 36 11q23 0 23 -18z" />
    <glyph glyph-name="Ecircumflex" unicode="&#xca;" horiz-adv-x="402" 
d="M481 686l-12 -92h-8q-2 44 -6.5 58.5t-19.5 14.5h-172q-6 -46 -12 -74l-40 -185q-3 -12 -8 -25t-7 -28h156q13 0 23.5 16t14.5 37h10l-19 -129h-10q1 4 1 8.5v8.5q0 39 -20 39h-159q-2 -16 -4 -28.5t-4 -22.5l-41 -194q-1 -5 -5 -19t-10 -38q0 -13 24 -13h186q24 0 57 73
h8l-26 -92h-368l3 12q9 0 23 9t17 21l128 607q0 24 -25 24l1 12h324zM450 752q-2 -18 -20 -18q-13 0 -29.5 15.5t-30.5 32.5q-65 -48 -81 -48q-12 0 -12 8q0 25 30 39l70 32l55 -32q18 -11 18 -29z" />
    <glyph glyph-name="Edieresis" unicode="&#xcb;" horiz-adv-x="402" 
d="M481 686l-12 -92h-8q-2 44 -6.5 58.5t-19.5 14.5h-172q-6 -46 -12 -74l-40 -185q-3 -12 -8 -25t-7 -28h156q13 0 23.5 16t14.5 37h10l-19 -129h-10q1 4 1 8.5v8.5q0 39 -20 39h-159q-2 -16 -4 -28.5t-4 -22.5l-41 -194q-1 -5 -5 -19t-10 -38q0 -13 24 -13h186q24 0 57 73
h8l-26 -92h-368l3 12q9 0 23 9t17 21l128 607q0 24 -25 24l1 12h324zM471 789q0 -24 -15 -42t-39 -18q-35 0 -35 35q0 24 16.5 42t38.5 18q34 0 34 -35zM355 789q0 -24 -15.5 -42t-39.5 -18q-34 0 -34 35q0 24 16 42t38 18q35 0 35 -35z" />
    <glyph glyph-name="Igrave" unicode="&#xcc;" horiz-adv-x="169" 
d="M306 674q-15 0 -26.5 -9t-13.5 -21l-129 -608q0 -24 26 -24l-3 -12q-66 3 -73 3q-9 0 -73 -3l3 12q11 0 23.5 9t15.5 21l129 608q0 24 -26 24l3 8l146 4zM349 861l-17 -19l-105 32q-20 6 -20 22q0 26 33 26q15 0 32 -11z" />
    <glyph glyph-name="Iacute" unicode="&#xcd;" horiz-adv-x="169" 
d="M306 674q-15 0 -26.5 -9t-13.5 -21l-129 -608q0 -24 26 -24l-3 -12q-66 3 -73 3q-9 0 -73 -3l3 12q11 0 23.5 9t15.5 21l129 608q0 24 -26 24l3 8l146 4zM327 793q0 -11 -7 -18.5t-24 -11.5l-118 -32l-9 19l99 50q24 11 36 11q23 0 23 -18z" />
    <glyph glyph-name="Icircumflex" unicode="&#xce;" horiz-adv-x="169" 
d="M306 674q-15 0 -26.5 -9t-13.5 -21l-129 -608q0 -24 26 -24l-3 -12q-66 3 -73 3q-9 0 -73 -3l3 12q11 0 23.5 9t15.5 21l129 608q0 24 -26 24l3 8l146 4zM333 752q-2 -18 -20 -18q-13 0 -29.5 15.5t-30.5 32.5q-65 -48 -81 -48q-12 0 -12 8q0 25 30 39l70 32l55 -32
q18 -11 18 -29z" />
    <glyph glyph-name="Idieresis" unicode="&#xcf;" horiz-adv-x="169" 
d="M306 674q-15 0 -26.5 -9t-13.5 -21l-129 -608q0 -24 26 -24l-3 -12q-66 3 -73 3q-9 0 -73 -3l3 12q11 0 23.5 9t15.5 21l129 608q0 24 -26 24l3 8l146 4zM354 789q0 -24 -15 -42t-39 -18q-35 0 -35 35q0 24 16.5 42t38.5 18q34 0 34 -35zM238 789q0 -24 -15.5 -42
t-39.5 -18q-34 0 -34 35q0 24 16 42t38 18q35 0 35 -35z" />
    <glyph glyph-name="Ntilde" unicode="&#xd1;" horiz-adv-x="475" 
d="M614 674q-12 0 -25 -9t-15 -21l-144 -678q-11 32 -19.5 57.5t-16.5 45.5l-154 400q-9 24 -19.5 56.5t-23.5 77.5q-7 -48 -14.5 -85.5t-13.5 -66.5l-87 -408q-1 -1 -1 -6q0 -24 26 -24l-1 -12q-23 1 -35.5 1.5t-14.5 0.5q-3 0 -15.5 -0.5t-34.5 -1.5l2 12q11 0 24 9t16 21
l129 607q0 24 -26 24l3 12q48 -3 53 -3t49 3l143 -385q4 -10 5.5 -13t2.5 -5.5t2.5 -7.5t5 -18t9.5 -37.5t16 -65.5q18 78 36 159t32.5 150.5t23.5 119.5t9 67q0 24 -26 24l3 12q22 -1 34.5 -1.5t15.5 -0.5q2 0 14.5 0.5t34.5 1.5zM516 810q-9 -29 -32 -52t-52 -23
q-10 0 -23.5 8t-27 17t-24.5 17t-15 8q-19 0 -42 -50h-14q7 29 29.5 51t51.5 22q9 0 23 -7.5t28.5 -17t26.5 -17t17 -7.5q22 0 40 51h14z" />
    <glyph glyph-name="Ograve" unicode="&#xd2;" horiz-adv-x="495" 
d="M420 694q34 0 60 -10.5t43.5 -35t26 -64t8.5 -97.5q0 -55 -10.5 -113t-31 -113t-50 -103.5t-67.5 -85t-84.5 -58t-100.5 -21.5q-135 0 -135 165q0 62 9 126t27.5 123.5t46.5 111.5t65.5 91t85.5 61.5t107 22.5zM391 668q-32 0 -60.5 -24.5t-53.5 -65.5t-45 -93.5
t-34 -108t-21.5 -110t-7.5 -98.5q0 -150 76 -150q39 0 71 27t56.5 69.5t43 96t30 107t17.5 101t6 79.5q0 75 -20 122.5t-58 47.5zM508 861l-17 -19l-105 32q-20 6 -20 22q0 26 33 26q15 0 32 -11z" />
    <glyph glyph-name="Oacute" unicode="&#xd3;" horiz-adv-x="495" 
d="M420 694q34 0 60 -10.5t43.5 -35t26 -64t8.5 -97.5q0 -55 -10.5 -113t-31 -113t-50 -103.5t-67.5 -85t-84.5 -58t-100.5 -21.5q-135 0 -135 165q0 62 9 126t27.5 123.5t46.5 111.5t65.5 91t85.5 61.5t107 22.5zM391 668q-32 0 -60.5 -24.5t-53.5 -65.5t-45 -93.5
t-34 -108t-21.5 -110t-7.5 -98.5q0 -150 76 -150q39 0 71 27t56.5 69.5t43 96t30 107t17.5 101t6 79.5q0 75 -20 122.5t-58 47.5zM491 793q0 -11 -7 -18.5t-24 -11.5l-118 -32l-9 19l99 50q24 11 36 11q23 0 23 -18z" />
    <glyph glyph-name="Ocircumflex" unicode="&#xd4;" horiz-adv-x="495" 
d="M420 694q34 0 60 -10.5t43.5 -35t26 -64t8.5 -97.5q0 -55 -10.5 -113t-31 -113t-50 -103.5t-67.5 -85t-84.5 -58t-100.5 -21.5q-135 0 -135 165q0 62 9 126t27.5 123.5t46.5 111.5t65.5 91t85.5 61.5t107 22.5zM391 668q-32 0 -60.5 -24.5t-53.5 -65.5t-45 -93.5
t-34 -108t-21.5 -110t-7.5 -98.5q0 -150 76 -150q39 0 71 27t56.5 69.5t43 96t30 107t17.5 101t6 79.5q0 75 -20 122.5t-58 47.5zM493 752q-2 -18 -20 -18q-13 0 -29.5 15.5t-30.5 32.5q-65 -48 -81 -48q-12 0 -12 8q0 25 30 39l70 32l55 -32q18 -11 18 -29z" />
    <glyph glyph-name="Otilde" unicode="&#xd5;" horiz-adv-x="495" 
d="M420 694q34 0 60 -10.5t43.5 -35t26 -64t8.5 -97.5q0 -55 -10.5 -113t-31 -113t-50 -103.5t-67.5 -85t-84.5 -58t-100.5 -21.5q-135 0 -135 165q0 62 9 126t27.5 123.5t46.5 111.5t65.5 91t85.5 61.5t107 22.5zM391 668q-32 0 -60.5 -24.5t-53.5 -65.5t-45 -93.5
t-34 -108t-21.5 -110t-7.5 -98.5q0 -150 76 -150q39 0 71 27t56.5 69.5t43 96t30 107t17.5 101t6 79.5q0 75 -20 122.5t-58 47.5zM526 810q-9 -29 -32 -52t-52 -23q-10 0 -23.5 8t-27 17t-24.5 17t-15 8q-19 0 -42 -50h-14q7 29 29.5 51t51.5 22q9 0 23 -7.5t28.5 -17
t26.5 -17t17 -7.5q22 0 40 51h14z" />
    <glyph glyph-name="Odieresis" unicode="&#xd6;" horiz-adv-x="495" 
d="M420 694q34 0 60 -10.5t43.5 -35t26 -64t8.5 -97.5q0 -55 -10.5 -113t-31 -113t-50 -103.5t-67.5 -85t-84.5 -58t-100.5 -21.5q-135 0 -135 165q0 62 9 126t27.5 123.5t46.5 111.5t65.5 91t85.5 61.5t107 22.5zM391 668q-32 0 -60.5 -24.5t-53.5 -65.5t-45 -93.5
t-34 -108t-21.5 -110t-7.5 -98.5q0 -150 76 -150q39 0 71 27t56.5 69.5t43 96t30 107t17.5 101t6 79.5q0 75 -20 122.5t-58 47.5zM514 789q0 -24 -15 -42t-39 -18q-35 0 -35 35q0 24 16.5 42t38.5 18q34 0 34 -35zM398 789q0 -24 -15.5 -42t-39.5 -18q-34 0 -34 35
q0 24 16 42t38 18q35 0 35 -35z" />
    <glyph glyph-name="Oslash" unicode="&#xd8;" horiz-adv-x="495" 
d="M559 510q-1 -33 -4.5 -70t-12.5 -79q-21 -98 -49 -167.5t-67 -114t-91 -65.5t-120 -21q-135 0 -135 165q0 37 6.5 85t19.5 109q36 171 110 256.5t205 85.5q138 0 138 -184zM462 597q-17 71 -70 71q-32 0 -61.5 -23t-56 -65t-48 -102t-36.5 -133q-10 -48 -15.5 -91.5
t-5.5 -85.5q0 -17 1.5 -32.5t3.5 -29.5zM469 557l-288 -484q18 -55 65 -55q104 0 171 205q52 156 52 297v37z" />
    <glyph glyph-name="Ugrave" unicode="&#xd9;" horiz-adv-x="450" 
d="M597 674q-14 0 -26.5 -9t-14.5 -21l-103 -489q-12 -57 -18.5 -85.5t-6.5 -33.5q0 -24 26 -24l-2 -12q-8 0 -25 2.5t-27 2.5q-9 0 -20.5 -1.5t-25.5 -3.5q3 13 7.5 34t8.5 47q-28 -48 -66 -67t-98 -19q-127 0 -127 121q0 15 1 32.5t6 35.5l98 460q1 1 1 6q0 24 -26 24
l2 12l73 -3q1 0 73 3l-1 -12q-13 0 -26 -9t-15 -21l-97 -457q-3 -14 -5 -26.5t-2 -25.5q0 -57 22 -84.5t73 -27.5q21 0 42.5 13t40 34t32 48t19.5 55l101 477q0 24 -26 24l3 12q48 -3 67 -3q6 0 16 0.5l20 1t18.5 1t10.5 0.5zM485 861l-17 -19l-105 32q-20 6 -20 22
q0 26 33 26q15 0 32 -11z" />
    <glyph glyph-name="Uacute" unicode="&#xda;" horiz-adv-x="450" 
d="M597 674q-14 0 -26.5 -9t-14.5 -21l-103 -489q-12 -57 -18.5 -85.5t-6.5 -33.5q0 -24 26 -24l-2 -12q-8 0 -25 2.5t-27 2.5q-9 0 -20.5 -1.5t-25.5 -3.5q3 13 7.5 34t8.5 47q-28 -48 -66 -67t-98 -19q-127 0 -127 121q0 15 1 32.5t6 35.5l98 460q1 1 1 6q0 24 -26 24
l2 12l73 -3q1 0 73 3l-1 -12q-13 0 -26 -9t-15 -21l-97 -457q-3 -14 -5 -26.5t-2 -25.5q0 -57 22 -84.5t73 -27.5q21 0 42.5 13t40 34t32 48t19.5 55l101 477q0 24 -26 24l3 12q48 -3 67 -3q6 0 16 0.5l20 1t18.5 1t10.5 0.5zM468 793q0 -11 -7 -18.5t-24 -11.5l-118 -32
l-9 19l99 50q24 11 36 11q23 0 23 -18z" />
    <glyph glyph-name="Ucircumflex" unicode="&#xdb;" horiz-adv-x="450" 
d="M597 674q-14 0 -26.5 -9t-14.5 -21l-103 -489q-12 -57 -18.5 -85.5t-6.5 -33.5q0 -24 26 -24l-2 -12q-8 0 -25 2.5t-27 2.5q-9 0 -20.5 -1.5t-25.5 -3.5q3 13 7.5 34t8.5 47q-28 -48 -66 -67t-98 -19q-127 0 -127 121q0 15 1 32.5t6 35.5l98 460q1 1 1 6q0 24 -26 24
l2 12l73 -3q1 0 73 3l-1 -12q-13 0 -26 -9t-15 -21l-97 -457q-3 -14 -5 -26.5t-2 -25.5q0 -57 22 -84.5t73 -27.5q21 0 42.5 13t40 34t32 48t19.5 55l101 477q0 24 -26 24l3 12q48 -3 67 -3q6 0 16 0.5l20 1t18.5 1t10.5 0.5zM470 752q-2 -18 -20 -18q-13 0 -29.5 15.5
t-30.5 32.5q-65 -48 -81 -48q-12 0 -12 8q0 25 30 39l70 32l55 -32q18 -11 18 -29z" />
    <glyph glyph-name="Udieresis" unicode="&#xdc;" horiz-adv-x="450" 
d="M597 674q-14 0 -26.5 -9t-14.5 -21l-103 -489q-12 -57 -18.5 -85.5t-6.5 -33.5q0 -24 26 -24l-2 -12q-8 0 -25 2.5t-27 2.5q-9 0 -20.5 -1.5t-25.5 -3.5q3 13 7.5 34t8.5 47q-28 -48 -66 -67t-98 -19q-127 0 -127 121q0 15 1 32.5t6 35.5l98 460q1 1 1 6q0 24 -26 24
l2 12l73 -3q1 0 73 3l-1 -12q-13 0 -26 -9t-15 -21l-97 -457q-3 -14 -5 -26.5t-2 -25.5q0 -57 22 -84.5t73 -27.5q21 0 42.5 13t40 34t32 48t19.5 55l101 477q0 24 -26 24l3 12q48 -3 67 -3q6 0 16 0.5l20 1t18.5 1t10.5 0.5zM491 789q0 -24 -15 -42t-39 -18q-35 0 -35 35
q0 24 16.5 42t38.5 18q34 0 34 -35zM375 789q0 -24 -15.5 -42t-39.5 -18q-34 0 -34 35q0 24 16 42t38 18q35 0 35 -35z" />
    <glyph glyph-name="Yacute" unicode="&#xdd;" horiz-adv-x="381" 
d="M512 674q-29 0 -47 -30l-98 -162q-10 -12 -22 -31.5t-27 -49.5q-3 -2 -12 -47t-28 -136q-18 -89 -27.5 -133.5t-9.5 -47.5q0 -24 26 -24l-3 -12q-33 1 -50.5 1.5t-21.5 0.5t-22.5 -0.5t-51.5 -1.5l2 12q11 0 24 9t16 21l70 322l-54 293q-3 16 -32 16l2 12q35 -1 54 -1.5
t23 -0.5t21 0.5t49 1.5l-3 -12q-10 0 -21 -9t-11 -19v-2q0 -3 2.5 -18.5t8.5 -43.5q2 -9 6.5 -30t9 -46t8 -48.5t3.5 -37.5q15 30 48 86.5t87 141.5q3 4 3 9q0 17 -23 17l3 12q21 -1 33.5 -1.5t15.5 -0.5q4 0 16.5 0.5t35.5 1.5zM434 793q0 -11 -7 -18.5t-24 -11.5l-118 -32
l-9 19l99 50q24 11 36 11q23 0 23 -18z" />
    <glyph glyph-name="germandbls" unicode="&#xdf;" horiz-adv-x="402" 
d="M478 565q0 -33 -9.5 -68t-25.5 -65t-38 -51.5t-47 -27.5q59 -9 59 -105q0 -47 -15.5 -91.5t-41.5 -78.5t-61.5 -54.5t-75.5 -20.5l3 16q20 0 38.5 22.5t32.5 55t22.5 69t8.5 65.5q0 104 -76 104q29 9 55 31.5t45.5 53t30.5 65.5t11 70q0 20 -4.5 39t-13 34t-20 24
t-25.5 9q-13 0 -26 -8.5t-24.5 -23t-20.5 -34.5t-13 -42l-110 -517q-1 -1 -1 -5q0 -19 19 -19q6 0 7 1l-3 -12q-28 1 -44.5 1.5t-20.5 0.5q-5 0 -22.5 -0.5t-47.5 -1.5l3 12h2q22 0 27 23l108 505q16 73 68.5 109t148.5 36q46 0 71.5 -31.5t25.5 -89.5z" />
    <glyph glyph-name="agrave" unicode="&#xe0;" horiz-adv-x="386" 
d="M357 59q-1 -3 -1 -10q0 -14 13 -14q3 0 23 5l-4 -17q-98 -24 -103 -24q-17 0 -17 16q0 14 15 59q-45 -76 -134 -76q-85 0 -85 159q0 75 17 143.5t48.5 120.5t74.5 83t96 31q13 0 27.5 -4t28 -8.5t24 -8.5t14.5 -4q31 0 65 31zM365 462q0 41 -55 41q-37 0 -66.5 -26
t-50.5 -71t-32.5 -105t-11.5 -129q0 -63 15.5 -102t41.5 -39t58 41q15 20 22 36.5t10 30.5t4 26t4 23l40 192q1 4 4.5 14t7 21.5t6.5 24t3 22.5zM426 715l-17 -19l-105 32q-20 6 -20 22q0 26 33 26q15 0 32 -11z" />
    <glyph glyph-name="aacute" unicode="&#xe1;" horiz-adv-x="386" 
d="M357 59q-1 -3 -1 -10q0 -14 13 -14q3 0 23 5l-4 -17q-98 -24 -103 -24q-17 0 -17 16q0 14 15 59q-45 -76 -134 -76q-85 0 -85 159q0 75 17 143.5t48.5 120.5t74.5 83t96 31q13 0 27.5 -4t28 -8.5t24 -8.5t14.5 -4q31 0 65 31zM365 462q0 41 -55 41q-37 0 -66.5 -26
t-50.5 -71t-32.5 -105t-11.5 -129q0 -63 15.5 -102t41.5 -39t58 41q15 20 22 36.5t10 30.5t4 26t4 23l40 192q1 4 4.5 14t7 21.5t6.5 24t3 22.5zM405 647q0 -11 -7 -18.5t-24 -11.5l-118 -32l-9 19l99 50q24 11 36 11q23 0 23 -18z" />
    <glyph glyph-name="acircumflex" unicode="&#xe2;" horiz-adv-x="386" 
d="M357 59q-1 -3 -1 -10q0 -14 13 -14q3 0 23 5l-4 -17q-98 -24 -103 -24q-17 0 -17 16q0 14 15 59q-45 -76 -134 -76q-85 0 -85 159q0 75 17 143.5t48.5 120.5t74.5 83t96 31q13 0 27.5 -4t28 -8.5t24 -8.5t14.5 -4q31 0 65 31zM365 462q0 41 -55 41q-37 0 -66.5 -26
t-50.5 -71t-32.5 -105t-11.5 -129q0 -63 15.5 -102t41.5 -39t58 41q15 20 22 36.5t10 30.5t4 26t4 23l40 192q1 4 4.5 14t7 21.5t6.5 24t3 22.5zM411 606q-2 -18 -20 -18q-13 0 -29.5 15.5t-30.5 32.5q-65 -48 -81 -48q-12 0 -12 8q0 25 30 39l70 32l55 -32q18 -11 18 -29z
" />
    <glyph glyph-name="atilde" unicode="&#xe3;" horiz-adv-x="386" 
d="M357 59q-1 -3 -1 -10q0 -14 13 -14q3 0 23 5l-4 -17q-98 -24 -103 -24q-17 0 -17 16q0 14 15 59q-45 -76 -134 -76q-85 0 -85 159q0 75 17 143.5t48.5 120.5t74.5 83t96 31q13 0 27.5 -4t28 -8.5t24 -8.5t14.5 -4q31 0 65 31zM365 462q0 41 -55 41q-37 0 -66.5 -26
t-50.5 -71t-32.5 -105t-11.5 -129q0 -63 15.5 -102t41.5 -39t58 41q15 20 22 36.5t10 30.5t4 26t4 23l40 192q1 4 4.5 14t7 21.5t6.5 24t3 22.5zM444 664q-9 -29 -32 -52t-52 -23q-10 0 -23.5 8t-27 17t-24.5 17t-15 8q-19 0 -42 -50h-14q7 29 29.5 51t51.5 22q9 0 23 -7.5
t28.5 -17t26.5 -17t17 -7.5q22 0 40 51h14z" />
    <glyph glyph-name="adieresis" unicode="&#xe4;" horiz-adv-x="386" 
d="M357 59q-1 -3 -1 -10q0 -14 13 -14q3 0 23 5l-4 -17q-98 -24 -103 -24q-17 0 -17 16q0 14 15 59q-45 -76 -134 -76q-85 0 -85 159q0 75 17 143.5t48.5 120.5t74.5 83t96 31q13 0 27.5 -4t28 -8.5t24 -8.5t14.5 -4q31 0 65 31zM365 462q0 41 -55 41q-37 0 -66.5 -26
t-50.5 -71t-32.5 -105t-11.5 -129q0 -63 15.5 -102t41.5 -39t58 41q15 20 22 36.5t10 30.5t4 26t4 23l40 192q1 4 4.5 14t7 21.5t6.5 24t3 22.5zM431 643q0 -24 -15 -42t-39 -18q-35 0 -35 35q0 24 16.5 42t38.5 18q34 0 34 -35zM315 643q0 -24 -15.5 -42t-39.5 -18
q-34 0 -34 35q0 24 16 42t38 18q35 0 35 -35z" />
    <glyph glyph-name="aring" unicode="&#xe5;" horiz-adv-x="386" 
d="M357 59q-1 -3 -1 -10q0 -14 13 -14q3 0 23 5l-4 -17q-98 -24 -103 -24q-17 0 -17 16q0 14 15 59q-45 -76 -134 -76q-85 0 -85 159q0 75 17 143.5t48.5 120.5t74.5 83t96 31q13 0 27.5 -4t28 -8.5t24 -8.5t14.5 -4q31 0 65 31zM365 462q0 41 -55 41q-37 0 -66.5 -26
t-50.5 -71t-32.5 -105t-11.5 -129q0 -63 15.5 -102t41.5 -39t58 41q15 20 22 36.5t10 30.5t4 26t4 23l40 192q1 4 4.5 14t7 21.5t6.5 24t3 22.5zM408 620q-6 -26 -33 -41.5t-59 -15.5q-30 0 -49 12.5t-19 34.5q0 29 27 48.5t65 19.5q30 0 49.5 -12.5t19.5 -34.5q0 -9 -1 -11
zM387 620q1 1 1 9q0 16 -14.5 25t-36.5 9q-26 0 -47 -14t-21 -37q0 -13 13 -23t37 -10t44 11t24 30z" />
    <glyph glyph-name="ae" unicode="&#xe6;" horiz-adv-x="656" 
d="M694 422q-1 -63 -44.5 -105t-122.5 -44l-107 -14q-14 -51 -14 -93q0 -135 83 -135q54 0 105 63l15 -11q-66 -79 -134 -79q-118 0 -135 149q-22 -69 -67.5 -108.5t-103.5 -39.5q-46 0 -74.5 28.5t-28.5 73.5q0 16 3 27q8 36 18.5 60t30 41.5t52.5 30t86 25.5
q34 8 56.5 20.5t34.5 32.5q7 32 10.5 51.5t3.5 27.5q0 37 -19.5 62t-51.5 25q-48 0 -96 -54l-23 13q30 34 74.5 54t89.5 20q83 0 106 -69q13 13 30.5 25.5t37 22t41 15.5t42.5 6q24 0 43 -10t32 -26.5t20 -38.5t7 -46zM636 425q0 16 -3.5 31.5t-11 28t-19 20t-26.5 7.5
q-29 0 -54.5 -20.5t-45.5 -53t-34 -72t-20 -77.5q24 4 60.5 8.5t70.5 17.5t58.5 38.5t24.5 71.5zM341 314q-11 -18 -33.5 -32.5t-45.5 -25t-40.5 -16.5t-18.5 -7q-22 -15 -38 -46t-16 -73q0 -76 52 -76q24 0 42.5 13.5t34.5 46t31 85.5t32 131z" />
    <glyph glyph-name="ccedilla" unicode="&#xe7;" horiz-adv-x="359" 
d="M399 428v18q0 73 -47 73q-38 0 -71 -33t-58.5 -84.5t-40 -114t-14.5 -121.5q0 -137 82 -137q54 0 110 74l15 -9q-74 -96 -168 -96q-61 0 -94 45.5t-33 126.5q0 66 21.5 132.5t58.5 120t86 86.5t104 33q69 0 94 -49zM225 -55q0 -18 -12.5 -35.5t-32.5 -31t-44.5 -22
t-47.5 -8.5l4 14q16 0 31 6t26 16t18 24t7 31q0 34 -28 34l20 37l31 4l-20 -27q10 2 9 2q15 0 27 -14.5t12 -29.5z" />
    <glyph glyph-name="egrave" unicode="&#xe8;" horiz-adv-x="396" 
d="M463 443q0 -82 -58 -124q-7 -4 -24.5 -11t-40.5 -16.5t-49.5 -21t-50.5 -23t-43 -23t-28 -21.5q-1 -16 -2.5 -27.5t-1.5 -19.5q0 -60 23.5 -93.5t60.5 -33.5q30 0 64 20.5t60 53.5l17 -10q-72 -95 -184 -95q-63 0 -95 45t-32 126q0 63 20.5 129.5t57.5 120.5t87 89
t109 35q51 0 80.5 -29t29.5 -71zM394 444q0 29 -13.5 49.5t-37.5 20.5q-27 0 -54.5 -24.5t-51 -63.5t-41 -86.5t-25.5 -92.5q13 11 31.5 20.5t42.5 17.5q45 15 74 29t45.5 32t23 41.5t6.5 56.5zM444 715l-17 -19l-105 32q-20 6 -20 22q0 26 33 26q15 0 32 -11z" />
    <glyph glyph-name="eacute" unicode="&#xe9;" horiz-adv-x="396" 
d="M463 443q0 -82 -58 -124q-7 -4 -24.5 -11t-40.5 -16.5t-49.5 -21t-50.5 -23t-43 -23t-28 -21.5q-1 -16 -2.5 -27.5t-1.5 -19.5q0 -60 23.5 -93.5t60.5 -33.5q30 0 64 20.5t60 53.5l17 -10q-72 -95 -184 -95q-63 0 -95 45t-32 126q0 63 20.5 129.5t57.5 120.5t87 89
t109 35q51 0 80.5 -29t29.5 -71zM394 444q0 29 -13.5 49.5t-37.5 20.5q-27 0 -54.5 -24.5t-51 -63.5t-41 -86.5t-25.5 -92.5q13 11 31.5 20.5t42.5 17.5q45 15 74 29t45.5 32t23 41.5t6.5 56.5zM454 647q0 -11 -7 -18.5t-24 -11.5l-118 -32l-9 19l99 50q24 11 36 11
q23 0 23 -18z" />
    <glyph glyph-name="ecircumflex" unicode="&#xea;" horiz-adv-x="396" 
d="M463 443q0 -82 -58 -124q-7 -4 -24.5 -11t-40.5 -16.5t-49.5 -21t-50.5 -23t-43 -23t-28 -21.5q-1 -16 -2.5 -27.5t-1.5 -19.5q0 -60 23.5 -93.5t60.5 -33.5q30 0 64 20.5t60 53.5l17 -10q-72 -95 -184 -95q-63 0 -95 45t-32 126q0 63 20.5 129.5t57.5 120.5t87 89
t109 35q51 0 80.5 -29t29.5 -71zM394 444q0 29 -13.5 49.5t-37.5 20.5q-27 0 -54.5 -24.5t-51 -63.5t-41 -86.5t-25.5 -92.5q13 11 31.5 20.5t42.5 17.5q45 15 74 29t45.5 32t23 41.5t6.5 56.5zM450 606q-2 -18 -20 -18q-13 0 -29.5 15.5t-30.5 32.5q-65 -48 -81 -48
q-12 0 -12 8q0 25 30 39l70 32l55 -32q18 -11 18 -29z" />
    <glyph glyph-name="edieresis" unicode="&#xeb;" horiz-adv-x="396" 
d="M463 443q0 -82 -58 -124q-7 -4 -24.5 -11t-40.5 -16.5t-49.5 -21t-50.5 -23t-43 -23t-28 -21.5q-1 -16 -2.5 -27.5t-1.5 -19.5q0 -60 23.5 -93.5t60.5 -33.5q30 0 64 20.5t60 53.5l17 -10q-72 -95 -184 -95q-63 0 -95 45t-32 126q0 63 20.5 129.5t57.5 120.5t87 89
t109 35q51 0 80.5 -29t29.5 -71zM394 444q0 29 -13.5 49.5t-37.5 20.5q-27 0 -54.5 -24.5t-51 -63.5t-41 -86.5t-25.5 -92.5q13 11 31.5 20.5t42.5 17.5q45 15 74 29t45.5 32t23 41.5t6.5 56.5zM475 643q0 -24 -15 -42t-39 -18q-35 0 -35 35q0 24 16.5 42t38.5 18
q34 0 34 -35zM359 643q0 -24 -15.5 -42t-39.5 -18q-34 0 -34 35q0 24 16 42t38 18q35 0 35 -35z" />
    <glyph glyph-name="igrave" unicode="&#xec;" horiz-adv-x="167" 
d="M139 45q-1 -1 -1 -9q0 -11 10 -11q5 0 13.5 2t13.5 2l-2 -12q-2 -2 -8.5 -3.5t-21 -4.5t-38.5 -9t-61 -18l105 492q1 1 1 7t-4.5 9.5t-9.5 5t-9.5 3.5t-4.5 5t5.5 4.5t19 4.5t37.5 8.5t60 15.5zM317 715l-17 -19l-105 32q-20 6 -20 22q0 26 33 26q15 0 32 -11z" />
    <glyph glyph-name="iacute" unicode="&#xed;" horiz-adv-x="167" 
d="M139 45q-1 -1 -1 -9q0 -11 10 -11q5 0 13.5 2t13.5 2l-2 -12q-2 -2 -8.5 -3.5t-21 -4.5t-38.5 -9t-61 -18l105 492q1 1 1 7t-4.5 9.5t-9.5 5t-9.5 3.5t-4.5 5t5.5 4.5t19 4.5t37.5 8.5t60 15.5zM295 647q0 -11 -7 -18.5t-24 -11.5l-118 -32l-9 19l99 50q24 11 36 11
q23 0 23 -18z" />
    <glyph glyph-name="icircumflex" unicode="&#xee;" horiz-adv-x="167" 
d="M139 45q-1 -1 -1 -9q0 -11 10 -11q5 0 13.5 2t13.5 2l-2 -12q-2 -2 -8.5 -3.5t-21 -4.5t-38.5 -9t-61 -18l105 492q1 1 1 7t-4.5 9.5t-9.5 5t-9.5 3.5t-4.5 5t5.5 4.5t19 4.5t37.5 8.5t60 15.5zM301 606q-2 -18 -20 -18q-13 0 -29.5 15.5t-30.5 32.5q-65 -48 -81 -48
q-12 0 -12 8q0 25 30 39l70 32l55 -32q18 -11 18 -29z" />
    <glyph glyph-name="idieresis" unicode="&#xef;" horiz-adv-x="167" 
d="M139 45q-1 -1 -1 -9q0 -11 10 -11q5 0 13.5 2t13.5 2l-2 -12q-2 -2 -8.5 -3.5t-21 -4.5t-38.5 -9t-61 -18l105 492q1 1 1 7t-4.5 9.5t-9.5 5t-9.5 3.5t-4.5 5t5.5 4.5t19 4.5t37.5 8.5t60 15.5zM322 643q0 -24 -15 -42t-39 -18q-35 0 -35 35q0 24 16.5 42t38.5 18
q34 0 34 -35zM206 643q0 -24 -15.5 -42t-39.5 -18q-34 0 -34 35q0 24 16 42t38 18q35 0 35 -35z" />
    <glyph glyph-name="ntilde" unicode="&#xf1;" horiz-adv-x="389" 
d="M447 442q0 -9 -1 -17.5t-2 -18.5l-77 -364q0 -13 30 -13h6l-2 -12q-61 0 -126 -25l85 402q4 13 4 37q0 76 -58 76q-36 0 -56.5 -20t-31 -47t-14.5 -54t-7 -41l-54 -253q-5 -25 -8 -44t-3 -33q0 -12 1 -14q-13 0 -23 0.5t-16 0.5h-24q-6 0 -16 -0.5t-23 -0.5q10 15 17 37
t14 54l82 382v7q0 5 -4 8.5t-9.5 5.5t-9.5 4.5t-4 5.5t2.5 3.5t14 2.5t36 7.5t68.5 18.5l-20 -74q16 36 51.5 57t74.5 21q48 0 75.5 -27t27.5 -72zM446 664q-9 -29 -32 -52t-52 -23q-10 0 -23.5 8t-27 17t-24.5 17t-15 8q-19 0 -42 -50h-14q7 29 29.5 51t51.5 22
q9 0 23 -7.5t28.5 -17t26.5 -17t17 -7.5q22 0 40 51h14z" />
    <glyph glyph-name="ograve" unicode="&#xf2;" horiz-adv-x="412" 
d="M468 387q0 -73 -17 -144t-52 -127t-87.5 -90.5t-122.5 -34.5q-58 0 -86 44t-28 116t14.5 144t47.5 129t86.5 93t131.5 36q57 0 85 -45.5t28 -120.5zM386 380q0 66 -21 103.5t-58 37.5q-24 0 -44.5 -22t-37.5 -56.5t-30 -77.5t-21.5 -85.5t-13 -80t-4.5 -61.5
q0 -119 75 -119q17 0 34 6q14 5 28.5 25t28 49.5t25 65.5t20.5 74t14 74.5t5 66.5zM439 715l-17 -19l-105 32q-20 6 -20 22q0 26 33 26q15 0 32 -11z" />
    <glyph glyph-name="oacute" unicode="&#xf3;" horiz-adv-x="412" 
d="M468 387q0 -73 -17 -144t-52 -127t-87.5 -90.5t-122.5 -34.5q-58 0 -86 44t-28 116t14.5 144t47.5 129t86.5 93t131.5 36q57 0 85 -45.5t28 -120.5zM386 380q0 66 -21 103.5t-58 37.5q-24 0 -44.5 -22t-37.5 -56.5t-30 -77.5t-21.5 -85.5t-13 -80t-4.5 -61.5
q0 -119 75 -119q17 0 34 6q14 5 28.5 25t28 49.5t25 65.5t20.5 74t14 74.5t5 66.5zM418 647q0 -11 -7 -18.5t-24 -11.5l-118 -32l-9 19l99 50q24 11 36 11q23 0 23 -18z" />
    <glyph glyph-name="ocircumflex" unicode="&#xf4;" horiz-adv-x="412" 
d="M468 387q0 -73 -17 -144t-52 -127t-87.5 -90.5t-122.5 -34.5q-58 0 -86 44t-28 116t14.5 144t47.5 129t86.5 93t131.5 36q57 0 85 -45.5t28 -120.5zM386 380q0 66 -21 103.5t-58 37.5q-24 0 -44.5 -22t-37.5 -56.5t-30 -77.5t-21.5 -85.5t-13 -80t-4.5 -61.5
q0 -119 75 -119q17 0 34 6q14 5 28.5 25t28 49.5t25 65.5t20.5 74t14 74.5t5 66.5zM424 606q-2 -18 -20 -18q-13 0 -29.5 15.5t-30.5 32.5q-65 -48 -81 -48q-12 0 -12 8q0 25 30 39l70 32l55 -32q18 -11 18 -29z" />
    <glyph glyph-name="otilde" unicode="&#xf5;" horiz-adv-x="412" 
d="M468 387q0 -73 -17 -144t-52 -127t-87.5 -90.5t-122.5 -34.5q-58 0 -86 44t-28 116t14.5 144t47.5 129t86.5 93t131.5 36q57 0 85 -45.5t28 -120.5zM386 380q0 66 -21 103.5t-58 37.5q-24 0 -44.5 -22t-37.5 -56.5t-30 -77.5t-21.5 -85.5t-13 -80t-4.5 -61.5
q0 -119 75 -119q17 0 34 6q14 5 28.5 25t28 49.5t25 65.5t20.5 74t14 74.5t5 66.5zM457 664q-9 -29 -32 -52t-52 -23q-10 0 -23.5 8t-27 17t-24.5 17t-15 8q-19 0 -42 -50h-14q7 29 29.5 51t51.5 22q9 0 23 -7.5t28.5 -17t26.5 -17t17 -7.5q22 0 40 51h14z" />
    <glyph glyph-name="odieresis" unicode="&#xf6;" horiz-adv-x="412" 
d="M468 387q0 -73 -17 -144t-52 -127t-87.5 -90.5t-122.5 -34.5q-58 0 -86 44t-28 116t14.5 144t47.5 129t86.5 93t131.5 36q57 0 85 -45.5t28 -120.5zM386 380q0 66 -21 103.5t-58 37.5q-24 0 -44.5 -22t-37.5 -56.5t-30 -77.5t-21.5 -85.5t-13 -80t-4.5 -61.5
q0 -119 75 -119q17 0 34 6q14 5 28.5 25t28 49.5t25 65.5t20.5 74t14 74.5t5 66.5zM444 643q0 -24 -15 -42t-39 -18q-35 0 -35 35q0 24 16.5 42t38.5 18q34 0 34 -35zM328 643q0 -24 -15.5 -42t-39.5 -18q-34 0 -34 35q0 24 16 42t38 18q35 0 35 -35z" />
    <glyph glyph-name="oslash" unicode="&#xf8;" horiz-adv-x="412" 
d="M464 406q0 -26 -4 -58.5t-12 -70.5q-16 -78 -39.5 -132t-55.5 -88.5t-74 -50t-94 -15.5q-114 0 -114 143q0 28 6.5 70.5t16.5 87t22 83t23 57.5q16 29 41 51.5t53.5 38t59 23.5t58.5 8q113 0 113 -147zM374 451q-18 70 -69 70q-18 0 -34.5 -8.5t-31.5 -29t-28.5 -54.5
t-26.5 -85q-16 -63 -23 -115t-7 -91v-8zM382 380q0 10 -0.5 19.5t-1.5 20.5l-224 -325q12 -76 71 -76q17 0 34 6q15 5 29.5 25t28 49.5t25 66t20 74.5t13.5 74t5 66z" />
    <glyph glyph-name="ugrave" unicode="&#xf9;" horiz-adv-x="398" 
d="M474 537q-11 -32 -30 -117l-75 -361l-1.5 -6t-0.5 -4q0 -14 13 -14q1 0 23 5l-4 -17q-98 -24 -103 -24q-17 0 -17 16q0 15 15 56q-18 -34 -53 -54.5t-73 -20.5q-46 0 -74 27t-28 75q0 19 4 36l73 340q1 1 1 8q0 6 -4.5 9t-10 5t-10 4t-4.5 5q0 2 4.5 3.5t17.5 4t36.5 8
t62.5 16.5l-83 -391q-3 -13 -4 -22.5t-1 -17.5q0 -33 15.5 -54.5t42.5 -21.5q34 0 54 17.5t31 42.5t15.5 52t8.5 47l49 231q15 70 15 106v11q37 -3 46 -3q5 0 49 3zM433 715l-17 -19l-105 32q-20 6 -20 22q0 26 33 26q15 0 32 -11z" />
    <glyph glyph-name="uacute" unicode="&#xfa;" horiz-adv-x="398" 
d="M474 537q-11 -32 -30 -117l-75 -361l-1.5 -6t-0.5 -4q0 -14 13 -14q1 0 23 5l-4 -17q-98 -24 -103 -24q-17 0 -17 16q0 15 15 56q-18 -34 -53 -54.5t-73 -20.5q-46 0 -74 27t-28 75q0 19 4 36l73 340q1 1 1 8q0 6 -4.5 9t-10 5t-10 4t-4.5 5q0 2 4.5 3.5t17.5 4t36.5 8
t62.5 16.5l-83 -391q-3 -13 -4 -22.5t-1 -17.5q0 -33 15.5 -54.5t42.5 -21.5q34 0 54 17.5t31 42.5t15.5 52t8.5 47l49 231q15 70 15 106v11q37 -3 46 -3q5 0 49 3zM411 647q0 -11 -7 -18.5t-24 -11.5l-118 -32l-9 19l99 50q24 11 36 11q23 0 23 -18z" />
    <glyph glyph-name="ucircumflex" unicode="&#xfb;" horiz-adv-x="398" 
d="M474 537q-11 -32 -30 -117l-75 -361l-1.5 -6t-0.5 -4q0 -14 13 -14q1 0 23 5l-4 -17q-98 -24 -103 -24q-17 0 -17 16q0 15 15 56q-18 -34 -53 -54.5t-73 -20.5q-46 0 -74 27t-28 75q0 19 4 36l73 340q1 1 1 8q0 6 -4.5 9t-10 5t-10 4t-4.5 5q0 2 4.5 3.5t17.5 4t36.5 8
t62.5 16.5l-83 -391q-3 -13 -4 -22.5t-1 -17.5q0 -33 15.5 -54.5t42.5 -21.5q34 0 54 17.5t31 42.5t15.5 52t8.5 47l49 231q15 70 15 106v11q37 -3 46 -3q5 0 49 3zM417 606q-2 -18 -20 -18q-13 0 -29.5 15.5t-30.5 32.5q-65 -48 -81 -48q-12 0 -12 8q0 25 30 39l70 32
l55 -32q18 -11 18 -29z" />
    <glyph glyph-name="udieresis" unicode="&#xfc;" horiz-adv-x="398" 
d="M474 537q-11 -32 -30 -117l-75 -361l-1.5 -6t-0.5 -4q0 -14 13 -14q1 0 23 5l-4 -17q-98 -24 -103 -24q-17 0 -17 16q0 15 15 56q-18 -34 -53 -54.5t-73 -20.5q-46 0 -74 27t-28 75q0 19 4 36l73 340q1 1 1 8q0 6 -4.5 9t-10 5t-10 4t-4.5 5q0 2 4.5 3.5t17.5 4t36.5 8
t62.5 16.5l-83 -391q-3 -13 -4 -22.5t-1 -17.5q0 -33 15.5 -54.5t42.5 -21.5q34 0 54 17.5t31 42.5t15.5 52t8.5 47l49 231q15 70 15 106v11q37 -3 46 -3q5 0 49 3zM438 643q0 -24 -15 -42t-39 -18q-35 0 -35 35q0 24 16.5 42t38.5 18q34 0 34 -35zM322 643q0 -24 -15.5 -42
t-39.5 -18q-34 0 -34 35q0 24 16 42t38 18q35 0 35 -35z" />
    <glyph glyph-name="yacute" unicode="&#xfd;" horiz-adv-x="371" 
d="M448 537q10 0 12 2q-19 -60 -45.5 -125t-64.5 -139.5t-89 -161.5t-120 -192q-63 -96 -112 -96q-35 0 -35 38q0 51 50 75l26 -48q34 12 105 122q-1 106 -6.5 201t-15.5 180l-12 81q-2 7 -6.5 12t-9 8t-8 5.5t-3.5 4.5t5 4t17 5.5t32.5 9t50.5 14.5q12 -91 18.5 -187.5
t6.5 -205.5v-9q11 12 28.5 43t36.5 71.5t38.5 84.5t35 82.5t25 66.5t9.5 36q0 9 -14 9h-4l3 12q7 0 22.5 -1.5t23.5 -1.5zM398 647q0 -11 -7 -18.5t-24 -11.5l-118 -32l-9 19l99 50q24 11 36 11q23 0 23 -18z" />
    <glyph glyph-name="ydieresis" unicode="&#xff;" horiz-adv-x="371" 
d="M448 537q10 0 12 2q-19 -60 -45.5 -125t-64.5 -139.5t-89 -161.5t-120 -192q-63 -96 -112 -96q-35 0 -35 38q0 51 50 75l26 -48q34 12 105 122q-1 106 -6.5 201t-15.5 180l-12 81q-2 7 -6.5 12t-9 8t-8 5.5t-3.5 4.5t5 4t17 5.5t32.5 9t50.5 14.5q12 -91 18.5 -187.5
t6.5 -205.5v-9q11 12 28.5 43t36.5 71.5t38.5 84.5t35 82.5t25 66.5t9.5 36q0 9 -14 9h-4l3 12q7 0 22.5 -1.5t23.5 -1.5zM424 643q0 -24 -15 -42t-39 -18q-35 0 -35 35q0 24 16.5 42t38.5 18q34 0 34 -35zM308 643q0 -24 -15.5 -42t-39.5 -18q-34 0 -34 35q0 24 16 42
t38 18q35 0 35 -35z" />
    <glyph glyph-name="dotlessi" unicode="&#x131;" horiz-adv-x="167" 
d="M139 45q-1 -1 -1 -9q0 -11 10 -11q5 0 13.5 2t13.5 2l-2 -12q-2 -2 -8.5 -3.5t-21 -4.5t-38.5 -9t-61 -18l105 492q1 1 1 7t-4.5 9.5t-9.5 5t-9.5 3.5t-4.5 5t5.5 4.5t19 4.5t37.5 8.5t60 15.5z" />
    <glyph glyph-name="OE" unicode="&#x152;" horiz-adv-x="758" 
d="M842 686l-13 -92h-8q-2 44 -7 58.5t-20 14.5h-171q-3 -22 -6.5 -40.5t-6.5 -33.5l-39 -185q-4 -20 -15 -53h156q13 0 24 16t13 37h11l-18 -129h-11q1 4 1 8.5v8.5q0 39 -20 39h-159q-5 -30 -9 -51l-40 -194q-1 -5 -5 -19t-11 -38q0 -13 25 -13h186q24 0 57 73h8l-26 -92
h-368l2 12q13 0 25.5 9t15.5 21l5 22q-39 -38 -87 -55t-111 -17q-135 0 -135 165q0 36 6 84t20 110q19 85 45.5 149t64 107t88 64.5t118.5 21.5q77 0 112 -60l2 10q1 1 1 6q0 24 -26 24l2 12h324zM475 520q0 148 -78 148q-32 0 -62 -22.5t-56 -64.5t-47.5 -102t-36.5 -134
q-20 -97 -20 -177q0 -150 77 -150q103 0 171 206q52 157 52 296z" />
    <glyph glyph-name="oe" unicode="&#x153;" horiz-adv-x="669" 
d="M735 443q0 -82 -57 -124q-7 -4 -24.5 -11.5t-40.5 -17t-49.5 -20.5t-50 -22.5t-42.5 -23t-28 -21.5q-2 -16 -3.5 -27.5t-1.5 -19.5q0 -60 22.5 -93.5t61.5 -33.5q29 0 64 21t59 53l17 -10q-72 -95 -182 -95q-42 0 -71 21.5t-44 60.5q-65 -89 -185 -89q-114 0 -114 143
q0 72 14.5 146.5t47 135t86 99t131.5 38.5q94 0 110 -100q34 42 76.5 66t93.5 24q21 0 40 -6.5t34 -18t24.5 -26.5t11.5 -33v-16zM667 444q0 29 -14 49.5t-37 20.5q-28 0 -56 -24.5t-51 -63.5t-40.5 -86.5t-24.5 -92.5q12 11 30.5 20t44.5 18q44 15 72.5 29t45.5 32
t23.5 41.5t6.5 56.5zM377 380q0 66 -21 103.5t-58 37.5q-20 0 -36 -8.5t-30.5 -29t-27 -54.5t-25.5 -86q-32 -126 -32 -205q0 -119 74 -119q18 0 35 6q14 5 28 25t27.5 49.5t25.5 65.5t21 74t14 74.5t5 66.5z" />
    <glyph glyph-name="Scaron" unicode="&#x160;" horiz-adv-x="355" 
d="M418 547h-14q6 34 6 56q0 60 -66 60q-25 0 -46.5 -14t-37 -36t-24.5 -50.5t-9 -56.5t11 -52.5t27 -48t35 -46.5t35 -47t27 -49.5t11 -54.5q0 -38 -15.5 -76.5t-43 -70t-65 -51t-80.5 -19.5q-32 0 -61 17.5t-56 35.5l13 93h13q-1 -6 -1.5 -12t-0.5 -11q0 -45 25.5 -68
t67.5 -23q25 0 46.5 14.5t37.5 38.5t24.5 55t8.5 63q0 45 -22.5 81t-50 70t-50 68.5t-22.5 75.5q0 40 17 77t45 65.5t64.5 45.5t75.5 17q63 0 91 -34zM263 793q0 19 20 19q13 0 29 -15.5t31 -32.5q64 48 80 48q13 0 13 -10q0 -15 -7.5 -22.5t-23.5 -14.5l-69 -32l-55 32
q-9 5 -13.5 11t-4.5 17z" />
    <glyph glyph-name="scaron" unicode="&#x161;" horiz-adv-x="340" 
d="M404 515q-8 -18 -20.5 -43t-29.5 -58l-1 -1v6q-1 28 -3 46.5t-7 29.5t-15.5 15.5t-28.5 4.5q-21 0 -39.5 -10.5t-32 -27t-21.5 -37.5t-8 -42q0 -23 11.5 -40.5t28.5 -32t36.5 -28t36.5 -28.5t28.5 -33.5t11.5 -43.5q0 -38 -16.5 -74t-43.5 -64.5t-62.5 -45.5t-72.5 -17
q-50 0 -120 43l46 92q3 -31 8.5 -50t14.5 -30t22.5 -15t31.5 -4q22 0 41 12t32.5 29.5t21 38t7.5 37.5q0 21 -9.5 40t-29.5 33q-22 15 -42.5 28t-36 28.5t-25 34.5t-9.5 46q0 39 16 74t42.5 62t62 42.5t74.5 15.5q73 0 100 -33zM224 647q0 19 20 19q13 0 29 -15.5t31 -32.5
q64 48 80 48q13 0 13 -10q0 -15 -7.5 -22.5t-23.5 -14.5l-69 -32l-55 32q-9 5 -13.5 11t-4.5 17z" />
    <glyph glyph-name="Ydieresis" unicode="&#x178;" horiz-adv-x="381" 
d="M512 674q-29 0 -47 -30l-98 -162q-10 -12 -22 -31.5t-27 -49.5q-3 -2 -12 -47t-28 -136q-18 -89 -27.5 -133.5t-9.5 -47.5q0 -24 26 -24l-3 -12q-33 1 -50.5 1.5t-21.5 0.5t-22.5 -0.5t-51.5 -1.5l2 12q11 0 24 9t16 21l70 322l-54 293q-3 16 -32 16l2 12q35 -1 54 -1.5
t23 -0.5t21 0.5t49 1.5l-3 -12q-10 0 -21 -9t-11 -19v-2q0 -3 2.5 -18.5t8.5 -43.5q2 -9 6.5 -30t9 -46t8 -48.5t3.5 -37.5q15 30 48 86.5t87 141.5q3 4 3 9q0 17 -23 17l3 12q21 -1 33.5 -1.5t15.5 -0.5q4 0 16.5 0.5t35.5 1.5zM461 789q0 -24 -15 -42t-39 -18
q-35 0 -35 35q0 24 16.5 42t38.5 18q34 0 34 -35zM345 789q0 -24 -15.5 -42t-39.5 -18q-34 0 -34 35q0 24 16 42t38 18q35 0 35 -35z" />
    <glyph glyph-name="Zcaron" unicode="&#x17d;" horiz-adv-x="402" 
d="M511 686q-15 -19 -30 -43t-31 -50l-259 -437q-27 -45 -49.5 -78.5t-40.5 -57.5h227q27 0 60 73h7l-26 -92h-356q15 20 31.5 45t34.5 55l263 443q23 38 43.5 69t38.5 54h-205q-26 0 -57 -73h-8l31 105h10q-1 -1 -1 -3q0 -10 10 -10h307zM286 793q0 19 20 19q13 0 29 -15.5
t31 -32.5q64 48 80 48q13 0 13 -10q0 -15 -7.5 -22.5t-23.5 -14.5l-69 -32l-55 32q-9 5 -13.5 11t-4.5 17z" />
    <glyph glyph-name="zcaron" unicode="&#x17e;" horiz-adv-x="360" 
d="M457 544q-3 -5 -20 -29t-43 -59.5t-58 -79t-65.5 -89t-65 -89t-57 -78t-42 -57t-18.5 -25.5q22 14 45.5 27.5t48.5 13.5q7 0 19.5 -4.5t26 -10.5t25.5 -10.5t18 -4.5q40 0 62 37l17 -6q-48 -90 -112 -90q-9 0 -26 3.5t-36 8t-35.5 8.5t-24.5 4q-34 0 -92 -24q4 5 21.5 29
t43.5 59.5t57.5 79.5t64.5 89.5t64.5 89t56.5 78t41.5 56.5t19.5 25q-24 -15 -47 -27.5t-47 -12.5q-7 0 -19 4.5t-25.5 10t-25.5 10t-19 4.5q-41 0 -62 -37l-17 7q50 89 113 89q8 0 25 -4t35.5 -8.5t35.5 -8t26 -3.5q32 0 91 24zM234 647q0 19 20 19q13 0 29 -15.5t31 -32.5
q64 48 80 48q13 0 13 -10q0 -15 -7.5 -22.5t-23.5 -14.5l-69 -32l-55 32q-9 5 -13.5 11t-4.5 17z" />
    <glyph glyph-name="circumflex" unicode="&#x2c6;" horiz-adv-x="432" 
d="M462 606q-2 -18 -20 -18q-13 0 -29.5 15.5t-30.5 32.5q-65 -48 -81 -48q-12 0 -12 8q0 25 30 39l70 32l55 -32q18 -11 18 -29z" />
    <glyph glyph-name="caron" unicode="&#x2c7;" horiz-adv-x="432" 
d="M298 647q0 19 20 19q13 0 29 -15.5t31 -32.5q64 48 80 48q13 0 13 -10q0 -15 -7.5 -22.5t-23.5 -14.5l-69 -32l-55 32q-9 5 -13.5 11t-4.5 17z" />
    <glyph glyph-name="ring" unicode="&#x2da;" horiz-adv-x="456" 
d="M491 620q-6 -26 -33 -41.5t-59 -15.5q-30 0 -49 12.5t-19 34.5q0 29 27 48.5t65 19.5q30 0 49.5 -12.5t19.5 -34.5q0 -9 -1 -11zM470 620q1 1 1 9q0 16 -14.5 25t-36.5 9q-26 0 -47 -14t-21 -37q0 -13 13 -23t37 -10t44 11t24 30z" />
    <glyph glyph-name="tilde" unicode="&#x2dc;" horiz-adv-x="410" 
d="M493 664q-9 -29 -32 -52t-52 -23q-10 0 -23.5 8t-27 17t-24.5 17t-15 8q-19 0 -42 -50h-14q7 29 29.5 51t51.5 22q9 0 23 -7.5t28.5 -17t26.5 -17t17 -7.5q22 0 40 51h14z" />
    <glyph glyph-name="endash" unicode="&#x2013;" horiz-adv-x="255" 
d="M310 373l-10 -47h-216l10 47h216z" />
    <glyph glyph-name="emdash" unicode="&#x2014;" horiz-adv-x="505" 
d="M539 373l-10 -47h-420l10 47h420z" />
    <glyph glyph-name="quoteleft" unicode="&#x2018;" horiz-adv-x="148" 
d="M162 627q0 15 8 31.5t21 31.5t29.5 28.5t33.5 22.5q-35 -41 -35 -74q0 -35 36 -35q-27 -43 -59 -43q-34 0 -34 38z" />
    <glyph glyph-name="quoteright" unicode="&#x2019;" horiz-adv-x="131" 
d="M258 698q0 -15 -8 -31.5t-21.5 -31.5t-30 -28.5t-32.5 -22.5q35 44 35 75q0 35 -36 35q27 43 59 43q34 0 34 -39z" />
    <glyph glyph-name="quotesinglbase" unicode="&#x201a;" horiz-adv-x="131" 
d="M118 39q0 -15 -8.5 -31.5t-21.5 -32t-30 -29t-33 -21.5q35 44 35 75q0 34 -36 34q27 44 59 44q35 0 35 -39z" />
    <glyph glyph-name="quotedblleft" unicode="&#x201c;" horiz-adv-x="228" 
d="M255 636q-27 -42 -59 -42q-33 0 -33 39q0 15 8 31.5t21.5 32t29.5 29t33 21.5q-35 -41 -35 -75t35 -34q1 15 9.5 30.5t21.5 30.5t28.5 27.5t31.5 20.5q-34 -40 -34 -75q0 -34 35 -34q-27 -44 -59 -44q-33 0 -33 39v3z" />
    <glyph glyph-name="quotedblright" unicode="&#x201d;" horiz-adv-x="214" 
d="M344 707q0 -15 -8.5 -32t-22 -32.5t-30 -28.5t-32.5 -20q35 41 35 75q0 33 -34 34q-1 -15 -10 -31.5t-22.5 -31.5t-29.5 -27t-31 -19q35 41 35 75t-36 34q27 43 60 43q34 0 34 -39v-1q25 40 57 40q35 0 35 -39z" />
    <glyph glyph-name="quotedblbase" unicode="&#x201e;" horiz-adv-x="214" 
d="M199 39q0 -15 -8.5 -32.5t-21.5 -33t-30 -28.5t-33 -20q36 40 36 75q0 34 -36 34q-1 -15 -9.5 -31.5t-21.5 -31.5t-28.5 -27t-31.5 -19q35 41 35 75t-36 34q27 44 59 44q34 0 34 -39v-4q25 43 58 43q34 0 34 -39z" />
    <glyph glyph-name="bullet" unicode="&#x2022;" horiz-adv-x="328" 
d="M363 400q0 -27 -12 -54.5t-31.5 -49.5t-45.5 -36t-54 -14q-42 0 -65.5 27.5t-23.5 69.5q0 27 12 54.5t31.5 49.5t45 36t53.5 14q42 0 66 -27.5t24 -69.5z" />
    <glyph glyph-name="ellipsis" unicode="&#x2026;" horiz-adv-x="1409" 
d="M373 59q0 -25 -17 -45t-42 -20q-38 0 -38 37q0 26 17 46.5t43 20.5q37 0 37 -39zM767 59q0 -25 -17.5 -45t-42.5 -20q-38 0 -38 37q0 26 17.5 46.5t43.5 20.5q37 0 37 -39zM1160 59q0 -25 -17 -45t-42 -20q-38 0 -38 37q0 26 17 46.5t43 20.5q37 0 37 -39z" />
    <glyph glyph-name="Euro" unicode="&#x20ac;" horiz-adv-x="361" 
d="M470 652q0 -9 -7 -17.5t-16 -8.5q-3 0 -9.5 8.5t-16.5 18t-23.5 18t-28.5 8.5q-61 0 -117 -71.5t-91 -213.5h245l-6 -29h-246q-4 -14 -6.5 -28.5t-4.5 -30.5h244l-6 -29h-242q-4 -26 -5.5 -49t-1.5 -45q0 -164 90 -164q11 0 26.5 3.5t32 10t31 15t24.5 18.5l5 -15
q-15 -10 -33.5 -20t-38 -18.5t-38 -13.5t-33.5 -5q-58 0 -89 56.5t-31 159.5q0 32 3 67h-41l5 29h39q2 16 5 30.5t6 28.5h-37l7 29h38q8 67 38.5 122t70 94.5t81 61.5t72.5 22q14 0 32 -2.5t34.5 -8t27.5 -13.5t11 -18z" />
    <glyph glyph-name="uniF001" unicode="&#xf001;" horiz-adv-x="358" 
d="M470 661q0 -25 -17 -45.5t-42 -20.5q-13 0 -26.5 9t-26 20.5t-23 20.5t-18.5 9q-23 0 -36 -14.5t-20.5 -36.5t-12.5 -48.5t-11 -51.5q45 1 94.5 9.5t106.5 24.5l-105 -492q-1 -1 -1 -9q0 -11 11 -11q4 0 13 2t13 2l-1 -12q-2 -2 -8.5 -3.5t-21 -4.5t-38.5 -9t-61 -18
l105 492v10l-111 -1q-9 -118 -33 -221t-57 -185t-73 -140t-81 -86l-19 14q32 30 61.5 83.5t54 130.5t43 178t28.5 226h-40l3 20h42q15 91 50.5 134t106.5 43q37 0 58 -49q0 1 -0.5 3t-0.5 4q0 26 15.5 44t41.5 18q37 0 37 -39z" />
    <glyph glyph-name="uniF002" unicode="&#xf002;" horiz-adv-x="362" 
d="M333 45q-1 -1 -1 -3q0 -13 31 -13h6l-1 -12q-38 -5 -69.5 -11.5t-57.5 -13.5l133 626q1 1 1 8q0 14 -13.5 22t-34.5 8q-27 0 -42.5 -13.5t-24 -35t-13 -49t-10.5 -55.5h68l-5 -20h-67q-9 -118 -33 -221t-57 -185t-73 -140t-81 -86l-19 14q32 30 61.5 83.5t54 130.5
t43 178t28.5 226h-40l3 20h42q15 94 50 136t99 42q14 0 30 -3.5t40 -8.5q63 0 89 20z" />
    </font>
</defs>
</svg>
