<?xml version="1.0" standalone="no"?>
<!DOCTYPE svg PUBLIC "-//W3C//DTD SVG 1.1//EN" "http://www.w3.org/Graphics/SVG/1.1/DTD/svg11.dtd" >
<svg xmlns="http://www.w3.org/2000/svg" xmlns:xlink="http://www.w3.org/1999/xlink" version="1.1">
<metadata>
Created by FontForge 20201107 at Sun Dec  7 21:53:21 2008
 By www-data
(c) 1999 Ray Larabie. See attached license agreement for more information. If EULA is missing, visit www.larabiefonts.com for an updated version of this font.
</metadata>
<defs>
<font id="EffloresceAntique-Regular" horiz-adv-x="489" >
  <font-face 
    font-family="Effloresce Antique"
    font-weight="400"
    font-stretch="normal"
    units-per-em="1000"
    panose-1="2 0 4 0 0 0 0 0 0 0"
    ascent="700"
    descent="-300"
    x-height="569"
    cap-height="733"
    bbox="-74 -294 1371 906"
    underline-thickness="20"
    underline-position="-143"
    unicode-range="U+0020-FB02"
  />
<missing-glyph horiz-adv-x="452" 
d="M129 0q-97 0 -97 84v488q0 85 97 85h193q98 0 98 -85v-488q0 -84 -98 -84h-193zM368 572q0 39 -46 39h-193q-46 0 -46 -39v-488q0 -39 46 -39h193q46 0 46 39v488z" />
    <glyph glyph-name=".notdef" horiz-adv-x="452" 
d="M129 0q-97 0 -97 84v488q0 85 97 85h193q98 0 98 -85v-488q0 -84 -98 -84h-193zM368 572q0 39 -46 39h-193q-46 0 -46 -39v-488q0 -39 46 -39h193q46 0 46 39v488z" />
    <glyph glyph-name=".null" horiz-adv-x="0" 
 />
    <glyph glyph-name="nonmarkingreturn" horiz-adv-x="273" 
 />
    <glyph glyph-name="space" unicode=" " horiz-adv-x="273" 
 />
    <glyph glyph-name="exclam" unicode="!" horiz-adv-x="268" 
d="M195 715q0 -2 -3 -14l-6.5 -26l-6.5 -26t-3 -13q-2 -24 -7 -69t-10 -97t-9.5 -105.5t-5.5 -94.5q-1 -25 -1.5 -39t-2 -22.5t-4.5 -14t-9 -14.5h-16q-7 14 -11 35t-5 48l-3 85q-1 30 -3.5 62.5t-6 71t-9 84t-12.5 101.5q0 8 -5.5 25t-5.5 26q0 53 76 53q29 0 49 -16
t20 -40zM171 53q0 -27 -15 -43.5t-42 -16.5q-21 0 -38 16t-17 37q0 22 16 40.5t39 18.5q24 0 40.5 -14.5t16.5 -37.5z" />
    <glyph glyph-name="quotedbl" unicode="&#x22;" horiz-adv-x="290" 
d="M210 778q0 -4 -2.5 -12t-7.5 -22l-13 -36q-2 -8 -3 -18.5t-2 -24.5q-1 -18 -2 -27.5t-2 -14t-3.5 -5.5t-6.5 -1q-15 0 -21 26q-2 9 -6 30.5t-8.5 45t-7.5 42.5t-3 22q0 20 16 31t36 11q36 0 36 -47zM112 790q0 -5 -9 -27q-6 -16 -9.5 -28t-5.5 -23t-2.5 -22.5t-0.5 -26.5
q0 -9 0.5 -18t1.5 -19l-11 -15q-12 2 -16.5 8.5t-6 17t-2 26t-4.5 35.5l-13 41q-11 32 -10 39q0 19 13.5 33t31.5 14q13 0 28 -11.5t15 -23.5z" />
    <glyph glyph-name="numbersign" unicode="#" horiz-adv-x="383" 
d="M336 614q0 -8 -9.5 -14t-17.5 -6q-4 0 -10 2t-9 2q-20 0 -25.5 -4t-5.5 -12v-19q0 -8 -1.5 -17.5t-6.5 -21.5q13 -12 34 -12q5 0 14.5 1.5t15.5 1.5q4 -3 4 -10q0 -14 -20 -17t-45 -7q-2 -3 -7 -20t-11 -37t-11.5 -37t-8.5 -20l-9 4v9q0 7 1 20.5t1.5 28.5t1.5 28.5
t1 19.5q0 12 -67 12q-3 -5 -7 -23.5t-9.5 -40t-11 -40t-10.5 -22.5q-15 6 -15 22q0 22 5 40.5t5 31.5q0 17 -5.5 22t-14.5 5.5t-19 1.5t-19 10q9 14 37 14q15 0 23.5 8t12 18.5t4.5 20.5t1 15q0 11 -9 16.5t-20.5 8t-21 3t-10.5 1.5v12q8 10 24.5 10t34.5 2q7 7 10.5 23.5
t7 36t7.5 37.5t12 28h15q1 -5 1.5 -12.5t0.5 -16.5q0 -21 -5 -42.5t-9 -42.5q12 -12 57 -12q16 0 20 10l6 30q5 24 7 37.5t4 22t5.5 14.5t10.5 15q15 0 15 -18q0 -5 -2.5 -19t-5.5 -30t-5.5 -30t-2.5 -18q0 -17 23 -17q19 0 40 3q0 -1 2 -3t2 -7zM227 563q0 6 -7.5 16.5
t-7.5 14.5h-27q-39 0 -39 -58q0 -14 6 -17.5t19 -3.5q18 0 29 0.5t17 5t8 14t2 28.5z" />
    <glyph glyph-name="dollar" unicode="$" horiz-adv-x="440" 
d="M406 224q1 -14 -3.5 -28.5t-12.5 -31.5q-7 -15 -25 -29.5t-37.5 -26t-36 -19.5t-19.5 -12q-16 10 -20 10q-10 0 -30 -3t-30 -3q-15 0 -39 12t-47 30t-39.5 38t-16.5 37q0 19 21 19q8 0 12 -2.5t6.5 -7.5t5.5 -13t9 -19q2 -4 10 -12t17.5 -15.5t19 -13.5t13.5 -6h17v250
q-37 21 -61.5 39.5t-39.5 36.5t-21 37t-6 42q0 45 12 74t49 53q5 3 14 7t18.5 7t17.5 6t13 5q6 31 16 48q0 -15 6 -31t23 -16q39 0 47 33q2 -17 21 -30.5t40.5 -27t39.5 -28t18 -33.5q0 -6 -6.5 -14.5t-14.5 -8.5l-40 34q-15 13 -28 23.5t-14 10.5q-5 0 -9 -6v-221
q0 -8 13 -18q83 -59 98 -89q1 -2 4 -15t6.5 -28t6 -28t2.5 -16zM256 328q-35 35 -43 35h-9v-241h19q0 2 33 11v195zM256 428v216q-14 8 -18 8q-20 0 -36 -12v-184q37 -28 43 -28h11zM177 620q-26 -8 -26 -44q0 -76 29 -90zM307 208q0 6 -1.5 14.5l-3 17t-2.5 16t-1 11.5
l-18 17l-4 -131q30 16 30 55z" />
    <glyph glyph-name="percent" unicode="%" horiz-adv-x="593" 
d="M294 636q0 -27 -12 -49t-32.5 -38t-47.5 -25t-57 -9h-17q-22 0 -47 22q-32 27 -38.5 53.5t-6.5 57.5q0 88 96 127q24 9 28 9q134 0 134 -148zM409 751q-7 -15 -17 -35q-8 -17 -20.5 -43.5t-29.5 -61.5q-1 -3 -10 -24t-23 -53.5t-31.5 -72t-35.5 -79t-36 -75.5t-32 -60
q-7 0 -12 5q24 72 56.5 149t74.5 165q0 7 0.5 12.5t3.5 13t9 18t17 27.5l18 38q15 33 42 99h18l8 -8v-15zM549 354q0 -95 -93 -123q48 51 48 127q0 48 -23 79t-61 31q-17 0 -31.5 -10t-26 -26t-18 -35t-6.5 -38q0 -23 6 -46.5t16.5 -42.5t24.5 -30.5t31 -11.5q2 0 3.5 0.5
t3.5 0.5q-17 -9 -27 -9q-48 0 -75 31t-27 91q0 18 11 70q2 10 14.5 23t30 24t37 18.5t34.5 7.5q128 0 128 -131zM250 645q0 25 -7 46.5t-19 37.5t-28 25.5t-34 9.5t-33 -10.5t-26 -28.5t-17 -41.5t-6 -50.5q0 -15 7 -34t17.5 -35.5t23.5 -27.5t25 -11q21 0 39 9.5t30.5 25.5
t20 38t7.5 47z" />
    <glyph glyph-name="ampersand" unicode="&#x26;" horiz-adv-x="537" 
d="M554 33q-1 -7 -8.5 -12.5t-18.5 -9.5t-23.5 -6t-23.5 -2q-23 0 -45.5 4t-48.5 21q-8 5 -13 8.5t-9 5.5q-4 3 -7 5q-2 0 -21 -12q-37 -23 -72.5 -30.5t-74.5 -7.5q-15 0 -41 12.5t-51.5 36t-44 57.5t-18.5 76q0 34 6 60.5t18.5 48t33.5 40t51 37.5q-8 7 -21.5 19t-26 30
t-22 43.5t-9.5 58.5q0 44 16 81.5t45 64.5t69.5 42t89.5 15q19 0 41 -6t40.5 -15.5t30.5 -22.5t12 -28q0 -8 -9.5 -17t-16.5 -9q-2 0 -24 25q-12 13 -19 20t-13 11t-12 5t-16 1q-28 0 -54 -11.5t-46.5 -32.5t-32.5 -50t-12 -65q0 -75 36.5 -119.5t99.5 -44.5q20 0 35 2.5
t28.5 10t28 22.5t32.5 39q6 -17 6 -34q0 -5 -1 -14.5t-1 -14.5q0 -15 25 -15h47q4 -4 4 -14q0 -9 -12 -9q-5 0 -10.5 1t-11.5 1q-14 0 -26.5 -9.5t-12.5 -44.5q0 -4 0.5 -13.5t1.5 -19.5t1.5 -19.5t0.5 -13.5q0 -5 -1 -13t-2 -16.5t-2 -16t-1 -11.5q0 -54 21 -91t57 -37
q9 0 28.5 1.5t29.5 1.5zM340 83q0 2 -2.5 7.5t-5.5 16.5l-9 30q-1 7 -1.5 16.5t-0.5 21.5q0 9 0.5 26t1.5 35.5t1.5 35.5t0.5 25q0 22 -8 28.5t-30 6.5q-4 0 -18.5 -2t-39.5 -6q-21 -3 -37.5 -19.5t-27 -37t-16 -39.5t-5.5 -28q0 -75 27.5 -119t84.5 -44q38 0 85 24v22z" />
    <glyph glyph-name="quotesingle" unicode="'" horiz-adv-x="145" 
d="M130 740q0 -56 -61 -84q0 6 2.5 20.5t2.5 22.5q0 36 -42 59v11q0 4 6.5 9t15 9.5t17 7.5t11.5 3q48 0 48 -58z" />
    <glyph glyph-name="parenleft" unicode="(" horiz-adv-x="290" 
d="M219 -54q-20 -11 -33 -11q-79 0 -120 134q-11 38 -11 51v458q0 33 2 58t6 42q3 12 15 33.5t27.5 42t30.5 35.5t24 15h21q-8 -7 -22 -30.5t-28 -51.5t-24.5 -53.5t-10.5 -35.5v-446q0 -4 3 -10t3 -10q0 -7 -1.5 -22t-1.5 -22q0 -44 8.5 -74t24 -50t37.5 -32.5t50 -20.5z
" />
    <glyph glyph-name="parenright" unicode=")" horiz-adv-x="345" 
d="M316 364q-3 -25 -6 -48q-2 -20 -4 -41t-2 -36q0 -7 1 -21t2.5 -29t2.5 -28.5t1 -20.5q0 -148 -129 -206l-18 5q1 1 7.5 6t19.5 13q18 12 32.5 38t24.5 57.5t15.5 64.5t5.5 59v132q0 76 1.5 111.5t1.5 36.5q0 6 -1 19t-2 27.5t-2 27.5t-1 20q0 6 0.5 15.5t0.5 20t0.5 20.5
t0.5 16q0 29 -3 53t-11 44q-4 10 -17 25t-26.5 28.5t-24.5 23.5t-10 10h29q22 0 51 -36q33 -42 45 -87t12 -107q0 -10 -1 -29.5t-2.5 -41.5t-2.5 -41.5t-1 -29.5q0 -5 1.5 -15.5t3.5 -21.5t3.5 -21t1.5 -13z" />
    <glyph glyph-name="asterisk" unicode="*" horiz-adv-x="364" 
d="M310 596q0 -6 -14.5 -15t-31.5 -17.5t-32.5 -14.5t-16.5 -6q4 -6 17 -15t28 -18.5t27.5 -18.5t15.5 -16q-5 -16 -29 -32q-7 5 -25.5 23t-49.5 48q-19 -11 -35 -95q-3 -2 -6.5 -3t-4.5 -1q-12 0 -36 26l50 88q-9 9 -23 9q-6 0 -17 -0.5t-23.5 -1.5t-23.5 -1.5t-17 -0.5
q-8 18 -8 21q0 8 7 17.5t15 9.5q3 0 11 -2.5t16.5 -6t16.5 -6t11 -2.5h33q5 3 5 9q0 13 -33 81v11q27 18 47 18q2 -8 4.5 -23t5.5 -32t6 -32t6 -22h2l11.5 8t25.5 17.5t26 17.5t13 8q11 0 18.5 -10t7.5 -20z" />
    <glyph glyph-name="plus" unicode="+" horiz-adv-x="341" 
d="M291 373q0 -16 -15 -16q-6 0 -20.5 2t-21.5 2q-36 0 -46.5 -6.5t-10.5 -24.5q0 -9 1.5 -27.5t1.5 -28.5q0 -8 -0.5 -16t-1.5 -16h-18q-4 9 -4 39q0 7 0.5 15t0.5 16q0 17 -2 28.5t-5 19.5q-17 0 -41.5 1.5t-57.5 3.5v12q5 1 14 1.5t20 0.5h10t14 -1h25q17 0 20.5 27
t8.5 87h12q9 -26 12 -103q1 -2 9 -4t18 -3.5t21 -2.5t18 -1q3 0 10 1.5t10 1.5q10 0 18 -8z" />
    <glyph glyph-name="comma" unicode="," horiz-adv-x="197" 
d="M152 50q0 -10 -6 -25t-15 -29t-19.5 -25t-20.5 -12q-4 4 -4 13q0 6 3 19.5t3 20.5q0 13 -13.5 26.5t-29.5 26.5v12q5 9 20.5 18.5t26.5 9.5q24 0 39.5 -16t15.5 -39z" />
    <glyph glyph-name="hyphen" unicode="-" horiz-adv-x="336" 
d="M302 360q-11 -11 -24 -11q-5 0 -16.5 1t-24 2.5t-24 2.5t-16.5 1q-8 0 -22.5 -3.5t-21.5 -3.5h-37.5t-31 2.5t-21.5 8.5t-8 18q0 10 3 21q29 1 55.5 1.5t50.5 0.5h30q23 0 49 -0.5t55 -1.5q4 -11 4 -30v-9z" />
    <glyph glyph-name="period" unicode="." horiz-adv-x="196" 
d="M161 42q0 -46 -55 -46q-57 0 -57 55q0 20 16 37t38 17q27 0 42.5 -18t15.5 -45z" />
    <glyph glyph-name="slash" unicode="/" horiz-adv-x="406" 
d="M359 715q0 -5 -5 -18t-16 -38t-28 -64t-41 -96l-166 -425q-18 -45 -41 -75h-14q-8 6 -8 15q-1 8 6 25.5t19 45.5q14 32 24 54t19 43.5t20 47.5t27 66t39.5 99t58.5 146q68 188 81 188h21q4 -4 4 -14z" />
    <glyph glyph-name="zero" unicode="0" horiz-adv-x="620" 
d="M586 282q0 -59 -24.5 -111t-65.5 -90t-95 -60t-112 -22q-4 0 -12.5 3.5t-13.5 3.5q-4 0 -11.5 -2t-10.5 -2q-18 0 -70 20q-31 12 -55.5 35.5t-41.5 56t-26 71.5t-9 83q0 66 23 121t65 94.5t100 61.5t128 22q53 0 96 -22t73 -60t46 -90t16 -113zM493 279q-1 24 -3 49
t-7 51q-6 29 -24.5 56.5t-44 49t-55 34.5t-59.5 13q-35 0 -64.5 -20.5t-50.5 -55.5t-33 -80.5t-12 -94.5q0 -56 11.5 -102t33 -78.5t53 -50t72.5 -17.5q40 0 74 19t58 52t37.5 78t13.5 97z" />
    <glyph glyph-name="one" unicode="1" horiz-adv-x="270" 
d="M230 578q0 -2 -5 -8t-10.5 -13.5t-10.5 -14t-5 -9.5v-457q0 -8 2.5 -18t6 -20t7.5 -18t8 -11q-32 -12 -96 -12q-25 0 -43 8q0 7 19 29q1 20 3 33t2 24v380q0 42 -33 42q0 -2 -48 -6q0 4 -4 8q1 10 14.5 16.5t29.5 10t29.5 5t15.5 2.5l31 15q42 14 65 18z" />
    <glyph glyph-name="two" unicode="2" horiz-adv-x="438" 
d="M403 59q-3 -18 -9 -31q-5 -12 -13.5 -21.5t-22.5 -9.5h-345v12q80 73 132.5 127t83 97.5t43 80.5t12.5 76q0 21 -9 43.5t-24 40.5t-33 30t-36 12q-39 0 -110 -47l-9 9q6 20 18 31q8 7 28 15t43.5 15t47.5 11t41 4q32 0 73 -23q19 -11 32 -22.5t20.5 -25.5t10.5 -33t3 -46
q0 -34 -13 -67t-38 -68q-12 -17 -27.5 -32t-35.5 -35t-47 -48t-63 -70q42 -2 102 -4t141 -6q4 -4 4 -15z" />
    <glyph glyph-name="three" unicode="3" horiz-adv-x="396" 
d="M364 98q0 -34 -22 -73t-57 -75t-79 -65t-88 -43l-33 4q3 6 38 23q61 30 94.5 64t49.5 65.5t19 57t3 39.5q0 25 -26 68q-14 22 -26 35t-26 19t-31.5 7.5t-42.5 1.5q0 4 -4 8q5 11 22 18q21 9 40.5 19t34.5 23t24 30.5t9 42.5q0 148 -98 148q-16 0 -28 -2t-25 -6.5
t-29 -12.5l-40 -20l-8 9q7 23 29 38.5t48.5 24.5t53 13t43.5 4q4 0 16.5 -4t26.5 -9.5t26.5 -11t16.5 -8.5q12 -9 23 -22.5t19 -29.5t12.5 -33.5t4.5 -33.5q0 -33 -14 -66t-47 -59l-38 -24q4 -5 17 -15.5t37 -25.5q22 -14 33 -30t16 -32t5.5 -32t0.5 -29z" />
    <glyph glyph-name="four" unicode="4" horiz-adv-x="455" 
d="M433 1l-26 -4q-15 -2 -18.5 -8.5t-3.5 -19.5v-11t1 -14v-27q0 -19 -1 -32t-6 -21.5t-15.5 -12.5t-29.5 -4q-32 0 -47 12v129q-12 13 -41 13q-7 0 -21 -1t-29.5 -2.5t-29 -2.5t-20.5 -1q-103 0 -127 11q5 18 20 43.5t37.5 57t50.5 69.5t58 83q42 62 67 101t44.5 66
t38 47.5t45.5 44.5q4 -49 6 -88t2 -70q0 -5 -3 -16.5t-3 -16.5v-296q5 -9 23 -12q14 -2 20.5 -3t7.5 -1v-13zM286 183q0 80 -7 109q-17 -6 -28 -20l-161 -246q16 0 42 -1.5t51.5 -3t45 -2.5t24.5 -1h10q23 0 23 15v150z" />
    <glyph glyph-name="five" unicode="5" horiz-adv-x="373" 
d="M348 131q0 -44 -14.5 -85.5t-41.5 -77.5t-65 -65.5t-84 -48.5h-11l-8 8q2 5 36 26l42 25q22 13 35.5 33.5t21.5 44t11 47t3 43.5q0 40 -12 75t-40 69.5t-74.5 69.5t-114.5 74q13 22 36 69l21 54q6 16 13.5 25t19 13.5t27.5 6t40 1.5h66q6 0 13.5 -0.5t16.5 -0.5h36
q6 0 20 -8v-22q0 -14 -21 -47q-5 0 -16.5 -0.5t-24.5 -1.5t-25 -1.5t-18 -0.5q-15 0 -38.5 2.5t-46.5 2.5q-38 0 -55 -14v-17q51 -28 97 -65.5t80.5 -78t54.5 -81t20 -74.5z" />
    <glyph glyph-name="six" unicode="6" horiz-adv-x="451" 
d="M417 192q0 -5 -4.5 -15.5t-5.5 -14.5q-3 -37 -16.5 -70t-42.5 -49l-30 -20q-35 -23 -74 -23q-60 0 -90 11q-29 11 -52 37.5t-39 64t-24.5 84t-8.5 97.5q0 5 3 14.5t3 14.5q0 8 -1 24.5t-1 24.5q0 54 23 113q2 5 8.5 19.5t18.5 34t28.5 41.5t39.5 42q109 98 138 98h10
l8 -8q1 -1 1 -3q0 -3 -5 -8.5t-16 -10.5l-28 -14q-101 -62 -134 -202q-4 -15 -4 -24q0 1 0.5 -19l1.5 -60q8 5 20.5 14.5t28.5 19t35 16.5t41 7q81 0 124.5 -62.5t43.5 -173.5zM339 177q0 40 -9.5 75t-27 61t-41 40.5t-51.5 14.5q-95 0 -95 -104q0 -54 8 -98.5t24 -76
t39 -48.5t53 -17q22 0 40.5 12t32 33t20.5 48.5t7 59.5z" />
    <glyph glyph-name="seven" unicode="7" horiz-adv-x="435" 
d="M416 524q0 -2 -35.5 -105.5t-108.5 -309.5l-21 -45l-38 -117q-33 -91 -58 -91q-17 0 -17 19q1 7 18 58t54 148l15 39q0 22 13.5 55t36.5 92q66 166 66 172v13q-5 6 -12 6h-289q-8 6 -8 15q0 6 2.5 16t6 20t8 17.5t7.5 8.5t25 2.5t56.5 2.5t79.5 2t94 1q51 0 78 -2t27 -17
z" />
    <glyph glyph-name="eight" unicode="8" horiz-adv-x="480" 
d="M449 215q0 -145 -116 -195q-44 -19 -56 -19h-45q-6 0 -23 2t-39 9t-46 20t-43.5 35t-32.5 54.5t-13 78.5q0 35 7.5 62.5t20 48.5t29 37t34.5 28l41 27q-112 100 -112 186q0 33 14 61.5t38 50.5t56 34.5t67 12.5q39 0 74 -10.5t61.5 -30t41.5 -46.5t15 -61
q0 -18 -11.5 -41t-29 -45.5t-37.5 -40.5t-38 -26v-9q143 -93 143 -223zM358 603q0 57 -39.5 87.5t-96.5 30.5q-18 0 -37 -6t-34.5 -16.5t-25 -26t-9.5 -34.5q0 -20 13.5 -50t37 -58.5t56 -49t71.5 -20.5q26 0 56 106q8 30 8 37zM384 189q0 59 -42 112q-11 14 -29 29.5
t-37 28t-36.5 21t-28.5 8.5q-25 0 -62 -48q-17 -22 -26.5 -37t-14 -28.5t-5 -27.5t-0.5 -34q0 -182 143 -182q27 0 52 13.5t44 35.5t30.5 50.5t11.5 58.5z" />
    <glyph glyph-name="nine" unicode="9" horiz-adv-x="447" 
d="M426 274q-2 -164 -59 -264q-12 -21 -39 -48t-58 -51.5t-60.5 -41t-47.5 -16.5h-10l-2 4t-3 4q36 23 60 38.5t36 25.5q30 24 48 55t27.5 59t12.5 48t3 22l-2 37q-26 -15 -40.5 -23t-24.5 -12.5t-17.5 -5.5t-18.5 -1q-36 0 -65 7.5t-61 34.5q-22 18 -35 37.5t-20 42
t-9 48.5t-2 58q0 43 13.5 81.5t39 67.5t61 45.5t79.5 16.5q70 0 119.5 -51t61.5 -148q0 -3 2 -12t4.5 -20t4.5 -21.5t2 -16.5zM337 258q0 124 -34 190.5t-98 66.5q-88 0 -88 -171q0 -39 11 -72.5t30.5 -57.5t47 -37.5t60.5 -13.5q71 0 71 95z" />
    <glyph glyph-name="colon" unicode=":" horiz-adv-x="180" 
d="M147 339q0 -18 -18 -33t-36 -15q-23 0 -40.5 15.5t-17.5 37.5q0 23 17.5 39.5t40.5 16.5q22 0 38 -18.5t16 -42.5zM151 53q0 -26 -19 -43t-45 -17q-19 0 -35.5 14t-16.5 34q0 24 16.5 44t41.5 20q7 0 17 -5.5t19 -13t15.5 -17t6.5 -16.5z" />
    <glyph glyph-name="semicolon" unicode=";" horiz-adv-x="181" 
d="M153 343q0 -22 -15.5 -36t-38.5 -14q-62 0 -62 55q0 21 17 37.5t39 16.5q27 0 43.5 -16t16.5 -43zM153 42q0 -6 -6.5 -18t-16 -24t-19 -22.5t-15.5 -13.5h-12q1 9 4 27t3 27q0 12 -6.5 20t-14 14t-13.5 11t-6 11q0 29 48 29q23 0 38.5 -19.5t15.5 -41.5z" />
    <glyph glyph-name="less" unicode="&#x3c;" horiz-adv-x="283" 
d="M218 254q-1 -4 -6.5 -8.5t-13 -8.5t-15.5 -6.5t-13 -2.5q-5 -1 -19 12t-41 37q-22 19 -35 32t-20.5 21.5t-10 13.5t-2.5 10q0 8 20.5 31t47 48t50.5 44t32 19q-1 0 4 -1l15 -3v-11q-102 -104 -102 -110q0 -7 12 -20.5t37 -37.5z" />
    <glyph glyph-name="equal" unicode="=" horiz-adv-x="321" 
d="M268 406q-14 -12 -58 -12q-6 0 -21 1t-34 1.5t-39.5 1.5t-36.5 1q-8 0 -14.5 -0.5t-12.5 -0.5q-1 4 -2 8.5t-2 11.5q26 14 45 14q6 0 18.5 -1.5t19.5 -1.5q4 0 13 3.5t14 3.5h16q6 1 10.5 1h7.5q29 0 76 -12v-19zM272 322q-1 -2 -2 -6t-2 -9q-53 -3 -97 -3h-23
q-44 0 -96 3q-3 8 -4 10.5t-1 4.5q0 6 1 9t9 4.5t26.5 1.5h53.5h42q79 0 93 -15z" />
    <glyph glyph-name="greater" unicode="&#x3e;" horiz-adv-x="318" 
d="M264 371q0 -8 -50 -61q-27 -29 -42 -44.5t-25.5 -23t-19 -9t-21.5 -1.5q-8 0 -12 1t-4 9q0 1 8.5 11t23 25t34 33.5t40.5 37.5q-8 17 -20.5 32t-27 29t-29.5 29t-28 32v12q26 13 44 13q19 0 124 -114q5 -5 5 -11z" />
    <glyph glyph-name="question" unicode="?" horiz-adv-x="412" 
d="M378 602q0 -55 -23 -99q-11 -20 -102 -126q-80 -95 -80 -122q0 -5 4 -20t11 -32l16 -42l-8 -8q-9 0 -15.5 5.5t-11.5 14.5t-9.5 20.5t-10.5 24.5q-13 18 -26.5 43t-13.5 48q0 4 2.5 13t6 19t8 19t8.5 13l91 101q60 70 60 114q0 18 -10 38t-26 36.5t-36 27t-39 10.5
q-35 0 -63 -16q-7 -4 -16.5 -11.5t-18.5 -15t-16 -13.5t-8 -6q-14 0 -14 17q0 15 21 29t51 25t62 17.5t54 6.5q81 0 116 -44q3 -4 9 -16.5t12 -26.5t10.5 -27t4.5 -17zM262 54q0 -11 -4.5 -21.5t-12.5 -19.5t-18 -14.5t-20 -5.5q-54 0 -54 61q0 51 58 51q20 0 35.5 -15.5
t15.5 -35.5z" />
    <glyph glyph-name="at" unicode="@" horiz-adv-x="627" 
d="M597 377q0 -34 -9.5 -65.5t-26.5 -55.5t-40 -38.5t-50 -14.5q-13 0 -24.5 5t-21 10.5t-15.5 10.5t-8 5q-70 -52 -97 -52h-27q-13 0 -26.5 6t-24.5 16.5t-18 23.5t-7 28q0 17 11 34q9 12 86 47q73 33 73 58q0 7 -5.5 16t-14 16t-17.5 12t-16 5l-65 -34q-8 0 -14 8v12
q11 13 21.5 21t23.5 12.5t29 6.5t39 2q10 0 18 -2q6 -2 16.5 -9t20.5 -16t17.5 -19t7.5 -17v-130q0 -38 29 -38q12 0 23 10t19 25.5t12.5 33.5t4.5 34q0 34 -15.5 72t-40.5 69t-55.5 51.5t-61.5 20.5q-51 0 -92 -18.5t-70.5 -51t-45.5 -76t-16 -94.5q0 -44 18.5 -85.5
t50 -74.5t72 -53t84.5 -20h36q10 0 18 -0.5t14 -0.5h5q-2 -5 -9.5 -10.5t-17 -9.5t-19.5 -6.5t-16 -2.5q-75 0 -134.5 17.5t-101 51.5t-63.5 83.5t-22 113.5q0 48 20 96t59 87t95.5 63.5t129.5 24.5q33 0 69.5 -6t68.5 -25q18 -11 38.5 -33t38 -48.5t28.5 -53.5t11 -48z
M372 298q0 15 -19 24q-80 -44 -80 -59q0 -13 14.5 -23t28.5 -10q56 0 56 68z" />
    <glyph glyph-name="A" unicode="A" horiz-adv-x="619" 
d="M612 18q-1 -13 -12 -13h-69h-16.5t-14.5 1l-36 3q16 31 16 33q0 4 -7.5 24.5t-16.5 44.5t-17 44t-9 23q-9 0 -27.5 -1t-38 -2.5t-37 -2.5t-26.5 -1q-14 0 -31 1t-32 2.5t-26 2.5t-15 1q-21 0 -43.5 -6t-30.5 -28l-11 -47q-18 -53 -20 -53q0 -7 28 -34q-14 -9 -26 -9h1
l-19 3q-10 2 -23.5 4.5t-31.5 4.5q12 6 19.5 15.5t15.5 29.5t18.5 54t27.5 88q11 28 15.5 39t8 20t8 23t15 47.5t30 94.5t52.5 164q6 20 17.5 55t24.5 83q28 9 69 9h12q22 -66 39 -124.5t30 -97.5q5 -6 8.5 -12.5t8 -19.5t11.5 -35.5t19 -61.5t30.5 -97.5t46.5 -143.5
q10 -41 36 -109q4 -8 29 -16zM429 203v11q-17 35 -40.5 112t-62.5 188q-1 3 -5.5 18.5t-11 33.5t-14.5 33.5t-15 19.5q-11 -21 -21 -50t-29 -74l-15 -55q-7 -19 -16.5 -47.5t-20.5 -66.5q-16 -54 -23.5 -83t-7.5 -31q0 -9 5 -14q10 0 32.5 0.5t47 1.5t47 1.5t33.5 0.5
q12 0 30 -1t36 -2.5t31.5 -2.5t15.5 -1z" />
    <glyph glyph-name="B" unicode="B" horiz-adv-x="484" 
d="M451 199q0 -44 -19 -81t-52 -64t-76 -42t-91 -15q-6 0 -20 3.5t-21 3.5q-6 0 -19.5 -1.5t-28.5 -3.5t-29 -3.5t-21 -1.5q-16 0 -54 11q7 5 14.5 13.5t15.5 21.5l4 59q0 3 1.5 11t1.5 11q0 20 -0.5 62.5t-0.5 89t-0.5 89t-0.5 62.5q0 9 0.5 27.5t0.5 38.5t0.5 38.5
t0.5 27.5t-1 27t-1 27v15q0 5 0.5 12t0.5 16q0 14 -3 29.5t-12 23.5l-18 16q10 7 34 7h15q5 -1 9.5 -1h6.5q8 0 25 0.5t35 1t34.5 1t24.5 0.5q36 0 73.5 -7t67.5 -26t49.5 -51t19.5 -82v-28q0 -20 -3.5 -36.5t-13 -33.5t-26.5 -37t-45 -48q21 -11 42.5 -33.5t39.5 -49
t29 -53.5t11 -47zM350 201q0 31 -10 59t-27 49.5t-40 34.5t-49 13h-20q-7 -1 -12 -1h-9q-8 0 -11 1h-11q-5 0 -14 -11v-32q0 -11 -1 -32t-1.5 -44.5t-1.5 -44.5t-1 -31q0 -6 3 -18.5t3 -18.5q0 -10 -1 -30t-1 -30q0 -30 21 -51q183 16 183 187zM329 529q0 35 -7.5 67
t-24.5 56t-44.5 38t-67.5 14q-43 0 -56 -10q18 -17 18 -49q0 -9 -2 -26.5t-2 -25.5v-3q1 -58 3 -111t4 -104q7 -4 17 -4q162 0 162 158z" />
    <glyph glyph-name="C" unicode="C" horiz-adv-x="571" 
d="M540 158q0 -8 -0.5 -27t-1.5 -49q-5 -1 -12.5 -1t-18.5 -1q-37 -28 -68 -44.5t-59 -25.5t-54.5 -11.5t-54.5 -2.5q-44 0 -77.5 16t-58.5 41t-42 55t-27 57.5t-14.5 48.5t-4.5 29q0 4 1 13t1 13t-4 13.5t-5 13.5q-2 14 -3 31t-1 36q0 120 33 197.5t100 119.5q9 7 23 16
t33.5 17.5t44.5 14t56 5.5q49 0 83 -19q7 -4 18 -13t23 -18.5t22.5 -16.5t15.5 -7q12 0 21 10q15 -8 15 -19v-107l-58 81q-18 24 -32 39.5t-30 24.5t-36 12t-50 3q-38 0 -70.5 -27.5t-57 -71.5t-38.5 -99.5t-14 -112.5q1 -5 1.5 -23.5t3.5 -51.5l6 -67q9 -17 21 -48
q24 -88 64 -131.5t91 -43.5q135 0 214 163q1 -7 1 -14.5v-17.5z" />
    <glyph glyph-name="D" unicode="D" horiz-adv-x="545" 
d="M517 357q0 -315 -240 -342l-35 -9q-11 -3 -18.5 -5t-12.5 -2h-41t-57.5 0.5t-58.5 3t-43 7.5q34 37 34 45v625q0 14 -31 48q18 8 22 8q12 0 35.5 1t49.5 1.5t49.5 1.5t35.5 1q40 0 75 -4.5t65.5 -17t57 -35t50.5 -58.5q2 -3 27 -64q5 -14 11.5 -28.5t12 -37t9 -55.5
t3.5 -84zM418 392q0 11 -23 108q-53 215 -230 215q-17 0 -42 -11l12 -14l6 -649q16 -18 42 -18h66q27 0 65 33q31 27 51 65.5t32 83.5t16.5 93t4.5 94z" />
    <glyph glyph-name="E" unicode="E" horiz-adv-x="478" 
d="M455 36q0 -36 -31 -36q-8 0 -23 3t-22 3t-21.5 -1.5t-30 -3.5t-29.5 -3.5t-20 -1.5q-34 0 -95.5 2t-155.5 6l21 29q6 10 6 39q0 6 -0.5 18t-1 25t-1 25t-0.5 18t1 16t2 21.5t2 21.5t1 16v448q0 2 -3.5 6.5t-9.5 13.5l-14 21l12 6q51 2 135 3.5t202 1.5q28 0 28 -76
l-4 -15q-3 3 -8 12t-11 19t-13.5 20t-16.5 16q-11 -1 -23.5 -1h-26.5h-82q-22 0 -39 0.5t-30 0.5h-12l-5 -4l15 -27l-5 -20v-239q0 -42 38 -42h106q18 0 30 1.5t20.5 7t14 15.5t10.5 27q9 -17 9 -53q0 -17 -9 -66q-9 19 -16.5 30t-21 15.5t-35.5 5.5t-61 1h-31
q-22 0 -36.5 -1.5t-14.5 -16.5q0 -5 2 -14.5t2 -14.5t-3.5 -14t-3.5 -13v-238q0 -22 34 -27t103 -5h100q29 0 62 40q10 -10 10 -21z" />
    <glyph glyph-name="F" unicode="F" horiz-adv-x="448" 
d="M407 707q0 -11 -2 -24.5t-6 -30.5q-22 61 -50 61q-7 0 -18.5 -0.5t-23 -1.5t-21.5 -1.5t-13 -0.5q-11 0 -17 2.5t-15 4.5q1 0 -99 -9l-6 -5q3 -4 5.5 -5t4.5 -7.5t3 -23.5t1 -53q0 -8 -0.5 -25t-1 -35.5t-1 -35.5t-0.5 -25q0 -18 3 -55l4 -55q19 -8 36 -8q9 0 27.5 3.5
t27.5 3.5t28 -2t29 -2q28 0 38 7l24 26q7 -8 9 -27q1 -20 2.5 -30t2.5 -14.5t2 -6.5t1 -5q0 -1 -2 -8t-2 -10q-3 5 -7.5 13.5t-13.5 17t-23 14.5t-36 6q-12 0 -31.5 -1.5t-45.5 -1.5h-28q-19 0 -28 -7t-11 -36v-45q0 -6 -0.5 -15t-0.5 -19t-0.5 -19.5t-0.5 -15.5t0.5 -16
t1 -20.5l1 -21t0.5 -16.5q0 -28 -4 -42.5t-4 -16.5q0 -33 34 -57q-13 -10 -51 -10q-25 0 -50.5 1.5t-51.5 5.5q11 12 20.5 24t9.5 28v571q0 16 -0.5 27t-2.5 21t-7.5 21t-15.5 26q27 4 45.5 6t28.5 2t30 -1t42.5 -2.5t42.5 -2.5t30 -1q4 0 13 3t13 3h7q8 0 20 0.5t26 0.5h53
q25 0 25 -26z" />
    <glyph glyph-name="G" unicode="G" horiz-adv-x="590" 
d="M565 295q0 -10 -13.5 -15.5t-19.5 -11.5q-4 -43 -6 -79.5t-2 -66.5q0 -6 2 -18t5 -25.5t5 -25.5t2 -18q0 -14 -18 -24q-10 1 -20 22l-14 29q-17 -12 -44 -25t-57 -23t-59 -16.5t-50 -6.5q-4 0 -59 12q-54 11 -90 41t-58 80.5t-31 120.5t-9 161q0 16 0.5 31t2.5 31.5
t7.5 37.5t14.5 51q6 19 20.5 43t32.5 46t37.5 38.5t34.5 21.5l31 9q51 20 67 20q86 0 110 -9q8 -3 19 -12t22 -18.5t21.5 -17t17.5 -7.5q-2 0 16 3q11 -11 11 -54q0 -46 -13 -68q-6 25 -25 53t-44 51.5t-52.5 39t-50.5 15.5q-41 0 -74.5 -26.5t-57.5 -72.5t-37 -107.5
t-13 -131.5q0 -35 1.5 -60t6.5 -49t13.5 -52t22.5 -68l11 -29q21 -21 35 -38.5t26 -29.5t25.5 -18.5t33.5 -6.5q26 0 49.5 14t41 36.5t27.5 50t10 55.5v48q0 15 -0.5 23t-2.5 13t-5 8.5t-9 9.5l-4 15q14 8 20 8h111q11 0 25 -8z" />
    <glyph glyph-name="H" unicode="H" horiz-adv-x="581" 
d="M558 6q-59 -3 -70 -3q-37 0 -76 11q16 16 16 38q0 7 -1 22.5t-1.5 32.5t-1.5 33t-1 24q0 6 1.5 20t3.5 29t3.5 28.5t1.5 19.5q0 19 -12 102q-19 10 -49 10q-9 0 -28 -3.5t-29 -3.5q-5 0 -16 3.5t-16 3.5q-25 0 -53.5 -2t-60.5 -6q-9 -7 -10 -23v-9q0 -5 0.5 -11t0.5 -14
q0 -6 -1 -17.5t-2 -25t-2 -25t-1 -17.5q0 -15 4 -40t4 -40q0 -6 -0.5 -15.5t-1.5 -20t-1.5 -20t-0.5 -15.5q0 -36 26 -62q-23 -12 -78 -12q-43 0 -71 12q5 8 12 16t15 16v195v44.5t1 29.5l2 22q0 7 -1.5 22.5t-1.5 22.5v215q0 23 0.5 39t0.5 27t-1 19t-4 15.5t-7.5 15.5
t-11.5 19q23 1 57 2.5t80 5.5l8 -9l-11.5 -11.5t-9.5 -15.5t-6.5 -27t-2.5 -46q0 -9 0.5 -28t1 -39t1 -39t0.5 -28v-9.5t-1 -13.5v-23q0 -37 8 -51q56 -10 122 -10q7 0 22 3t23 3q7 0 20.5 -3t20.5 -3q57 0 57 22v296q0 2 -2.5 5.5t-4.5 6.5l-6 8q16 12 30 12q15 0 42 -2
t67 -6l-20 -16q-14 -12 -14 -18v-613q0 -26 4 -37.5t9.5 -17t12 -9t11.5 -11.5z" />
    <glyph glyph-name="I" unicode="I" horiz-adv-x="201" 
d="M188 0q-7 -1 -14 -1.5t-15 -0.5q-15 0 -130 9l29 29v16q0 5 -0.5 16t-1 23t-1 23t-0.5 16q0 6 1 16.5t2.5 21t2.5 21t1 16.5v448q0 10 -2.5 22t-7 22.5t-10.5 18t-13 8.5q85 9 111 9q11 0 41 -8q0 -2 -4.5 -7t-10 -12t-10 -14.5t-4.5 -13.5v-594q0 -19 1 -28.5t5 -17
t11 -15.5t19 -23z" />
    <glyph glyph-name="J" unicode="J" horiz-adv-x="328" 
d="M295 719q-12 -9 -25 -31q-2 -7 -3 -43t-1 -96q0 -9 4 -26.5t4 -27.5l-1 -4q0 -4 -1.5 -22.5t-3 -42t-2.5 -47.5t-1 -39q0 -10 0.5 -25.5t0.5 -35.5v-60q0 -9 1 -27.5t2.5 -38.5t2.5 -39t1 -28q0 -13 -0.5 -23t-1.5 -17q-3 -19 -18.5 -42.5t-36.5 -44.5t-44 -37t-41 -20
l-27 -6q-20 -5 -26 -5q-143 0 -152 87q15 15 28 15q10 0 24 -20q12 -17 21.5 -27.5t19 -16.5t19.5 -8.5t23 -2.5q27 0 48 10.5t36 28.5t23 42.5t8 52.5q0 7 -1 21t-1.5 30t-1.5 30t-1 21q0 22 2.5 34.5t2.5 34.5v448q0 8 -6 16t-13 14.5t-13.5 12t-7.5 8.5q8 8 19 8
q6 0 18 -3.5t19 -3.5t22.5 2t22.5 2q11 0 25 -2t33 -6z" />
    <glyph glyph-name="K" unicode="K" horiz-adv-x="537" 
d="M494 9q-44 -15 -104 -15q-26 0 -34 4l-8 8q11 20 11 28q0 10 -20 39l-27 41q-3 9 -8 21.5t-12 28.5q-6 6 -11 13t-10.5 17.5t-12 27t-16.5 42.5q-4 6 -11 19.5t-16.5 29.5t-21 32t-24.5 27q-25 -10 -25 -70q0 -7 0.5 -20t1.5 -27.5t1.5 -27.5t0.5 -20v-120q0 -53 23 -85
q-11 -4 -37 -4q-9 0 -25 1t-33.5 2t-32.5 2.5t-21 2.5q31 22 31 42v631q0 12 -27 42q14 4 26.5 6.5t23.5 3.5q6 -2 102 -8q-8 -5 -13.5 -9.5t-9.5 -15.5t-6 -32.5t-2 -60.5q0 -5 0.5 -17t0.5 -25.5t0.5 -26t0.5 -18.5q0 -5 -0.5 -13.5t-1 -18t-1 -18t-0.5 -14.5
q0 -24 11 -35q61 28 130 121l102 153v13q-16 6 -16 18q32 7 52 7q5 0 17 -2t32 -6q-3 -3 -10 -8t-18 -10q-14 -7 -23 -16.5t-16.5 -23t-15.5 -31t-20 -41.5l-64 -82q-57 -72 -57 -73q0 -11 15 -37t37 -58l93 -169q55 -102 99 -165z" />
    <glyph glyph-name="L" unicode="L" horiz-adv-x="461" 
d="M421 57q0 -11 -18 -51q-8 -4 -31 -4h-36q-10 0 -17.5 0.5t-13.5 0.5h-10q-6 0 -13.5 -0.5t-16.5 -0.5h-37q-19 0 -32.5 1t-26.5 2.5t-26.5 2.5t-32.5 1q-7 0 -20 -7l-70 4q9 7 16 14t11.5 21t7 39t2.5 67v474q0 11 0.5 19.5t0.5 16.5q0 16 -5.5 28t-25.5 31v12q14 7 26 7
h97q9 0 29 -7v-12q-10 -6 -15.5 -10t-8.5 -10t-4 -16t-1 -28q0 -6 0.5 -19t1 -26.5t1 -26t0.5 -18.5q0 -17 -1 -25.5t-2.5 -13.5t-2.5 -8t-1 -9v-458q0 -26 58 -26h100q106 0 109 57l8 4v-26z" />
    <glyph glyph-name="M" unicode="M" horiz-adv-x="648" 
d="M624 13q-19 -10 -33 -10q-25 0 -53.5 3t-62.5 8l20 22q6 7 6 34q0 7 -1 17t-2 24l-3 40l-3 188q-1 55 -4.5 101.5t-8.5 85.5q-6 -5 -12 -13t-8 -20q-10 -51 -51 -166.5t-104 -289.5h-12q-11 21 -16 31.5t-9.5 22t-11 30t-20.5 56.5t-38 102t-64 166l-1.5 8t-4.5 20
t-9 25.5t-16 23.5q-4 0 -7 -33.5t-5.5 -83.5t-4.5 -108.5t-3.5 -109t-2 -85t-0.5 -36.5q0 -19 6 -29l19 -26q-5 -1 -10 -1.5t-12 -0.5q-10 0 -25.5 1.5t-36.5 3.5q17 21 21 73l3 83q0 11 1.5 31t2.5 31q0 6 -0.5 16.5t-0.5 21.5t-0.5 21.5t-0.5 16.5v14.5v4t0.5 6t1 20
t1 45.5t1.5 83v16q0 4 2 28t4.5 52t4.5 51.5t2 26.5q0 16 -1 25.5t-4 17.5t-9 16t-16 20q57 6 56 6q19 0 48 -7q11 -22 46 -118t95 -286l27 -86q2 -7 7 -13t12 -13q5 0 12.5 14t16 35.5t17 48t16.5 52t14.5 47t10.5 33.5l25 50l6 41q-1 3 5.5 16t14.5 36l11 33q4 5 8.5 14
t9.5 20q0 5 2 18.5t6.5 28t11.5 25.5t18 11q57 0 70 -4l4 3v-19q-17 -8 -22 -16t-5 -18t1 -38t3 -74q5 -144 6.5 -221.5t1.5 -93.5v-54q-2 -38 2 -74t8 -70l3 -26z" />
    <glyph glyph-name="N" unicode="N" horiz-adv-x="564" 
d="M554 729q-2 -2 -7 -5.5t-10.5 -8t-10.5 -9t-6 -8.5q0 -1 -1 -29.5t-2 -70t-2 -90t-1 -89.5q0 -18 0.5 -54t1 -76t1 -76t0.5 -54q0 -123 -9 -166q-37 51 -90 127t-125 179q-13 24 -32.5 57.5t-47.5 78.5l-56 82q-41 61 -60 74q-12 -15 -12 -39v-490q1 -6 3 -13t8 -15
l20 -26q-8 -8 -18 -8t-30 1.5t-51 5.5q6 9 11.5 12t10 14.5t7.5 37t3 78.5l-1 515q0 22 -31 65q19 2 39 3t42 1t33 -8t33.5 -39.5t52.5 -77t64.5 -99.5t68.5 -107.5t65.5 -102t55.5 -82.5q6 4 6 16q0 6 -2.5 17.5t-2.5 17.5q0 9 4 28t4 29v335q0 16 -10 33t-21 36q26 8 78 8
q13 0 27 -8z" />
    <glyph glyph-name="O" unicode="O" horiz-adv-x="589" 
d="M553 386q0 -6 -3 -20t-3 -21v-17q0 -48 -7 -92t-20 -89q-12 -41 -40 -70.5t-67 -49t-86.5 -29t-98.5 -9.5q-27 0 -55 16.5t-52 42t-41.5 56.5t-21.5 60l-18 113q-2 11 -3.5 24t-0.5 30v16q0 8 -0.5 15t-0.5 16q0 11 1 28.5t3 46.5v12t1.5 12.5t4 18t7.5 28.5l3 28
q5 21 16 42t25.5 40.5t32 35.5t35.5 27l26 11q25 11 50.5 20.5t61.5 8.5q74 0 100 -9q36 -12 64 -44t47.5 -77.5t29.5 -102.5t10 -118zM447 353q0 71 -9.5 135t-27 113t-41.5 77.5t-53 28.5q-65 0 -82 -16q-43 -39 -66.5 -114t-23.5 -178v-25q0 -11 -3 -29.5t-3 -27.5
q0 -52 11 -105t30.5 -95.5t45.5 -69.5t55 -27q40 0 71 24t52.5 67.5t32.5 105t11 136.5z" />
    <glyph glyph-name="P" unicode="P" horiz-adv-x="485" 
d="M447 495q0 -26 -11 -51.5t-28.5 -47.5t-39.5 -37.5t-44 -20.5q-2 0 -11 -3l-19.5 -6.5t-20 -6.5t-10.5 -3q-4 0 -11.5 1.5t-11.5 1.5q-7 0 -22 -5t-22 -5q-6 0 -17.5 2t-16.5 2q-13 0 -15.5 -17t-2.5 -55q0 -51 1 -100.5t4 -97.5q0 -9 7.5 -22t14.5 -24h-71q-47 0 -74 7
q7 6 12 13.5t8 24t4 47t1 82.5v39q0 10 -0.5 18t-0.5 15v132q0 5 0.5 13.5t1 18t1 18.5t0.5 15t-0.5 18.5t-1.5 27t-1.5 27t-0.5 18.5q0 24 1 41t2.5 29.5t2.5 23t1 21.5q0 25 -10 47t-27 26l5 5t7 5q12 -1 28.5 -1h38.5q13 0 40.5 0.5t57 0.5t56.5 0.5t40 0.5q55 0 100 -51
q21 -24 32.5 -48.5t16.5 -48t5.5 -46t0.5 -44.5zM349 528q0 38 -10.5 71t-30.5 57t-49 37.5t-65 13.5q-50 0 -66 -10q5 -3 8.5 -4t6 -5.5t4 -15.5t1.5 -34q0 -8 -0.5 -24t-0.5 -33t-0.5 -33t-0.5 -24q0 -46 1.5 -90t5.5 -87l7 -6q20 -4 36 -6t29 -2q15 0 31 10.5t36 32.5
q21 22 32.5 42t17 39t6.5 36.5t1 34.5z" />
    <glyph glyph-name="Q" unicode="Q" horiz-adv-x="584" 
d="M552 445q-3 -109 -10 -174.5t-18.5 -104.5t-28 -59.5t-37.5 -38.5l-42 -40v-9q54 -49 116 -82q-23 -15 -51 -15q-15 0 -32.5 6.5t-35.5 17.5t-35 26.5t-32 33.5q-1 0 -11.5 -2t-23.5 -4.5t-25 -4.5t-17 -2q-73 7 -118.5 28.5t-71 68.5t-35 124.5t-9.5 196.5q0 83 25 165
l19 30q46 91 152 114l18 7q9 2 27.5 6t37.5 4q29 0 59.5 -7t57.5 -22t48.5 -37.5t33.5 -53.5q3 -9 9.5 -34t13 -53t11.5 -53t5 -32zM447 290q0 6 -3.5 20t-3.5 21q0 8 1 24t1 25q0 74 -10.5 134.5t-30 103t-48 66t-64.5 23.5q-35 0 -63.5 -26.5t-48.5 -73t-31 -110.5
t-11 -139q0 -68 11 -129t31.5 -106.5t48.5 -72t61 -26.5q25 0 49 12.5t43.5 38t33 64t18.5 90.5q0 5 5 23t11 38z" />
    <glyph glyph-name="R" unicode="R" horiz-adv-x="527" 
d="M491 13q-1 -1 -7.5 -3t-10.5 -2q-60 0 -92 28.5t-32 71.5q0 8 0.5 17t0.5 20v42q0 35 -1.5 60t-3.5 41q-2 10 -12.5 22.5t-24.5 23.5t-28.5 18.5t-23.5 7.5h-15q-5 -1 -9 -1h-6q-8 0 -22 3.5t-21 3.5q-10 0 -24 -20v-295q0 -9 20 -38q-32 -4 -53 -6t-32 -2q-34 0 -54 4
q27 37 27 86v461q-2 10 -4.5 16.5t-2.5 19.5v8q0 4 0.5 14t0.5 21.5t0.5 21.5t0.5 15q0 22 -4 30l-14 25q34 12 151 12h52q33 0 56.5 -1.5t37.5 -3.5q4 -1 22 -13t37.5 -38t35 -67t15.5 -99q0 -75 -92 -144q0 -3 8.5 -11.5t19.5 -17.5l28 -24q1 -2 5.5 -14.5t10 -27.5
t9.5 -27.5t4 -15.5v-131q0 -59 47 -91zM356 509q0 43 -11 80.5t-31.5 65.5t-48.5 43.5t-62 15.5q-41 0 -61 -7q21 -9 21 -68q0 -6 -0.5 -16.5t-1.5 -21.5t-1.5 -21.5t-0.5 -16.5v-156q0 -28 39 -28h58q18 0 36 13.5t32 33t23 42.5t9 41z" />
    <glyph glyph-name="S" unicode="S" horiz-adv-x="421" 
d="M396 182q0 -39 -16 -74.5t-43.5 -61.5t-63 -41.5t-74.5 -15.5q-17 0 -43 8.5t-51.5 21.5t-43.5 28t-18 29v59l4 2t5 2q15 -33 29.5 -54.5t29.5 -33.5t33 -16.5t41 -4.5q109 0 109 133q0 58 -36 107.5t-102 104.5l-21 21q-51 36 -76.5 83.5t-25.5 101.5q-1 8 6 24.5
t19 41.5q22 45 69 70.5t106 25.5q40 0 64 -6t36 -18t15.5 -31t3.5 -45v-39q-5 -3 -10 -3q-2 49 -30 78.5t-76 29.5q-20 0 -39 -10.5t-33.5 -27.5t-23.5 -37.5t-9 -40.5q0 -6 4 -19t5 -19q1 -18 8 -35.5t21 -37t36.5 -42.5t55.5 -53q34 -30 56 -53t35.5 -42t20.5 -35.5
t10 -34.5q0 -6 6.5 -20t6.5 -20z" />
    <glyph glyph-name="T" unicode="T" horiz-adv-x="476" 
d="M455 714q0 -5 -0.5 -15t-1.5 -21.5t-1.5 -22t-0.5 -16.5l-8 -8l-12 4q1 0 1 33q0 48 -41 48l-51 -5h-13q-11 0 -23.5 -3.5t-12.5 -19.5v-636q0 -8 31 -48q-10 -2 -19 -3.5t-19 -1.5q-4 0 -14 1t-21.5 2.5t-21.5 2.5t-14 1q-5 0 -14 -3t-13 -3q-9 0 -17 8l18 21
q12 13 12 24q0 14 -0.5 43t-1 61.5t-1 62t-0.5 43.5q0 15 0.5 41.5t1.5 58.5t1.5 67.5t1.5 67.5t1.5 58.5t0.5 41.5q0 10 -1 27.5t-3 35t-5 31.5t-7 17q-5 -1 -11.5 -1h-13.5h-16t-20.5 0.5t-20.5 0.5h-16q-12 0 -20.5 -5.5t-14.5 -14.5t-10.5 -19.5t-9.5 -20.5v75q0 9 7 16
l17 -6q3 -1 25 -2t54.5 -2t71 -2t75.5 -1.5t68 -0.5h48q5 0 22 6l25 8q8 -19 8 -26z" />
    <glyph glyph-name="U" unicode="U" horiz-adv-x="515" 
d="M478 725q0 -2 -2.5 -7t-6 -11l-7 -12t-4.5 -9q-1 -7 -1.5 -20.5t-0.5 -33.5v-34q0 -9 0.5 -16.5t0.5 -12.5v-427q0 -151 -209 -151q-31 0 -60.5 7.5t-54 21t-43 32.5t-27.5 42q-10 26 -10 147q0 15 0.5 46.5t1 67t1 67t0.5 46.5v144q0 7 -0.5 15t-0.5 19v40q0 9 -22 37
q18 8 24 8q13 0 43 -2t78 -6q-26 -24 -26 -36v-552q0 -64 100 -103q23 -10 42 -10q16 0 35.5 7t37 19t31 27.5t17.5 32.5q2 10 3.5 25t2 47t0.5 87.5v148.5q0 54 -1.5 99t-1.5 85v17q0 7 0.5 15.5t0.5 19.5q0 15 -3.5 33t-16.5 35q26 8 78 8q1 -1 1 -3z" />
    <glyph glyph-name="V" unicode="V" horiz-adv-x="645" 
d="M609 726q-11 -11 -17.5 -19.5t-15.5 -33t-24 -76t-42 -147.5l-24 -84q-5 -8 -16.5 -42.5t-26.5 -84t-33 -110t-36 -120.5q-26 -8 -46 -8q-16 0 -48 8q-10 20 -17 44.5t-16 53.5q-10 33 -21 66t-28.5 85t-44 131.5t-66.5 204.5q0 1 -3.5 17.5t-9.5 37.5t-15.5 39.5
t-21.5 22.5l-21 11v15l2 1q8 0 22 -3t20 -3t16.5 1t22.5 2t23 2t17 1q8 0 22 -8q-8 -18 -9 -22.5t-1 -6.5q-1 -3 2 -7.5t8 -15.5l12 -29q14 -46 34.5 -105t43.5 -134l74 -241q4 -13 11.5 -27t17.5 -29q8 2 14.5 17.5t14 43t18.5 68t29 93.5l42 131q2 10 39 122q34 99 34 107
q0 15 -24 33q32 7 75 7q2 0 3.5 -1.5t9.5 -7.5z" />
    <glyph glyph-name="W" unicode="W" horiz-adv-x="905" 
d="M889 731q-11 -10 -23 -32t-23 -50.5t-20.5 -62t-16.5 -67.5l-25 -64q-9 -32 -23.5 -84t-32 -113t-38 -126t-41.5 -123q-1 -4 -56 -4q-38 0 -49 32l-21 64q-9 20 -14.5 40.5l-11 41t-12 40t-17.5 37.5q-6 -1 -10 -13l-15 -46q-6 -18 -14 -45t-19 -62l-8 -39q-3 -12 -6 -21
t-9 -15t-16 -10t-27 -5l-50 -3q-10 21 -20 48t-20 60l-33 111q-14 43 -28 87.5t-31 98t-39 120.5t-52 156q-6 17 -35 43q20 14 97 14q28 0 48 -9q-20 -23 -20 -27q1 -2 2.5 -8.5t6.5 -17.5l13 -28q2 -11 6 -28t10 -40l77 -207q4 -19 9.5 -41.5t14.5 -52.5t23 -69.5t35 -93.5
h1q2 0 2.5 -0.5t1.5 -0.5q2 0 4.5 3.5t7.5 16t13 37.5t22 69q33 103 33 113q0 3 -4.5 17.5t-11.5 34.5t-15.5 42.5t-15.5 42t-11.5 32.5t-4.5 15l-20 82q-7 26 -14.5 45t-15.5 33q-2 3 -6.5 6t-10 6.5t-10.5 8.5t-6 11q13 7 24 7q7 0 22 -3t22 -3h24q8 1 14.5 1h10.5
q23 0 32 -3q-17 -20 -17 -37q0 1 61 -169q7 0 9 6l13 40q39 106 39 133q0 16 -6 28q14 2 27 3.5t24 1.5q5 0 11 -0.5t12 -1.5l4 -12q-19 -7 -26 -19q-5 -8 -44 -136q-20 -64 -29.5 -97.5t-9.5 -35.5q0 -5 28 -70q19 -49 29.5 -84t18 -62.5t15 -51t20.5 -49.5q4 0 6 0.5
t4 4.5t5 13.5t8 26.5l27 90l36 108l34.5 103.5t30.5 92t24 73.5t15.5 48.5l5.5 17.5q0 -2 -21 36q27 7 44 7q24 0 48 -7z" />
    <glyph glyph-name="X" unicode="X" horiz-adv-x="455" 
d="M448 720q-12 -8 -18.5 -10.5t-16 -16t-27 -47.5t-51.5 -104q-61 -125 -61 -136q0 -6 15.5 -49t44.5 -125q29 -81 45.5 -127t24.5 -60q4 -8 10.5 -16t13.5 -14.5t12.5 -11.5t7.5 -8q-3 0 -6.5 0.5t-7.5 0.5q-5 0 -9.5 -0.5t-9.5 -0.5h-32q-63 0 -88 7q13 22 13 30
q0 -1 -6.5 15.5t-16 41.5t-21 55t-22 57t-18.5 46.5t-10 23.5h-2q-3 0 -13 -17.5t-22.5 -43.5t-26.5 -56t-26 -56.5t-19.5 -44.5t-7.5 -19q0 -4 11 -32q-3 -1 -18 -1q-11 0 -30.5 0.5t-34.5 1.5q7 1 12.5 7t15 25.5t26.5 57t47 101.5q67 143 67 151q0 16 -94 246
q-13 36 -27.5 73.5t-34.5 55.5q26 4 46 6t34 2q0 -2 65 -11q-17 -8 -17 -24q0 -3 5.5 -19t14.5 -39.5t19.5 -50.5t20.5 -51.5t17.5 -42.5t10.5 -23q6 9 10.5 15.5t11.5 19.5t19 36.5t32 65.5q37 77 37 89q0 8 -24 25q31 10 59 10q5 0 17.5 -2t32.5 -6z" />
    <glyph glyph-name="Y" unicode="Y" horiz-adv-x="454" 
d="M432 730l-13.5 -10.5t-8.5 -8t-10 -14.5t-16.5 -31.5t-28 -57.5t-45.5 -93q-13 -27 -21 -46t-12 -35t-5.5 -31t-1.5 -32q0 -81 1 -157.5t4 -142.5l5 -37q7 -7 19 -25q-4 -4 -18 -4q-9 0 -28 3t-28 3q-4 0 -11 -3t-12 -3h-51q2 8 12 17.5t12 17.5q2 13 3.5 48t3 78.5t2 88
t0.5 76.5t-5 52q-3 10 -11 31t-18 44.5t-18 44t-11 29.5q-15 49 -25.5 79.5t-19.5 50.5t-18.5 34.5t-22.5 32.5q28 9 77 9q-1 0 14 0t46 -1l8 -6q0 -3 -3 -8.5t-6.5 -11.5t-6.5 -11t-3 -7q0 -13 27 -92q6 -7 9.5 -15.5t9 -22t14 -33t23.5 -46.5q4 6 13.5 23t21.5 39.5t25 47
t23.5 46t17 37.5t6.5 20q0 13 -14 33q17 4 27.5 6t15.5 2q6 0 19 -2t33 -6z" />
    <glyph glyph-name="Z" unicode="Z" horiz-adv-x="478" 
d="M445 40q0 -39 -29 -39q-8 0 -22 5t-22 5q-4 0 -13.5 -4.5t-13.5 -5.5q-13 -2 -31.5 -3t-41.5 -1l-70 3q-57 2 -99 3t-68 1q-5 3 -5 10q0 1 29 70l34 79q15 39 40.5 99.5t59.5 142.5l49 118q8 10 16 26t20 56q2 7 7.5 18t11.5 23.5t10.5 26t4.5 26.5l-13 8
q-15 1 -42.5 1.5t-69.5 0.5q-24 0 -34.5 1t-16 2.5t-9.5 3t-14 1.5q-28 0 -45 -20l-24 -44q-7 13 -7 36q0 28 15 49q30 -5 47 -7.5t21 -2.5t12 2.5t12 2.5h19q21 0 49.5 0.5t63.5 0.5h133q8 -6 8 -17q-1 -8 -12.5 -41t-37.5 -91l-63 -142q-81 -193 -126.5 -296.5
t-45.5 -111.5q0 -14 21 -14q37 0 61 -0.5t45.5 -1t47.5 -1t67 -0.5q29 0 66 67q0 -7 2.5 -22t2.5 -23z" />
    <glyph glyph-name="bracketleft" unicode="[" horiz-adv-x="245" 
d="M185 -47q-24 -11 -67 -11q-2 0 -10 2t-17 4t-17 4.5t-10 3.5v30q0 10 0.5 30t0.5 42t0.5 42t0.5 31q0 7 -1 18t-2.5 22.5t-2.5 22.5t-1 18v596q7 10 45 10h14q51 0 60 -12h-7q-10 0 -19 0.5t-14 0.5q-9 0 -14.5 -2.5t-16.5 -11.5q-1 -24 -1 -56.5v-74.5v-65t0.5 -91
t1 -104t1 -104t0.5 -91v-64q0 -10 -0.5 -29.5t-0.5 -41t-0.5 -41t-0.5 -29.5q0 -21 7.5 -28t19.5 -8.5t25.5 -2.5t25.5 -10z" />
    <glyph glyph-name="backslash" unicode="\" horiz-adv-x="361" 
d="M287 11q-13 -7 -29 -7q-8 0 -17 11q-74 265 -198 687l4 32h31q7 -4 10.5 -9t6 -12t4.5 -16.5t5 -21.5q14 -50 29 -104.5t36 -127t49.5 -170.5t68.5 -236v-26z" />
    <glyph glyph-name="bracketright" unicode="]" horiz-adv-x="301" 
d="M252 -47q-8 -11 -44 -11h-14q-51 0 -60 12h30q15 1 23.5 3t13 9.5t5.5 21.5t1 39q0 17 -0.5 35t-0.5 37v64t-0.5 91t-1 104t-1 104t-0.5 91v65q0 9 0.5 28.5t0.5 41.5t0.5 41.5t0.5 28.5q0 21 -8 28t-19.5 9t-25 3t-25.5 9q24 11 67 11q2 0 10.5 -2t18 -4.5t17 -4.5
t8.5 -3v-30q0 -10 -0.5 -30t-0.5 -42t-0.5 -42t-0.5 -30q0 -6 1 -17t2 -23.5t2 -23.5t1 -17v-596z" />
    <glyph glyph-name="asciicircum" unicode="^" horiz-adv-x="456" 
d="M390 577q-22 -8 -35 -8q-42 -1 -81 27q-6 4 -18.5 16.5t-25 25.5t-24 23t-16.5 10q-4 0 -56 -49t-58 -49h-18q-3 3 -3 12q0 11 136 132q9 0 28 2.5t29 2.5q5 0 24 -17t42.5 -39.5t45 -44.5t30.5 -32v-12z" />
    <glyph glyph-name="underscore" unicode="_" horiz-adv-x="537" 
d="M467 -144q-26 -13 -68.5 -17t-105.5 -4q-10 0 -30 2t-32 2q-8 0 -24 -0.5t-33.5 -0.5t-34 -0.5t-24.5 -0.5h-14l-8 9q6 4 9 6.5t11 3.5t25 1.5t52 1.5l72 2q13 0 42 -0.5t60.5 -2t60 -2t42.5 -0.5z" />
    <glyph glyph-name="grave" unicode="`" horiz-adv-x="513" 
d="M357 646l-8 -8h-17q-4 0 -14 6t-14 7l-68 16q-49 15 -49 36q0 23 37 23q26 0 133 -65v-15z" />
    <glyph glyph-name="a" unicode="a" 
d="M474 62q-17 -56 -77 -56q-26 0 -43 17l-28 40q-70 -64 -152 -64q-23 0 -46.5 7.5t-42 24.5t-30.5 44.5t-12 68.5q0 107 106 141q38 17 71.5 25t58 18.5t39 29.5t14.5 58q0 13 -0.5 22t-1.5 14l-29 57q-22 37 -80 37q-20 0 -34 -14t-26 -30.5t-24.5 -30t-29.5 -13.5
q-11 0 -21 9t-10 20q0 18 17 35.5t43.5 31t58.5 22t62 8.5q47 0 79 -10t52 -31t28.5 -54.5t8.5 -80.5q0 -8 -0.5 -24t-1 -34t-1 -34t-0.5 -24q0 -13 1.5 -37t1.5 -37v-40q0 -11 -0.5 -18.5t-0.5 -13.5q0 -38 4.5 -54t12 -21.5t16.5 -5t17 -3.5zM328 223q0 26 -1.5 49
t-3.5 43q-15 -9 -27.5 -15t-27.5 -12t-35 -15t-51 -24q-48 -29 -48 -129q0 -12 9.5 -28t24 -29.5t30.5 -23t28 -9.5q102 0 102 193z" />
    <glyph glyph-name="b" unicode="b" horiz-adv-x="486" 
d="M443 314q0 -73 -13.5 -131.5t-40 -99.5t-64.5 -63t-86 -22q-2 0 -12.5 5.5t-25.5 13t-31.5 17t-31 17t-24.5 13t-11 5.5q-16 0 -53 -37q-2 23 -3 50t-1 59q0 9 0.5 27t0.5 37.5t0.5 37.5t0.5 27q0 2 -1.5 99.5t-2.5 305.5q-9 5 -15 10l-9.5 9.5t-4.5 7.5v2l117 27
q11 -11 11 -36q0 -11 -3 -32t-3 -32v-34q0 -53 6 -80q6 6 19 17.5t30.5 23t39 20t44.5 8.5q8 0 43 -11q22 -7 38 -15t28 -21.5t21.5 -34t20.5 -52.5l6 -55q10 -34 10 -83zM351 258q0 12 -5 33.5t-5 34.5q0 8 3 24t3 24q0 32 -8 60.5t-22 50t-34.5 34t-45.5 12.5
q-101 0 -101 -208v-9t1 -13v-22q0 -4 3.5 -11.5t3.5 -12.5v1q-2 -12 -3 -24q-2 -11 -2.5 -22.5t-0.5 -21.5q0 -78 28.5 -118.5t80.5 -40.5q24 0 43 18t32.5 48.5t21 72.5t7.5 90z" />
    <glyph glyph-name="c" unicode="c" horiz-adv-x="458" 
d="M418 495q0 -25 -22 -25q-14 0 -22 12t-18.5 27t-27.5 27t-48 12q-27 0 -48 -14.5t-36 -38.5t-25.5 -54t-16.5 -60.5t-8.5 -59t-2.5 -48.5q0 -9 4.5 -28t4.5 -28q1 -37 12.5 -70.5t31 -59t45.5 -40.5t56 -15q13 0 27.5 5.5t28.5 14.5t27 20.5t22 23.5q5 -1 9 -5
q-2 -17 -19.5 -34t-41.5 -31t-50 -23t-45 -9q-21 0 -47 5.5t-52 20t-49 39t-38 62.5l-13 57q-15 49 -15 85q0 6 9 59v34q0 4 0.5 8.5t1.5 9.5q58 201 228 201q25 0 50 -6t44.5 -16.5t31.5 -25t12 -32.5z" />
    <glyph glyph-name="d" unicode="d" horiz-adv-x="487" 
d="M463 39q-2 -7 -13.5 -13.5t-27 -11t-32 -7t-29.5 -2.5q-18 0 -33 35h-9q-3 0 -23 -14q-13 -9 -21.5 -14.5t-16 -8.5t-16 -4t-21.5 -1q-41 0 -74.5 25.5t-56.5 70t-35.5 105t-12.5 131.5q0 47 11 88l14 24q20 69 54.5 98.5t92.5 29.5h11q20 -2 34.5 -4t24.5 -8l47 -30
q7 17 8.5 50.5t1.5 65.5q0 9 -1 14t-4.5 10.5t-9.5 13.5t-16 23q96 26 104 27q1 -1 14 -4q5 -42 7.5 -103.5t2.5 -146.5q0 -15 -1 -46.5t-2 -66t-2 -65.5t-1 -46q0 -120 6 -169q0 -2 -0.5 -5.5t-0.5 -7.5q0 -10 4.5 -19.5t21.5 -13.5zM342 346q0 62 -6 89q-4 18 -15.5 35.5
t-27.5 32t-35 23.5t-38 9t-34 -13.5t-25 -37.5t-15.5 -57t-5.5 -72q0 -58 9.5 -114.5t26 -101t39.5 -72t51 -27.5q72 0 72 186q0 16 -0.5 30t-1.5 28l4 5v35t2 22z" />
    <glyph glyph-name="e" unicode="e" 
d="M453 339q-14 -11 -28 -11q-12 0 -37.5 0.5t-53.5 1t-53.5 1t-36.5 0.5q-35 0 -55.5 -1.5t-31.5 -5.5t-14 -10t-3 -15q0 -65 8 -105l21 -54v-16q7 -15 17 -31t23.5 -29.5t30 -22.5t34.5 -9q77 0 139 78h15q4 -3 4 -12q0 -3 -6.5 -11.5t-15 -18t-16 -17.5t-10.5 -11
q-15 -3 -28 -9.5l-26 -13t-27.5 -11.5t-31.5 -5q-32 0 -52 1.5t-30 3.5l-21 11q-17 6 -35.5 20.5t-42.5 35.5q-6 5 -15.5 30t-18 55t-15 58t-6.5 39q0 33 6 68.5t16.5 68.5t25.5 61.5t32 46.5q15 16 26.5 30t26.5 25t38 17.5t60 6.5q41 0 75.5 -19t59 -50.5t38.5 -73.5
t14 -87v-10zM384 376q-6 52 -14 84.5t-20.5 50.5t-31.5 24.5t-47 6.5q-67 0 -109 -109q-12 -32 -12 -48q0 -20 25 -20q5 0 14 2t14 2q7 0 22 -3.5t22 -3.5t19 3.5t18 3.5q9 0 26 -2t25 -2q38 0 49 11z" />
    <glyph glyph-name="f" unicode="f" horiz-adv-x="313" 
d="M311 679q0 -19 -22 -19q-7 0 -14.5 6t-15.5 13t-16.5 13t-17.5 6q-35 0 -52.5 -37.5t-17.5 -91.5q0 -33 26 -33q6 0 17.5 1t17.5 1h9l8 -12q-2 -5 -12.5 -7t-22.5 -3.5t-22.5 -3.5t-12.5 -7q-4 -108 -6 -196t-2 -160q0 -2 1.5 -20t3.5 -51v-16q0 -11 1.5 -23.5t9.5 -29.5
q-28 -5 -57 -5q-7 0 -18 0.5t-23 0.5t-21.5 0.5t-13.5 0.5q13 8 20 18l6 108q2 23 1.5 34.5t0.5 14.5q0 8 -3 23t-3 23q0 9 0.5 27.5t1 38.5t1 38.5t0.5 27.5v132q0 9 -4.5 14.5t-10 9.5t-10 7t-4.5 5q7 2 12 6q5 3 9 7.5t4 12.5v21q0 9 5 27q12 36 25.5 60t31 38.5t40.5 20
t55 5.5q42 0 68.5 -12.5t26.5 -33.5z" />
    <glyph glyph-name="g" unicode="g" horiz-adv-x="501" 
d="M498 523q0 -30 -50 -50q0 -3 2 -20.5t5 -37.5t5 -36.5t2 -17.5q0 -91 -38.5 -139.5t-123.5 -63.5q-3 -1 -14.5 -5t-17.5 -4t-18 1t-25.5 2.5t-26 2.5t-18.5 1q-16 0 -20 -16q3 -17 52 -35l58 -9q216 -38 216 -123q0 -84 -191 -122q-45 -9 -66 -9q-45 0 -84 8.5t-68.5 24
t-46.5 38t-17 50.5q0 19 3 32.5t15 26.5t35 28.5t63 38.5l-35 23q-24 16 -24 30t24 23l35 12q-88 72 -88 181q0 52 17 93.5t48 71t74 45.5t94 16q31 0 58 -9.5t49.5 -21.5t39.5 -21.5t28 -9.5q6 0 38 17h11v-16zM377 306q0 51 -10.5 95.5t-30 77.5t-47.5 51.5t-62 18.5
q-24 0 -43 -13t-33 -34t-21.5 -48.5t-7.5 -55.5q-1 -9 2 -21.5t8 -29.5q21 -78 51.5 -121.5t67.5 -43.5q48 0 63 4q13 3 25 14t20 27.5t13 37t5 41.5zM383 -35q0 21 -17.5 40.5t-45 34.5t-60 24t-62.5 9q-45 0 -74.5 -28.5t-29.5 -76.5v-15q0 -33 19 -49q4 -4 17 -9t28 -10
t29 -8.5t21 -3.5h40q22 0 45.5 7.5t43.5 20.5t33 29.5t13 34.5z" />
    <glyph glyph-name="h" unicode="h" horiz-adv-x="464" 
d="M442 5q-22 -8 -31 -8q-20 0 -44.5 3t-53.5 8q1 2 5 9t11 20q-1 2 -1 11q0 5 1 15.5t1 16.5q0 52 -2.5 105.5t-2.5 98.5q0 37 0.5 70t0.5 62q0 21 -8 41.5t-21.5 36.5t-31.5 26t-39 10q-83 0 -83 -153q3 -2 3 -41q0 -17 -0.5 -50t-1 -69.5t-1 -70t-0.5 -49.5
q0 -23 4 -41.5t16 -51.5q-10 -1 -21.5 -1h-25.5q-7 0 -16.5 0.5t-21.5 0.5h-43q16 28 16 64q0 8 -0.5 25t-0.5 35t-0.5 34.5t-0.5 24.5v32l6 66q0 11 -1 27t-2 36l-3 61q-1 18 -1 40v48q0 45 0.5 88.5t1.5 85.5q-3 7 -29 24q13 11 47.5 19.5t70.5 15.5q5 -14 6.5 -34
t1.5 -45q0 -19 -0.5 -36.5t-0.5 -31.5q0 -37 3 -53q10 10 26.5 19t34.5 16.5t36.5 12t33.5 4.5q10 0 45 -11q47 -16 66.5 -42t27.5 -60q1 -6 2.5 -22.5t2.5 -42t1.5 -57t0.5 -67.5q0 -11 -0.5 -32.5t-0.5 -45.5t-0.5 -46t-0.5 -32q0 -81 1 -84z" />
    <glyph glyph-name="i" unicode="i" horiz-adv-x="198" 
d="M165 691q0 -54 -58 -54q-51 0 -51 53q0 59 53 59q23 0 39.5 -18t16.5 -40zM168 13q-32 -12 -49 -12q-10 0 -29.5 2t-49.5 6q10 11 18 35q0 30 0.5 69t1 79.5t1.5 79t1.5 68.5t1 48t0.5 17q0 19 -1 39.5t-4 38.5t-7.5 32.5t-11.5 20.5q5 6 17.5 12.5t32.5 11.5l57 12
q7 -20 7.5 -53t6.5 -93v-22q0 -14 -0.5 -22t-1 -18t-1.5 -25.5t-1.5 -44t-1 -74.5t-0.5 -116q0 -3 1.5 -17t4 -29.5t4.5 -29t3 -15.5z" />
    <glyph glyph-name="j" unicode="j" horiz-adv-x="199" 
d="M167 693q-2 -56 -54 -56q-25 0 -40 16t-15 40t17.5 38t42.5 14q22 0 35.5 -15.5t13.5 -36.5zM164 98q0 -7 -6 -14l-2 -63q-1 -19 -4 -34.5t-7 -28.5q-6 -19 -25.5 -36.5t-41 -30.5t-40 -21t-22.5 -8h-22q9 5 20.5 13t22 20t18 29.5t7.5 41.5v478q0 6 -3.5 17t-3.5 17
q0 5 1.5 14.5t1.5 14.5q0 8 -5.5 14.5t-13.5 19.5q81 28 100 28q9 0 17 -9.5t8 -19.5v-442z" />
    <glyph glyph-name="k" unicode="k" horiz-adv-x="483" 
d="M464 7q-17 -2 -37 -3.5t-43 -1.5q-14 0 -25.5 0.5t-22.5 1.5l-6 32q-3 7 -18.5 38.5t-36 72t-42 82t-36.5 67.5q-41 -20 -41 -53q0 -7 0.5 -21.5t1 -30.5t1 -30.5t0.5 -21.5q0 -24 -1 -38.5t-2.5 -24t-2.5 -17t-1 -16.5l3 -9q2 -5 4 -11.5t5 -14.5q-34 -4 -66 -5.5
t-61 -1.5q1 2 3.5 7.5t7.5 13.5q11 17 11 18v628q0 5 -26 31q6 4 20.5 9t31.5 9t34 7t29 3q5 -22 7.5 -53.5t2.5 -73.5q0 -14 -1 -33.5t-2 -37.5q-1 -21 -2 -44l-1 -4q0 -29 3 -45.5t3 -24.5q0 -14 -0.5 -33t-1.5 -39l8 -12h8q41 42 77.5 81.5t63.5 70.5t43 51.5t16 23.5
t-1 9t-1 8q5 1 9.5 1h9.5q8 0 24 -1.5t41 -3.5q-8 -5 -28 -7q-13 -12 -30 -30t-40 -42l-33 -48q0 1 -8 -5.5t-18 -17t-18 -22.5t-8 -22q1 -2 5.5 -14.5t17.5 -35.5l29 -54l62 -136q18 -40 38.5 -71t40.5 -55z" />
    <glyph glyph-name="l" unicode="l" horiz-adv-x="198" 
d="M110 8q-20 0 -36.5 2.5t-30.5 4.5q18 19 18 49q0 8 -2.5 23.5t-2.5 23.5q0 9 1 28.5t2 41t2 41t1 28.5q0 14 -1 24t-2.5 23t-2.5 31.5t-1 48.5q0 14 0.5 35t0.5 50v84q0 7 0.5 20.5t0.5 29t0.5 29.5t0.5 21v32q-4 7 -32 24q3 14 17.5 14.5t40.5 4.5l7 2.5t15 5.5
t15.5 5.5t8.5 2.5h24l1 -668q0 -23 23 -61h-68z" />
    <glyph glyph-name="m" unicode="m" horiz-adv-x="662" 
d="M597 5q-17 -4 -34 -4q-5 0 -19 1.5t-39 5.5q5 6 9.5 11t7.5 16t5 31t2 57q0 7 -0.5 21.5t-1.5 30.5t-1.5 30.5t-0.5 21.5q0 14 0.5 34t0.5 46v79q0 158 -78 158q-64 0 -64 -162q0 -9 1 -28t1 -28v-137q0 -9 -0.5 -26t-1.5 -36t-1.5 -35.5t-0.5 -25.5q0 -12 21 -57
q-14 -8 -39 -8q-11 0 -33 1.5t-57 5.5l10 19q7 10 7 17v386q0 22 -6 43.5t-16 38t-23.5 26.5t-29.5 10q-73 0 -72 -198l1 -104v-43.5v-43.5t1 -50t3 -62l16 -35q-17 -11 -35 -11q-68 0 -93 11l12 26q7 15 7 26v441q0 13 -26 30q4 15 35.5 22t71.5 15q4 -2 17 -28q3 1 13.5 7
t27 13t36 12.5t40.5 5.5q14 0 28.5 -8t27.5 -17.5t22 -17.5t12 -8q4 0 16 12l14 14q44 29 93 29q139 0 139 -170q0 -11 -1 -33.5t-1.5 -46.5t-1.5 -46t-1 -32q0 -7 1 -22.5t2 -32.5t2 -32.5t1 -22.5q0 -6 -0.5 -15.5t-1.5 -20t-1.5 -19.5t-0.5 -15q0 -40 10 -66z" />
    <glyph glyph-name="n" unicode="n" horiz-adv-x="462" 
d="M441 9q-35 -5 -64.5 -7.5t-55.5 -2.5q-10 0 -26 9q5 5 12.5 11.5t17.5 16.5q0 3 0.5 20t1.5 39.5t1.5 45t0.5 35.5v232q0 25 -7.5 49.5t-19.5 43.5t-28 30.5t-33 11.5q-24 0 -38 -8q-8 -4 -18.5 -15.5t-19.5 -25.5t-15.5 -27t-6.5 -20v-310q0 -5 3 -15l6 -16
q-6 -12 -6 -30q0 -25 14 -65q-51 -12 -93 -12q-9 0 -36 8q20 51 20 72v357q0 13 -0.5 28.5t-3 29t-7 24.5t-13.5 16q2 3 16.5 9t32 12t33 10.5t20.5 4.5q6 0 10.5 -4.5t7.5 -10.5t6 -10.5t7 -4.5q20 11 47.5 24t64.5 13q52 0 82 -8.5t45 -33.5t19 -70.5t4 -119.5v-99v-61.5
t0.5 -48t1 -46t1.5 -55.5z" />
    <glyph glyph-name="o" unicode="o" horiz-adv-x="497" 
d="M466 306q0 -86 -13.5 -146t-43 -98t-76 -55t-112.5 -17q-50 0 -85 23t-56.5 68.5t-31 114t-9.5 160.5q0 31 16 92q4 17 11 29.5t17 24.5t23.5 24.5t31.5 29.5q3 3 16.5 9t34.5 12t47.5 10.5t55.5 4.5q4 0 15.5 -3t25 -7.5t25 -8.5t16.5 -7q22 -14 39 -40.5t29 -61
t18 -75.5t6 -83zM375 264q0 61 -10 114.5t-27.5 93.5t-41 63t-51.5 23q-35 0 -54 -14.5t-29 -39.5t-13.5 -60t-6.5 -75q-1 -6 -5 -22t-4 -24q0 -5 1.5 -15.5t3 -22.5t3 -22.5t1.5 -15.5v-24q0 -25 1.5 -37.5t4 -21.5t7 -18.5t10.5 -28.5q14 -48 39 -70.5t67 -22.5
q40 0 55.5 12.5t23.5 43.5l8 37q11 41 14 74.5t3 72.5z" />
    <glyph glyph-name="p" unicode="p" horiz-adv-x="475" 
d="M450 262q0 -50 -13 -96.5t-36.5 -82t-55.5 -57t-71 -21.5q-69 0 -112 64q-12 -5 -12 -18q0 -11 2.5 -24.5t2.5 -31.5q0 -34 -3.5 -55.5t-3.5 -22.5q0 -29 22 -60q-12 -9 -21 -9t-27.5 3.5t-27.5 3.5q-6 0 -18.5 -3.5t-18.5 -3.5q-4 0 -14 2.5t-14 2.5l15 18q11 14 11 17
v520q0 20 0.5 34.5t0.5 25.5q0 19 -5.5 34t-25.5 42q89 29 101 29h21q4 -10 6 -19.5t4 -18.5q12 10 39 25.5t71 15.5q6 0 18 -1.5t24 -4t22 -5t13 -4.5q24 -23 43.5 -57t33.5 -74t21.5 -83t7.5 -85zM351 207q0 61 -10 120t-27.5 105t-40.5 74.5t-49 28.5t-40.5 -19
t-28.5 -53v-19q0 -14 -0.5 -32t-1.5 -41q0 -3 -2.5 -9t-2.5 -10q0 -6 1 -16.5t1.5 -22t1.5 -22t1 -16.5v-33q1 -5 1 -9.5v-6.5q0 -6 -1.5 -17t-1.5 -17q0 -27 9 -54t25 -48t37.5 -34t47.5 -13q19 0 34.5 14.5t25.5 38t15.5 52.5t5.5 59z" />
    <glyph glyph-name="q" unicode="q" horiz-adv-x="474" 
d="M451 -147q-26 -9 -103 -9q-6 0 -33 8q4 5 8 9t7 11.5t5 20t2 35.5q0 6 -0.5 14t-0.5 19v40q0 41 -6 61l-34 -33q-31 -31 -83 -31q-24 0 -45.5 3t-40.5 13t-36.5 29t-33.5 51l-2 12t-5 29.5t-6.5 38.5l-6.5 39t-5 30.5t-2 14.5q0 72 13.5 130t39 99t63 63t84.5 22
q19 0 42 -8.5t44 -18t38 -18t25 -8.5q14 0 24.5 8.5t20.5 17.5q10 -13 10 -40q0 -8 -1.5 -23.5t-1.5 -23.5q0 -6 1 -18.5t2 -25.5t2 -25t1 -18q0 -75 -3 -154t-3 -151v-65t2 -58q0 -9 -1 -17.5t-1 -19.5q0 -14 3.5 -28t16.5 -25zM339 385q0 160 -119 160q-69 0 -85 -145
l-4 -50q-6 -30 -6 -28q0 -6 3.5 -17t3.5 -17q0 -66 5 -112.5t16 -74.5q4 -10 13 -20.5t20.5 -19t24 -14t23.5 -5.5q103 0 103 197v36q0 10 -0.5 18t-0.5 14v5q0 4 0.5 14.5t1 22t1 22t0.5 14.5z" />
    <glyph glyph-name="r" unicode="r" horiz-adv-x="379" 
d="M357 530q0 -15 -9.5 -26t-24.5 -11q-4 0 -14.5 3.5t-22 7t-21.5 7t-13 3.5q-26 0 -46.5 -16.5t-34.5 -42t-21.5 -55.5t-7.5 -58q0 -18 0.5 -38.5t0.5 -43.5q0 -32 -0.5 -60.5t-0.5 -53.5q0 -45 4 -77.5t18 -51.5q-4 -16 -38 -16q-63 0 -88 12q14 23 14 28v474
q-14 15 -24 21q1 5 12.5 12t34.5 12l60 12q5 -4 6 -13.5t1 -21.5t2 -24.5t8 -21.5q2 2 12.5 17t28 32.5t41 31.5t51.5 14q10 0 23 -5t23.5 -13t18 -18t7.5 -20z" />
    <glyph glyph-name="s" unicode="s" horiz-adv-x="404" 
d="M378 158q0 -34 -17.5 -64.5t-47 -53t-67 -36t-76.5 -13.5q-6 0 -24.5 6t-38.5 14.5t-36 17.5t-18 14q-6 14 -8.5 31.5t-2.5 37.5q0 10 5 18q3 -2 6.5 -12.5t9.5 -23t14.5 -24.5t20.5 -17q4 -2 15.5 -5.5t24.5 -7t25 -6t16 -2.5q19 0 37.5 9t32 23.5t22 33t8.5 38.5
q0 19 -5.5 34.5t-20.5 30.5t-40.5 30.5t-65.5 33.5q-57 23 -83 67.5t-26 95.5q0 28 13 55t33.5 48t47 35t53.5 17q6 1 19 5.5t19 4.5q41 0 64 -7.5t34 -18.5t13.5 -24t2.5 -23q0 -4 -1.5 -11.5t-3 -16t-2.5 -16t-1 -12.5q-5 42 -34.5 65t-74.5 23q-10 0 -24 -5t-27 -16.5
t-22.5 -30t-9.5 -45.5q0 -21 2.5 -35.5t11 -26.5t24.5 -24t43 -27l67 -38q12 -7 28 -16.5t30.5 -26t24.5 -41.5t10 -62z" />
    <glyph glyph-name="t" unicode="t" horiz-adv-x="292" 
d="M291 34q-2 -2 -13 -7t-24.5 -10.5t-25.5 -10t-15 -4.5h-34q-11 0 -44 15q-28 12 -44 27t-24.5 33t-10.5 38.5t-2 43.5v120q0 21 0.5 37.5t0.5 29.5l-2 49q-1 20 -1.5 39t-0.5 29v5q0 10 -2 23t-5 30q-8 5 -25.5 5.5t-26.5 7.5q5 5 17 13t31 18q26 13 42.5 31t27.5 37
t18.5 36.5t15.5 29.5q5 -17 9 -127q1 -1 7 -3.5t13 -5.5t13 -5t8 -2h5.5t8.5 1h14q15 0 18 -1l4 -23q-8 -8 -15 -8q-5 0 -12.5 2t-11.5 2h-16q-40 0 -40 -45q0 -14 0.5 -43t1 -61t1 -61.5t0.5 -43.5q0 -31 -3 -34q6 -23 6 -51q0 -10 -1 -30t-1 -30v-21q1 -8 9 -21.5
t19.5 -26.5t24 -22t21.5 -9q1 0 8 3t15 7t15 7t8 3h18v-16z" />
    <glyph glyph-name="u" unicode="u" horiz-adv-x="473" 
d="M402 13q-42 -11 -46 -11q-12 0 -19.5 6.5t-12 14.5t-6 15t-2.5 9q-25 -19 -49.5 -35.5t-58.5 -16.5q-84 0 -122.5 44.5t-38.5 150.5q0 7 0.5 22.5t1 32.5t1 32t0.5 23v196q0 14 -31 41q4 4 17.5 9.5t29 11t30 9t21.5 3.5h21q3 -27 6 -118l3 -209q0 -7 -0.5 -17.5l-1 -21
t-1 -20t-0.5 -13.5q0 -138 100 -138q13 0 27.5 9t26.5 22.5t19.5 29t7.5 29.5v357v17.5t-2.5 12t-8 11.5t-16.5 16q47 29 125 29v-42.5t-0.5 -60t-0.5 -72.5v-79q0 -75 1 -144.5t5 -115.5q8 -4 26 -25z" />
    <glyph glyph-name="v" unicode="v" horiz-adv-x="435" 
d="M425 561q-11 -5 -23 -14l-20 -52q-14 -35 -24.5 -67t-19.5 -60q-3 -16 -6 -28.5t-7.5 -28t-11 -36t-16 -51t-22.5 -75t-31 -107.5q-3 -15 -20 -32q-11 6 -17 17.5t-11.5 31t-14 48.5t-24.5 69q-14 35 -26.5 70t-26 77t-29.5 93.5t-38 120.5q-6 17 -22 30q7 1 13 1h12
q7 0 22 -0.5t31.5 -0.5t31.5 -0.5t22 -0.5q-7 -17 -7 -30q0 -9 43 -144l26 -105q9 -36 18.5 -59.5t17.5 -34.5q8 2 29 64q43 131 65 200.5t22 83.5q0 11 -13 24q4 7 17 7q9 0 12 -1h11q10 0 18 6l19 -4v-12z" />
    <glyph glyph-name="w" unicode="w" horiz-adv-x="637" 
d="M626 570q-11 -9 -26 -32q-13 -57 -55.5 -188.5t-112.5 -342.5h-13q-21 75 -45.5 142t-52.5 129q-9 -4 -17 -22l-76 -249h-12q-12 25 -26.5 63t-29.5 82t-30 89t-27.5 83.5t-21 65.5t-11.5 35l-22 89l-33 56h15q8 0 19 -0.5t26 -0.5q40 0 57 9l22 -5q-6 -16 -10 -23l-3 -8
q0 -9 3.5 -21.5t8.5 -29.5q9 -28 16 -51t14.5 -48t16 -56t21.5 -76q3 -17 7.5 -35.5t16.5 -31.5q6 1 10 10q0 1 4 12.5t9 28.5t10.5 36.5t10.5 36.5t8 28.5l3 11.5q0 2 -5 18t-12 38.5t-16 48.5t-16.5 48.5t-13.5 38.5t-8 19q13 1 30 1.5t40 0.5h62q-3 -9 -5.5 -15t-4.5 -11
l-3 -9q0 -8 7.5 -30.5l21.5 -64.5q6 -17 15.5 -53t20 -75t20.5 -74.5t16 -51.5q2 2 9 13t13 32l14 53q14 42 28 83.5t25.5 77t19 62t7.5 37.5q0 12 -3 26q6 8 15 8t25 -4t24 -4z" />
    <glyph glyph-name="x" unicode="x" horiz-adv-x="424" 
d="M423 3q-34 0 -66 -1t-63 -3q-39 140 -94 210q-13 -15 -26.5 -32t-25.5 -39l-42 -78q-3 -4 -6.5 -7.5t-6.5 -9.5t-5 -15.5t-2 -25.5q-20 -7 -35 -7q-2 0 -39 8q19 18 32.5 33.5t23.5 28.5q3 6 13.5 24.5t26 44.5t34 58.5t36.5 66.5q-1 6 -8.5 25t-24.5 51l-44 82l-33 78
q-21 50 -46 69q8 8 28 8q4 0 12 -1t13 -1q6 0 17 3t17 3q8 0 21.5 -1.5t30.5 -5.5q0 -3 -3 -11t-3 -13q0 -2 5 -14.5t13.5 -31t18 -40t19 -41t17 -34t10.5 -18.5q22 16 67 94l31 44q10 14 13.5 27t4.5 24q0 4 -0.5 7t-1.5 7h57q-7 -8 -16 -21.5t-21 -32.5q-7 -10 -17.5 -28
t-23 -40t-25 -45t-23 -41.5t-17 -30.5l-6.5 -12q0 -8 61 -134q27 -56 41 -85.5t23 -46t16.5 -25.5t21.5 -24z" />
    <glyph glyph-name="y" unicode="y" horiz-adv-x="441" 
d="M427 559q-18 -11 -23 -23q-5 -4 -17.5 -42t-31.5 -100.5t-43.5 -143.5t-52.5 -170l-30 -95q-9 -29 -19 -51.5t-19 -40.5q-4 -7 -17.5 -17.5t-32.5 -20t-41 -16.5t-42 -7q-55 0 -55 28q0 22 34 22q7 0 20 -1.5t20 -1.5q26 0 49 14.5t40 37.5t27 53t10 60q-1 9 -10 42
t-29 93l-73 224q-18 54 -33.5 93t-27.5 65q19 8 26 8q9 0 27 -2t27 -2q4 0 12 1t12 1q15 0 25 -7q-13 -10 -13 -22q0 -4 18 -56q28 -83 45 -154.5t41 -126.5q7 1 9 5l17 49q9 26 18 55t19 61l5 12.5t11.5 31t14 40.5t14 41t11 31.5t4.5 13.5q0 9 -6 20q3 1 15 1q6 0 45 -3z
" />
    <glyph glyph-name="z" unicode="z" horiz-adv-x="428" 
d="M392 557q0 -3 -57 -112q-45 -86 -75.5 -146.5t-52 -106.5t-37.5 -81.5t-32 -72.5q30 -13 140 -13q22 0 36.5 2t25 8.5t18.5 18.5t18 32q5 -8 5 -23q0 -22 -9 -58q-13 0 -39 0.5t-54.5 1t-54.5 1t-39 0.5q-7 0 -20 -3.5t-20 -3.5q-54 0 -83 2t-29 16q0 7 39 87
q215 436 215 437q0 14 -20 16.5t-73 2.5q-6 0 -18 -1t-26 -1.5t-28.5 -1.5t-24.5 -1q-3 0 -6 0.5t-5 0.5q-7 -9 -17.5 -21.5t-24.5 -28.5q0 5 -2 16.5t-2 17.5q0 21 11 48h9q8 0 15 -10q7 0 17.5 -0.5t20.5 -1.5t17.5 -1.5t8.5 -0.5q9 0 21 0.5t26 0.5h57h72t77 -1v-19z" />
    <glyph glyph-name="braceleft" unicode="{" horiz-adv-x="334" 
d="M323 789q-2 -4 -12 -12t-21.5 -17t-22 -18t-14.5 -16l-12 -36q-5 -15 -7 -28.5t-2 -25.5q0 -52 7 -91t7 -62v-6q-1 -2 -1 -6q0 -10 3 -10h1l-4 -5q1 -3 1 -14q0 -61 -40 -123q-3 -5 -13.5 -14t-22.5 -18.5t-21 -17.5t-9 -10v-10l48 -44q22 -21 34.5 -43.5t18 -43.5
t7 -37.5t1.5 -25.5q0 -2 -3 -11t-3 -13l-4 -59q-3 -40 -4 -67.5t-1 -43.5q0 -26 4 -42t13.5 -28.5t25.5 -26t39 -33.5v-3q0 -6 6 -15l-42 -3q-2 0 -13 10.5t-17 14.5q-20 12 -34.5 26t-23.5 39t-13.5 66t-4.5 107q0 12 0.5 36.5t1.5 51.5t1.5 51.5t0.5 36.5q0 33 -24 59.5
t-58 35.5v19q4 4 38 21q29 15 37.5 44t8.5 78q0 12 -1 36.5t-2 51.5t-2 51t-1 36q0 113 42 163q2 2 13.5 10.5t25 18t25.5 17t15 7.5h20z" />
    <glyph glyph-name="bar" unicode="|" horiz-adv-x="200" 
d="M107 -98h-36v895h36v-895z" />
    <glyph glyph-name="braceright" unicode="}" horiz-adv-x="371" 
d="M329 248q0 -4 -6 -8.5t-16 -10.5t-21.5 -12.5t-22.5 -14.5q-24 -18 -24 -104q0 -12 1.5 -37t3 -53t3 -53.5t1.5 -37.5q0 -102 -43 -157q-3 -5 -12.5 -11t-21 -13t-21 -14.5t-12.5 -15.5h-43v13q29 18 47.5 34t29 33.5t14.5 37.5t4 46q0 31 -2.5 59.5t-6 50.5t-6 36
t-2.5 16v5q0 39 5 66.5t17 51t33 47t53 53.5q-13 16 -33 32q-16 12 -25.5 19.5t-14.5 13.5t-7.5 12.5t-4.5 16.5l-8 34q0 1 -3 8.5t-6.5 16.5t-6.5 16.5t-3 8.5v4q0 7 4 27l12 93q2 17 3.5 27t1.5 12v14q0 33 -4.5 57.5t-15 44t-27.5 35.5t-41 30v13h28q7 0 20.5 -8.5
t27 -19.5t24.5 -23t14 -19q9 -20 21 -56t12 -79q0 -7 -1 -22t-2 -31t-2 -31t-1 -22v-39q0 -11 -0.5 -18.5t-0.5 -13.5q0 -67 19.5 -102t67.5 -47v-11z" />
    <glyph glyph-name="exclamdown" unicode="&#xa1;" horiz-adv-x="268" 
d="M210 -117q0 -26 -22 -40.5t-47 -14.5q-78 0 -78 52q0 4 2 11.5t4.5 15t4.5 14.5t2 10q7 56 12 101.5t8.5 84t6 71.5t4.5 63l2 85q3 51 17 82h15q6 -10 9 -15.5t4.5 -14t2 -22t1.5 -38.5q1 -41 5.5 -93.5t10 -104.5t10 -97.5t6.5 -71.5l3 -12t7 -26.5t7 -26.5t3 -13z
M186 546q0 -24 -16.5 -38.5t-40.5 -14.5q-23 0 -39 18t-16 42q0 20 17 36t38 16q26 0 41.5 -16t15.5 -43z" />
    <glyph glyph-name="cent" unicode="&#xa2;" horiz-adv-x="458" 
d="M417 323q-49 -60 -137 -71v-77h-31v75q-43 0 -79.5 14t-63.5 39.5t-42 61t-15 79.5t15 81t42 65t63.5 45.5t79.5 22.5v78h31v-76q21 0 44.5 -4.5t43.5 -12.5t33.5 -18t13.5 -22q0 -17 -25 -17q-14 0 -23 13l-17 21q-25 22 -63 22l-7 -1v-368h10q62 0 109 56zM249 636
q-48 -16 -74 -66.5t-26 -114.5q0 -66 27.5 -114t72.5 -63v358z" />
    <glyph glyph-name="dieresis" unicode="&#xa8;" horiz-adv-x="471" 
d="M416 695q0 -22 -14.5 -36.5t-36.5 -14.5q-49 0 -49 51q0 21 13.5 36.5t35.5 15.5t36.5 -15.5t14.5 -36.5zM277 695q0 -47 -51 -47t-51 47q0 21 14.5 35.5t36.5 14.5q23 0 37 -14.5t14 -35.5z" />
    <glyph glyph-name="copyright" unicode="&#xa9;" horiz-adv-x="629" 
d="M629 307q0 -63 -24 -119t-66 -98.5t-98.5 -67t-120.5 -24.5t-120 24.5t-98 66.5t-66.5 98t-24.5 120t24.5 120.5t67 98.5t98.5 66t119 24q64 0 120 -24.5t98 -66.5t66.5 -98t24.5 -120zM600 307q0 57 -22 108.5t-60.5 89.5t-89.5 60.5t-108 22.5t-108 -22.5t-89 -60.5
t-60 -89t-22 -109t22 -108.5t60 -88.5t88.5 -60t108.5 -22q57 0 108 22t89.5 60t60.5 89t22 108zM471 466q0 -20 -21 -20q-11 0 -23 9t-25.5 20t-28 20t-30.5 9q-39 0 -64.5 -24t-39.5 -57t-19.5 -68t-5.5 -57q0 -7 4 -20.5t5 -20.5q2 -29 13 -54t29 -44t42 -30t52 -11
q23 0 51.5 15t45.5 33l9 -3q-2 -12 -18 -25t-38 -23.5t-46.5 -17.5t-43.5 -7q-21 0 -45.5 4.5t-48 15.5t-44.5 29t-35 45l-11 44q-15 37 -15 63q0 -1 8 45v25q0 5 2 13q55 151 213 151q24 0 47 -4.5t41 -12.5t29 -19t11 -23z" />
    <glyph glyph-name="guillemotleft" unicode="&#xab;" horiz-adv-x="422" 
d="M218 254q-1 -4 -6.5 -8.5t-13 -8.5t-15.5 -6.5t-13 -2.5q-5 -1 -19 12t-41 37q-22 19 -35 32t-20.5 21.5t-10 13.5t-2.5 10q0 8 20.5 31t47 48t50.5 44t32 19q-1 0 4 -1l15 -3v-11q-102 -104 -102 -110q0 -7 12 -20.5t37 -37.5zM357 254q-1 -4 -6.5 -8.5t-13 -8.5
t-15.5 -6.5t-13 -2.5q-5 -1 -19 12t-41 37q-22 19 -35 32t-20.5 21.5t-10 13.5t-2.5 10q0 8 20.5 31t47 48t50.5 44t32 19q-1 0 4 -1l15 -3v-11q-102 -104 -102 -110q0 -7 12 -20.5t37 -37.5z" />
    <glyph glyph-name="registered" unicode="&#xae;" horiz-adv-x="391" 
d="M359 577q0 -34 -13 -63.5t-35.5 -52t-52 -35.5t-63.5 -13q-33 0 -62.5 13t-51.5 35.5t-35 52t-13 63.5q0 33 13 63t35.5 52t51.5 35t62 13t63 -13t52.5 -35t35.5 -52t13 -63zM343 577q0 30 -11.5 56.5t-32 46.5t-47.5 32t-57 12t-56.5 -12t-47 -32t-32 -46.5t-11.5 -56.5
q0 -31 11.5 -58t31.5 -47t47 -31.5t57 -11.5q31 0 58 11.5t47 31.5t31.5 47t11.5 58zM286 480q-38 0 -48 27l-10 53q-6 27 -27 27h-34v-90q0 -12 13 -12v-5q-8 0 -14.5 0.5t-14.5 0.5t-15 -0.5t-15 -0.5v5q14 0 14 12v172q0 13 -13 13v5h93q53 0 53 -46q0 -36 -41 -50
q22 -4 28.5 -20t8.5 -34t4.5 -33.5t17.5 -18.5v-5zM235 633q0 46 -51 46h-17v-83h38q30 0 30 37z" />
    <glyph glyph-name="acute" unicode="&#xb4;" horiz-adv-x="248" 
d="M426 708q0 -21 -49 -36l-68 -16q-4 -1 -14.5 -7t-13.5 -6h-17l-7 8v15q107 65 131 65q38 0 38 -23z" />
    <glyph glyph-name="cedilla" unicode="&#xb8;" horiz-adv-x="505" 
d="M458 -66q0 -20 -12 -37.5t-31.5 -31t-44.5 -21t-52 -7.5v15q34 0 57.5 18t23.5 50q0 21 -11.5 36t-32.5 15l14 40l36 4l-16 -29q8 2 9 2q9 0 19.5 -5.5t19.5 -13.5t15 -17.5t6 -17.5z" />
    <glyph glyph-name="guillemotright" unicode="&#xbb;" horiz-adv-x="477" 
d="M264 371q0 -8 -50 -61q-27 -29 -42 -44.5t-25.5 -23t-19 -9t-21.5 -1.5q-8 0 -12 1t-4 9q0 1 8.5 11t23 25t34 33.5t40.5 37.5q-8 17 -20.5 32t-27 29t-29.5 29t-28 32v12q26 13 44 13q19 0 124 -114q5 -5 5 -11zM423 371q0 -8 -50 -61q-27 -29 -42 -44.5t-25.5 -23
t-19 -9t-21.5 -1.5q-8 0 -12 1t-4 9q0 1 8.5 11t23 25t34 33.5t40.5 37.5q-8 17 -20.5 32t-27 29t-29.5 29t-28 32v12q26 13 44 13q19 0 124 -114q5 -5 5 -11z" />
    <glyph glyph-name="questiondown" unicode="&#xbf;" horiz-adv-x="412" 
d="M29 -52q-1 58 22 100q10 18 103 126q40 47 59.5 78t19.5 45q0 -1 -4 11.5t-8.5 28.5t-8.5 31t-4 21q0 7 2 9q8 -1 16 -5.5t14 -18.5l18 -41q12 -16 25.5 -41.5t13.5 -48.5q0 -5 -2.5 -14t-6.5 -19.5t-8 -19.5t-7 -12q-28 -30 -55 -60t-48.5 -57.5t-35 -52.5t-13.5 -44
q0 -18 10 -38t26 -36.5t35.5 -27.5t38.5 -11q35 0 63 16q7 4 17 12t19.5 15.5t16 13t8.5 5.5q14 0 14 -17q0 -14 -21 -28t-50.5 -25t-62 -18t-55.5 -7q-83 0 -116 44q-3 4 -9 16t-11.5 26t-10 26.5t-4.5 17.5zM145 497q0 11 4.5 22t12 20t17 14.5t20.5 5.5q55 0 55 -62
q0 -50 -59 -50q-20 0 -35 15.5t-15 34.5z" />
    <glyph glyph-name="Agrave" unicode="&#xc0;" horiz-adv-x="619" 
d="M612 18q-1 -13 -12 -13h-69h-16.5t-14.5 1l-36 3q16 31 16 33q0 4 -7.5 24.5t-16.5 44.5t-17 44t-9 23q-9 0 -27.5 -1t-38 -2.5t-37 -2.5t-26.5 -1q-14 0 -31 1t-32 2.5t-26 2.5t-15 1q-21 0 -43.5 -6t-30.5 -28l-11 -47q-18 -53 -20 -53q0 -7 28 -34q-14 -9 -26 -9h1
l-19 3q-10 2 -23.5 4.5t-31.5 4.5q12 6 19.5 15.5t15.5 29.5t18.5 54t27.5 88q11 28 15.5 39t8 20t8 23t15 47.5t30 94.5t52.5 164q6 20 17.5 55t24.5 83q28 9 69 9h12q22 -66 39 -124.5t30 -97.5q5 -6 8.5 -12.5t8 -19.5t11.5 -35.5t19 -61.5t30.5 -97.5t46.5 -143.5
q10 -41 36 -109q4 -8 29 -16zM429 203v11q-17 35 -40.5 112t-62.5 188q-1 3 -5.5 18.5t-11 33.5t-14.5 33.5t-15 19.5q-11 -21 -21 -50t-29 -74l-15 -55q-7 -19 -16.5 -47.5t-20.5 -66.5q-16 -54 -23.5 -83t-7.5 -31q0 -9 5 -14q10 0 32.5 0.5t47 1.5t47 1.5t33.5 0.5
q12 0 30 -1t36 -2.5t31.5 -2.5t15.5 -1zM395 805l-8 -8h-17q-4 0 -14 6t-14 7l-68 16q-49 15 -49 36q0 23 37 23q26 0 133 -65v-15z" />
    <glyph glyph-name="Aacute" unicode="&#xc1;" horiz-adv-x="619" 
d="M612 18q-1 -13 -12 -13h-69h-16.5t-14.5 1l-36 3q16 31 16 33q0 4 -7.5 24.5t-16.5 44.5t-17 44t-9 23q-9 0 -27.5 -1t-38 -2.5t-37 -2.5t-26.5 -1q-14 0 -31 1t-32 2.5t-26 2.5t-15 1q-21 0 -43.5 -6t-30.5 -28l-11 -47q-18 -53 -20 -53q0 -7 28 -34q-14 -9 -26 -9h1
l-19 3q-10 2 -23.5 4.5t-31.5 4.5q12 6 19.5 15.5t15.5 29.5t18.5 54t27.5 88q11 28 15.5 39t8 20t8 23t15 47.5t30 94.5t52.5 164q6 20 17.5 55t24.5 83q28 9 69 9h12q22 -66 39 -124.5t30 -97.5q5 -6 8.5 -12.5t8 -19.5t11.5 -35.5t19 -61.5t30.5 -97.5t46.5 -143.5
q10 -41 36 -109q4 -8 29 -16zM429 203v11q-17 35 -40.5 112t-62.5 188q-1 3 -5.5 18.5t-11 33.5t-14.5 33.5t-15 19.5q-11 -21 -21 -50t-29 -74l-15 -55q-7 -19 -16.5 -47.5t-20.5 -66.5q-16 -54 -23.5 -83t-7.5 -31q0 -9 5 -14q10 0 32.5 0.5t47 1.5t47 1.5t33.5 0.5
q12 0 30 -1t36 -2.5t31.5 -2.5t15.5 -1zM397 867q0 -21 -49 -36l-68 -16q-4 -1 -14.5 -7t-13.5 -6h-17l-7 8v15q107 65 131 65q38 0 38 -23z" />
    <glyph glyph-name="Acircumflex" unicode="&#xc2;" horiz-adv-x="619" 
d="M612 18q-1 -13 -12 -13h-69h-16.5t-14.5 1l-36 3q16 31 16 33q0 4 -7.5 24.5t-16.5 44.5t-17 44t-9 23q-9 0 -27.5 -1t-38 -2.5t-37 -2.5t-26.5 -1q-14 0 -31 1t-32 2.5t-26 2.5t-15 1q-21 0 -43.5 -6t-30.5 -28l-11 -47q-18 -53 -20 -53q0 -7 28 -34q-14 -9 -26 -9h1
l-19 3q-10 2 -23.5 4.5t-31.5 4.5q12 6 19.5 15.5t15.5 29.5t18.5 54t27.5 88q11 28 15.5 39t8 20t8 23t15 47.5t30 94.5t52.5 164q6 20 17.5 55t24.5 83q28 9 69 9h12q22 -66 39 -124.5t30 -97.5q5 -6 8.5 -12.5t8 -19.5t11.5 -35.5t19 -61.5t30.5 -97.5t46.5 -143.5
q10 -41 36 -109q4 -8 29 -16zM429 203v11q-17 35 -40.5 112t-62.5 188q-1 3 -5.5 18.5t-11 33.5t-14.5 33.5t-15 19.5q-11 -21 -21 -50t-29 -74l-15 -55q-7 -19 -16.5 -47.5t-20.5 -66.5q-16 -54 -23.5 -83t-7.5 -31q0 -9 5 -14q10 0 32.5 0.5t47 1.5t47 1.5t33.5 0.5
q12 0 30 -1t36 -2.5t31.5 -2.5t15.5 -1zM411 823q0 -15 -17 -15q-19 0 -45 20l-40 32q-65 -53 -89 -53q-13 0 -13 16q0 8 13.5 20t31 22.5t34.5 18t23 7.5q9 0 26 -7.5t34 -18.5t29.5 -22.5t12.5 -19.5z" />
    <glyph glyph-name="Atilde" unicode="&#xc3;" horiz-adv-x="619" 
d="M612 18q-1 -13 -12 -13h-69h-16.5t-14.5 1l-36 3q16 31 16 33q0 4 -7.5 24.5t-16.5 44.5t-17 44t-9 23q-9 0 -27.5 -1t-38 -2.5t-37 -2.5t-26.5 -1q-14 0 -31 1t-32 2.5t-26 2.5t-15 1q-21 0 -43.5 -6t-30.5 -28l-11 -47q-18 -53 -20 -53q0 -7 28 -34q-14 -9 -26 -9h1
l-19 3q-10 2 -23.5 4.5t-31.5 4.5q12 6 19.5 15.5t15.5 29.5t18.5 54t27.5 88q11 28 15.5 39t8 20t8 23t15 47.5t30 94.5t52.5 164q6 20 17.5 55t24.5 83q28 9 69 9h12q22 -66 39 -124.5t30 -97.5q5 -6 8.5 -12.5t8 -19.5t11.5 -35.5t19 -61.5t30.5 -97.5t46.5 -143.5
q10 -41 36 -109q4 -8 29 -16zM429 203v11q-17 35 -40.5 112t-62.5 188q-1 3 -5.5 18.5t-11 33.5t-14.5 33.5t-15 19.5q-11 -21 -21 -50t-29 -74l-15 -55q-7 -19 -16.5 -47.5t-20.5 -66.5q-16 -54 -23.5 -83t-7.5 -31q0 -9 5 -14q10 0 32.5 0.5t47 1.5t47 1.5t33.5 0.5
q12 0 30 -1t36 -2.5t31.5 -2.5t15.5 -1zM429 878q0 -11 -7 -23t-18 -22t-24 -16t-25 -6q-9 0 -27 8.5t-36.5 18.5t-33.5 18.5t-18 8.5q-11 0 -21 -16q-2 -9 -6 -17q-3 -7 -6.5 -13t-7.5 -8q-9 4 -9 13q0 11 7 22.5t17.5 20.5t22.5 14.5t22 5.5q12 0 31.5 -7.5t38 -17
t33.5 -17t18 -7.5q8 0 12.5 4t8.5 11t8 16t11 20q9 -8 9 -11z" />
    <glyph glyph-name="Adieresis" unicode="&#xc4;" horiz-adv-x="619" 
d="M612 18q-1 -13 -12 -13h-69h-16.5t-14.5 1l-36 3q16 31 16 33q0 4 -7.5 24.5t-16.5 44.5t-17 44t-9 23q-9 0 -27.5 -1t-38 -2.5t-37 -2.5t-26.5 -1q-14 0 -31 1t-32 2.5t-26 2.5t-15 1q-21 0 -43.5 -6t-30.5 -28l-11 -47q-18 -53 -20 -53q0 -7 28 -34q-14 -9 -26 -9h1
l-19 3q-10 2 -23.5 4.5t-31.5 4.5q12 6 19.5 15.5t15.5 29.5t18.5 54t27.5 88q11 28 15.5 39t8 20t8 23t15 47.5t30 94.5t52.5 164q6 20 17.5 55t24.5 83q28 9 69 9h12q22 -66 39 -124.5t30 -97.5q5 -6 8.5 -12.5t8 -19.5t11.5 -35.5t19 -61.5t30.5 -97.5t46.5 -143.5
q10 -41 36 -109q4 -8 29 -16zM429 203v11q-17 35 -40.5 112t-62.5 188q-1 3 -5.5 18.5t-11 33.5t-14.5 33.5t-15 19.5q-11 -21 -21 -50t-29 -74l-15 -55q-7 -19 -16.5 -47.5t-20.5 -66.5q-16 -54 -23.5 -83t-7.5 -31q0 -9 5 -14q10 0 32.5 0.5t47 1.5t47 1.5t33.5 0.5
q12 0 30 -1t36 -2.5t31.5 -2.5t15.5 -1zM430 854q0 -22 -14.5 -36.5t-36.5 -14.5q-49 0 -49 51q0 21 13.5 36.5t35.5 15.5t36.5 -15.5t14.5 -36.5zM291 854q0 -47 -51 -47t-51 47q0 21 14.5 35.5t36.5 14.5q23 0 37 -14.5t14 -35.5z" />
    <glyph glyph-name="Aring" unicode="&#xc5;" horiz-adv-x="619" 
d="M612 18q-1 -13 -12 -13h-69h-16.5t-14.5 1l-36 3q16 31 16 33q0 4 -7.5 24.5t-16.5 44.5t-17 44t-9 23q-9 0 -27.5 -1t-38 -2.5t-37 -2.5t-26.5 -1q-14 0 -31 1t-32 2.5t-26 2.5t-15 1q-21 0 -43.5 -6t-30.5 -28l-11 -47q-18 -53 -20 -53q0 -7 28 -34q-14 -9 -26 -9h1
l-19 3q-10 2 -23.5 4.5t-31.5 4.5q12 6 19.5 15.5t15.5 29.5t18.5 54t27.5 88q11 28 15.5 39t8 20t8 23t15 47.5t30 94.5t52.5 164q6 20 17.5 55t24.5 83q28 9 69 9h12q22 -66 39 -124.5t30 -97.5q5 -6 8.5 -12.5t8 -19.5t11.5 -35.5t19 -61.5t30.5 -97.5t46.5 -143.5
q10 -41 36 -109q4 -8 29 -16zM429 203v11q-17 35 -40.5 112t-62.5 188q-1 3 -5.5 18.5t-11 33.5t-14.5 33.5t-15 19.5q-11 -21 -21 -50t-29 -74l-15 -55q-7 -19 -16.5 -47.5t-20.5 -66.5q-16 -54 -23.5 -83t-7.5 -31q0 -9 5 -14q10 0 32.5 0.5t47 1.5t47 1.5t33.5 0.5
q12 0 30 -1t36 -2.5t31.5 -2.5t15.5 -1zM394 823q0 -29 -24.5 -45.5t-60.5 -16.5q-35 0 -60 16.5t-25 45.5q0 27 25.5 44t59.5 17q35 0 60 -17t25 -44zM373 823q0 20 -18.5 32.5t-45.5 12.5t-44.5 -12.5t-17.5 -32.5t17 -32.5t45 -12.5t46 12.5t18 32.5z" />
    <glyph glyph-name="AE" unicode="&#xc6;" horiz-adv-x="619" 
d="M591 77q0 -10 -1 -28.5t-3 -47.5l-158 -1q-22 1 -43.5 1.5t-42.5 0.5q-22 0 -44 -0.5t-44 -1.5l-7 1q0 7 4.5 11t11 7t12.5 6.5t9 8.5q-1 17 -1 75v161h-9q-9 0 -21 0.5t-27 0.5h-58q-6 0 -10 -21q-1 0 -6 -16t-12.5 -39.5t-16 -51.5t-16 -52l-12.5 -40t-5 -17
q0 -21 36 -21q0 -14 -21 -14q-7 0 -20.5 2t-20.5 2q-6 0 -17.5 -2t-17.5 -2q-11 0 -14.5 3.5t-3.5 10.5q34 0 43 25l41 122q10 30 16.5 48.5t11.5 33t9.5 28t11 33.5t16 50t24 77t36 115t51.5 164l-20 23q16 -1 33.5 -1.5t37.5 -0.5q15 0 44.5 0.5t62 1.5t62 1.5t44.5 0.5
q6 -68 6 -82q0 -8 -1 -8l-5 10.5t-13.5 23.5t-18 24t-18.5 11h-102v-241q0 -9 -2.5 -28t-2.5 -29q0 -1 1.5 -31.5t3.5 -93.5h82q5 0 12.5 6t12.5 15l14 22q3 0 4 -28.5t1 -67.5v-28q-8 0 -11 9.5t-6.5 21t-9 21t-17.5 9.5h-82q-2 -49 -3 -75t-1 -28t1 -8.5t2.5 -14.5l3 -16
t1.5 -13q0 -6 -0.5 -15.5t-1.5 -19.5t-1.5 -19t-0.5 -15q0 -24 32 -24h119q9 0 19 8t19 25l18 36v-14zM284 290l-1 349q-10 -27 -22 -63.5t-24.5 -75t-23.5 -76t-20 -66.5t-14.5 -47l-5.5 -18q7 -3 21 -3h90z" />
    <glyph glyph-name="Ccedilla" unicode="&#xc7;" horiz-adv-x="571" 
d="M540 158q0 -8 -0.5 -27t-1.5 -49q-5 -1 -12.5 -1t-18.5 -1q-37 -28 -68 -44.5t-59 -25.5t-54.5 -11.5t-54.5 -2.5q-44 0 -77.5 16t-58.5 41t-42 55t-27 57.5t-14.5 48.5t-4.5 29q0 4 1 13t1 13t-4 13.5t-5 13.5q-2 14 -3 31t-1 36q0 120 33 197.5t100 119.5q9 7 23 16
t33.5 17.5t44.5 14t56 5.5q49 0 83 -19q7 -4 18 -13t23 -18.5t22.5 -16.5t15.5 -7q12 0 21 10q15 -8 15 -19v-107l-58 81q-18 24 -32 39.5t-30 24.5t-36 12t-50 3q-38 0 -70.5 -27.5t-57 -71.5t-38.5 -99.5t-14 -112.5q1 -5 1.5 -23.5t3.5 -51.5l6 -67q9 -17 21 -48
q24 -88 64 -131.5t91 -43.5q135 0 214 163q1 -7 1 -14.5v-17.5zM359 -66q0 -20 -12 -37.5t-31.5 -31t-44.5 -21t-52 -7.5v15q34 0 57.5 18t23.5 50q0 21 -11.5 36t-32.5 15l14 40l36 4l-16 -29q8 2 9 2q9 0 19.5 -5.5t19.5 -13.5t15 -17.5t6 -17.5z" />
    <glyph glyph-name="Egrave" unicode="&#xc8;" horiz-adv-x="478" 
d="M455 36q0 -36 -31 -36q-8 0 -23 3t-22 3t-21.5 -1.5t-30 -3.5t-29.5 -3.5t-20 -1.5q-34 0 -95.5 2t-155.5 6l21 29q6 10 6 39q0 6 -0.5 18t-1 25t-1 25t-0.5 18t1 16t2 21.5t2 21.5t1 16v448q0 2 -3.5 6.5t-9.5 13.5l-14 21l12 6q51 2 135 3.5t202 1.5q28 0 28 -76
l-4 -15q-3 3 -8 12t-11 19t-13.5 20t-16.5 16q-11 -1 -23.5 -1h-26.5h-82q-22 0 -39 0.5t-30 0.5h-12l-5 -4l15 -27l-5 -20v-239q0 -42 38 -42h106q18 0 30 1.5t20.5 7t14 15.5t10.5 27q9 -17 9 -53q0 -17 -9 -66q-9 19 -16.5 30t-21 15.5t-35.5 5.5t-61 1h-31
q-22 0 -36.5 -1.5t-14.5 -16.5q0 -5 2 -14.5t2 -14.5t-3.5 -14t-3.5 -13v-238q0 -22 34 -27t103 -5h100q29 0 62 40q10 -10 10 -21zM327 805l-8 -8h-17q-4 0 -14 6t-14 7l-68 16q-49 15 -49 36q0 23 37 23q26 0 133 -65v-15z" />
    <glyph glyph-name="Eacute" unicode="&#xc9;" horiz-adv-x="478" 
d="M455 36q0 -36 -31 -36q-8 0 -23 3t-22 3t-21.5 -1.5t-30 -3.5t-29.5 -3.5t-20 -1.5q-34 0 -95.5 2t-155.5 6l21 29q6 10 6 39q0 6 -0.5 18t-1 25t-1 25t-0.5 18t1 16t2 21.5t2 21.5t1 16v448q0 2 -3.5 6.5t-9.5 13.5l-14 21l12 6q51 2 135 3.5t202 1.5q28 0 28 -76
l-4 -15q-3 3 -8 12t-11 19t-13.5 20t-16.5 16q-11 -1 -23.5 -1h-26.5h-82q-22 0 -39 0.5t-30 0.5h-12l-5 -4l15 -27l-5 -20v-239q0 -42 38 -42h106q18 0 30 1.5t20.5 7t14 15.5t10.5 27q9 -17 9 -53q0 -17 -9 -66q-9 19 -16.5 30t-21 15.5t-35.5 5.5t-61 1h-31
q-22 0 -36.5 -1.5t-14.5 -16.5q0 -5 2 -14.5t2 -14.5t-3.5 -14t-3.5 -13v-238q0 -22 34 -27t103 -5h100q29 0 62 40q10 -10 10 -21zM327 867q0 -21 -49 -36l-68 -16q-4 -1 -14.5 -7t-13.5 -6h-17l-7 8v15q107 65 131 65q38 0 38 -23z" />
    <glyph glyph-name="Ecircumflex" unicode="&#xca;" horiz-adv-x="478" 
d="M455 36q0 -36 -31 -36q-8 0 -23 3t-22 3t-21.5 -1.5t-30 -3.5t-29.5 -3.5t-20 -1.5q-34 0 -95.5 2t-155.5 6l21 29q6 10 6 39q0 6 -0.5 18t-1 25t-1 25t-0.5 18t1 16t2 21.5t2 21.5t1 16v448q0 2 -3.5 6.5t-9.5 13.5l-14 21l12 6q51 2 135 3.5t202 1.5q28 0 28 -76
l-4 -15q-3 3 -8 12t-11 19t-13.5 20t-16.5 16q-11 -1 -23.5 -1h-26.5h-82q-22 0 -39 0.5t-30 0.5h-12l-5 -4l15 -27l-5 -20v-239q0 -42 38 -42h106q18 0 30 1.5t20.5 7t14 15.5t10.5 27q9 -17 9 -53q0 -17 -9 -66q-9 19 -16.5 30t-21 15.5t-35.5 5.5t-61 1h-31
q-22 0 -36.5 -1.5t-14.5 -16.5q0 -5 2 -14.5t2 -14.5t-3.5 -14t-3.5 -13v-238q0 -22 34 -27t103 -5h100q29 0 62 40q10 -10 10 -21zM343 823q0 -15 -17 -15q-19 0 -45 20l-40 32q-65 -53 -89 -53q-13 0 -13 16q0 8 13.5 20t31 22.5t34.5 18t23 7.5q9 0 26 -7.5t34 -18.5
t29.5 -22.5t12.5 -19.5z" />
    <glyph glyph-name="Edieresis" unicode="&#xcb;" horiz-adv-x="478" 
d="M455 36q0 -36 -31 -36q-8 0 -23 3t-22 3t-21.5 -1.5t-30 -3.5t-29.5 -3.5t-20 -1.5q-34 0 -95.5 2t-155.5 6l21 29q6 10 6 39q0 6 -0.5 18t-1 25t-1 25t-0.5 18t1 16t2 21.5t2 21.5t1 16v448q0 2 -3.5 6.5t-9.5 13.5l-14 21l12 6q51 2 135 3.5t202 1.5q28 0 28 -76
l-4 -15q-3 3 -8 12t-11 19t-13.5 20t-16.5 16q-11 -1 -23.5 -1h-26.5h-82q-22 0 -39 0.5t-30 0.5h-12l-5 -4l15 -27l-5 -20v-239q0 -42 38 -42h106q18 0 30 1.5t20.5 7t14 15.5t10.5 27q9 -17 9 -53q0 -17 -9 -66q-9 19 -16.5 30t-21 15.5t-35.5 5.5t-61 1h-31
q-22 0 -36.5 -1.5t-14.5 -16.5q0 -5 2 -14.5t2 -14.5t-3.5 -14t-3.5 -13v-238q0 -22 34 -27t103 -5h100q29 0 62 40q10 -10 10 -21zM362 854q0 -22 -14.5 -36.5t-36.5 -14.5q-49 0 -49 51q0 21 13.5 36.5t35.5 15.5t36.5 -15.5t14.5 -36.5zM223 854q0 -47 -51 -47t-51 47
q0 21 14.5 35.5t36.5 14.5q23 0 37 -14.5t14 -35.5z" />
    <glyph glyph-name="Igrave" unicode="&#xcc;" horiz-adv-x="201" 
d="M188 0q-7 -1 -14 -1.5t-15 -0.5q-15 0 -130 9l29 29v16q0 5 -0.5 16t-1 23t-1 23t-0.5 16q0 6 1 16.5t2.5 21t2.5 21t1 16.5v448q0 10 -2.5 22t-7 22.5t-10.5 18t-13 8.5q85 9 111 9q11 0 41 -8q0 -2 -4.5 -7t-10 -12t-10 -14.5t-4.5 -13.5v-594q0 -19 1 -28.5t5 -17
t11 -15.5t19 -23zM189 805l-8 -8h-17q-4 0 -14 6t-14 7l-68 16q-49 15 -49 36q0 23 37 23q26 0 133 -65v-15z" />
    <glyph glyph-name="Iacute" unicode="&#xcd;" horiz-adv-x="201" 
d="M188 0q-7 -1 -14 -1.5t-15 -0.5q-15 0 -130 9l29 29v16q0 5 -0.5 16t-1 23t-1 23t-0.5 16q0 6 1 16.5t2.5 21t2.5 21t1 16.5v448q0 10 -2.5 22t-7 22.5t-10.5 18t-13 8.5q85 9 111 9q11 0 41 -8q0 -2 -4.5 -7t-10 -12t-10 -14.5t-4.5 -13.5v-594q0 -19 1 -28.5t5 -17
t11 -15.5t19 -23zM188 867q0 -21 -49 -36l-68 -16q-4 -1 -14.5 -7t-13.5 -6h-17l-7 8v15q107 65 131 65q38 0 38 -23z" />
    <glyph glyph-name="Icircumflex" unicode="&#xce;" horiz-adv-x="201" 
d="M188 0q-7 -1 -14 -1.5t-15 -0.5q-15 0 -130 9l29 29v16q0 5 -0.5 16t-1 23t-1 23t-0.5 16q0 6 1 16.5t2.5 21t2.5 21t1 16.5v448q0 10 -2.5 22t-7 22.5t-10.5 18t-13 8.5q85 9 111 9q11 0 41 -8q0 -2 -4.5 -7t-10 -12t-10 -14.5t-4.5 -13.5v-594q0 -19 1 -28.5t5 -17
t11 -15.5t19 -23zM206 823q0 -15 -17 -15q-19 0 -45 20l-40 32q-65 -53 -89 -53q-13 0 -13 16q0 8 13.5 20t31 22.5t34.5 18t23 7.5q9 0 26 -7.5t34 -18.5t29.5 -22.5t12.5 -19.5z" />
    <glyph glyph-name="Idieresis" unicode="&#xcf;" horiz-adv-x="201" 
d="M188 0q-7 -1 -14 -1.5t-15 -0.5q-15 0 -130 9l29 29v16q0 5 -0.5 16t-1 23t-1 23t-0.5 16q0 6 1 16.5t2.5 21t2.5 21t1 16.5v448q0 10 -2.5 22t-7 22.5t-10.5 18t-13 8.5q85 9 111 9q11 0 41 -8q0 -2 -4.5 -7t-10 -12t-10 -14.5t-4.5 -13.5v-594q0 -19 1 -28.5t5 -17
t11 -15.5t19 -23zM224 854q0 -22 -14.5 -36.5t-36.5 -14.5q-49 0 -49 51q0 21 13.5 36.5t35.5 15.5t36.5 -15.5t14.5 -36.5zM85 854q0 -47 -51 -47t-51 47q0 21 14.5 35.5t36.5 14.5q23 0 37 -14.5t14 -35.5z" />
    <glyph glyph-name="Ntilde" unicode="&#xd1;" horiz-adv-x="564" 
d="M554 729q-2 -2 -7 -5.5t-10.5 -8t-10.5 -9t-6 -8.5q0 -1 -1 -29.5t-2 -70t-2 -90t-1 -89.5q0 -18 0.5 -54t1 -76t1 -76t0.5 -54q0 -123 -9 -166q-37 51 -90 127t-125 179q-13 24 -32.5 57.5t-47.5 78.5l-56 82q-41 61 -60 74q-12 -15 -12 -39v-490q1 -6 3 -13t8 -15
l20 -26q-8 -8 -18 -8t-30 1.5t-51 5.5q6 9 11.5 12t10 14.5t7.5 37t3 78.5l-1 515q0 22 -31 65q19 2 39 3t42 1t33 -8t33.5 -39.5t52.5 -77t64.5 -99.5t68.5 -107.5t65.5 -102t55.5 -82.5q6 4 6 16q0 6 -2.5 17.5t-2.5 17.5q0 9 4 28t4 29v335q0 16 -10 33t-21 36q26 8 78 8
q13 0 27 -8zM404 878q0 -11 -7 -23t-18 -22t-24 -16t-25 -6q-9 0 -27 8.5t-36.5 18.5t-33.5 18.5t-18 8.5q-11 0 -21 -16q-2 -9 -6 -17q-3 -7 -6.5 -13t-7.5 -8q-9 4 -9 13q0 11 7 22.5t17.5 20.5t22.5 14.5t22 5.5q12 0 31.5 -7.5t38 -17t33.5 -17t18 -7.5q8 0 12.5 4
t8.5 11t8 16t11 20q9 -8 9 -11z" />
    <glyph glyph-name="Ograve" unicode="&#xd2;" horiz-adv-x="589" 
d="M553 386q0 -6 -3 -20t-3 -21v-17q0 -48 -7 -92t-20 -89q-12 -41 -40 -70.5t-67 -49t-86.5 -29t-98.5 -9.5q-27 0 -55 16.5t-52 42t-41.5 56.5t-21.5 60l-18 113q-2 11 -3.5 24t-0.5 30v16q0 8 -0.5 15t-0.5 16q0 11 1 28.5t3 46.5v12t1.5 12.5t4 18t7.5 28.5l3 28
q5 21 16 42t25.5 40.5t32 35.5t35.5 27l26 11q25 11 50.5 20.5t61.5 8.5q74 0 100 -9q36 -12 64 -44t47.5 -77.5t29.5 -102.5t10 -118zM447 353q0 71 -9.5 135t-27 113t-41.5 77.5t-53 28.5q-65 0 -82 -16q-43 -39 -66.5 -114t-23.5 -178v-25q0 -11 -3 -29.5t-3 -27.5
q0 -52 11 -105t30.5 -95.5t45.5 -69.5t55 -27q40 0 71 24t52.5 67.5t32.5 105t11 136.5zM379 805l-8 -8h-17q-4 0 -14 6t-14 7l-68 16q-49 15 -49 36q0 23 37 23q26 0 133 -65v-15z" />
    <glyph glyph-name="Oacute" unicode="&#xd3;" horiz-adv-x="589" 
d="M553 386q0 -6 -3 -20t-3 -21v-17q0 -48 -7 -92t-20 -89q-12 -41 -40 -70.5t-67 -49t-86.5 -29t-98.5 -9.5q-27 0 -55 16.5t-52 42t-41.5 56.5t-21.5 60l-18 113q-2 11 -3.5 24t-0.5 30v16q0 8 -0.5 15t-0.5 16q0 11 1 28.5t3 46.5v12t1.5 12.5t4 18t7.5 28.5l3 28
q5 21 16 42t25.5 40.5t32 35.5t35.5 27l26 11q25 11 50.5 20.5t61.5 8.5q74 0 100 -9q36 -12 64 -44t47.5 -77.5t29.5 -102.5t10 -118zM447 353q0 71 -9.5 135t-27 113t-41.5 77.5t-53 28.5q-65 0 -82 -16q-43 -39 -66.5 -114t-23.5 -178v-25q0 -11 -3 -29.5t-3 -27.5
q0 -52 11 -105t30.5 -95.5t45.5 -69.5t55 -27q40 0 71 24t52.5 67.5t32.5 105t11 136.5zM382 867q0 -21 -49 -36l-68 -16q-4 -1 -14.5 -7t-13.5 -6h-17l-7 8v15q107 65 131 65q38 0 38 -23z" />
    <glyph glyph-name="Ocircumflex" unicode="&#xd4;" horiz-adv-x="589" 
d="M553 386q0 -6 -3 -20t-3 -21v-17q0 -48 -7 -92t-20 -89q-12 -41 -40 -70.5t-67 -49t-86.5 -29t-98.5 -9.5q-27 0 -55 16.5t-52 42t-41.5 56.5t-21.5 60l-18 113q-2 11 -3.5 24t-0.5 30v16q0 8 -0.5 15t-0.5 16q0 11 1 28.5t3 46.5v12t1.5 12.5t4 18t7.5 28.5l3 28
q5 21 16 42t25.5 40.5t32 35.5t35.5 27l26 11q25 11 50.5 20.5t61.5 8.5q74 0 100 -9q36 -12 64 -44t47.5 -77.5t29.5 -102.5t10 -118zM447 353q0 71 -9.5 135t-27 113t-41.5 77.5t-53 28.5q-65 0 -82 -16q-43 -39 -66.5 -114t-23.5 -178v-25q0 -11 -3 -29.5t-3 -27.5
q0 -52 11 -105t30.5 -95.5t45.5 -69.5t55 -27q40 0 71 24t52.5 67.5t32.5 105t11 136.5zM396 823q0 -15 -17 -15q-19 0 -45 20l-40 32q-65 -53 -89 -53q-13 0 -13 16q0 8 13.5 20t31 22.5t34.5 18t23 7.5q9 0 26 -7.5t34 -18.5t29.5 -22.5t12.5 -19.5z" />
    <glyph glyph-name="Otilde" unicode="&#xd5;" horiz-adv-x="589" 
d="M553 386q0 -6 -3 -20t-3 -21v-17q0 -48 -7 -92t-20 -89q-12 -41 -40 -70.5t-67 -49t-86.5 -29t-98.5 -9.5q-27 0 -55 16.5t-52 42t-41.5 56.5t-21.5 60l-18 113q-2 11 -3.5 24t-0.5 30v16q0 8 -0.5 15t-0.5 16q0 11 1 28.5t3 46.5v12t1.5 12.5t4 18t7.5 28.5l3 28
q5 21 16 42t25.5 40.5t32 35.5t35.5 27l26 11q25 11 50.5 20.5t61.5 8.5q74 0 100 -9q36 -12 64 -44t47.5 -77.5t29.5 -102.5t10 -118zM447 353q0 71 -9.5 135t-27 113t-41.5 77.5t-53 28.5q-65 0 -82 -16q-43 -39 -66.5 -114t-23.5 -178v-25q0 -11 -3 -29.5t-3 -27.5
q0 -52 11 -105t30.5 -95.5t45.5 -69.5t55 -27q40 0 71 24t52.5 67.5t32.5 105t11 136.5zM413 878q0 -11 -7 -23t-18 -22t-24 -16t-25 -6q-9 0 -27 8.5t-36.5 18.5t-33.5 18.5t-18 8.5q-11 0 -21 -16q-2 -9 -6 -17q-3 -7 -6.5 -13t-7.5 -8q-9 4 -9 13q0 11 7 22.5t17.5 20.5
t22.5 14.5t22 5.5q12 0 31.5 -7.5t38 -17t33.5 -17t18 -7.5q8 0 12.5 4t8.5 11t8 16t11 20q9 -8 9 -11z" />
    <glyph glyph-name="Odieresis" unicode="&#xd6;" horiz-adv-x="589" 
d="M553 386q0 -6 -3 -20t-3 -21v-17q0 -48 -7 -92t-20 -89q-12 -41 -40 -70.5t-67 -49t-86.5 -29t-98.5 -9.5q-27 0 -55 16.5t-52 42t-41.5 56.5t-21.5 60l-18 113q-2 11 -3.5 24t-0.5 30v16q0 8 -0.5 15t-0.5 16q0 11 1 28.5t3 46.5v12t1.5 12.5t4 18t7.5 28.5l3 28
q5 21 16 42t25.5 40.5t32 35.5t35.5 27l26 11q25 11 50.5 20.5t61.5 8.5q74 0 100 -9q36 -12 64 -44t47.5 -77.5t29.5 -102.5t10 -118zM447 353q0 71 -9.5 135t-27 113t-41.5 77.5t-53 28.5q-65 0 -82 -16q-43 -39 -66.5 -114t-23.5 -178v-25q0 -11 -3 -29.5t-3 -27.5
q0 -52 11 -105t30.5 -95.5t45.5 -69.5t55 -27q40 0 71 24t52.5 67.5t32.5 105t11 136.5zM416 854q0 -22 -14.5 -36.5t-36.5 -14.5q-49 0 -49 51q0 21 13.5 36.5t35.5 15.5t36.5 -15.5t14.5 -36.5zM277 854q0 -47 -51 -47t-51 47q0 21 14.5 35.5t36.5 14.5q23 0 37 -14.5
t14 -35.5z" />
    <glyph glyph-name="Oslash" unicode="&#xd8;" horiz-adv-x="589" 
d="M553 386q0 -163 -33 -242q-30 -72 -96.5 -112t-165.5 -40q-59 0 -100.5 20.5t-68.5 66t-39.5 119t-12.5 179.5q0 150 38 229q29 60 94 98t156 38q56 0 99 -24t71.5 -69.5t43 -111.5t14.5 -151zM398 639q-36 75 -101 75q-38 0 -67.5 -24t-49.5 -69t-30.5 -108.5
t-10.5 -142.5q0 -158 40 -256zM447 361q0 142 -31 236l-219 -519q38 -59 91 -59q38 0 67.5 23.5t50 67.5t31 107.5t10.5 143.5z" />
    <glyph glyph-name="Ugrave" unicode="&#xd9;" horiz-adv-x="515" 
d="M478 725q0 -2 -2.5 -7t-6 -11l-7 -12t-4.5 -9q-1 -7 -1.5 -20.5t-0.5 -33.5v-34q0 -9 0.5 -16.5t0.5 -12.5v-427q0 -151 -209 -151q-31 0 -60.5 7.5t-54 21t-43 32.5t-27.5 42q-10 26 -10 147q0 15 0.5 46.5t1 67t1 67t0.5 46.5v144q0 7 -0.5 15t-0.5 19v40q0 9 -22 37
q18 8 24 8q13 0 43 -2t78 -6q-26 -24 -26 -36v-552q0 -64 100 -103q23 -10 42 -10q16 0 35.5 7t37 19t31 27.5t17.5 32.5q2 10 3.5 25t2 47t0.5 87.5v148.5q0 54 -1.5 99t-1.5 85v17q0 7 0.5 15.5t0.5 19.5q0 15 -3.5 33t-16.5 35q26 8 78 8q1 -1 1 -3zM346 805l-8 -8h-17
q-4 0 -14 6t-14 7l-68 16q-49 15 -49 36q0 23 37 23q26 0 133 -65v-15z" />
    <glyph glyph-name="Uacute" unicode="&#xda;" horiz-adv-x="515" 
d="M478 725q0 -2 -2.5 -7t-6 -11l-7 -12t-4.5 -9q-1 -7 -1.5 -20.5t-0.5 -33.5v-34q0 -9 0.5 -16.5t0.5 -12.5v-427q0 -151 -209 -151q-31 0 -60.5 7.5t-54 21t-43 32.5t-27.5 42q-10 26 -10 147q0 15 0.5 46.5t1 67t1 67t0.5 46.5v144q0 7 -0.5 15t-0.5 19v40q0 9 -22 37
q18 8 24 8q13 0 43 -2t78 -6q-26 -24 -26 -36v-552q0 -64 100 -103q23 -10 42 -10q16 0 35.5 7t37 19t31 27.5t17.5 32.5q2 10 3.5 25t2 47t0.5 87.5v148.5q0 54 -1.5 99t-1.5 85v17q0 7 0.5 15.5t0.5 19.5q0 15 -3.5 33t-16.5 35q26 8 78 8q1 -1 1 -3zM346 867
q0 -21 -49 -36l-68 -16q-4 -1 -14.5 -7t-13.5 -6h-17l-7 8v15q107 65 131 65q38 0 38 -23z" />
    <glyph glyph-name="Ucircumflex" unicode="&#xdb;" horiz-adv-x="515" 
d="M478 725q0 -2 -2.5 -7t-6 -11l-7 -12t-4.5 -9q-1 -7 -1.5 -20.5t-0.5 -33.5v-34q0 -9 0.5 -16.5t0.5 -12.5v-427q0 -151 -209 -151q-31 0 -60.5 7.5t-54 21t-43 32.5t-27.5 42q-10 26 -10 147q0 15 0.5 46.5t1 67t1 67t0.5 46.5v144q0 7 -0.5 15t-0.5 19v40q0 9 -22 37
q18 8 24 8q13 0 43 -2t78 -6q-26 -24 -26 -36v-552q0 -64 100 -103q23 -10 42 -10q16 0 35.5 7t37 19t31 27.5t17.5 32.5q2 10 3.5 25t2 47t0.5 87.5v148.5q0 54 -1.5 99t-1.5 85v17q0 7 0.5 15.5t0.5 19.5q0 15 -3.5 33t-16.5 35q26 8 78 8q1 -1 1 -3zM362 823
q0 -15 -17 -15q-19 0 -45 20l-40 32q-65 -53 -89 -53q-13 0 -13 16q0 8 13.5 20t31 22.5t34.5 18t23 7.5q9 0 26 -7.5t34 -18.5t29.5 -22.5t12.5 -19.5z" />
    <glyph glyph-name="Udieresis" unicode="&#xdc;" horiz-adv-x="515" 
d="M478 725q0 -2 -2.5 -7t-6 -11l-7 -12t-4.5 -9q-1 -7 -1.5 -20.5t-0.5 -33.5v-34q0 -9 0.5 -16.5t0.5 -12.5v-427q0 -151 -209 -151q-31 0 -60.5 7.5t-54 21t-43 32.5t-27.5 42q-10 26 -10 147q0 15 0.5 46.5t1 67t1 67t0.5 46.5v144q0 7 -0.5 15t-0.5 19v40q0 9 -22 37
q18 8 24 8q13 0 43 -2t78 -6q-26 -24 -26 -36v-552q0 -64 100 -103q23 -10 42 -10q16 0 35.5 7t37 19t31 27.5t17.5 32.5q2 10 3.5 25t2 47t0.5 87.5v148.5q0 54 -1.5 99t-1.5 85v17q0 7 0.5 15.5t0.5 19.5q0 15 -3.5 33t-16.5 35q26 8 78 8q1 -1 1 -3zM381 854
q0 -22 -14.5 -36.5t-36.5 -14.5q-49 0 -49 51q0 21 13.5 36.5t35.5 15.5t36.5 -15.5t14.5 -36.5zM242 854q0 -47 -51 -47t-51 47q0 21 14.5 35.5t36.5 14.5q23 0 37 -14.5t14 -35.5z" />
    <glyph glyph-name="Yacute" unicode="&#xdd;" horiz-adv-x="454" 
d="M432 730l-13.5 -10.5t-8.5 -8t-10 -14.5t-16.5 -31.5t-28 -57.5t-45.5 -93q-13 -27 -21 -46t-12 -35t-5.5 -31t-1.5 -32q0 -81 1 -157.5t4 -142.5l5 -37q7 -7 19 -25q-4 -4 -18 -4q-9 0 -28 3t-28 3q-4 0 -11 -3t-12 -3h-51q2 8 12 17.5t12 17.5q2 13 3.5 48t3 78.5t2 88
t0.5 76.5t-5 52q-3 10 -11 31t-18 44.5t-18 44t-11 29.5q-15 49 -25.5 79.5t-19.5 50.5t-18.5 34.5t-22.5 32.5q28 9 77 9q-1 0 14 0t46 -1l8 -6q0 -3 -3 -8.5t-6.5 -11.5t-6.5 -11t-3 -7q0 -13 27 -92q6 -7 9.5 -15.5t9 -22t14 -33t23.5 -46.5q4 6 13.5 23t21.5 39.5t25 47
t23.5 46t17 37.5t6.5 20q0 13 -14 33q17 4 27.5 6t15.5 2q6 0 19 -2t33 -6zM315 867q0 -21 -49 -36l-68 -16q-4 -1 -14.5 -7t-13.5 -6h-17l-7 8v15q107 65 131 65q38 0 38 -23z" />
    <glyph glyph-name="germandbls" unicode="&#xdf;" horiz-adv-x="478" 
d="M440 205q0 -44 -12.5 -81t-35 -64t-55 -42t-72.5 -15q0 12 10 22l20 16q44 42 44 139q0 126 -74 167q-36 19 -36 25q0 3 17 6q22 6 38.5 23t27.5 40.5t17 50t6 52.5q0 32 -9.5 61.5t-25 52.5t-35 36.5t-38.5 13.5q-17 0 -30.5 -9.5t-23 -25t-14.5 -36.5t-5 -43
q0 -12 0.5 -34.5t1 -47.5t1 -47t0.5 -33q0 -15 -1.5 -44.5t-3 -62t-2.5 -62t-1 -44.5q0 -7 1.5 -20.5t3 -28.5t2.5 -28.5t1 -20.5l-3 -82q-1 -11 8.5 -18.5t20.5 -7.5q2 0 3 0.5t3 0.5q0 -14 -28 -14q-8 0 -25 1.5t-26 1.5q-5 0 -25.5 -0.5t-55.5 -1.5l2 13q26 0 26 25
l-1 228q0 8 0.5 24.5t1.5 34.5t1.5 34t0.5 24q0 13 -0.5 40.5t-1 58t-1 58t-0.5 41.5q0 152 223 152q34 0 62.5 -14.5t48 -39.5t30.5 -59.5t11 -74.5q0 -30 -6.5 -57.5t-19 -50t-30.5 -38.5t-40 -22q23 -3 42 -18t33 -38.5t21.5 -53.5t7.5 -63z" />
    <glyph glyph-name="agrave" unicode="&#xe0;" 
d="M474 62q-17 -56 -77 -56q-26 0 -43 17l-28 40q-70 -64 -152 -64q-23 0 -46.5 7.5t-42 24.5t-30.5 44.5t-12 68.5q0 107 106 141q38 17 71.5 25t58 18.5t39 29.5t14.5 58q0 13 -0.5 22t-1.5 14l-29 57q-22 37 -80 37q-20 0 -34 -14t-26 -30.5t-24.5 -30t-29.5 -13.5
q-11 0 -21 9t-10 20q0 18 17 35.5t43.5 31t58.5 22t62 8.5q47 0 79 -10t52 -31t28.5 -54.5t8.5 -80.5q0 -8 -0.5 -24t-1 -34t-1 -34t-0.5 -24q0 -13 1.5 -37t1.5 -37v-40q0 -11 -0.5 -18.5t-0.5 -13.5q0 -38 4.5 -54t12 -21.5t16.5 -5t17 -3.5zM328 223q0 26 -1.5 49
t-3.5 43q-15 -9 -27.5 -15t-27.5 -12t-35 -15t-51 -24q-48 -29 -48 -129q0 -12 9.5 -28t24 -29.5t30.5 -23t28 -9.5q102 0 102 193zM332 646l-8 -8h-17q-4 0 -14 6t-14 7l-68 16q-49 15 -49 36q0 23 37 23q26 0 133 -65v-15z" />
    <glyph glyph-name="aacute" unicode="&#xe1;" 
d="M474 62q-17 -56 -77 -56q-26 0 -43 17l-28 40q-70 -64 -152 -64q-23 0 -46.5 7.5t-42 24.5t-30.5 44.5t-12 68.5q0 107 106 141q38 17 71.5 25t58 18.5t39 29.5t14.5 58q0 13 -0.5 22t-1.5 14l-29 57q-22 37 -80 37q-20 0 -34 -14t-26 -30.5t-24.5 -30t-29.5 -13.5
q-11 0 -21 9t-10 20q0 18 17 35.5t43.5 31t58.5 22t62 8.5q47 0 79 -10t52 -31t28.5 -54.5t8.5 -80.5q0 -8 -0.5 -24t-1 -34t-1 -34t-0.5 -24q0 -13 1.5 -37t1.5 -37v-40q0 -11 -0.5 -18.5t-0.5 -13.5q0 -38 4.5 -54t12 -21.5t16.5 -5t17 -3.5zM328 223q0 26 -1.5 49
t-3.5 43q-15 -9 -27.5 -15t-27.5 -12t-35 -15t-51 -24q-48 -29 -48 -129q0 -12 9.5 -28t24 -29.5t30.5 -23t28 -9.5q102 0 102 193zM332 708q0 -21 -49 -36l-68 -16q-4 -1 -14.5 -7t-13.5 -6h-17l-7 8v15q107 65 131 65q38 0 38 -23z" />
    <glyph glyph-name="acircumflex" unicode="&#xe2;" 
d="M474 62q-17 -56 -77 -56q-26 0 -43 17l-28 40q-70 -64 -152 -64q-23 0 -46.5 7.5t-42 24.5t-30.5 44.5t-12 68.5q0 107 106 141q38 17 71.5 25t58 18.5t39 29.5t14.5 58q0 13 -0.5 22t-1.5 14l-29 57q-22 37 -80 37q-20 0 -34 -14t-26 -30.5t-24.5 -30t-29.5 -13.5
q-11 0 -21 9t-10 20q0 18 17 35.5t43.5 31t58.5 22t62 8.5q47 0 79 -10t52 -31t28.5 -54.5t8.5 -80.5q0 -8 -0.5 -24t-1 -34t-1 -34t-0.5 -24q0 -13 1.5 -37t1.5 -37v-40q0 -11 -0.5 -18.5t-0.5 -13.5q0 -38 4.5 -54t12 -21.5t16.5 -5t17 -3.5zM328 223q0 26 -1.5 49
t-3.5 43q-15 -9 -27.5 -15t-27.5 -12t-35 -15t-51 -24q-48 -29 -48 -129q0 -12 9.5 -28t24 -29.5t30.5 -23t28 -9.5q102 0 102 193zM349 664q0 -15 -17 -15q-19 0 -45 20l-40 32q-65 -53 -89 -53q-13 0 -13 16q0 8 13.5 20t31 22.5t34.5 18t23 7.5q9 0 26 -7.5t34 -18.5
t29.5 -22.5t12.5 -19.5z" />
    <glyph glyph-name="atilde" unicode="&#xe3;" 
d="M474 62q-17 -56 -77 -56q-26 0 -43 17l-28 40q-70 -64 -152 -64q-23 0 -46.5 7.5t-42 24.5t-30.5 44.5t-12 68.5q0 107 106 141q38 17 71.5 25t58 18.5t39 29.5t14.5 58q0 13 -0.5 22t-1.5 14l-29 57q-22 37 -80 37q-20 0 -34 -14t-26 -30.5t-24.5 -30t-29.5 -13.5
q-11 0 -21 9t-10 20q0 18 17 35.5t43.5 31t58.5 22t62 8.5q47 0 79 -10t52 -31t28.5 -54.5t8.5 -80.5q0 -8 -0.5 -24t-1 -34t-1 -34t-0.5 -24q0 -13 1.5 -37t1.5 -37v-40q0 -11 -0.5 -18.5t-0.5 -13.5q0 -38 4.5 -54t12 -21.5t16.5 -5t17 -3.5zM328 223q0 26 -1.5 49
t-3.5 43q-15 -9 -27.5 -15t-27.5 -12t-35 -15t-51 -24q-48 -29 -48 -129q0 -12 9.5 -28t24 -29.5t30.5 -23t28 -9.5q102 0 102 193zM366 719q0 -11 -7 -23t-18 -22t-24 -16t-25 -6q-9 0 -27 8.5t-36.5 18.5t-33.5 18.5t-18 8.5q-11 0 -21 -16q-2 -9 -6 -17q-3 -7 -6.5 -13
t-7.5 -8q-9 4 -9 13q0 11 7 22.5t17.5 20.5t22.5 14.5t22 5.5q12 0 31.5 -7.5t38 -17t33.5 -17t18 -7.5q8 0 12.5 4t8.5 11t8 16t11 20q9 -8 9 -11z" />
    <glyph glyph-name="adieresis" unicode="&#xe4;" 
d="M474 62q-17 -56 -77 -56q-26 0 -43 17l-28 40q-70 -64 -152 -64q-23 0 -46.5 7.5t-42 24.5t-30.5 44.5t-12 68.5q0 107 106 141q38 17 71.5 25t58 18.5t39 29.5t14.5 58q0 13 -0.5 22t-1.5 14l-29 57q-22 37 -80 37q-20 0 -34 -14t-26 -30.5t-24.5 -30t-29.5 -13.5
q-11 0 -21 9t-10 20q0 18 17 35.5t43.5 31t58.5 22t62 8.5q47 0 79 -10t52 -31t28.5 -54.5t8.5 -80.5q0 -8 -0.5 -24t-1 -34t-1 -34t-0.5 -24q0 -13 1.5 -37t1.5 -37v-40q0 -11 -0.5 -18.5t-0.5 -13.5q0 -38 4.5 -54t12 -21.5t16.5 -5t17 -3.5zM328 223q0 26 -1.5 49
t-3.5 43q-15 -9 -27.5 -15t-27.5 -12t-35 -15t-51 -24q-48 -29 -48 -129q0 -12 9.5 -28t24 -29.5t30.5 -23t28 -9.5q102 0 102 193zM367 695q0 -22 -14.5 -36.5t-36.5 -14.5q-49 0 -49 51q0 21 13.5 36.5t35.5 15.5t36.5 -15.5t14.5 -36.5zM228 695q0 -47 -51 -47t-51 47
q0 21 14.5 35.5t36.5 14.5q23 0 37 -14.5t14 -35.5z" />
    <glyph glyph-name="aring" unicode="&#xe5;" 
d="M474 62q-17 -56 -77 -56q-26 0 -43 17l-28 40q-70 -64 -152 -64q-23 0 -46.5 7.5t-42 24.5t-30.5 44.5t-12 68.5q0 107 106 141q38 17 71.5 25t58 18.5t39 29.5t14.5 58q0 13 -0.5 22t-1.5 14l-29 57q-22 37 -80 37q-20 0 -34 -14t-26 -30.5t-24.5 -30t-29.5 -13.5
q-11 0 -21 9t-10 20q0 18 17 35.5t43.5 31t58.5 22t62 8.5q47 0 79 -10t52 -31t28.5 -54.5t8.5 -80.5q0 -8 -0.5 -24t-1 -34t-1 -34t-0.5 -24q0 -13 1.5 -37t1.5 -37v-40q0 -11 -0.5 -18.5t-0.5 -13.5q0 -38 4.5 -54t12 -21.5t16.5 -5t17 -3.5zM328 223q0 26 -1.5 49
t-3.5 43q-15 -9 -27.5 -15t-27.5 -12t-35 -15t-51 -24q-48 -29 -48 -129q0 -12 9.5 -28t24 -29.5t30.5 -23t28 -9.5q102 0 102 193zM332 664q0 -29 -24.5 -45.5t-60.5 -16.5q-35 0 -60 16.5t-25 45.5q0 27 25.5 44t59.5 17q35 0 60 -17t25 -44zM311 664q0 20 -18.5 32.5
t-45.5 12.5t-44.5 -12.5t-17.5 -32.5t17 -32.5t45 -12.5t46 12.5t18 32.5z" />
    <glyph glyph-name="ae" unicode="&#xe6;" horiz-adv-x="779" 
d="M740 339q-14 -11 -28 -11q-12 0 -37 0.5t-53 1t-53.5 1t-37.5 0.5q-35 0 -55.5 -2t-31 -5.5t-14 -9.5t-3.5 -15q0 -68 8 -105q0 -3 3.5 -11t7.5 -18.5t7.5 -21t3.5 -19.5q0 -12 12 -27.5t29 -30t34.5 -24.5t29.5 -10q77 0 139 78h14q4 -3 4 -12q0 -3 -6 -11.5t-14.5 -18
t-16.5 -17.5t-11 -10l-24 -10q-22 -9 -42 -19.5t-47 -10.5h-24q-40 0 -57 5l-21 11q-65 35 -83 62q-17 -16 -40.5 -30.5t-50.5 -25.5t-55 -17.5t-53 -6.5q-17 0 -34.5 5.5t-33.5 15.5t-29.5 23t-22.5 28q-11 19 -11 73q0 34 10 58.5t30 42.5t50 32.5t70 29.5q24 6 47 11
t41.5 15.5t29.5 29.5t11 53q0 13 -0.5 22t-1.5 14l-15 31q-17 36 -36 49.5t-58 13.5q-20 0 -34 -14t-26 -30.5t-24.5 -30t-29.5 -13.5q-11 0 -21 9t-10 20q0 18 17 35.5t43.5 31t58.5 22t62 8.5q121 0 153 -75q15 20 29.5 33.5t31.5 21.5t36.5 11.5t45.5 3.5
q40 0 74.5 -18.5t59.5 -49.5t39 -72t14 -86v-14zM672 376q-6 52 -14 84.5t-21 50.5t-32 24.5t-47 6.5q-20 0 -41.5 -16t-39 -40t-29 -51.5t-11.5 -49.5q0 -20 26 -20q5 0 14 2t14 2q6 0 21 -3.5t22 -3.5t19 3.5t19 3.5q10 0 28.5 -2t28.5 -2q32 0 43 11zM328 215
q0 6 -3 19.5t-3 20.5t1.5 21.5t1.5 22.5q0 2 -0.5 6t-1.5 10q-4 -3 -27.5 -13t-68.5 -29q-54 -23 -73.5 -57t-19.5 -96q0 -12 9.5 -28t24 -29.5t30.5 -23t28 -9.5q102 0 102 185z" />
    <glyph glyph-name="ccedilla" unicode="&#xe7;" horiz-adv-x="458" 
d="M418 495q0 -25 -22 -25q-14 0 -22 12t-18.5 27t-27.5 27t-48 12q-27 0 -48 -14.5t-36 -38.5t-25.5 -54t-16.5 -60.5t-8.5 -59t-2.5 -48.5q0 -9 4.5 -28t4.5 -28q1 -37 12.5 -70.5t31 -59t45.5 -40.5t56 -15q13 0 27.5 5.5t28.5 14.5t27 20.5t22 23.5q5 -1 9 -5
q-2 -17 -19.5 -34t-41.5 -31t-50 -23t-45 -9q-21 0 -47 5.5t-52 20t-49 39t-38 62.5l-13 57q-15 49 -15 85q0 6 9 59v34q0 4 0.5 8.5t1.5 9.5q58 201 228 201q25 0 50 -6t44.5 -16.5t31.5 -25t12 -32.5zM302 -66q0 -20 -12 -37.5t-31.5 -31t-44.5 -21t-52 -7.5v15
q34 0 57.5 18t23.5 50q0 21 -11.5 36t-32.5 15l14 40l36 4l-16 -29q8 2 9 2q9 0 19.5 -5.5t19.5 -13.5t15 -17.5t6 -17.5z" />
    <glyph glyph-name="egrave" unicode="&#xe8;" 
d="M453 339q-14 -11 -28 -11q-12 0 -37.5 0.5t-53.5 1t-53.5 1t-36.5 0.5q-35 0 -55.5 -1.5t-31.5 -5.5t-14 -10t-3 -15q0 -65 8 -105l21 -54v-16q7 -15 17 -31t23.5 -29.5t30 -22.5t34.5 -9q77 0 139 78h15q4 -3 4 -12q0 -3 -6.5 -11.5t-15 -18t-16 -17.5t-10.5 -11
q-15 -3 -28 -9.5l-26 -13t-27.5 -11.5t-31.5 -5q-32 0 -52 1.5t-30 3.5l-21 11q-17 6 -35.5 20.5t-42.5 35.5q-6 5 -15.5 30t-18 55t-15 58t-6.5 39q0 33 6 68.5t16.5 68.5t25.5 61.5t32 46.5q15 16 26.5 30t26.5 25t38 17.5t60 6.5q41 0 75.5 -19t59 -50.5t38.5 -73.5
t14 -87v-10zM384 376q-6 52 -14 84.5t-20.5 50.5t-31.5 24.5t-47 6.5q-67 0 -109 -109q-12 -32 -12 -48q0 -20 25 -20q5 0 14 2t14 2q7 0 22 -3.5t22 -3.5t19 3.5t18 3.5q9 0 26 -2t25 -2q38 0 49 11zM332 646l-8 -8h-17q-4 0 -14 6t-14 7l-68 16q-49 15 -49 36q0 23 37 23
q26 0 133 -65v-15z" />
    <glyph glyph-name="eacute" unicode="&#xe9;" 
d="M453 339q-14 -11 -28 -11q-12 0 -37.5 0.5t-53.5 1t-53.5 1t-36.5 0.5q-35 0 -55.5 -1.5t-31.5 -5.5t-14 -10t-3 -15q0 -65 8 -105l21 -54v-16q7 -15 17 -31t23.5 -29.5t30 -22.5t34.5 -9q77 0 139 78h15q4 -3 4 -12q0 -3 -6.5 -11.5t-15 -18t-16 -17.5t-10.5 -11
q-15 -3 -28 -9.5l-26 -13t-27.5 -11.5t-31.5 -5q-32 0 -52 1.5t-30 3.5l-21 11q-17 6 -35.5 20.5t-42.5 35.5q-6 5 -15.5 30t-18 55t-15 58t-6.5 39q0 33 6 68.5t16.5 68.5t25.5 61.5t32 46.5q15 16 26.5 30t26.5 25t38 17.5t60 6.5q41 0 75.5 -19t59 -50.5t38.5 -73.5
t14 -87v-10zM384 376q-6 52 -14 84.5t-20.5 50.5t-31.5 24.5t-47 6.5q-67 0 -109 -109q-12 -32 -12 -48q0 -20 25 -20q5 0 14 2t14 2q7 0 22 -3.5t22 -3.5t19 3.5t18 3.5q9 0 26 -2t25 -2q38 0 49 11zM332 708q0 -21 -49 -36l-68 -16q-4 -1 -14.5 -7t-13.5 -6h-17l-7 8v15
q107 65 131 65q38 0 38 -23z" />
    <glyph glyph-name="ecircumflex" unicode="&#xea;" 
d="M453 339q-14 -11 -28 -11q-12 0 -37.5 0.5t-53.5 1t-53.5 1t-36.5 0.5q-35 0 -55.5 -1.5t-31.5 -5.5t-14 -10t-3 -15q0 -65 8 -105l21 -54v-16q7 -15 17 -31t23.5 -29.5t30 -22.5t34.5 -9q77 0 139 78h15q4 -3 4 -12q0 -3 -6.5 -11.5t-15 -18t-16 -17.5t-10.5 -11
q-15 -3 -28 -9.5l-26 -13t-27.5 -11.5t-31.5 -5q-32 0 -52 1.5t-30 3.5l-21 11q-17 6 -35.5 20.5t-42.5 35.5q-6 5 -15.5 30t-18 55t-15 58t-6.5 39q0 33 6 68.5t16.5 68.5t25.5 61.5t32 46.5q15 16 26.5 30t26.5 25t38 17.5t60 6.5q41 0 75.5 -19t59 -50.5t38.5 -73.5
t14 -87v-10zM384 376q-6 52 -14 84.5t-20.5 50.5t-31.5 24.5t-47 6.5q-67 0 -109 -109q-12 -32 -12 -48q0 -20 25 -20q5 0 14 2t14 2q7 0 22 -3.5t22 -3.5t19 3.5t18 3.5q9 0 26 -2t25 -2q38 0 49 11zM349 664q0 -15 -17 -15q-19 0 -45 20l-40 32q-65 -53 -89 -53
q-13 0 -13 16q0 8 13.5 20t31 22.5t34.5 18t23 7.5q9 0 26 -7.5t34 -18.5t29.5 -22.5t12.5 -19.5z" />
    <glyph glyph-name="edieresis" unicode="&#xeb;" 
d="M453 339q-14 -11 -28 -11q-12 0 -37.5 0.5t-53.5 1t-53.5 1t-36.5 0.5q-35 0 -55.5 -1.5t-31.5 -5.5t-14 -10t-3 -15q0 -65 8 -105l21 -54v-16q7 -15 17 -31t23.5 -29.5t30 -22.5t34.5 -9q77 0 139 78h15q4 -3 4 -12q0 -3 -6.5 -11.5t-15 -18t-16 -17.5t-10.5 -11
q-15 -3 -28 -9.5l-26 -13t-27.5 -11.5t-31.5 -5q-32 0 -52 1.5t-30 3.5l-21 11q-17 6 -35.5 20.5t-42.5 35.5q-6 5 -15.5 30t-18 55t-15 58t-6.5 39q0 33 6 68.5t16.5 68.5t25.5 61.5t32 46.5q15 16 26.5 30t26.5 25t38 17.5t60 6.5q41 0 75.5 -19t59 -50.5t38.5 -73.5
t14 -87v-10zM384 376q-6 52 -14 84.5t-20.5 50.5t-31.5 24.5t-47 6.5q-67 0 -109 -109q-12 -32 -12 -48q0 -20 25 -20q5 0 14 2t14 2q7 0 22 -3.5t22 -3.5t19 3.5t18 3.5q9 0 26 -2t25 -2q38 0 49 11zM367 695q0 -22 -14.5 -36.5t-36.5 -14.5q-49 0 -49 51q0 21 13.5 36.5
t35.5 15.5t36.5 -15.5t14.5 -36.5zM228 695q0 -47 -51 -47t-51 47q0 21 14.5 35.5t36.5 14.5q23 0 37 -14.5t14 -35.5z" />
    <glyph glyph-name="igrave" unicode="&#xec;" horiz-adv-x="198" 
d="M168 13q-32 -12 -49 -12q-10 0 -29.5 2t-49.5 6q10 11 18 35q0 30 0.5 69t1 79.5t1.5 79t1.5 68.5t1 48t0.5 17q0 19 -1 39.5t-4 38.5t-7.5 32.5t-11.5 20.5q5 6 17.5 12.5t32.5 11.5l57 12q7 -20 7.5 -53t6.5 -93v-22q0 -14 -0.5 -22t-1 -18t-1.5 -25.5t-1.5 -44
t-1 -74.5t-0.5 -116q0 -3 1.5 -17t4 -29.5t4.5 -29t3 -15.5zM188 646l-8 -8h-17q-4 0 -14 6t-14 7l-68 16q-49 15 -49 36q0 23 37 23q26 0 133 -65v-15z" />
    <glyph glyph-name="iacute" unicode="&#xed;" horiz-adv-x="198" 
d="M168 13q-32 -12 -49 -12q-10 0 -29.5 2t-49.5 6q10 11 18 35q0 30 0.5 69t1 79.5t1.5 79t1.5 68.5t1 48t0.5 17q0 19 -1 39.5t-4 38.5t-7.5 32.5t-11.5 20.5q5 6 17.5 12.5t32.5 11.5l57 12q7 -20 7.5 -53t6.5 -93v-22q0 -14 -0.5 -22t-1 -18t-1.5 -25.5t-1.5 -44
t-1 -74.5t-0.5 -116q0 -3 1.5 -17t4 -29.5t4.5 -29t3 -15.5zM187 708q0 -21 -49 -36l-68 -16q-4 -1 -14.5 -7t-13.5 -6h-17l-7 8v15q107 65 131 65q38 0 38 -23z" />
    <glyph glyph-name="icircumflex" unicode="&#xee;" horiz-adv-x="198" 
d="M168 13q-32 -12 -49 -12q-10 0 -29.5 2t-49.5 6q10 11 18 35q0 30 0.5 69t1 79.5t1.5 79t1.5 68.5t1 48t0.5 17q0 19 -1 39.5t-4 38.5t-7.5 32.5t-11.5 20.5q5 6 17.5 12.5t32.5 11.5l57 12q7 -20 7.5 -53t6.5 -93v-22q0 -14 -0.5 -22t-1 -18t-1.5 -25.5t-1.5 -44
t-1 -74.5t-0.5 -116q0 -3 1.5 -17t4 -29.5t4.5 -29t3 -15.5zM204 664q0 -15 -17 -15q-19 0 -45 20l-40 32q-65 -53 -89 -53q-13 0 -13 16q0 8 13.5 20t31 22.5t34.5 18t23 7.5q9 0 26 -7.5t34 -18.5t29.5 -22.5t12.5 -19.5z" />
    <glyph glyph-name="idieresis" unicode="&#xef;" horiz-adv-x="198" 
d="M168 13q-32 -12 -49 -12q-10 0 -29.5 2t-49.5 6q10 11 18 35q0 30 0.5 69t1 79.5t1.5 79t1.5 68.5t1 48t0.5 17q0 19 -1 39.5t-4 38.5t-7.5 32.5t-11.5 20.5q5 6 17.5 12.5t32.5 11.5l57 12q7 -20 7.5 -53t6.5 -93v-22q0 -14 -0.5 -22t-1 -18t-1.5 -25.5t-1.5 -44
t-1 -74.5t-0.5 -116q0 -3 1.5 -17t4 -29.5t4.5 -29t3 -15.5zM223 695q0 -22 -14.5 -36.5t-36.5 -14.5q-49 0 -49 51q0 21 13.5 36.5t35.5 15.5t36.5 -15.5t14.5 -36.5zM84 695q0 -47 -51 -47t-51 47q0 21 14.5 35.5t36.5 14.5q23 0 37 -14.5t14 -35.5z" />
    <glyph glyph-name="ntilde" unicode="&#xf1;" horiz-adv-x="462" 
d="M441 9q-35 -5 -64.5 -7.5t-55.5 -2.5q-10 0 -26 9q5 5 12.5 11.5t17.5 16.5q0 3 0.5 20t1.5 39.5t1.5 45t0.5 35.5v232q0 25 -7.5 49.5t-19.5 43.5t-28 30.5t-33 11.5q-24 0 -38 -8q-8 -4 -18.5 -15.5t-19.5 -25.5t-15.5 -27t-6.5 -20v-310q0 -5 3 -15l6 -16
q-6 -12 -6 -30q0 -25 14 -65q-51 -12 -93 -12q-9 0 -36 8q20 51 20 72v357q0 13 -0.5 28.5t-3 29t-7 24.5t-13.5 16q2 3 16.5 9t32 12t33 10.5t20.5 4.5q6 0 10.5 -4.5t7.5 -10.5t6 -10.5t7 -4.5q20 11 47.5 24t64.5 13q52 0 82 -8.5t45 -33.5t19 -70.5t4 -119.5v-99v-61.5
t0.5 -48t1 -46t1.5 -55.5zM354 719q0 -11 -7 -23t-18 -22t-24 -16t-25 -6q-9 0 -27 8.5t-36.5 18.5t-33.5 18.5t-18 8.5q-11 0 -21 -16q-2 -9 -6 -17q-3 -7 -6.5 -13t-7.5 -8q-9 4 -9 13q0 11 7 22.5t17.5 20.5t22.5 14.5t22 5.5q12 0 31.5 -7.5t38 -17t33.5 -17t18 -7.5
q8 0 12.5 4t8.5 11t8 16t11 20q9 -8 9 -11z" />
    <glyph glyph-name="ograve" unicode="&#xf2;" horiz-adv-x="497" 
d="M466 306q0 -86 -13.5 -146t-43 -98t-76 -55t-112.5 -17q-50 0 -85 23t-56.5 68.5t-31 114t-9.5 160.5q0 31 16 92q4 17 11 29.5t17 24.5t23.5 24.5t31.5 29.5q3 3 16.5 9t34.5 12t47.5 10.5t55.5 4.5q4 0 15.5 -3t25 -7.5t25 -8.5t16.5 -7q22 -14 39 -40.5t29 -61
t18 -75.5t6 -83zM375 264q0 61 -10 114.5t-27.5 93.5t-41 63t-51.5 23q-35 0 -54 -14.5t-29 -39.5t-13.5 -60t-6.5 -75q-1 -6 -5 -22t-4 -24q0 -5 1.5 -15.5t3 -22.5t3 -22.5t1.5 -15.5v-24q0 -25 1.5 -37.5t4 -21.5t7 -18.5t10.5 -28.5q14 -48 39 -70.5t67 -22.5
q40 0 55.5 12.5t23.5 43.5l8 37q11 41 14 74.5t3 72.5zM337 646l-8 -8h-17q-4 0 -14 6t-14 7l-68 16q-49 15 -49 36q0 23 37 23q26 0 133 -65v-15z" />
    <glyph glyph-name="oacute" unicode="&#xf3;" horiz-adv-x="497" 
d="M466 306q0 -86 -13.5 -146t-43 -98t-76 -55t-112.5 -17q-50 0 -85 23t-56.5 68.5t-31 114t-9.5 160.5q0 31 16 92q4 17 11 29.5t17 24.5t23.5 24.5t31.5 29.5q3 3 16.5 9t34.5 12t47.5 10.5t55.5 4.5q4 0 15.5 -3t25 -7.5t25 -8.5t16.5 -7q22 -14 39 -40.5t29 -61
t18 -75.5t6 -83zM375 264q0 61 -10 114.5t-27.5 93.5t-41 63t-51.5 23q-35 0 -54 -14.5t-29 -39.5t-13.5 -60t-6.5 -75q-1 -6 -5 -22t-4 -24q0 -5 1.5 -15.5t3 -22.5t3 -22.5t1.5 -15.5v-24q0 -25 1.5 -37.5t4 -21.5t7 -18.5t10.5 -28.5q14 -48 39 -70.5t67 -22.5
q40 0 55.5 12.5t23.5 43.5l8 37q11 41 14 74.5t3 72.5zM337 708q0 -21 -49 -36l-68 -16q-4 -1 -14.5 -7t-13.5 -6h-17l-7 8v15q107 65 131 65q38 0 38 -23z" />
    <glyph glyph-name="ocircumflex" unicode="&#xf4;" horiz-adv-x="497" 
d="M466 306q0 -86 -13.5 -146t-43 -98t-76 -55t-112.5 -17q-50 0 -85 23t-56.5 68.5t-31 114t-9.5 160.5q0 31 16 92q4 17 11 29.5t17 24.5t23.5 24.5t31.5 29.5q3 3 16.5 9t34.5 12t47.5 10.5t55.5 4.5q4 0 15.5 -3t25 -7.5t25 -8.5t16.5 -7q22 -14 39 -40.5t29 -61
t18 -75.5t6 -83zM375 264q0 61 -10 114.5t-27.5 93.5t-41 63t-51.5 23q-35 0 -54 -14.5t-29 -39.5t-13.5 -60t-6.5 -75q-1 -6 -5 -22t-4 -24q0 -5 1.5 -15.5t3 -22.5t3 -22.5t1.5 -15.5v-24q0 -25 1.5 -37.5t4 -21.5t7 -18.5t10.5 -28.5q14 -48 39 -70.5t67 -22.5
q40 0 55.5 12.5t23.5 43.5l8 37q11 41 14 74.5t3 72.5zM353 664q0 -15 -17 -15q-19 0 -45 20l-40 32q-65 -53 -89 -53q-13 0 -13 16q0 8 13.5 20t31 22.5t34.5 18t23 7.5q9 0 26 -7.5t34 -18.5t29.5 -22.5t12.5 -19.5z" />
    <glyph glyph-name="otilde" unicode="&#xf5;" horiz-adv-x="497" 
d="M466 306q0 -86 -13.5 -146t-43 -98t-76 -55t-112.5 -17q-50 0 -85 23t-56.5 68.5t-31 114t-9.5 160.5q0 31 16 92q4 17 11 29.5t17 24.5t23.5 24.5t31.5 29.5q3 3 16.5 9t34.5 12t47.5 10.5t55.5 4.5q4 0 15.5 -3t25 -7.5t25 -8.5t16.5 -7q22 -14 39 -40.5t29 -61
t18 -75.5t6 -83zM375 264q0 61 -10 114.5t-27.5 93.5t-41 63t-51.5 23q-35 0 -54 -14.5t-29 -39.5t-13.5 -60t-6.5 -75q-1 -6 -5 -22t-4 -24q0 -5 1.5 -15.5t3 -22.5t3 -22.5t1.5 -15.5v-24q0 -25 1.5 -37.5t4 -21.5t7 -18.5t10.5 -28.5q14 -48 39 -70.5t67 -22.5
q40 0 55.5 12.5t23.5 43.5l8 37q11 41 14 74.5t3 72.5zM371 719q0 -11 -7 -23t-18 -22t-24 -16t-25 -6q-9 0 -27 8.5t-36.5 18.5t-33.5 18.5t-18 8.5q-11 0 -21 -16q-2 -9 -6 -17q-3 -7 -6.5 -13t-7.5 -8q-9 4 -9 13q0 11 7 22.5t17.5 20.5t22.5 14.5t22 5.5q12 0 31.5 -7.5
t38 -17t33.5 -17t18 -7.5q8 0 12.5 4t8.5 11t8 16t11 20q9 -8 9 -11z" />
    <glyph glyph-name="odieresis" unicode="&#xf6;" horiz-adv-x="497" 
d="M466 306q0 -86 -13.5 -146t-43 -98t-76 -55t-112.5 -17q-50 0 -85 23t-56.5 68.5t-31 114t-9.5 160.5q0 31 16 92q4 17 11 29.5t17 24.5t23.5 24.5t31.5 29.5q3 3 16.5 9t34.5 12t47.5 10.5t55.5 4.5q4 0 15.5 -3t25 -7.5t25 -8.5t16.5 -7q22 -14 39 -40.5t29 -61
t18 -75.5t6 -83zM375 264q0 61 -10 114.5t-27.5 93.5t-41 63t-51.5 23q-35 0 -54 -14.5t-29 -39.5t-13.5 -60t-6.5 -75q-1 -6 -5 -22t-4 -24q0 -5 1.5 -15.5t3 -22.5t3 -22.5t1.5 -15.5v-24q0 -25 1.5 -37.5t4 -21.5t7 -18.5t10.5 -28.5q14 -48 39 -70.5t67 -22.5
q40 0 55.5 12.5t23.5 43.5l8 37q11 41 14 74.5t3 72.5zM372 695q0 -22 -14.5 -36.5t-36.5 -14.5q-49 0 -49 51q0 21 13.5 36.5t35.5 15.5t36.5 -15.5t14.5 -36.5zM233 695q0 -47 -51 -47t-51 47q0 21 14.5 35.5t36.5 14.5q23 0 37 -14.5t14 -35.5z" />
    <glyph glyph-name="oslash" unicode="&#xf8;" horiz-adv-x="497" 
d="M463 296q0 -89 -16.5 -147.5t-47.5 -94t-75.5 -50t-100.5 -14.5q-95 0 -140.5 72.5t-45.5 235.5q0 57 4 98t14 67q12 32 36 56t54.5 40.5t65 24.5t67.5 8q185 0 185 -296zM331 483q-41 75 -101 75q-24 0 -42.5 -12t-30.5 -40.5t-18 -76t-6 -117.5q0 -105 17 -173z
M372 267q0 113 -26 183l-184 -348q33 -81 103 -81q27 0 47 11.5t33.5 39.5t20 75.5t6.5 119.5z" />
    <glyph glyph-name="ugrave" unicode="&#xf9;" horiz-adv-x="473" 
d="M402 13q-42 -11 -46 -11q-12 0 -19.5 6.5t-12 14.5t-6 15t-2.5 9q-25 -19 -49.5 -35.5t-58.5 -16.5q-84 0 -122.5 44.5t-38.5 150.5q0 7 0.5 22.5t1 32.5t1 32t0.5 23v196q0 14 -31 41q4 4 17.5 9.5t29 11t30 9t21.5 3.5h21q3 -27 6 -118l3 -209q0 -7 -0.5 -17.5l-1 -21
t-1 -20t-0.5 -13.5q0 -138 100 -138q13 0 27.5 9t26.5 22.5t19.5 29t7.5 29.5v357v17.5t-2.5 12t-8 11.5t-16.5 16q47 29 125 29v-42.5t-0.5 -60t-0.5 -72.5v-79q0 -75 1 -144.5t5 -115.5q8 -4 26 -25zM324 646l-8 -8h-17q-4 0 -14 6t-14 7l-68 16q-49 15 -49 36q0 23 37 23
q26 0 133 -65v-15z" />
    <glyph glyph-name="uacute" unicode="&#xfa;" horiz-adv-x="473" 
d="M402 13q-42 -11 -46 -11q-12 0 -19.5 6.5t-12 14.5t-6 15t-2.5 9q-25 -19 -49.5 -35.5t-58.5 -16.5q-84 0 -122.5 44.5t-38.5 150.5q0 7 0.5 22.5t1 32.5t1 32t0.5 23v196q0 14 -31 41q4 4 17.5 9.5t29 11t30 9t21.5 3.5h21q3 -27 6 -118l3 -209q0 -7 -0.5 -17.5l-1 -21
t-1 -20t-0.5 -13.5q0 -138 100 -138q13 0 27.5 9t26.5 22.5t19.5 29t7.5 29.5v357v17.5t-2.5 12t-8 11.5t-16.5 16q47 29 125 29v-42.5t-0.5 -60t-0.5 -72.5v-79q0 -75 1 -144.5t5 -115.5q8 -4 26 -25zM324 708q0 -21 -49 -36l-68 -16q-4 -1 -14.5 -7t-13.5 -6h-17l-7 8v15
q107 65 131 65q38 0 38 -23z" />
    <glyph glyph-name="ucircumflex" unicode="&#xfb;" horiz-adv-x="473" 
d="M402 13q-42 -11 -46 -11q-12 0 -19.5 6.5t-12 14.5t-6 15t-2.5 9q-25 -19 -49.5 -35.5t-58.5 -16.5q-84 0 -122.5 44.5t-38.5 150.5q0 7 0.5 22.5t1 32.5t1 32t0.5 23v196q0 14 -31 41q4 4 17.5 9.5t29 11t30 9t21.5 3.5h21q3 -27 6 -118l3 -209q0 -7 -0.5 -17.5l-1 -21
t-1 -20t-0.5 -13.5q0 -138 100 -138q13 0 27.5 9t26.5 22.5t19.5 29t7.5 29.5v357v17.5t-2.5 12t-8 11.5t-16.5 16q47 29 125 29v-42.5t-0.5 -60t-0.5 -72.5v-79q0 -75 1 -144.5t5 -115.5q8 -4 26 -25zM342 664q0 -15 -17 -15q-19 0 -45 20l-40 32q-65 -53 -89 -53
q-13 0 -13 16q0 8 13.5 20t31 22.5t34.5 18t23 7.5q9 0 26 -7.5t34 -18.5t29.5 -22.5t12.5 -19.5z" />
    <glyph glyph-name="udieresis" unicode="&#xfc;" horiz-adv-x="473" 
d="M402 13q-42 -11 -46 -11q-12 0 -19.5 6.5t-12 14.5t-6 15t-2.5 9q-25 -19 -49.5 -35.5t-58.5 -16.5q-84 0 -122.5 44.5t-38.5 150.5q0 7 0.5 22.5t1 32.5t1 32t0.5 23v196q0 14 -31 41q4 4 17.5 9.5t29 11t30 9t21.5 3.5h21q3 -27 6 -118l3 -209q0 -7 -0.5 -17.5l-1 -21
t-1 -20t-0.5 -13.5q0 -138 100 -138q13 0 27.5 9t26.5 22.5t19.5 29t7.5 29.5v357v17.5t-2.5 12t-8 11.5t-16.5 16q47 29 125 29v-42.5t-0.5 -60t-0.5 -72.5v-79q0 -75 1 -144.5t5 -115.5q8 -4 26 -25zM360 695q0 -22 -14.5 -36.5t-36.5 -14.5q-49 0 -49 51q0 21 13.5 36.5
t35.5 15.5t36.5 -15.5t14.5 -36.5zM221 695q0 -47 -51 -47t-51 47q0 21 14.5 35.5t36.5 14.5q23 0 37 -14.5t14 -35.5z" />
    <glyph glyph-name="yacute" unicode="&#xfd;" horiz-adv-x="441" 
d="M427 559q-18 -11 -23 -23q-5 -4 -17.5 -42t-31.5 -100.5t-43.5 -143.5t-52.5 -170l-30 -95q-9 -29 -19 -51.5t-19 -40.5q-4 -7 -17.5 -17.5t-32.5 -20t-41 -16.5t-42 -7q-55 0 -55 28q0 22 34 22q7 0 20 -1.5t20 -1.5q26 0 49 14.5t40 37.5t27 53t10 60q-1 9 -10 42
t-29 93l-73 224q-18 54 -33.5 93t-27.5 65q19 8 26 8q9 0 27 -2t27 -2q4 0 12 1t12 1q15 0 25 -7q-13 -10 -13 -22q0 -4 18 -56q28 -83 45 -154.5t41 -126.5q7 1 9 5l17 49q9 26 18 55t19 61l5 12.5t11.5 31t14 40.5t14 41t11 31.5t4.5 13.5q0 9 -6 20q3 1 15 1q6 0 45 -3z
M308 708q0 -21 -49 -36l-68 -16q-4 -1 -14.5 -7t-13.5 -6h-17l-7 8v15q107 65 131 65q38 0 38 -23z" />
    <glyph glyph-name="ydieresis" unicode="&#xff;" horiz-adv-x="441" 
d="M427 559q-18 -11 -23 -23q-5 -4 -17.5 -42t-31.5 -100.5t-43.5 -143.5t-52.5 -170l-30 -95q-9 -29 -19 -51.5t-19 -40.5q-4 -7 -17.5 -17.5t-32.5 -20t-41 -16.5t-42 -7q-55 0 -55 28q0 22 34 22q7 0 20 -1.5t20 -1.5q26 0 49 14.5t40 37.5t27 53t10 60q-1 9 -10 42
t-29 93l-73 224q-18 54 -33.5 93t-27.5 65q19 8 26 8q9 0 27 -2t27 -2q4 0 12 1t12 1q15 0 25 -7q-13 -10 -13 -22q0 -4 18 -56q28 -83 45 -154.5t41 -126.5q7 1 9 5l17 49q9 26 18 55t19 61l5 12.5t11.5 31t14 40.5t14 41t11 31.5t4.5 13.5q0 9 -6 20q3 1 15 1q6 0 45 -3z
M344 695q0 -22 -14.5 -36.5t-36.5 -14.5q-49 0 -49 51q0 21 13.5 36.5t35.5 15.5t36.5 -15.5t14.5 -36.5zM205 695q0 -47 -51 -47t-51 47q0 21 14.5 35.5t36.5 14.5q23 0 37 -14.5t14 -35.5z" />
    <glyph glyph-name="dotlessi" unicode="&#x131;" horiz-adv-x="198" 
d="M168 13q-32 -12 -49 -12q-10 0 -29.5 2t-49.5 6q10 11 18 35q0 30 0.5 69t1 79.5t1.5 79t1.5 68.5t1 48t0.5 17q0 19 -1 39.5t-4 38.5t-7.5 32.5t-11.5 20.5q5 6 17.5 12.5t32.5 11.5l57 12q7 -20 7.5 -53t6.5 -93v-22q0 -14 -0.5 -22t-1 -18t-1.5 -25.5t-1.5 -44
t-1 -74.5t-0.5 -116q0 -3 1.5 -17t4 -29.5t4.5 -29t3 -15.5z" />
    <glyph glyph-name="OE" unicode="&#x152;" horiz-adv-x="890" 
d="M861 36q0 -36 -31 -36q-8 0 -23 3t-22 3q-6 0 -20 -1.5t-29.5 -3.5t-29.5 -3.5t-21 -1.5q-35 0 -97 2t-155 6l21 29q3 6 5 20q-34 -27 -88 -45.5t-135 -18.5q-27 0 -55.5 16.5t-52.5 42.5t-41 56.5t-21 59.5q-3 16 -6.5 33t-7 41t-6 57.5t-2.5 81.5q0 10 1 29t1 47
q0 10 5 40.5t18.5 67.5t38 74.5t63.5 61.5l54 25q18 8 42 11t52 4q31 0 51 -1.5t33.5 -5t22.5 -8.5t18 -12l-8 12l12 6q51 2 135 3.5t202 1.5q29 0 29 -76l-5 -15q-3 3 -8 11.5t-11 19t-13.5 20.5t-16.5 16q-11 -1 -23.5 -1h-26.5h-81q-22 0 -39 0.5t-31 0.5h-12l-6 -4
l16 -27l-5 -20v-165q4 -26 6 -52.5t2 -54.5q0 -6 -3 -20t-3 -21v-17q0 -14 -0.5 -26.5t-1.5 -25.5v-227q0 -22 34.5 -27t103.5 -5h100q28 0 61 40q10 -10 10 -21zM455 353q0 70 -9.5 134t-27 113t-41.5 78t-53 29q-66 0 -83 -16q-43 -39 -66.5 -114t-23.5 -178v-25
q0 -11 -2.5 -29.5t-2.5 -27.5q0 -51 11 -104t30.5 -96t45 -70t55.5 -27q39 0 70 24t52.5 67.5t33 105t11.5 136.5z" />
    <glyph glyph-name="oe" unicode="&#x153;" horiz-adv-x="842" 
d="M800 339q-11 -11 -27 -11q-13 0 -38.5 0.5t-53.5 1t-53 1t-37 0.5q-8 0 -19 -0.5t-26 -1.5l-43 -3q-15 -12 -15 -27q0 -32 0.5 -51t3.5 -35t8.5 -32t15.5 -41v-16l8 -14t22 -31.5t33 -32t42 -14.5q79 0 139 78h15q5 -3 5 -12t-9 -19.5t-21 -20t-24 -17t-18 -10.5
q-22 -11 -42.5 -20.5t-47.5 -9.5q-32 0 -52 1.5t-30 3.5q-14 10 -42 24.5t-61 47.5q-55 -88 -199 -88q-102 0 -142 91.5t-40 274.5q0 31 16 92q4 16 11 29.5t17 25.5t23.5 24.5t31.5 28.5q3 2 16.5 8t34.5 12t48 11t57 5q5 0 15 -3t23 -7q43 -14 64.5 -36t38.5 -63l15 17
q12 15 23 29t27 25.5t39.5 18t60.5 6.5q41 0 75.5 -18.5t59 -50t38.5 -73.5t14 -88v-10zM384 212q0 5 0.5 9t0.5 8q-3 16 -3 26q0 24 3 48l-8 74q-5 35 -12 62.5t-17 46.5q-15 15 -25 28t-20 22.5t-20 15.5t-25 6q-90 0 -97 -107l-6 -82q-1 -6 -5 -22t-4 -24q0 -5 1.5 -15.5
t3 -22.5t3 -22.5t1.5 -15.5v-24q0 -24 1 -36.5t3.5 -21.5t7 -19t11.5 -29q25 -93 105 -93q41 0 56 13t23 43l9 37q8 35 10.5 45.5t2.5 18.5q0 2 -0.5 5t-0.5 8q0 4 0.5 8t0.5 10zM732 376q-6 52 -14 84.5t-21 50.5t-32 24.5t-47 6.5q-66 0 -109 -109q-12 -32 -12 -48
q0 -20 26 -20q4 0 13.5 2t13.5 2q8 0 22.5 -3.5t22.5 -3.5q5 0 17.5 3.5t18.5 3.5q9 0 26 -2t26 -2q35 0 49 11z" />
    <glyph glyph-name="Scaron" unicode="&#x160;" horiz-adv-x="421" 
d="M396 182q0 -39 -16 -74.5t-43.5 -61.5t-63 -41.5t-74.5 -15.5q-17 0 -43 8.5t-51.5 21.5t-43.5 28t-18 29v59l4 2t5 2q15 -33 29.5 -54.5t29.5 -33.5t33 -16.5t41 -4.5q109 0 109 133q0 58 -36 107.5t-102 104.5l-21 21q-51 36 -76.5 83.5t-25.5 101.5q-1 8 6 24.5
t19 41.5q22 45 69 70.5t106 25.5q40 0 64 -6t36 -18t15.5 -31t3.5 -45v-39q-5 -3 -10 -3q-2 49 -30 78.5t-76 29.5q-20 0 -39 -10.5t-33.5 -27.5t-23.5 -37.5t-9 -40.5q0 -6 4 -19t5 -19q1 -18 8 -35.5t21 -37t36.5 -42.5t55.5 -53q34 -30 56 -53t35.5 -42t20.5 -35.5
t10 -34.5q0 -6 6.5 -20t6.5 -20zM112 855q0 14 18 14q8 -1 19.5 -4.5t25.5 -14.5l39 -32q64 52 89 52q13 0 13 -15q0 -8 -13.5 -19.5t-30.5 -22.5t-34 -19t-24 -8q-8 0 -25 7.5t-34 18t-30 22.5t-13 21z" />
    <glyph glyph-name="scaron" unicode="&#x161;" horiz-adv-x="404" 
d="M378 158q0 -34 -17.5 -64.5t-47 -53t-67 -36t-76.5 -13.5q-6 0 -24.5 6t-38.5 14.5t-36 17.5t-18 14q-6 14 -8.5 31.5t-2.5 37.5q0 10 5 18q3 -2 6.5 -12.5t9.5 -23t14.5 -24.5t20.5 -17q4 -2 15.5 -5.5t24.5 -7t25 -6t16 -2.5q19 0 37.5 9t32 23.5t22 33t8.5 38.5
q0 19 -5.5 34.5t-20.5 30.5t-40.5 30.5t-65.5 33.5q-57 23 -83 67.5t-26 95.5q0 28 13 55t33.5 48t47 35t53.5 17q6 1 19 5.5t19 4.5q41 0 64 -7.5t34 -18.5t13.5 -24t2.5 -23q0 -4 -1.5 -11.5t-3 -16t-2.5 -16t-1 -12.5q-5 42 -34.5 65t-74.5 23q-10 0 -24 -5t-27 -16.5
t-22.5 -30t-9.5 -45.5q0 -21 2.5 -35.5t11 -26.5t24.5 -24t43 -27l67 -38q12 -7 28 -16.5t30.5 -26t24.5 -41.5t10 -62zM103 696q0 14 18 14q8 -1 19.5 -4.5t25.5 -14.5l39 -32q64 52 89 52q13 0 13 -15q0 -8 -13.5 -19.5t-30.5 -22.5t-34 -19t-24 -8q-8 0 -25 7.5t-34 18
t-30 22.5t-13 21z" />
    <glyph glyph-name="Ydieresis" unicode="&#x178;" horiz-adv-x="454" 
d="M432 730l-13.5 -10.5t-8.5 -8t-10 -14.5t-16.5 -31.5t-28 -57.5t-45.5 -93q-13 -27 -21 -46t-12 -35t-5.5 -31t-1.5 -32q0 -81 1 -157.5t4 -142.5l5 -37q7 -7 19 -25q-4 -4 -18 -4q-9 0 -28 3t-28 3q-4 0 -11 -3t-12 -3h-51q2 8 12 17.5t12 17.5q2 13 3.5 48t3 78.5t2 88
t0.5 76.5t-5 52q-3 10 -11 31t-18 44.5t-18 44t-11 29.5q-15 49 -25.5 79.5t-19.5 50.5t-18.5 34.5t-22.5 32.5q28 9 77 9q-1 0 14 0t46 -1l8 -6q0 -3 -3 -8.5t-6.5 -11.5t-6.5 -11t-3 -7q0 -13 27 -92q6 -7 9.5 -15.5t9 -22t14 -33t23.5 -46.5q4 6 13.5 23t21.5 39.5t25 47
t23.5 46t17 37.5t6.5 20q0 13 -14 33q17 4 27.5 6t15.5 2q6 0 19 -2t33 -6zM351 854q0 -22 -14.5 -36.5t-36.5 -14.5q-49 0 -49 51q0 21 13.5 36.5t35.5 15.5t36.5 -15.5t14.5 -36.5zM212 854q0 -47 -51 -47t-51 47q0 21 14.5 35.5t36.5 14.5q23 0 37 -14.5t14 -35.5z" />
    <glyph glyph-name="Zcaron" unicode="&#x17d;" horiz-adv-x="478" 
d="M445 40q0 -39 -29 -39q-8 0 -22 5t-22 5q-4 0 -13.5 -4.5t-13.5 -5.5q-13 -2 -31.5 -3t-41.5 -1l-70 3q-57 2 -99 3t-68 1q-5 3 -5 10q0 1 29 70l34 79q15 39 40.5 99.5t59.5 142.5l49 118q8 10 16 26t20 56q2 7 7.5 18t11.5 23.5t10.5 26t4.5 26.5l-13 8
q-15 1 -42.5 1.5t-69.5 0.5q-24 0 -34.5 1t-16 2.5t-9.5 3t-14 1.5q-28 0 -45 -20l-24 -44q-7 13 -7 36q0 28 15 49q30 -5 47 -7.5t21 -2.5t12 2.5t12 2.5h19q21 0 49.5 0.5t63.5 0.5h133q8 -6 8 -17q-1 -8 -12.5 -41t-37.5 -91l-63 -142q-81 -193 -126.5 -296.5
t-45.5 -111.5q0 -14 21 -14q37 0 61 -0.5t45.5 -1t47.5 -1t67 -0.5q29 0 66 67q0 -7 2.5 -22t2.5 -23zM139 855q0 14 18 14q8 -1 19.5 -4.5t25.5 -14.5l39 -32q64 52 89 52q13 0 13 -15q0 -8 -13.5 -19.5t-30.5 -22.5t-34 -19t-24 -8q-8 0 -25 7.5t-34 18t-30 22.5t-13 21z
" />
    <glyph glyph-name="zcaron" unicode="&#x17e;" horiz-adv-x="428" 
d="M392 557q0 -3 -57 -112q-45 -86 -75.5 -146.5t-52 -106.5t-37.5 -81.5t-32 -72.5q30 -13 140 -13q22 0 36.5 2t25 8.5t18.5 18.5t18 32q5 -8 5 -23q0 -22 -9 -58q-13 0 -39 0.5t-54.5 1t-54.5 1t-39 0.5q-7 0 -20 -3.5t-20 -3.5q-54 0 -83 2t-29 16q0 7 39 87
q215 436 215 437q0 14 -20 16.5t-73 2.5q-6 0 -18 -1t-26 -1.5t-28.5 -1.5t-24.5 -1q-3 0 -6 0.5t-5 0.5q-7 -9 -17.5 -21.5t-24.5 -28.5q0 5 -2 16.5t-2 17.5q0 21 11 48h9q8 0 15 -10q7 0 17.5 -0.5t20.5 -1.5t17.5 -1.5t8.5 -0.5q9 0 21 0.5t26 0.5h57h72t77 -1v-19z
M115 696q0 14 18 14q8 -1 19.5 -4.5t25.5 -14.5l39 -32q64 52 89 52q13 0 13 -15q0 -8 -13.5 -19.5t-30.5 -22.5t-34 -19t-24 -8q-8 0 -25 7.5t-34 18t-30 22.5t-13 21z" />
    <glyph glyph-name="circumflex" unicode="&#x2c6;" horiz-adv-x="514" 
d="M396 664q0 -15 -17 -15q-19 0 -45 20l-40 32q-65 -53 -89 -53q-13 0 -13 16q0 8 13.5 20t31 22.5t34.5 18t23 7.5q9 0 26 -7.5t34 -18.5t29.5 -22.5t12.5 -19.5z" />
    <glyph glyph-name="caron" unicode="&#x2c7;" horiz-adv-x="514" 
d="M192 696q0 14 18 14q8 -1 19.5 -4.5t25.5 -14.5l39 -32q64 52 89 52q13 0 13 -15q0 -8 -13.5 -19.5t-30.5 -22.5t-34 -19t-24 -8q-8 0 -25 7.5t-34 18t-30 22.5t-13 21z" />
    <glyph glyph-name="ring" unicode="&#x2da;" 
d="M384 664q0 -29 -24.5 -45.5t-60.5 -16.5q-35 0 -60 16.5t-25 45.5q0 27 25.5 44t59.5 17q35 0 60 -17t25 -44zM363 664q0 20 -18.5 32.5t-45.5 12.5t-44.5 -12.5t-17.5 -32.5t17 -32.5t45 -12.5t46 12.5t18 32.5z" />
    <glyph glyph-name="tilde" unicode="&#x2dc;" 
d="M413 719q0 -11 -7 -23t-18 -22t-24 -16t-25 -6q-9 0 -27 8.5t-36.5 18.5t-33.5 18.5t-18 8.5q-11 0 -21 -16q-2 -9 -6 -17q-3 -7 -6.5 -13t-7.5 -8q-9 4 -9 13q0 11 7 22.5t17.5 20.5t22.5 14.5t22 5.5q12 0 31.5 -7.5t38 -17t33.5 -17t18 -7.5q8 0 12.5 4t8.5 11t8 16
t11 20q9 -8 9 -11z" />
    <glyph glyph-name="endash" unicode="&#x2013;" horiz-adv-x="302" 
d="M273 360q-14 -11 -34 -11q-5 0 -16.5 1t-24.5 2.5t-24.5 2.5t-15.5 1q-8 0 -23 -3.5t-22 -3.5h-38t-31 2.5t-20.5 8.5t-7.5 18q0 10 3 21q29 1 56 1.5t53 0.5h33q25 0 52 -0.5t56 -1.5q4 -11 4 -30v-9z" />
    <glyph glyph-name="emdash" unicode="&#x2014;" horiz-adv-x="600" 
d="M547 360q-14 -11 -34 -11q-12 0 -36.5 1t-52 2.5t-52 2.5t-36.5 1q-8 0 -24 -1t-33 -2.5t-33 -2.5t-24 -1q-12 0 -35 1t-48.5 2.5t-48 2.5t-32.5 1q-3 10 -3 22q0 10 3 21q29 1 80 1.5t126 0.5h78q72 0 122 -0.5t79 -1.5q4 -11 4 -24v-15v0z" />
    <glyph glyph-name="quoteleft" unicode="&#x2018;" horiz-adv-x="176" 
d="M30 686q0 11 5.5 25.5t14.5 28.5t19.5 24t20.5 12q4 -4 4 -13q0 -6 -3 -19.5t-3 -20.5q0 -14 16 -30l28 -23v-12q-6 -9 -21.5 -18.5t-26.5 -9.5q-24 0 -39 16t-15 40z" />
    <glyph glyph-name="quoteright" unicode="&#x2019;" horiz-adv-x="155" 
d="M135 733q0 -9 -5.5 -24t-14.5 -29.5t-20 -25t-21 -11.5q-4 4 -4 13q0 6 3 19.5t3 20.5q-2 5 -5 13t-11 16l-27 24v12q6 9 21 18.5t26 9.5q24 0 39.5 -16t15.5 -40z" />
    <glyph glyph-name="quotedblleft" unicode="&#x201c;" horiz-adv-x="272" 
d="M29 693q0 9 5.5 23.5t14.5 29t19.5 25t20.5 11.5q4 -4 4 -12q0 -7 -3 -20.5t-3 -19.5q0 -15 16 -30l28 -24v-11q-6 -10 -21.5 -19.5t-26.5 -9.5q-24 0 -39 16t-15 41zM138 693q0 9 5.5 23.5t14.5 29t19.5 25t20.5 11.5q4 -4 4 -12q0 -7 -3 -20.5t-3 -19.5q0 -15 16 -30
l28 -24v-11q-6 -10 -21.5 -19.5t-26.5 -9.5q-24 0 -39 16t-15 41z" />
    <glyph glyph-name="quotedblright" unicode="&#x201d;" horiz-adv-x="254" 
d="M125 742q0 -9 -5.5 -24t-14.5 -29.5t-20 -25t-21 -11.5q-4 4 -4 13q0 7 3 20t3 20q0 13 -15 30l-28 24v11q6 10 21 19.5t26 9.5q24 0 39.5 -16t15.5 -41zM234 742q0 -9 -5.5 -24t-14.5 -29.5t-20 -25t-21 -11.5q-4 4 -4 13q0 7 3 20t3 20q0 13 -15 30l-28 24v11
q6 10 21 19.5t26 9.5q24 0 39.5 -16t15.5 -41z" />
    <glyph glyph-name="bullet" unicode="&#x2022;" horiz-adv-x="389" 
d="M334 397q0 -27 -10.5 -51.5t-29 -42.5t-43 -28.5t-52.5 -10.5q-27 0 -51.5 10.5t-42.5 28.5t-29 42t-11 52t11 52.5t29 43t42.5 29t51.5 10.5t51.5 -11t43 -29.5t29.5 -43t11 -51.5z" />
    <glyph glyph-name="ellipsis" unicode="&#x2026;" horiz-adv-x="1679" 
d="M434 42q0 -46 -55 -46q-57 0 -57 55q0 20 16 37t38 17q27 0 42.5 -18t15.5 -45zM902 42q0 -46 -55 -46q-57 0 -57 55q0 20 16 37t38 17q27 0 42.5 -18t15.5 -45zM1371 42q0 -46 -55 -46q-57 0 -57 55q0 20 16 37t38 17q27 0 42.5 -18t15.5 -45z" />
    <glyph glyph-name="Euro" unicode="&#x20ac;" horiz-adv-x="585" 
d="M468 394q-29 -12 -120 -12q-26 0 -71 1.5t-111 1.5q-7 0 -10 -3t-3 -17q0 -10 4.5 -17.5t18.5 -13t39.5 -8.5t66.5 -3q143 0 168 -16q-5 -5 -9 -15q-45 -2 -94 -3.5t-90.5 -4t-68 -6.5t-26.5 -11q0 -13 9.5 -36t27.5 -75q51 -129 140 -129q135 0 214 163q1 -7 1 -15v-17
q0 -8 -0.5 -27t-1.5 -49q-5 -1 -12.5 -1t-18.5 -1q-38 -29 -68.5 -45.5t-58.5 -25t-54.5 -11t-55.5 -2.5q-38 0 -69.5 14.5t-56.5 37.5t-43.5 51t-30.5 55.5t-18 51t-6 37.5q0 4 1 13t1 13q0 10 -4.5 14.5t-11 6t-15 1.5t-17.5 1q-6 11 -8 11q1 19 31 19h14q-1 10 -1 20v21
v11t1 12h-37q-2 4 -4 9t-4 12l48 10q2 36 5.5 60t8 41.5t11 30.5t14.5 27q9 22 28.5 49.5t50.5 51.5t73 40t95 16q18 0 33.5 -2.5t30.5 -8.5t31 -16.5t36 -27.5q11 -10 17.5 -14.5t12.5 -4.5q13 0 22 10q15 -8 15 -19v-107q-8 11 -23 32.5t-32.5 44t-35 42t-30.5 26.5
q-29 15 -85 15q-26 0 -50 -13.5t-44.5 -37.5t-37.5 -56.5t-29 -70.5q-7 -20 -7 -41q0 -34 16 -66q9 0 28 3.5t29 3.5h36q9 0 17 0.5t14 0.5q63 0 164 -12v-20z" />
    <glyph glyph-name="fi" unicode="&#xfb01;" horiz-adv-x="476" 
d="M416 13q-35 -12 -49 -12q-10 0 -29.5 2t-50.5 6q25 31 25 204q0 11 -0.5 26.5t-0.5 35.5v63q0 6 0.5 17.5t1.5 24.5t1.5 25.5t0.5 18.5q0 86 -55 86q-43 0 -97 -15q-4 -108 -6 -193.5t-2 -152.5q0 -115 16 -140q-11 -2 -23.5 -3.5t-26.5 -1.5q-2 0 -22.5 0.5t-60.5 1.5
l20 18q0 8 1 29t2.5 45.5t3 47.5t1.5 35q0 21 -0.5 64.5t-1 91t-1 90.5t-0.5 64q0 14 -12.5 22t-24.5 15q28 4 40 57q10 43 22 70.5t29.5 43t41 21t57.5 5.5q95 0 95 -46q0 -5 -8 -12t-14 -7q-7 0 -14.5 6t-15.5 13t-16.5 13t-17.5 6q-34 0 -52 -36t-18 -93q0 -37 58 -37
q37 0 86 13t95 27q15 -35 15 -109q0 -12 -1 -35.5t-2.5 -50t-2.5 -50t-1 -35.5v-188q0 -1 3.5 -23.5z" />
    <glyph glyph-name="fl" unicode="&#xfb02;" horiz-adv-x="473" 
d="M368 8q-20 0 -37 2.5t-31 4.5q19 19 19 49q0 8 -2.5 23.5t-2.5 23.5q0 9 1 28.5t2 41t2 41t1 28.5q0 14 -1 23t-2.5 19t-2.5 24t-1 38q0 16 0.5 40t0.5 56v96q0 6 0.5 17t1.5 23t1.5 23t0.5 17q0 38 -19 55t-74 17q-33 0 -51.5 -36t-18.5 -93q0 -33 26 -33q6 0 17.5 1
t17.5 1h9l8 -12q-3 -5 -13 -6.5t-22 -3t-22.5 -4t-12.5 -7.5q-4 -108 -6 -196t-2 -160q0 -34 0.5 -57.5t2.5 -39.5t5 -26t8 -17q-28 -5 -57 -5q-8 0 -19.5 0.5t-23 0.5t-21 0.5t-12.5 0.5q12 7 20 18q0 8 1 29t2.5 45.5t3 47.5t1.5 35q0 8 -3 23t-3 23q0 9 0.5 26.5t1 36.5
t1 36t0.5 26v139q0 14 -12.5 22t-24.5 15q18 3 23.5 7t6.5 11.5t1 20.5t7 34q10 33 23 56.5t30.5 38.5t41.5 22t57 7q8 0 23 -1t31.5 -1.5t31.5 -1.5t23 -1q7 0 18 2.5t22.5 6t23.5 6t22 2.5l1 -668q0 -25 24 -61h-68z" />
    </font>
</defs>
</svg>
